<svg id="Слой_1" xmlns="http://www.w3.org/2000/svg" viewBox="0 0 321.6 68"><style>.st0{fill:#671700}.st1{enable-background:new}.st2{fill:#c9a468}</style><path class="st0" d="M67.3 51.5l1.1-.8c-9.3-11.4-18.7-11-29.9-9.1-8.2 1.4-11.4-4.9-9.1-7.7 1-1.2 2.7-1.3 3.5-.4-1.7.1-2.3 2.9-.8 3.8 2 1.3 4.1-1.1 4-3.3-.1-1.6-1.9-5-6.5-3.6-6.7 2.1-5 13.3 6.5 13.5 9.2.2 17.6-6.4 31.2 7.6zM6.7 56.7c.8-1.4 1.1-3.2 6.4-6.1 1.8-1 3.3-2 4.1-3.3 1.3-2.1 1.3-5.6.2-6.9.9-.2 7.5 4.1 1.8 8.9-4.5 3.8-8.5 2-12.5 7.4zM1.5 66.7c-1.7-.3-2.3-4.1.3-5.1C5 60.4 8.2 64.1 9 66.2c-1-.6-4.2-2.6-6.3-1.9-.8.3-1.3 1-1.2 2.4zM10 65c-4.8-4.2-3.1-8.8.3-9.8 3.6-1 6.6 3.3 3.8 5.7 0-2.1-2-2.2-3.3-1.8-1.5.5-1.9 2.7-.8 5.9z"/><path class="st0" d="M10.2 65.1c2.1 1 5.5 2.3 10.2-5.2 2.4-3.7 5.9-7.9 9.8-10.7 3.9-2.9 7.5-3.7 10.4-4.1-16.4 9.1-13.2 15.8-19.7 20.4-3.9 2.8-8.4 2.5-10.7-.4z"/><path class="st0" d="M60.5 48.2c-1-.3-4.5-3.1-11.1-.9-3.4 1.1-5.2 3.7-5.5 6.1-.2 2.4.5 4.7 2.1 5.7 2.9 1.9 7.1 1.3 7.8-2.1.7-3.4-3.1-4.7-3.8-4.9 1-1.6 4.8-1.4 6.3-.3 1.5 1.1 1.3 3 1.4 4.8.2.7 2.6.7 3 .5.1 1.5-.6 3.3-3.1 3.2 0 0-.2 1.5-.1 2.5-.5.7-2.3.8-2.9.9-.1.3 0 1.3.4 2.5-1.1.7-5.3.8-6.7-.1-.3.1-.3 1.1-.5 2-5.4.3-6.4-2-6.3-4-.3.1-6.1 2.7-5.8-7.7.5-16.2 22.9-13.1 24.8-8.2zM254.3 51.4c13.6-14 22-7.4 31.2-7.5 11.5-.2 13.2-11.4 6.5-13.5-4.6-1.4-6.5 2-6.5 3.6-.1 2.2 2 4.6 4 3.3 1.5-.9.9-3.7-.8-3.8.8-.9 2.5-.8 3.5.4 2.3 2.8-.9 9.1-9.1 7.7-11.1-2-20.5-2.3-29.9 9.1l1.1.7zM314.9 56.6c-4-5.4-8-3.6-12.4-7.4-5.7-4.8.9-9.1 1.8-8.9-1.2 1.3-1.1 4.8.2 6.9.8 1.3 2.3 2.3 4.1 3.3 5.2 2.9 5.5 4.7 6.3 6.1zM320.1 66.6c.1-1.4-.4-2.2-1.3-2.4-2.1-.7-5.3 1.3-6.3 1.9.8-2.1 4-5.9 7.2-4.6 2.7 1 2.1 4.8.4 5.1zM311.6 64.9c1.1-3.2.7-5.4-.8-5.8-1.3-.4-3.3-.3-3.3 1.8-2.7-2.4.3-6.8 3.8-5.7 3.4.9 5.1 5.6.3 9.7z"/><path class="st0" d="M311.4 65c-2.3 2.9-6.7 3.1-10.7.3-6.5-4.6-3.3-11.3-19.8-20.3 3 .4 6.5 1.3 10.4 4.1s7.5 7 9.8 10.7c4.8 7.6 8.1 6.3 10.3 5.2z"/><path class="st0" d="M261.1 48.1c1.9-4.9 24.3-8 24.8 8.2.3 10.4-5.5 7.8-5.8 7.7 0 2.1-.9 4.3-6.4 4-.2-.9-.3-1.9-.5-2-1.4.9-5.6.8-6.7.1.5-1.2.5-2.2.4-2.5-.6 0-2.4-.1-2.9-.9.1-1-.1-2.5-.1-2.5-2.5.1-3.2-1.7-3.1-3.2.4.2 2.8.1 3-.5.1-1.8-.1-3.7 1.4-4.8s5.3-1.3 6.3.3c-.8.2-4.6 1.4-3.8 4.9.8 3.5 4.9 4 7.8 2.1 1.6-1 2.3-3.3 2.1-5.7-.2-2.5-2.1-5.1-5.5-6.1-6.5-2.1-10 .6-11 .9z"/><g class="st1"><path class="st2" d="M81.9 32.1c.3.1.6.3.8.6.2.2.4.5.5.8.1.3.2.7.2 1 0 .4-.1.7-.2 1-.1.3-.3.6-.5.8-.2.2-.5.4-.8.5s-.7.2-1 .2c-.4 0-.7-.1-1-.2s-.6-.3-.8-.5c-.2-.2-.4-.5-.5-.8-.1-.3-.2-.6-.2-1 0-.6.1-1.2.2-1.8.2-.6.4-1.1.7-1.5.3-.4.7-.8 1.2-1.1.5-.3 1-.4 1.7-.4 1.5 0 2.6.4 3.3 1.3 0 0 .1.1.1.2.1.1.2.3.3.4.1.2.2.3.3.4l.2.2h.1v-2.6h4.2V68h-4.2V48l-4.2 3.4V68h-4.2V52.7l7.8-6.2v-1l-.4.2c-.2.1-.5.3-.8.5s-.7.3-1.1.5c-.4.1-.8.2-1.2.2-.6 0-1.1-.1-1.7-.4-.5-.3-1-.6-1.3-1.1-.4-.4-.7-1-.9-1.5s-.3-1.2-.3-1.7c0-.7.1-1.2.2-1.7.1-.4.4-.8.6-1.1s.6-.5 1-.7c.4-.2.9-.4 1.4-.6.4-.2.8-.4 1.3-.6.5-.2 1-.5 1.5-.8s.9-.6 1.2-.9.5-.6.5-.8v-2c0-.3-.1-.5-.3-.8-.2-.3-.4-.6-.7-.8s-.6-.5-1-.7c-.3-.2-.7-.3-.9-.3h-.9c-.3 0-.6.1-.9.1-.3.1-.5.2-.7.3-.2.1-.3.3-.3.6 0 0 0 .1.1.1s.1.1.2.1.2.1.2.1h.1c.5.1.8.2 1.1.4zm4 4.2c-.4.4-.8.8-1.2 1.1l-1.2 1.2c-.4.4-.6.8-.8 1.4-.2.5-.3 1.1-.3 1.6 0 .4 0 .8.1 1.2.1.4.2.8.4 1.1.2.3.4.6.6.8.2.2.5.3.9.3 1.5 0 2.2-.6 2.2-1.8v-7h-.7zM105 35.8v-5.3h-2V68h-4.4V30.5h-2.1v9.9h-4.2V29.6h17v6.2H105zM114.5 32.1c.3.1.6.3.8.6.2.2.4.5.5.8.1.3.2.7.2 1 0 .4-.1.7-.2 1-.1.3-.3.6-.5.8-.2.2-.5.4-.8.5s-.7.2-1 .2c-.4 0-.7-.1-1-.2s-.6-.3-.8-.5c-.2-.2-.4-.5-.5-.8-.1-.3-.2-.6-.2-1 0-.6.1-1.2.2-1.8.2-.6.4-1.1.7-1.5.3-.4.7-.8 1.2-1.1.5-.3 1-.4 1.7-.4 1.5 0 2.6.4 3.3 1.3 0 0 .1.1.1.2.1.1.2.3.3.4.1.2.2.3.3.4l.2.2h.1v-2.6h4.2V68h-4.2V48l-4.2 3.4V68h-4.2V52.7l7.8-6.2v-1l-.4.2c-.2.1-.5.3-.8.5s-.7.3-1.1.5c-.4.1-.8.2-1.2.2-.6 0-1.1-.1-1.7-.4-.5-.3-1-.6-1.3-1.1-.4-.4-.7-1-.9-1.5s-.3-1.2-.3-1.7c0-.7.1-1.2.2-1.7.1-.4.4-.8.6-1.1s.6-.5 1-.7c.4-.2.9-.4 1.4-.6.4-.2.8-.4 1.3-.6.5-.2 1-.5 1.5-.8s.9-.6 1.2-.9.5-.6.5-.8v-2c0-.3-.1-.5-.3-.8-.2-.3-.4-.6-.7-.8s-.6-.5-1-.7c-.3-.2-.7-.3-.9-.3h-.9c-.3 0-.6.1-.9.1-.3.1-.5.2-.7.3-.2.1-.3.3-.3.6 0 0 0 .1.1.1s.1.1.2.1.2.1.2.1h.1c.5.1.8.2 1.1.4zm4 4.2c-.4.4-.8.8-1.2 1.1l-1.2 1.2c-.4.4-.6.8-.8 1.4-.2.5-.3 1.1-.3 1.6 0 .4 0 .8.1 1.2.1.4.2.8.4 1.1.2.3.4.6.6.8.2.2.5.3.9.3 1.5 0 2.2-.6 2.2-1.8v-7h-.7zM129.2 32c.3.1.6.3.8.6s.4.5.5.8c.1.3.2.7.2 1 0 .4-.1.7-.2 1-.1.3-.3.6-.5.8-.2.2-.5.4-.8.5-.3.1-.7.2-1 .2-.4 0-.7-.1-1-.2-.3-.1-.6-.3-.8-.5-.2-.2-.4-.5-.5-.8-.1-.3-.2-.6-.2-1 0-.6.1-1.2.2-1.8.2-.6.4-1.1.7-1.5.3-.5.7-.8 1.2-1.1.5-.3 1-.4 1.7-.4.6 0 1.1 0 1.5.1.4.1.8.2 1.1.4s.6.5.8.8c.2.3.5.8.7 1.3v-2.6h4.4v22.7l3-7.3c.1-.2.1-.3.1-.5v-.4c0-.3-.1-.6-.2-1l-1.3-1.6.8-2.9 1.8 2v-11h4.5V68h-4.5V45l-2.5 6.4c-.4 1-.5 1.8-.5 2.5v.5c0 .1.1.3.1.4l1.1 1.4-.7 3.1-1.7-1.9V68h-4.4V48.2l-4 3.2V68h-4.2V52.7l7.8-6.2v-1l-.4.2c-.2.1-.5.3-.8.5-.3.2-.7.3-1.1.5-.4.1-.8.2-1.2.2-.6 0-1.1-.1-1.7-.4-.5-.3-1-.6-1.3-1.1-.4-.4-.7-1-.9-1.5-.2-.6-.3-1.2-.3-1.7 0-.7.1-1.2.2-1.7.1-.4.4-.8.6-1.1.3-.3.6-.5 1-.7.4-.2.9-.4 1.4-.6.4-.2.8-.4 1.3-.6.5-.2 1-.5 1.5-.8.5-.3.9-.6 1.2-.9.3-.3.5-.6.5-.9V33c0-.3-.1-.5-.3-.8-.2-.3-.5-.6-.8-.8-.3-.3-.6-.5-1-.7-.3-.2-.7-.3-.9-.3h-.9c-.4 0-.6.1-.9.1s-.5.2-.7.3c-.2.1-.3.3-.3.6 0 0 0 .1.1.1s.1.1.2.1.1.1.2.1h.1c.6.1.9.2 1.2.3zm4 4.3c-.4.4-.8.8-1.2 1.1l-1.2 1.2c-.4.4-.6.8-.8 1.4-.2.5-.3 1.1-.3 1.6 0 .4 0 .8.1 1.2.1.4.2.8.4 1.1.2.3.4.6.6.8.2.2.5.3.9.3 1 0 1.6-.3 2-.9v-7.9l-.5.1zM152.4 32.1c.3.1.6.3.8.6.2.2.4.5.5.8.1.3.2.7.2 1 0 .4-.1.7-.2 1-.1.3-.3.6-.5.8-.2.2-.5.4-.8.5s-.7.2-1 .2c-.4 0-.7-.1-1-.2s-.6-.3-.8-.5c-.2-.2-.4-.5-.5-.8-.1-.3-.2-.6-.2-1 0-.6.1-1.2.2-1.8.2-.6.4-1.1.7-1.5.3-.4.7-.8 1.2-1.1.5-.3 1-.4 1.7-.4 1.5 0 2.6.4 3.3 1.3 0 0 .1.1.1.2.1.1.2.3.3.4.1.2.2.3.3.4l.2.2h.1v-2.6h4.2V68H157V48l-4.2 3.4V68h-4.2V52.7l7.8-6.2v-1l-.4.2c-.2.1-.5.3-.8.5s-.7.3-1.1.5c-.4.1-.8.2-1.2.2-.6 0-1.1-.1-1.7-.4-.5-.3-1-.6-1.3-1.1-.4-.4-.7-1-.9-1.5s-.3-1.2-.3-1.7c0-.7.1-1.2.2-1.7.1-.4.4-.8.6-1.1s.6-.5 1-.7c.4-.2.9-.4 1.4-.6.4-.2.8-.4 1.3-.6.5-.2 1-.5 1.5-.8s.9-.6 1.2-.9.5-.6.5-.8v-2c0-.3-.1-.5-.3-.8-.2-.3-.4-.6-.7-.8s-.6-.5-1-.7c-.3-.2-.7-.3-.9-.3h-.9c-.3 0-.6.1-.9.1-.3.1-.5.2-.7.3-.2.1-.3.3-.3.6 0 0 0 .1.1.1s.1.1.2.1.2.1.2.1h.1c.5.1.8.2 1.1.4zm4 4.2c-.4.4-.8.8-1.2 1.1l-1.2 1.2c-.4.4-.6.8-.8 1.4-.2.5-.3 1.1-.3 1.6 0 .4 0 .8.1 1.2.1.4.2.8.4 1.1.2.3.4.6.6.8.2.2.5.3.9.3 1.5 0 2.2-.6 2.2-1.8v-7h-.7zM172 52.3V29.6h4.4V68H172V57.3l-1.7 1.9-.7-3.1 1.1-1.4c.1-.1.1-.2.1-.4v-.5c0-.7-.2-1.5-.5-2.5l-2.5-6.4v23h-4.5V29.6h4.5v11l1.8-2 .8 2.9-1.3 1.6c-.2.2-.2.5-.2 1v.4c0 .1.1.3.1.5l3 7.3zM187.5 33.3c0-.3-.1-.6-.2-.9s-.3-.5-.5-.7-.5-.4-.7-.5-.6-.2-.9-.2c-.3 0-.5.1-.8.2s-.5.3-.6.6-.3.5-.4.8-.2.6-.2.9v29.2c0 2.5.3 3.7.9 3.7.4 0 .8-.2 1.2-.5s.6-.8.9-1.4.5-1.3.6-2.1.3-1.6.4-2.4.2-1.7.2-2.5.1-1.6.1-2.3h4.2c0 3.9-.9 7.1-2.7 9.4-1.7 2.2-3.9 3.4-6.6 3.4-.5 0-1 0-1.4-.1s-.9-.2-1.3-.4-.7-.4-1-.7-.4-.6-.4-1c0-.9.1-1.5.3-1.9.3-.5.8-.8 1.7-.8.1 0 .3.1.5.4s.3.5.5.8.3.5.5.8.3.4.3.4c-.2-.9-.4-2-.7-3.1s-.5-2.3-.7-3.5-.4-2.4-.6-3.7-.4-2.4-.5-3.6-.3-2.2-.4-3.2-.1-1.9-.1-2.6c0-4.3.5-7.9 1.4-10.8 1.1-3.5 2.7-5.3 4.8-5.3 1.5 0 2.6.2 3.5.7s1.5 1.2 2 2.1.7 1.9.9 3.1.2 2.5.2 3.9v3h-4.2v-9.2zM193.5 68V29.6h4.3V45h.3c.8-1.3 2-2.4 3.9-3.4v-12h4.5v12c-.3 0-.8.1-1.3.2s-1 .4-1.6.6-1.1.6-1.6.9-1 .7-1.4 1.1-.8.8-1 1.2-.4.8-.4 1.2c0 .5.1.9.4 1.3s.6.8 1 1.1.9.7 1.4.9 1.1.5 1.6.7 1.1.3 1.6.4.9.2 1.3.2V68H202V51.6c-1.6-.5-2.9-1.5-3.9-3h-.3V68h-4.3zM212 32.1c.3.1.6.3.8.6s.4.5.5.8.2.7.2 1c0 .4-.1.7-.2 1s-.3.6-.5.8-.5.4-.8.5-.7.2-1 .2c-.4 0-.7-.1-1-.2s-.6-.3-.8-.5-.4-.5-.5-.8-.2-.6-.2-1c0-.6.1-1.2.2-1.8s.4-1.1.7-1.5.7-.8 1.2-1.1 1-.4 1.7-.4c1.5 0 2.6.4 3.3 1.3 0 0 .1.1.1.2s.2.3.3.4.2.3.3.4l.2.2h.1v-2.6h4.2V68h-4.2V48l-4.2 3.4V68h-4.2V52.7l7.8-6.2v-1l-.4.2c-.2.1-.5.3-.8.5s-.7.3-1.1.5-.8.2-1.2.2c-.6 0-1.1-.1-1.7-.4s-1-.6-1.3-1.1-.7-1-.9-1.5-.3-1.2-.3-1.7c0-.7.1-1.2.2-1.7s.4-.8.6-1.1.6-.5 1-.7.9-.4 1.4-.6c.4-.2.8-.4 1.3-.6s1-.5 1.5-.8.9-.6 1.2-.9.5-.6.5-.8v-2c0-.3-.1-.5-.3-.8s-.4-.6-.7-.8-.6-.5-1-.7-.7-.3-.9-.3h-.9c-.4 0-.6.1-.9.1s-.5.2-.7.3-.3.3-.3.6c0 0 0 .1.1.1s.1.1.2.1.2.1.2.1h.1c.5.1.8.2 1.1.4zm4 4.2c-.4.4-.8.8-1.2 1.1s-.8.8-1.2 1.2c-.4.4-.6.8-.8 1.4s-.3 1.1-.3 1.6c0 .4 0 .8.1 1.2s.2.8.4 1.1.4.6.6.8.5.3.9.3c1.5 0 2.2-.6 2.2-1.8v-7h-.7zM229.5 68V51.5h-1.9c-.3.6-.6 1.6-.9 2.9-.4 1.3-.8 2.9-1.2 4.8-.4 1.7-.7 3.3-1 4.7-.3 1.4-.6 2.8-.8 4h-1.4c1.2-7.7 2.8-14.7 5.1-21.1s5-12.2 8.2-17.3c.2 1.7.5 3.3.9 4.9s.8 3.3 1.3 4.9l2.9 9.7c1.2 4.1 2.1 7.7 2.7 10.8s.9 5.8.9 8h-4.5c-.1-1.4-.3-2.9-.6-4.7-.3-1.7-.7-3.7-1.3-5.9-.2-.8-.4-1.6-.6-2.3s-.4-1.3-.5-1.9l-.5-1.7h-2.5V68h-4.3zm6.5-17.4c-.1-.6-.4-1.5-.7-2.7s-.7-2.7-1.2-4.5c-.3-1.1-.6-2.1-.9-3s-.5-1.6-.7-2.2c-.1 0-.2.2-.3.5s-.3.7-.6 1.2-.4 1.1-.7 1.8-.5 1.4-.8 2.1-.5 1.4-.7 2.2-.5 1.4-.7 2-.4 1.1-.5 1.6-.3.8-.3 1h8.1z"/></g><path class="st0" d="M105 16.3c.7.1 1.3.3 1.9.5v.6h-5.5v-.6c.5-.2 1.1-.4 1.6-.5V4.4c-.3-.1-.5-.1-.8-.2-.3-.1-.6-.2-.8-.3v-.6h9.4v2c0 .4 0 .7-.1 1.1 0 .4-.1.7-.1 1h-.6l-1-3h-4v11.9zM112 10.3c0-1 .1-2 .4-2.9.3-.9.7-1.7 1.2-2.3.5-.6 1.2-1.1 2-1.5.8-.4 1.7-.5 2.7-.5s1.9.2 2.7.5c.8.4 1.4.9 2 1.5.5.6 1 1.4 1.2 2.3.3.9.4 1.9.4 2.9s-.1 2-.4 2.9c-.3.9-.7 1.7-1.2 2.3-.5.6-1.2 1.1-2 1.5-.8.4-1.7.5-2.7.5s-1.9-.2-2.7-.5c-.8-.4-1.5-.9-2-1.5s-1-1.4-1.2-2.3c-.2-.9-.4-1.8-.4-2.9zm2.2 0c0 .9.1 1.7.3 2.4.2.8.4 1.4.8 2 .4.6.8 1 1.4 1.3.5.3 1.2.5 1.9.5s1.3-.2 1.8-.5.9-.8 1.3-1.3.6-1.2.7-2c.2-.8.3-1.6.3-2.4 0-.9-.1-1.7-.3-2.4-.2-.8-.4-1.4-.8-2s-.8-1-1.4-1.3c-.5-.3-1.2-.5-1.9-.5s-1.4.2-1.9.5-.9.8-1.3 1.3c-.3.6-.6 1.2-.7 2-.1.8-.2 1.6-.2 2.4zM136.7 13.7h.5c.1.4.1.8.2 1.4.1.6.1 1.1 0 1.6-.2.2-.4.3-.7.4l-.9.3c-.3.1-.6.1-1 .1h-.9c-1.1 0-2.1-.1-3-.4-.9-.3-1.6-.7-2.2-1.3-.6-.6-1.1-1.3-1.4-2.3-.3-.9-.5-2-.5-3.3 0-1.3.2-2.4.5-3.3.4-.9.8-1.7 1.5-2.2.6-.6 1.3-1 2.1-1.3.8-.3 1.7-.4 2.6-.4.9 0 1.6.1 2.2.2s1.1.3 1.6.5v.8c0 .3 0 .6-.1.9 0 .3-.1.6-.1.9s0 .7-.1.9h-.5l-1-2.9c-.1-.1-.4-.1-.7-.2h-1c-.7 0-1.3.1-1.9.4-.6.2-1.1.6-1.6 1.1s-.8 1.2-1.1 1.9c-.3.8-.4 1.7-.4 2.8 0 .9.1 1.8.4 2.6.2.8.6 1.4 1 2 .5.5 1 1 1.7 1.2.7.3 1.4.4 2.2.4.4 0 .8 0 1.1-.1s.5-.2.6-.3l.9-2.4zM147.2 17.3h-5.6v-.6l.9-.3c.3-.1.6-.1 1-.2V4.4h-3.1l-1.1 2.9h-.5c0-.3-.1-.6-.1-.9 0-.3 0-.7-.1-1 0-.4 0-.7-.1-1v-.9h11.6v.9c0 .3 0 .7-.1 1 0 .4 0 .7-.1 1 0 .3-.1.6-.1.9h-.5l-1.1-2.9h-3v11.9c.3.1.7.1 1 .2l.9.3v.5zM156.2 17.3h-5.1v-.6c.5-.2 1.1-.4 1.6-.5V4.4c-.3-.1-.5-.1-.8-.2-.3-.1-.6-.2-.8-.3v-.6h5.1v.6c-.2.1-.4.2-.7.3s-.5.2-.8.2v8.7l-.2 1.5 1-1.6 5.9-8.1v-.5c-.3-.1-.6-.1-.9-.2-.3-.1-.5-.2-.8-.3v-.6h5.1v.6c-.2.1-.5.2-.8.3-.3.1-.6.2-.9.2v11.9c.6.1 1.2.3 1.6.5v.6h-5.1v-.6c.2-.1.4-.2.7-.3.3-.1.5-.2.8-.2V7.6l.2-1.5-.9 1.5-5.9 8.2v.4c.3.1.6.1.9.2s.5.2.8.3v.6zM171 17.3h-5.1v-.6c.5-.2 1.1-.4 1.6-.5V4.4c-.6-.1-1.2-.3-1.6-.5v-.6h5.1v.6c-.2.1-.5.2-.7.3s-.5.1-.8.2v5.2h6.3V4.4c-.3-.1-.5-.1-.8-.2s-.5-.2-.7-.3v-.6h5.1v.6c-.2.1-.5.2-.8.3-.3.1-.6.1-.9.2v11.9c.3.1.6.1.9.2.3.1.5.2.8.3v.6h-5.1v-.6c.5-.2 1-.4 1.5-.5v-5.6h-6.3v5.6c.3.1.5.1.8.2s.5.2.7.3v.5zM185.5 17.3h-5.1v-.6c.5-.2 1.1-.4 1.6-.5V4.4c-.3-.1-.5-.1-.8-.2-.3-.1-.6-.2-.8-.3v-.6h5.1v.6c-.2.1-.4.2-.7.3s-.5.2-.8.2v8.7l-.2 1.5 1-1.6 5.9-8.1v-.5c-.3-.1-.6-.1-.9-.2-.3-.1-.5-.2-.8-.3v-.6h5.1v.6c-.2.1-.5.2-.8.3s-.6.2-.9.2v11.9c.6.1 1.2.3 1.6.5v.6h-5v-.6c.2-.1.4-.2.7-.3.3-.1.5-.2.8-.2V7.6l.2-1.5-.9 1.5-5.9 8.2v.4c.3.1.6.1.9.2s.5.2.8.3v.6zM195.3 17.3v-.6c.4-.2.9-.3 1.6-.5V4.4c-.5-.1-1.1-.2-1.6-.5v-.6h5.1v.6c-.4.2-.9.3-1.5.5v11.9h6V4.4c-.2-.1-.5-.1-.7-.2s-.5-.2-.8-.3v-.6h5.1v.6c-.5.2-1.1.4-1.6.5v11.9h2.3v.9c0 .4-.1.7-.1 1.1 0 .4-.1.7-.1 1.1 0 .4-.1.7-.2.9h-.5l-.9-3h-12.1zM213.8 17.3h-4.4v-.6c.5-.2 1-.4 1.4-.5L215.9 3h.6l5.1 13.2c.3.1.5.1.8.2.3.1.5.2.7.3v.6h-5.2v-.6c.3-.1.5-.2.8-.3.3-.1.6-.1.8-.2l-1.4-3.7h-4.8l-1.3 3.7c.6.1 1.1.2 1.7.5v.6zm0-5.7h4l-1.6-4.2-.4-1.7-.5 1.8-1.5 4.1z"/></svg>