<?xml version="1.0" encoding="utf-8"?>
<!-- Generator: Adobe Illustrator 21.0.2, SVG Export Plug-In . SVG Version: 6.00 Build 0)  -->
<svg version="1.1" id="hotelAtaman" xmlns="http://www.w3.org/2000/svg" xmlns:xlink="http://www.w3.org/1999/xlink" x="0px"
	 y="0px" viewBox="0 0 327.1 53.8" style="enable-background:new 0 0 327.1 53.8;" xml:space="preserve">
<style type="text/css">
	.hotel-title-0{fill:#671700;}
	.hotel-title-1{fill:#C9A468;}
</style>
<path class="hotel-title-0" d="M67.3,37.1l1.1-0.8c-9.3-11.4-18.7-11-29.9-9.1c-8.2,1.4-11.4-4.9-9.1-7.7c1-1.2,2.7-1.3,3.5-0.4
	c-1.7,0.1-2.3,2.9-0.8,3.8c2,1.3,4.1-1.1,4-3.3c-0.1-1.6-1.9-5-6.5-3.6c-6.7,2.1-5,13.3,6.5,13.5C45.3,29.7,53.7,23.1,67.3,37.1
	L67.3,37.1z"/>
<path class="hotel-title-0" d="M6.7,42.3c0.8-1.4,1.1-3.2,6.4-6.1c1.8-1,3.3-2,4.1-3.3c1.3-2.1,1.3-5.6,0.2-6.9c0.9-0.2,7.5,4.1,1.8,8.9
	C14.7,38.7,10.7,36.9,6.7,42.3L6.7,42.3z"/>
<path class="hotel-title-0" d="M1.5,52.3c-1.7-0.3-2.3-4.1,0.3-5.1C5,46,8.2,49.7,9,51.8c-1-0.6-4.2-2.6-6.3-1.9C1.9,50.2,1.4,50.9,1.5,52.3
	L1.5,52.3z"/>
<path class="hotel-title-0" d="M10,50.6c-4.8-4.2-3.1-8.8,0.3-9.8c3.6-1,6.6,3.3,3.8,5.7c0-2.1-2-2.2-3.3-1.8C9.3,45.2,8.9,47.4,10,50.6
	L10,50.6z"/>
<path class="hotel-title-0" d="M10.2,50.7c2.1,1,5.5,2.3,10.2-5.2c2.4-3.7,5.9-7.9,9.8-10.7c3.9-2.9,7.5-3.7,10.4-4.1
	c-16.4,9.1-13.2,15.8-19.7,20.4C17,53.9,12.5,53.6,10.2,50.7L10.2,50.7z"/>
<path class="hotel-title-0" d="M60.5,33.8c-1-0.3-4.5-3.1-11.1-0.9C46,34,44.2,36.6,43.9,39c-0.2,2.4,0.5,4.7,2.1,5.7c2.9,1.9,7.1,1.3,7.8-2.1
	c0.7-3.4-3.1-4.7-3.8-4.9c1-1.6,4.8-1.4,6.3-0.3c1.5,1.1,1.3,3,1.4,4.8c0.2,0.7,2.6,0.7,3,0.5c0.1,1.5-0.6,3.3-3.1,3.2
	c0,0-0.2,1.5-0.1,2.5c-0.5,0.7-2.3,0.8-2.9,0.9c-0.1,0.3,0,1.3,0.4,2.5c-1.1,0.7-5.3,0.8-6.7-0.1c-0.3,0.1-0.3,1.1-0.5,2
	c-5.4,0.3-6.4-2-6.3-4c-0.3,0.1-6.1,2.7-5.8-7.7C36.2,25.8,58.6,28.9,60.5,33.8L60.5,33.8z"/>
<path class="hotel-title-0" d="M259.9,37.1c13.6-14,22-7.4,31.2-7.5c11.5-0.2,13.2-11.4,6.5-13.5c-4.6-1.4-6.5,2-6.5,3.6c-0.1,2.2,2,4.6,4,3.3
	c1.5-0.9,0.9-3.7-0.8-3.8c0.8-0.9,2.5-0.8,3.5,0.4c2.3,2.8-0.9,9.1-9.1,7.7c-11.1-2-20.5-2.3-29.9,9.1L259.9,37.1L259.9,37.1z"/>
<path class="hotel-title-0" d="M320.5,42.3c-4-5.4-8-3.6-12.4-7.4c-5.7-4.8,0.9-9.1,1.8-8.9c-1.2,1.3-1.1,4.8,0.2,6.9c0.8,1.3,2.3,2.3,4.1,3.3
	C319.4,39.1,319.7,40.9,320.5,42.3L320.5,42.3z"/>
<path class="hotel-title-0" d="M325.7,52.3c0.1-1.4-0.4-2.2-1.3-2.4c-2.1-0.7-5.3,1.3-6.3,1.9c0.8-2.1,4-5.9,7.2-4.6
	C328,48.2,327.4,52,325.7,52.3L325.7,52.3z"/>
<path class="hotel-title-0" d="M317.2,50.6c1.1-3.2,0.7-5.4-0.8-5.8c-1.3-0.4-3.3-0.3-3.3,1.8c-2.7-2.4,0.3-6.8,3.8-5.7
	C320.3,41.8,322,46.5,317.2,50.6L317.2,50.6z"/>
<path class="hotel-title-0" d="M317,50.7c-2.3,2.9-6.7,3.1-10.7,0.3c-6.5-4.6-3.3-11.3-19.8-20.3c3,0.4,6.5,1.3,10.4,4.1s7.5,7,9.8,10.7
	C311.5,53.1,314.8,51.8,317,50.7L317,50.7z"/>
<path class="hotel-title-0" d="M266.7,33.8c1.9-4.9,24.3-8,24.8,8.2c0.3,10.4-5.5,7.8-5.8,7.7c0,2.1-0.9,4.3-6.4,4c-0.2-0.9-0.3-1.9-0.5-2
	c-1.4,0.9-5.6,0.8-6.7,0.1c0.5-1.2,0.5-2.2,0.4-2.5c-0.6,0-2.4-0.1-2.9-0.9c0.1-1-0.1-2.5-0.1-2.5c-2.5,0.1-3.2-1.7-3.1-3.2
	c0.4,0.2,2.8,0.1,3-0.5c0.1-1.8-0.1-3.7,1.4-4.8s5.3-1.3,6.3,0.3c-0.8,0.2-4.6,1.4-3.8,4.9c0.8,3.5,4.9,4,7.8,2.1
	c1.6-1,2.3-3.3,2.1-5.7c-0.2-2.5-2.1-5.1-5.5-6.1C271.2,30.8,267.7,33.5,266.7,33.8L266.7,33.8z"/>
<g>
	<path class="hotel-title-0" d="M107,14.4c0.7,0.1,1.3,0.3,1.9,0.5v0.6h-5.5v-0.6c0.5-0.2,1.1-0.4,1.6-0.5V2.6c-0.3-0.1-0.5-0.1-0.8-0.2
		c-0.3-0.1-0.6-0.2-0.8-0.3V1.5h9.4c0,0.3,0,0.6,0,0.9c0,0.3,0,0.7,0,1.1c0,0.4,0,0.7-0.1,1.1c0,0.4-0.1,0.7-0.1,1h-0.5l-1-3h-4
		V14.4z"/>
	<path class="hotel-title-0" d="M114.1,8.5c0-1,0.1-2,0.4-2.9c0.3-0.9,0.7-1.7,1.2-2.3c0.5-0.6,1.2-1.1,2-1.5c0.8-0.4,1.7-0.5,2.7-0.5
		s1.9,0.2,2.7,0.5c0.8,0.4,1.4,0.9,2,1.5c0.5,0.6,1,1.4,1.2,2.3c0.3,0.9,0.4,1.9,0.4,2.9s-0.1,2-0.4,2.9c-0.3,0.9-0.7,1.7-1.2,2.3
		c-0.5,0.6-1.2,1.1-2,1.5c-0.8,0.4-1.7,0.5-2.7,0.5s-1.9-0.2-2.7-0.5c-0.8-0.4-1.5-0.9-2-1.5c-0.5-0.6-1-1.4-1.2-2.3
		C114.2,10.5,114.1,9.5,114.1,8.5z M116.2,8.5c0,0.9,0.1,1.7,0.3,2.4c0.2,0.8,0.4,1.4,0.8,2c0.4,0.6,0.8,1,1.4,1.3
		c0.5,0.3,1.2,0.5,1.9,0.5c0.7,0,1.3-0.2,1.8-0.5c0.5-0.3,0.9-0.8,1.3-1.3s0.6-1.2,0.7-2c0.2-0.8,0.3-1.6,0.3-2.4
		c0-0.9-0.1-1.7-0.3-2.4c-0.2-0.8-0.4-1.4-0.8-2s-0.8-1-1.4-1.3c-0.5-0.3-1.2-0.5-1.9-0.5c-0.7,0-1.4,0.2-1.9,0.5
		c-0.5,0.3-0.9,0.8-1.3,1.3c-0.3,0.6-0.6,1.2-0.7,2C116.3,6.8,116.2,7.6,116.2,8.5z"/>
	<path class="hotel-title-0" d="M138.8,11.9h0.5c0.1,0.4,0.1,0.8,0.2,1.4c0.1,0.6,0.1,1.1,0,1.6c-0.2,0.2-0.4,0.3-0.7,0.4
		c-0.3,0.1-0.6,0.2-0.9,0.3s-0.6,0.1-1,0.1c-0.3,0-0.6,0-0.9,0c-1.1,0-2.1-0.1-3-0.4c-0.9-0.3-1.6-0.7-2.2-1.3
		c-0.6-0.6-1.1-1.3-1.4-2.3c-0.3-0.9-0.5-2-0.5-3.3c0-1.3,0.2-2.4,0.5-3.3c0.4-0.9,0.8-1.7,1.5-2.2c0.6-0.6,1.3-1,2.1-1.3
		c0.8-0.3,1.7-0.4,2.6-0.4c0.9,0,1.6,0.1,2.2,0.2s1.1,0.3,1.6,0.5c0,0.2,0,0.5,0,0.8c0,0.3,0,0.6-0.1,0.9c0,0.3-0.1,0.6-0.1,0.9
		s-0.1,0.6-0.1,0.8h-0.5l-1-2.9c-0.1-0.1-0.4-0.1-0.7-0.2c-0.3,0-0.7,0-1,0c-0.7,0-1.3,0.1-1.9,0.4c-0.6,0.2-1.1,0.6-1.6,1.1
		s-0.8,1.2-1.1,1.9c-0.3,0.8-0.4,1.7-0.4,2.8c0,0.9,0.1,1.8,0.4,2.6c0.2,0.8,0.6,1.4,1,2c0.5,0.5,1,1,1.7,1.2
		c0.7,0.3,1.4,0.4,2.2,0.4c0.4,0,0.8,0,1.1-0.1s0.5-0.2,0.6-0.3L138.8,11.9z"/>
	<path class="hotel-title-0" d="M149.2,15.5h-5.6v-0.6c0.3-0.1,0.6-0.2,0.9-0.3s0.6-0.1,1-0.2V2.5h-3.1l-1.1,2.9h-0.5c0-0.3-0.1-0.6-0.1-0.9
		c0-0.3,0-0.7-0.1-1c0-0.4,0-0.7-0.1-1c0-0.3,0-0.6,0-0.9h11.6c0,0.3,0,0.6,0,0.9c0,0.3,0,0.7-0.1,1c0,0.4,0,0.7-0.1,1
		c0,0.3-0.1,0.6-0.1,0.9h-0.5l-1.1-2.9h-3v11.9c0.3,0.1,0.7,0.1,1,0.2c0.3,0.1,0.6,0.2,0.9,0.3V15.5z"/>
	<path class="hotel-title-0" d="M158.2,15.5h-5.1v-0.6c0.5-0.2,1.1-0.4,1.6-0.5V2.6c-0.3-0.1-0.5-0.1-0.8-0.2c-0.3-0.1-0.6-0.2-0.8-0.3V1.5
		h5.1v0.6c-0.2,0.1-0.4,0.2-0.7,0.3c-0.2,0.1-0.5,0.2-0.8,0.2v8.7l-0.2,1.5l1-1.6l5.9-8.1V2.6c-0.3-0.1-0.6-0.1-0.9-0.2
		c-0.3-0.1-0.5-0.2-0.8-0.3V1.5h5.1v0.6c-0.2,0.1-0.5,0.2-0.8,0.3s-0.6,0.2-0.9,0.2v11.9c0.6,0.1,1.2,0.3,1.6,0.5v0.6h-5.1v-0.6
		c0.2-0.1,0.4-0.2,0.7-0.3c0.3-0.1,0.5-0.2,0.8-0.2V5.8l0.2-1.5l-0.9,1.5l-5.9,8.2v0.4c0.3,0.1,0.6,0.1,0.9,0.2
		c0.3,0.1,0.5,0.2,0.7,0.3V15.5z"/>
	<path class="hotel-title-0" d="M173,15.5H168v-0.6c0.5-0.2,1.1-0.4,1.6-0.5V2.6c-0.6-0.1-1.2-0.3-1.6-0.5V1.5h5.1v0.6
		c-0.2,0.1-0.5,0.2-0.7,0.3s-0.5,0.1-0.8,0.2v5.2h6.3V2.6c-0.3-0.1-0.5-0.1-0.8-0.2s-0.5-0.2-0.7-0.3V1.5h5.1v0.6
		c-0.2,0.1-0.5,0.2-0.8,0.3c-0.3,0.1-0.6,0.1-0.9,0.2v11.9c0.3,0.1,0.6,0.1,0.9,0.2c0.3,0.1,0.5,0.2,0.8,0.3v0.6h-5.1v-0.6
		c0.5-0.2,1-0.4,1.5-0.5V8.8h-6.3v5.6c0.3,0.1,0.5,0.1,0.8,0.2s0.5,0.2,0.7,0.3V15.5z"/>
	<path class="hotel-title-0" d="M187.6,15.5h-5.1v-0.6c0.5-0.2,1.1-0.4,1.6-0.5V2.6c-0.3-0.1-0.5-0.1-0.8-0.2c-0.3-0.1-0.6-0.2-0.8-0.3V1.5
		h5.1v0.6c-0.2,0.1-0.4,0.2-0.7,0.3s-0.5,0.2-0.8,0.2v8.7l-0.2,1.5l1-1.6l5.9-8.1V2.6c-0.3-0.1-0.6-0.1-0.9-0.2
		c-0.3-0.1-0.5-0.2-0.8-0.3V1.5h5.1v0.6c-0.2,0.1-0.5,0.2-0.8,0.3s-0.6,0.2-0.9,0.2v11.9c0.6,0.1,1.2,0.3,1.6,0.5v0.6h-5.1v-0.6
		c0.2-0.1,0.4-0.2,0.7-0.3c0.3-0.1,0.5-0.2,0.8-0.2V5.8l0.2-1.5l-0.9,1.5L186,14v0.4c0.3,0.1,0.6,0.1,0.9,0.2s0.5,0.2,0.8,0.3V15.5z
		"/>
	<path class="hotel-title-0" d="M197.3,15.5v-0.6c0.4-0.2,0.9-0.3,1.6-0.5V2.6c-0.5-0.1-1.1-0.2-1.6-0.5V1.5h5.1v0.6c-0.4,0.2-0.9,0.3-1.5,0.5
		v11.9h6V2.6c-0.2-0.1-0.5-0.1-0.7-0.2s-0.5-0.2-0.8-0.3V1.5h5.1v0.6c-0.5,0.2-1.1,0.4-1.6,0.5v11.9h2.3c0,0.3,0,0.6,0,0.9
		c0,0.4-0.1,0.7-0.1,1.1c0,0.4-0.1,0.7-0.1,1.1c0,0.4-0.1,0.7-0.2,0.9h-0.5l-0.9-3H197.3z"/>
	<path class="hotel-title-0" d="M215.8,15.5h-4.4v-0.6c0.5-0.2,1-0.4,1.4-0.5l5.1-13.2h0.6l5.1,13.2c0.3,0.1,0.5,0.1,0.8,0.2
		c0.3,0.1,0.5,0.2,0.7,0.3v0.6h-5.2v-0.6c0.3-0.1,0.5-0.2,0.8-0.3c0.3-0.1,0.6-0.1,0.8-0.2l-1.4-3.7h-4.8l-1.3,3.7
		c0.6,0.1,1.1,0.2,1.7,0.5V15.5z M215.8,9.7h4l-1.6-4.2l-0.4-1.7h0l-0.5,1.8L215.8,9.7z"/>
</g>
<g>
	<path class="hotel-title-1" d="M77,53.2v-0.6h1.2l6.2-23.2l6.4,20.9c0.2,0.7,0.4,1.2,0.4,1.3c0.3,0.7,0.9,1,1.6,1v0.6h-5v-0.6l2,0l-4.2-14.1
		h-3.1l-2.7,11.1c-0.1,0.2-0.1,0.4-0.2,0.7c0,0.3-0.1,0.5-0.1,0.7c0,0.6,0.2,1,0.7,1.2c0.5,0.2,1.3,0.3,2.4,0.3v0.6H77z M82.9,38
		l2.7,0L84,33L82.9,38z"/>
	<path class="hotel-title-1" d="M99.6,31.4H98c-0.7,0-1.3,0.1-1.8,0.2c-0.5,0.1-0.8,0.3-1,0.7c-0.2,0.3-0.4,0.8-0.5,1.4
		c-0.1,0.6-0.2,1.2-0.2,1.8l0.1,2.7h-0.5v-8.9h0.5v1.6h11.7v-1.6h0.5v8.9h-0.5v-3.3c0-1.5-0.3-2.4-0.9-2.8c-0.6-0.4-1.9-0.6-4.1-0.6
		v18v0.8c0,1.1,0.2,1.8,0.5,2.1c0.4,0.3,1.2,0.4,2.6,0.4v0.6h-7.7v-0.6h2.8V31.4z"/>
	<path class="hotel-title-1" d="M107.6,53.2v-0.6h1.2l6.2-23.2l6.4,20.9c0.2,0.7,0.4,1.2,0.4,1.3c0.3,0.7,0.9,1,1.6,1v0.6h-5v-0.6l2,0
		l-4.2-14.1h-3.1l-2.7,11.1c-0.1,0.2-0.1,0.4-0.2,0.7c0,0.3-0.1,0.5-0.1,0.7c0,0.6,0.2,1,0.7,1.2c0.5,0.2,1.3,0.3,2.4,0.3v0.6H107.6
		z M113.5,38l2.7,0l-1.5-4.9L113.5,38z"/>
	<path class="hotel-title-1" d="M127.3,49.4V50c0,1.1,0.1,1.8,0.4,2.1s1,0.5,2.1,0.5v0.6h-5.2v-0.6h1.9v-19c0-0.9-0.1-1.5-0.2-1.7
		c-0.2-0.3-0.8-0.5-1.7-0.5v-0.5h3.1l5.3,12.6l4.8-12.6h3.4v0.5h-1.9v18v1.2c0,0.7,0.1,1.2,0.3,1.5c0.2,0.3,0.7,0.5,1.4,0.5h0.2v0.6
		h-5.5v-0.6h1.9V33.2l-5,13.2l-5.4-12.6V49.4z"/>
	<path class="hotel-title-1" d="M141.8,53.2v-0.6h1.2l6.2-23.2l6.4,20.9c0.2,0.7,0.4,1.2,0.4,1.3c0.3,0.7,0.9,1,1.6,1v0.6h-5v-0.6l2,0
		l-4.2-14.1h-3.1l-2.7,11.1c-0.1,0.2-0.1,0.4-0.2,0.7c0,0.3-0.1,0.5-0.1,0.7c0,0.6,0.2,1,0.7,1.2c0.5,0.2,1.3,0.3,2.4,0.3v0.6H141.8
		z M147.7,38l2.7,0l-1.5-4.9L147.7,38z"/>
	<path class="hotel-title-1" d="M171.3,49.4v1.2c0,0.7,0.1,1.2,0.4,1.6s0.8,0.5,1.6,0.5v0.6h-5.5v-0.6h2V38.3h-7.3v11.1v0.4
		c0,1.2,0.1,1.9,0.4,2.3c0.3,0.4,1,0.5,2.1,0.5v0.6h-6.1v-0.6h1.9V33.3c0-0.7-0.1-1.2-0.4-1.4c-0.2-0.2-0.8-0.4-1.6-0.4v-0.6h5.6
		v0.6h-2v6.2h7.3v-4c0-0.9-0.1-1.5-0.2-1.7c-0.2-0.3-0.8-0.5-1.7-0.5v-0.6h5.5v0.6h-1.9V49.4z"/>
	<path class="hotel-title-1" d="M193.6,50.8c-1,1-2.1,1.7-3.3,2.1c-1.2,0.5-2.5,0.7-3.8,0.7c-2.6,0-4.9-0.8-7-2.4c-2.2-1.7-3.5-3.9-4.1-6.6
		c-0.1-0.4-0.2-0.9-0.2-1.3c-0.1-0.5-0.1-0.9-0.1-1.3c0-3.3,1.1-6,3.4-8.2c2.3-2.1,5.1-3.2,8.3-3.2c1.6,0,3.2,0.3,4.9,0.9v-2.2h0.5
		v8.6h-0.5v-2c0-0.6,0-1.2-0.1-1.6c-0.1-0.5-0.3-0.9-0.5-1.3c-0.4-0.5-1-0.9-1.7-1.2c-0.8-0.3-1.5-0.4-2.3-0.4h-0.4
		c-2.5,0-4.8,0.9-6.8,2.8c-2,1.9-3,4-3,6.5v1c0,3.2,1.1,5.9,3.2,8.2c2.1,2.1,4.4,3.2,7.1,3.2c1.1,0,2.2-0.2,3.3-0.6
		c1-0.4,2-1,2.8-1.9L193.6,50.8z"/>
	<path class="hotel-title-1" d="M198.2,41.8v7.6v0.4c0,1.2,0.1,1.9,0.4,2.3c0.3,0.4,1,0.5,2.1,0.5v0.6h-6.1v-0.6h1.9V33.2
		c0-0.7-0.1-1.2-0.4-1.4c-0.2-0.2-0.8-0.4-1.6-0.4v-0.5h5.6v0.5h-2v9.3l6.8-9.3h-2.1v-0.5h5.6v0.5h-2.3l-5.5,7.3l6.3,11.6
		c0.5,1,0.8,1.5,0.8,1.5c0.4,0.5,1.1,0.8,2.3,0.8v0.6h-3.4l-7-13L198.2,41.8z"/>
	<path class="hotel-title-1" d="M210.4,53.2v-0.6h1.2l6.2-23.2l6.4,20.9c0.2,0.7,0.4,1.2,0.4,1.3c0.3,0.7,0.9,1,1.6,1v0.6h-5v-0.6l2,0
		l-4.2-14.1H216l-2.7,11.1c-0.1,0.2-0.1,0.4-0.2,0.7c0,0.3-0.1,0.5-0.1,0.7c0,0.6,0.2,1,0.7,1.2c0.5,0.2,1.3,0.3,2.4,0.3v0.6H210.4z
		 M216.3,38l2.7,0l-1.5-4.9L216.3,38z"/>
	<path class="hotel-title-1" d="M244.8,32.2v-1.3h3.6v0.6c-0.7,0-1.3,0.1-1.5,0.4c-0.3,0.3-0.4,0.7-0.4,1.4V34v18.6h2v0.5h-6.5v-0.6l0.8,0.1
		c0.4,0,0.7-0.1,1.1-0.2c0.4-0.1,0.6-0.3,0.7-0.6c0.1-0.3,0.2-0.6,0.2-1s0-0.9,0-1.5v-2.2c-1.8,1.2-3.8,2.4-5.9,3.4
		c-2.5,1.3-4.6,2.1-6.3,2.4c-0.1,0-0.4,0.1-0.9,0.1s-0.8,0.1-1.2,0.1c-0.9,0-1.9-0.2-3-0.6l0.1-0.5c0.9,0.3,1.6,0.4,2.2,0.4
		c0.9,0,1.9-0.2,3-0.7c0.3-0.1,1.3-0.6,3-1.5l4.1-2c-0.3,0.1-0.7,0.1-1.1,0.1c-0.4,0-0.7,0.1-0.9,0.1c-2.5,0-4.7-0.9-6.6-2.6
		c-1.8-1.7-2.8-3.9-2.8-6.6v-0.1c0-2.2,0.7-4.1,2-5.8c1.3-1.7,3.1-2.7,5.3-3c0.9-0.1,1.7-0.2,2.4-0.2c1.1,0,2.2,0.1,3.2,0.4
		C242.6,31.2,243.7,31.6,244.8,32.2z M244.8,33.6c-0.8-0.7-1.7-1.3-2.7-1.7c-1-0.4-2.1-0.6-3.2-0.6c-2.3,0-4.3,0.7-6,2.2
		c-1.8,1.6-2.8,3.6-2.8,6.1c0,2.6,0.8,4.7,2.4,6.4c1.5,1.6,3.4,2.4,5.6,2.4c2.1,0,4.1-0.7,5.9-2.2l0.8,0.8V33.6z"/>
</g>
</svg>
