<?xml version="1.0" encoding="utf-8"?>
<!-- Generator: Adobe Illustrator 21.0.2, SVG Export Plug-In . SVG Version: 6.00 Build 0)  -->
<svg version="1.1" id="rooms" xmlns="http://www.w3.org/2000/svg" xmlns:xlink="http://www.w3.org/1999/xlink" x="0px" y="0px"
	 viewBox="0 0 264.2 53.8" style="enable-background:new 0 0 264.2 53.8;" xml:space="preserve">
<style type="text/css">
	.rooms-title-0{fill:#671700;}
	.rooms-title-1{fill:#C9A468;}
</style>
<path class="rooms-title-0" d="M67.3,37.1l1.1-0.8c-9.3-11.4-18.7-11-29.9-9.1c-8.2,1.4-11.4-4.9-9.1-7.7c1-1.2,2.7-1.3,3.5-0.4
	c-1.7,0.1-2.3,2.9-0.8,3.8c2,1.3,4.1-1.1,4-3.3c-0.1-1.6-1.9-5-6.5-3.6c-6.7,2.1-5,13.3,6.5,13.5C45.3,29.7,53.7,23.1,67.3,37.1
	L67.3,37.1z"/>
<path class="rooms-title-0" d="M6.7,42.3c0.8-1.4,1.1-3.2,6.4-6.1c1.8-1,3.3-2,4.1-3.3c1.3-2.1,1.3-5.6,0.2-6.9c0.9-0.2,7.5,4.1,1.8,8.9
	C14.7,38.7,10.7,36.9,6.7,42.3L6.7,42.3z"/>
<path class="rooms-title-0" d="M1.5,52.3c-1.7-0.3-2.3-4.1,0.3-5.1C5,46,8.2,49.7,9,51.8c-1-0.6-4.2-2.6-6.3-1.9C1.9,50.2,1.4,50.9,1.5,52.3
	L1.5,52.3z"/>
<path class="rooms-title-0" d="M10,50.6c-4.8-4.2-3.1-8.8,0.3-9.8c3.6-1,6.6,3.3,3.8,5.7c0-2.1-2-2.2-3.3-1.8C9.3,45.2,8.9,47.4,10,50.6
	L10,50.6z"/>
<path class="rooms-title-0" d="M10.2,50.7c2.1,1,5.5,2.3,10.2-5.2c2.4-3.7,5.9-7.9,9.8-10.7c3.9-2.9,7.5-3.7,10.4-4.1
	c-16.4,9.1-13.2,15.8-19.7,20.4C17,53.9,12.5,53.6,10.2,50.7L10.2,50.7z"/>
<path class="rooms-title-0" d="M60.5,33.8c-1-0.3-4.5-3.1-11.1-0.9C46,34,44.2,36.6,43.9,39c-0.2,2.4,0.5,4.7,2.1,5.7c2.9,1.9,7.1,1.3,7.8-2.1
	c0.7-3.4-3.1-4.7-3.8-4.9c1-1.6,4.8-1.4,6.3-0.3c1.5,1.1,1.3,3,1.4,4.8c0.2,0.7,2.6,0.7,3,0.5c0.1,1.5-0.6,3.3-3.1,3.2
	c0,0-0.2,1.5-0.1,2.5c-0.5,0.7-2.3,0.8-2.9,0.9c-0.1,0.3,0,1.3,0.4,2.5c-1.1,0.7-5.3,0.8-6.7-0.1c-0.3,0.1-0.3,1.1-0.5,2
	c-5.4,0.3-6.4-2-6.3-4c-0.3,0.1-6.1,2.7-5.8-7.7C36.2,25.8,58.6,28.9,60.5,33.8L60.5,33.8z"/>
<path class="rooms-title-0" d="M196.9,37c13.6-14,22-7.4,31.2-7.5c11.5-0.2,13.2-11.4,6.5-13.5c-4.6-1.4-6.5,2-6.5,3.6c-0.1,2.2,2,4.6,4,3.3
	c1.5-0.9,0.9-3.7-0.8-3.8c0.8-0.9,2.5-0.8,3.5,0.4c2.3,2.8-0.9,9.1-9.1,7.7c-11.1-2-20.5-2.3-29.9,9.1L196.9,37L196.9,37z"/>
<path class="rooms-title-0" d="M257.5,42.2c-4-5.4-8-3.6-12.4-7.4c-5.7-4.8,0.9-9.1,1.8-8.9c-1.2,1.3-1.1,4.8,0.2,6.9c0.8,1.3,2.3,2.3,4.1,3.3
	C256.4,39,256.7,40.8,257.5,42.2L257.5,42.2z"/>
<path class="rooms-title-0" d="M262.7,52.2c0.1-1.4-0.4-2.2-1.3-2.4c-2.1-0.7-5.3,1.3-6.3,1.9c0.8-2.1,4-5.9,7.2-4.6
	C265,48.1,264.4,51.9,262.7,52.2L262.7,52.2z"/>
<path class="rooms-title-0" d="M254.2,50.5c1.1-3.2,0.7-5.4-0.8-5.8c-1.3-0.4-3.3-0.3-3.3,1.8c-2.7-2.4,0.3-6.8,3.8-5.7
	C257.3,41.7,259,46.4,254.2,50.5L254.2,50.5z"/>
<path class="rooms-title-0" d="M254,50.6c-2.3,2.9-6.7,3.1-10.7,0.3c-6.5-4.6-3.3-11.3-19.8-20.3c3,0.4,6.5,1.3,10.4,4.1s7.5,7,9.8,10.7
	C248.5,53,251.8,51.7,254,50.6L254,50.6z"/>
<path class="rooms-title-0" d="M203.7,33.7c1.9-4.9,24.3-8,24.8,8.2c0.3,10.4-5.5,7.8-5.8,7.7c0,2.1-0.9,4.3-6.4,4c-0.2-0.9-0.3-1.9-0.5-2
	c-1.4,0.9-5.6,0.8-6.7,0.1c0.5-1.2,0.5-2.2,0.4-2.5c-0.6,0-2.4-0.1-2.9-0.9c0.1-1-0.1-2.5-0.1-2.5c-2.5,0.1-3.2-1.7-3.1-3.2
	c0.4,0.2,2.8,0.1,3-0.5c0.1-1.8-0.1-3.7,1.4-4.8s5.3-1.3,6.3,0.3c-0.8,0.2-4.6,1.4-3.8,4.9c0.8,3.5,4.9,4,7.8,2.1
	c1.6-1,2.3-3.3,2.1-5.7c-0.2-2.5-2.1-5.1-5.5-6.1C208.2,30.7,204.7,33.4,203.7,33.7L203.7,33.7z"/>
<g>
	<path class="rooms-title-0" d="M107.7,15.7h-5.1v-0.6c0.5-0.2,1.1-0.4,1.6-0.5V2.8c-0.6-0.1-1.2-0.3-1.6-0.5V1.7h5.1v0.6
		c-0.2,0.1-0.5,0.2-0.7,0.3s-0.5,0.1-0.8,0.2V8h6.3V2.8c-0.3-0.1-0.5-0.1-0.8-0.2s-0.5-0.2-0.7-0.3V1.7h5.1v0.6
		c-0.2,0.1-0.5,0.2-0.8,0.3s-0.6,0.1-0.9,0.2v11.9c0.3,0.1,0.6,0.1,0.9,0.2c0.3,0.1,0.5,0.2,0.8,0.3v0.6h-5.1v-0.6
		c0.5-0.2,1-0.4,1.5-0.5V9h-6.3v5.6c0.3,0.1,0.5,0.1,0.8,0.2s0.5,0.2,0.7,0.3V15.7z"/>
	<path class="rooms-title-0" d="M121,15.7h-4.4v-0.6c0.5-0.2,1-0.4,1.4-0.5l5.1-13.2h0.6l5.1,13.2c0.3,0.1,0.5,0.1,0.8,0.2
		c0.3,0.1,0.5,0.2,0.7,0.3v0.6h-5.2v-0.6c0.3-0.1,0.5-0.2,0.8-0.3c0.3-0.1,0.6-0.1,0.8-0.2l-1.4-3.7h-4.8l-1.3,3.7
		c0.6,0.1,1.1,0.2,1.7,0.5V15.7z M121,9.9h4l-1.6-4.2L123.1,4h0l-0.5,1.8L121,9.9z"/>
	<path class="rooms-title-0" d="M137.3,1.7h4.5v0.6c-0.2,0.1-0.4,0.2-0.6,0.3c-0.2,0.1-0.4,0.2-0.7,0.2v11.9h4.4V2.8c-0.5-0.1-0.9-0.3-1.3-0.5
		V1.7h4.6v0.6c-0.2,0.1-0.4,0.2-0.7,0.3c-0.2,0.1-0.5,0.2-0.8,0.2v11.9c0.5,0.1,1,0.3,1.4,0.5v0.6h-17.4v-0.6c0.5-0.2,1-0.4,1.4-0.5
		V2.8c-0.3-0.1-0.5-0.1-0.7-0.2c-0.2-0.1-0.5-0.2-0.7-0.3V1.7h4.7v0.6c-0.3,0.2-0.8,0.3-1.3,0.5v11.9h4.4V2.8
		c-0.3-0.1-0.5-0.2-0.7-0.3c-0.2-0.1-0.4-0.2-0.6-0.3V1.7z"/>
	<path class="rooms-title-0" d="M154.5,15.7h-5.1v-0.6c0.5-0.2,1.1-0.4,1.6-0.5V2.8c-0.3-0.1-0.5-0.1-0.8-0.2s-0.6-0.2-0.8-0.3V1.7h5.1v0.6
		c-0.2,0.1-0.4,0.2-0.7,0.3c-0.2,0.1-0.5,0.2-0.8,0.2v8.7l-0.2,1.5l1-1.6l5.9-8.1V2.8c-0.3-0.1-0.6-0.1-0.9-0.2
		c-0.3-0.1-0.5-0.2-0.8-0.3V1.7h5.1v0.6c-0.2,0.1-0.5,0.2-0.8,0.3c-0.3,0.1-0.6,0.2-0.9,0.2v11.9c0.6,0.1,1.2,0.3,1.6,0.5v0.6H158
		v-0.6c0.2-0.1,0.4-0.2,0.7-0.3c0.3-0.1,0.5-0.2,0.8-0.2V6l0.2-1.5L158.8,6l-5.9,8.2v0.4c0.3,0.1,0.6,0.1,0.9,0.2
		c0.3,0.1,0.5,0.2,0.8,0.3V15.7z"/>
</g>
<g>
	<path class="rooms-title-1" d="M91.1,48.4v1.2c0,0.7,0.1,1.2,0.4,1.6s0.8,0.5,1.6,0.5v0.6h-5.5v-0.6h2V37.3h-7.3v11.1v0.4
		c0,1.2,0.1,1.9,0.4,2.3c0.3,0.4,1,0.5,2.1,0.5v0.6h-6.1v-0.6h1.9V32.3c0-0.7-0.1-1.2-0.4-1.4c-0.2-0.2-0.8-0.4-1.6-0.4v-0.6h5.6
		v0.6h-2v6.2h7.3v-4c0-0.9-0.1-1.5-0.2-1.7c-0.2-0.3-0.8-0.5-1.7-0.5v-0.6H93v0.6h-1.9V48.4z"/>
	<path class="rooms-title-1" d="M117.9,45.7c-1,2.1-2.5,3.8-4.7,5.1c-2.2,1.3-4.5,1.9-6.9,1.9c-1.6,0-3.1-0.3-4.5-0.8
		c-2.2-0.9-3.9-2.3-5.1-4.2c-1.2-2-1.9-4.1-1.9-6.4c0-1.6,0.3-3.1,0.9-4.6c0.9-2.2,2.4-3.9,4.5-5.2c2.1-1.3,4.4-2,6.8-2
		c1.8,0,3.5,0.4,5.1,1.1c2.1,0.9,3.7,2.3,4.9,4.2c1.2,1.9,1.8,3.9,1.8,6.1c0,0.8-0.1,1.6-0.2,2.4C118.6,44.1,118.3,44.9,117.9,45.7z
		 M117.3,40.9c0-2.9-1-5.4-3.1-7.5c-2.1-2.1-4.6-3.2-7.5-3.2c-3,0-5.4,1.1-7.3,3.2c-1.9,2.1-2.9,4.7-2.9,7.7v0.4
		c0,3.3,1.1,5.9,3.2,7.8c1.9,1.8,4.3,2.6,7.1,2.6c2.8,0,5.1-0.9,7.1-2.8c2.2-2,3.3-4.7,3.3-8V40.9z"/>
	<path class="rooms-title-1" d="M122.9,48.4v0.6c0,1.1,0.1,1.8,0.4,2.1s1,0.5,2.1,0.5v0.6h-5.2v-0.6h1.9v-19c0-0.9-0.1-1.5-0.2-1.7
		c-0.2-0.3-0.8-0.5-1.7-0.5v-0.5h3.1l5.3,12.6l4.8-12.6h3.4v0.5H135v18v1.2c0,0.7,0.1,1.2,0.3,1.5c0.2,0.3,0.7,0.5,1.4,0.5h0.2v0.6
		h-5.5v-0.6h1.9V32.3l-5,13.2l-5.4-12.6V48.4z"/>
	<path class="rooms-title-1" d="M141.7,36.7h3v-3.5h0.4v7.7h-0.4v-0.8c0-1.2-0.1-1.9-0.4-2.2c-0.4-0.4-1.2-0.6-2.6-0.6v14.4l2.6,0.1
		c1.9,0,3.1-0.3,3.5-0.9c0.4-0.6,0.6-2.2,0.6-4.8h0.5v7.8h-0.5v-1.6h-10.3v-0.5h1.9V32.1c0-0.6-0.1-1.1-0.4-1.3
		c-0.2-0.2-0.8-0.4-1.6-0.4v-0.5h10.3v-1.6h0.5v8.2h-0.5c0-2.9-0.2-4.6-0.6-5.2c-0.4-0.6-1.6-0.9-3.7-0.9h-2.4V36.7z"/>
	<path class="rooms-title-1" d="M150.2,52.2v-0.5h1.9V32.3c0-0.7-0.1-1.1-0.4-1.4c-0.2-0.3-0.8-0.4-1.6-0.4v-0.6h3.6v1.3
		c1.1-0.5,2.2-1,3.2-1.3c1.1-0.3,2.1-0.5,3.1-0.5c0.2,0,0.4,0,0.7,0s0.5,0,0.7,0.1c2.2,0.3,4.1,1.2,5.6,2.8c1.6,1.5,2.4,3.3,2.4,5.4
		v0.8c0,2.1-0.6,4-1.8,5.7c-1.2,1.6-2.8,2.8-4.9,3.4c-0.5,0.1-1,0.3-1.7,0.4c-0.7,0.1-1.3,0.2-1.7,0.2c-0.9,0-1.9-0.1-2.8-0.4
		c-0.9-0.3-1.8-0.7-2.7-1.2l0,1.9c0,1.1,0.1,2,0.4,2.5c0.1,0.2,0.4,0.4,0.7,0.5c0.3,0.1,0.7,0.2,1.1,0.2h0.9v0.5H150.2z M167.9,38.7
		c0-2.4-0.8-4.4-2.4-6c-1.6-1.6-3.5-2.4-5.8-2.4c-1,0-2.1,0.2-3,0.6c-1,0.4-1.9,1-2.8,1.8v12.1c0.7,0.9,1.6,1.5,2.6,2
		c1.1,0.5,2.1,0.7,3.2,0.7c2.2,0,4-0.7,5.6-2.2C167,43.7,167.9,41.5,167.9,38.7z"/>
	<path class="rooms-title-1" d="M170.2,52.2v-0.6h1.2l6.2-23.2l6.4,20.9c0.2,0.7,0.4,1.2,0.4,1.3c0.3,0.7,0.9,1,1.6,1v0.6h-5v-0.6l2,0
		l-4.2-14.1h-3.1l-2.7,11.1c-0.1,0.2-0.1,0.4-0.2,0.7c0,0.3-0.1,0.5-0.1,0.7c0,0.6,0.2,1,0.7,1.2c0.5,0.2,1.3,0.3,2.4,0.3v0.6H170.2
		z M176,37l2.7,0l-1.5-4.9L176,37z"/>
</g>
</svg>
