<?xml version="1.0" encoding="utf-8"?>
<!-- Generator: Adobe Illustrator 21.0.2, SVG Export Plug-In . SVG Version: 6.00 Build 0)  -->
<svg version="1.1" id="Photo" xmlns="http://www.w3.org/2000/svg" xmlns:xlink="http://www.w3.org/1999/xlink" x="0px" y="0px"
	 viewBox="0 0 318.2 53.8" style="enable-background:new 0 0 318.2 53.8;" xml:space="preserve">
<style type="text/css">
	.gallery-title-0{fill:#671700;}
	.gallery-title-1{fill:#C9A468;}
</style>
<path class="gallery-title-0" d="M67.3,34.7l1.1-0.8c-9.3-11.4-18.7-11-29.9-9.1c-8.2,1.4-11.4-4.9-9.1-7.7c1-1.2,2.7-1.3,3.5-0.4
	c-1.7,0.1-2.3,2.9-0.8,3.8c2,1.3,4.1-1.1,4-3.3c-0.1-1.6-1.9-5-6.5-3.6c-6.7,2.1-5,13.3,6.5,13.5C45.3,27.3,53.7,20.7,67.3,34.7
	L67.3,34.7z"/>
<path class="gallery-title-0" d="M6.7,39.9c0.8-1.4,1.1-3.2,6.4-6.1c1.8-1,3.3-2,4.1-3.3c1.3-2.1,1.3-5.6,0.2-6.9c0.9-0.2,7.5,4.1,1.8,8.9
	C14.7,36.3,10.7,34.5,6.7,39.9L6.7,39.9z"/>
<path class="gallery-title-0" d="M1.5,49.9c-1.7-0.3-2.3-4.1,0.3-5.1C5,43.6,8.2,47.3,9,49.4c-1-0.6-4.2-2.6-6.3-1.9C1.9,47.8,1.4,48.5,1.5,49.9
	L1.5,49.9z"/>
<path class="gallery-title-0" d="M10,48.2c-4.8-4.2-3.1-8.8,0.3-9.8c3.6-1,6.6,3.3,3.8,5.7c0-2.1-2-2.2-3.3-1.8C9.3,42.8,8.9,45,10,48.2L10,48.2
	z"/>
<path class="gallery-title-0" d="M10.2,48.3c2.1,1,5.5,2.3,10.2-5.2c2.4-3.7,5.9-7.9,9.8-10.7c3.9-2.9,7.5-3.7,10.4-4.1
	c-16.4,9.1-13.2,15.8-19.7,20.4C17,51.5,12.5,51.2,10.2,48.3L10.2,48.3z"/>
<path class="gallery-title-0" d="M60.5,31.4c-1-0.3-4.5-3.1-11.1-0.9c-3.4,1.1-5.2,3.7-5.5,6.1c-0.2,2.4,0.5,4.7,2.1,5.7
	c2.9,1.9,7.1,1.3,7.8-2.1c0.7-3.4-3.1-4.7-3.8-4.9c1-1.6,4.8-1.4,6.3-0.3c1.5,1.1,1.3,3,1.4,4.8c0.2,0.7,2.6,0.7,3,0.5
	c0.1,1.5-0.6,3.3-3.1,3.2c0,0-0.2,1.5-0.1,2.5c-0.5,0.7-2.3,0.8-2.9,0.9c-0.1,0.3,0,1.3,0.4,2.5c-1.1,0.7-5.3,0.8-6.7-0.1
	c-0.3,0.1-0.3,1.1-0.5,2c-5.4,0.3-6.4-2-6.3-4c-0.3,0.1-6.1,2.7-5.8-7.7C36.2,23.4,58.6,26.5,60.5,31.4L60.5,31.4z"/>
<path class="gallery-title-0" d="M251,35.3c13.6-14,22-7.4,31.2-7.5c11.5-0.2,13.2-11.4,6.5-13.5c-4.6-1.4-6.5,2-6.5,3.6c-0.1,2.2,2,4.6,4,3.3
	c1.5-0.9,0.9-3.7-0.8-3.8c0.8-0.9,2.5-0.8,3.5,0.4c2.3,2.8-0.9,9.1-9.1,7.7c-11.1-2-20.5-2.3-29.9,9.1L251,35.3L251,35.3z"/>
<path class="gallery-title-0" d="M311.6,40.5c-4-5.4-8-3.6-12.4-7.4c-5.7-4.8,0.9-9.1,1.8-8.9c-1.2,1.3-1.1,4.8,0.2,6.9c0.8,1.3,2.3,2.3,4.1,3.3
	C310.5,37.3,310.8,39.1,311.6,40.5L311.6,40.5z"/>
<path class="gallery-title-0" d="M316.8,50.5c0.1-1.4-0.4-2.2-1.3-2.4c-2.1-0.7-5.3,1.3-6.3,1.9c0.8-2.1,4-5.9,7.2-4.6
	C319.1,46.4,318.5,50.2,316.8,50.5L316.8,50.5z"/>
<path class="gallery-title-0" d="M308.3,48.8c1.1-3.2,0.7-5.4-0.8-5.8c-1.3-0.4-3.3-0.3-3.3,1.8c-2.7-2.4,0.3-6.8,3.8-5.7
	C311.4,40,313.1,44.7,308.3,48.8L308.3,48.8z"/>
<path class="gallery-title-0" d="M308.1,48.9c-2.3,2.9-6.7,3.1-10.7,0.3c-6.5-4.6-3.3-11.3-19.8-20.3c3,0.4,6.5,1.3,10.4,4.1s7.5,7,9.8,10.7
	C302.6,51.3,305.9,50,308.1,48.9L308.1,48.9z"/>
<path class="gallery-title-0" d="M257.8,32c1.9-4.9,24.3-8,24.8,8.2c0.3,10.4-5.5,7.8-5.8,7.7c0,2.1-0.9,4.3-6.4,4c-0.2-0.9-0.3-1.9-0.5-2
	c-1.4,0.9-5.6,0.8-6.7,0.1c0.5-1.2,0.5-2.2,0.4-2.5c-0.6,0-2.4-0.1-2.9-0.9c0.1-1-0.1-2.5-0.1-2.5c-2.5,0.1-3.2-1.7-3.1-3.2
	c0.4,0.2,2.8,0.1,3-0.5c0.1-1.8-0.1-3.7,1.4-4.8s5.3-1.3,6.3,0.3c-0.8,0.2-4.6,1.4-3.8,4.9c0.8,3.5,4.9,4,7.8,2.1
	c1.6-1,2.3-3.3,2.1-5.7c-0.2-2.5-2.1-5.1-5.5-6.1C262.3,29,258.8,31.7,257.8,32L257.8,32z"/>
<g>
	<path class="gallery-title-0" d="M95.5,1.8h4.5v0.6c-0.1,0.1-0.3,0.2-0.5,0.2c-0.2,0.1-0.5,0.2-0.8,0.2v1c0.3-0.1,0.5-0.1,0.9-0.1
		c0.3,0,0.6,0,0.8,0c0.6,0,1.2,0.1,1.8,0.3s1,0.5,1.4,1s0.7,0.9,1,1.5c0.2,0.6,0.3,1.3,0.3,2c0,0.9-0.1,1.6-0.4,2.2
		c-0.3,0.6-0.6,1.1-1.1,1.6s-1,0.7-1.6,0.9c-0.6,0.2-1.2,0.3-1.8,0.3c-0.1,0-0.2,0-0.3,0c-0.1,0-0.2,0-0.4,0s-0.3,0-0.4,0
		s-0.2,0-0.3-0.1v1.2c0.3,0.1,0.5,0.1,0.7,0.2c0.2,0.1,0.4,0.2,0.6,0.3v0.6h-4.5v-0.6c0.2-0.1,0.4-0.2,0.7-0.3
		c0.2-0.1,0.5-0.1,0.8-0.2v-1.2c-0.3,0-0.5,0.1-0.8,0.1c-0.3,0-0.6,0-0.9,0c-0.5,0-1.1-0.1-1.6-0.3c-0.5-0.2-1-0.5-1.5-0.8
		c-0.4-0.4-0.8-0.9-1-1.5c-0.3-0.6-0.4-1.4-0.4-2.2c0-0.8,0.1-1.5,0.4-2.1C91.4,6,91.8,5.5,92.2,5c0.5-0.4,1-0.8,1.6-1
		c0.6-0.2,1.2-0.3,1.9-0.3c0.2,0,0.4,0,0.6,0c0.3,0,0.5,0,0.6,0.1v-1c-0.6-0.1-1.1-0.3-1.4-0.5V1.8z M96,12.7c0.1,0,0.3,0,0.5,0
		c0.2,0,0.3,0,0.5-0.1V4.7c-0.3,0-0.6-0.1-1-0.1c-0.4,0-0.8,0.1-1.2,0.2C94.4,5,94,5.3,93.7,5.6c-0.3,0.3-0.6,0.8-0.8,1.3
		c-0.2,0.5-0.3,1.1-0.3,1.9c0,0.6,0.1,1.2,0.3,1.7c0.2,0.5,0.4,0.9,0.7,1.2c0.3,0.3,0.7,0.6,1.1,0.8C95.1,12.6,95.5,12.7,96,12.7z
		 M99.8,4.6c-0.2,0-0.4,0-0.5,0c-0.2,0-0.4,0-0.6,0.1v7.8c0.1,0,0.3,0,0.5,0.1c0.2,0,0.4,0,0.5,0c0.4,0,0.9-0.1,1.3-0.2
		c0.4-0.2,0.8-0.4,1.1-0.7s0.6-0.8,0.8-1.3s0.3-1.1,0.3-1.9c0-1.2-0.3-2.2-0.9-2.9C101.7,5,100.9,4.6,99.8,4.6z"/>
	<path class="gallery-title-0" d="M106.7,8.8c0-1,0.1-2,0.4-2.9c0.3-0.9,0.7-1.7,1.2-2.3c0.5-0.6,1.2-1.1,2-1.5c0.8-0.4,1.7-0.5,2.7-0.5
		s1.9,0.2,2.7,0.5c0.8,0.4,1.4,0.9,2,1.5c0.5,0.6,1,1.4,1.2,2.3c0.3,0.9,0.4,1.9,0.4,2.9s-0.1,2-0.4,2.9c-0.3,0.9-0.7,1.7-1.2,2.3
		c-0.5,0.6-1.2,1.1-2,1.5c-0.8,0.4-1.7,0.5-2.7,0.5s-1.9-0.2-2.7-0.5c-0.8-0.4-1.5-0.9-2-1.5c-0.5-0.6-1-1.4-1.2-2.3
		C106.9,10.8,106.7,9.8,106.7,8.8z M108.9,8.8c0,0.9,0.1,1.7,0.3,2.4c0.2,0.8,0.4,1.4,0.8,2c0.4,0.6,0.8,1,1.4,1.3
		c0.5,0.3,1.2,0.5,1.9,0.5c0.7,0,1.3-0.2,1.8-0.5c0.5-0.3,0.9-0.8,1.3-1.3s0.6-1.2,0.7-2c0.2-0.8,0.3-1.6,0.3-2.4
		c0-0.9-0.1-1.7-0.3-2.4c-0.2-0.8-0.4-1.4-0.8-2s-0.8-1-1.4-1.3c-0.5-0.3-1.2-0.5-1.9-0.5c-0.7,0-1.4,0.2-1.9,0.5
		c-0.5,0.3-0.9,0.8-1.3,1.3c-0.3,0.6-0.6,1.2-0.7,2C109,7.1,108.9,7.9,108.9,8.8z"/>
	<path class="gallery-title-0" d="M129,15.8h-5.6v-0.6c0.3-0.1,0.6-0.2,0.9-0.3s0.6-0.1,1-0.2V2.8h-3.1l-1.1,2.9h-0.5c0-0.3-0.1-0.6-0.1-0.9
		c0-0.3,0-0.7-0.1-1c0-0.4,0-0.7-0.1-1c0-0.3,0-0.6,0-0.9H132c0,0.3,0,0.6,0,0.9c0,0.3,0,0.7-0.1,1c0,0.4,0,0.7-0.1,1
		c0,0.3-0.1,0.6-0.1,0.9h-0.5l-1.1-2.9h-3v11.9c0.3,0.1,0.7,0.1,1,0.2c0.3,0.1,0.6,0.2,0.9,0.3V15.8z"/>
	<path class="gallery-title-0" d="M133,8.8c0-1,0.1-2,0.4-2.9c0.3-0.9,0.7-1.7,1.2-2.3c0.5-0.6,1.2-1.1,2-1.5c0.8-0.4,1.7-0.5,2.7-0.5
		s1.9,0.2,2.7,0.5c0.8,0.4,1.4,0.9,2,1.5c0.5,0.6,1,1.4,1.2,2.3c0.3,0.9,0.4,1.9,0.4,2.9s-0.1,2-0.4,2.9c-0.3,0.9-0.7,1.7-1.2,2.3
		c-0.5,0.6-1.2,1.1-2,1.5c-0.8,0.4-1.7,0.5-2.7,0.5s-1.9-0.2-2.7-0.5c-0.8-0.4-1.5-0.9-2-1.5c-0.5-0.6-1-1.4-1.2-2.3
		C133.1,10.8,133,9.8,133,8.8z M135.1,8.8c0,0.9,0.1,1.7,0.3,2.4c0.2,0.8,0.4,1.4,0.8,2c0.4,0.6,0.8,1,1.4,1.3
		c0.5,0.3,1.2,0.5,1.9,0.5c0.7,0,1.3-0.2,1.8-0.5c0.5-0.3,0.9-0.8,1.3-1.3s0.6-1.2,0.7-2c0.2-0.8,0.3-1.6,0.3-2.4
		c0-0.9-0.1-1.7-0.3-2.4c-0.2-0.8-0.4-1.4-0.8-2s-0.8-1-1.4-1.3c-0.5-0.3-1.2-0.5-1.9-0.5c-0.7,0-1.4,0.2-1.9,0.5
		c-0.5,0.3-0.9,0.8-1.3,1.3c-0.3,0.6-0.6,1.2-0.7,2C135.2,7.1,135.1,7.9,135.1,8.8z"/>
	<path class="gallery-title-0" d="M150.8,14.7c0.7,0.1,1.3,0.3,1.9,0.5v0.6h-5.5v-0.6c0.5-0.2,1.1-0.4,1.6-0.5V2.8c-0.3-0.1-0.5-0.1-0.8-0.2
		c-0.3-0.1-0.6-0.2-0.8-0.3V1.8h9.4c0,0.3,0,0.6,0,0.9c0,0.3,0,0.7,0,1.1c0,0.4,0,0.7-0.1,1.1c0,0.4-0.1,0.7-0.1,1h-0.5l-1-3h-4
		V14.7z"/>
	<path class="gallery-title-0" d="M159.8,15.8h-4.4v-0.6c0.5-0.2,1-0.4,1.4-0.5l5.1-13.2h0.6l5.1,13.2c0.3,0.1,0.5,0.1,0.8,0.2
		c0.3,0.1,0.5,0.2,0.7,0.3v0.6h-5.2v-0.6c0.3-0.1,0.5-0.2,0.8-0.3c0.3-0.1,0.6-0.1,0.8-0.2l-1.4-3.7h-4.8l-1.3,3.7
		c0.6,0.1,1.1,0.2,1.7,0.5V15.8z M159.8,10h4l-1.6-4.2L161.9,4h0l-0.5,1.8L159.8,10z"/>
	<path class="gallery-title-0" d="M173.1,2.9c-0.8-0.1-1.5-0.3-2-0.6V1.8h10.5v0.6c-0.5,0.2-1,0.4-1.6,0.5v11.9c0.6,0.1,1.2,0.3,1.6,0.5v0.6
		h-5.1v-0.6c0.2-0.1,0.5-0.2,0.7-0.3c0.3-0.1,0.5-0.1,0.8-0.2V2.8h-3.7c-0.1,2.1-0.1,3.8-0.3,5.2c-0.1,1.4-0.3,2.5-0.5,3.4
		c-0.2,0.9-0.5,1.6-0.7,2.1c-0.3,0.5-0.6,1-0.9,1.4c-0.3,0.3-0.6,0.6-1,0.8s-0.8,0.2-1.1,0.2c-0.1-0.1-0.2-0.3-0.3-0.5
		c-0.1-0.2-0.2-0.4-0.3-0.6c-0.1-0.2-0.2-0.4-0.2-0.7c-0.1-0.2-0.1-0.4-0.1-0.6l0.3-0.5l2.3,0.4c0.2-0.3,0.4-0.8,0.6-1.3
		c0.2-0.5,0.4-1.2,0.5-2.1s0.3-1.9,0.4-3.1C173,6,173.1,4.6,173.1,2.9z"/>
	<path class="gallery-title-0" d="M192.2,1.8c0,0.5,0,1.1-0.1,1.6S192,4.5,192,5h-0.5l-0.8-2.2h-4.4v5.3h3.3l0.8-1.5h0.5c0.1,1.3,0.1,2.7,0,4
		h-0.5l-0.8-1.5h-3.3v5.6h4.6l1-2.4h0.5c0.1,0.6,0.2,1.1,0.2,1.7c0,0.6,0,1.2,0,1.7h-9.9v-0.6c0.5-0.2,1-0.4,1.6-0.5V2.8
		c-0.3-0.1-0.5-0.1-0.8-0.2c-0.3-0.1-0.6-0.2-0.8-0.3V1.8H192.2z"/>
	<path class="gallery-title-0" d="M197.9,14.7c0.4,0,0.7,0.1,1,0.2c0.3,0.1,0.6,0.2,0.9,0.3v0.6h-5.5v-0.6c0.3-0.1,0.5-0.2,0.8-0.3
		c0.3-0.1,0.6-0.1,0.8-0.2V2.8c-0.3-0.1-0.6-0.1-0.9-0.2c-0.3-0.1-0.5-0.2-0.8-0.3V1.8h1.8c0.5,0,1.1,0,1.7-0.1
		c0.6-0.1,1.2-0.1,1.8-0.1c0.7,0,1.3,0.1,1.9,0.2c0.6,0.1,1.2,0.4,1.7,0.7c0.5,0.3,0.9,0.8,1.2,1.3c0.3,0.6,0.4,1.2,0.4,2.1
		c0,0.8-0.2,1.5-0.5,2s-0.7,1-1.2,1.4c-0.5,0.4-1.1,0.6-1.8,0.8c-0.7,0.2-1.3,0.3-2,0.3c-0.1,0-0.2,0-0.3,0s-0.3,0-0.5,0
		c-0.2,0-0.3,0-0.5,0s-0.3,0-0.3,0V14.7z M199.3,2.6c-0.3,0-0.6,0-0.8,0c-0.2,0-0.4,0-0.6,0.1v6.5c0.1,0,0.2,0,0.3,0
		c0.1,0,0.3,0,0.4,0s0.3,0,0.4,0c0.1,0,0.2,0,0.3,0c0.5,0,0.9-0.1,1.3-0.2c0.4-0.1,0.8-0.3,1.1-0.6c0.3-0.3,0.6-0.6,0.8-1.1
		s0.3-0.9,0.3-1.5c0-1.1-0.3-1.9-0.9-2.5S200.4,2.6,199.3,2.6z"/>
	<path class="gallery-title-0" d="M215.7,1.8c0,0.5,0,1.1-0.1,1.6s-0.1,1.1-0.2,1.6H215l-0.8-2.2h-4.4v5.3h3.3l0.8-1.5h0.5c0.1,1.3,0.1,2.7,0,4
		h-0.5l-0.8-1.5h-3.3v5.6h4.6l1-2.4h0.5c0.1,0.6,0.2,1.1,0.2,1.7c0,0.6,0,1.2,0,1.7h-9.9v-0.6c0.5-0.2,1-0.4,1.6-0.5V2.8
		c-0.3-0.1-0.5-0.1-0.8-0.2c-0.3-0.1-0.6-0.2-0.8-0.3V1.8H215.7z"/>
	<path class="gallery-title-0" d="M229.5,1.8v0.6c-0.2,0.1-0.4,0.2-0.7,0.3c-0.3,0.1-0.6,0.2-0.9,0.2v11.9c0.7,0.1,1.2,0.3,1.6,0.5v0.6h-5.3
		v-0.6c0.5-0.2,1.1-0.4,1.7-0.5V9.9h-2c-0.3,0.5-0.6,1-0.8,1.4s-0.5,0.9-0.7,1.4c-0.2,0.5-0.5,0.9-0.8,1.3s-0.6,0.8-0.9,1.3
		l-0.7,0.5h-2.5v-0.5l1-0.5c0.4-0.5,0.8-0.9,1.1-1.3c0.3-0.4,0.6-0.9,0.9-1.3c0.3-0.4,0.5-0.8,0.8-1.2c0.3-0.4,0.5-0.8,0.8-1.2
		c-0.4-0.1-0.8-0.3-1.1-0.5c-0.4-0.2-0.7-0.5-0.9-0.8c-0.3-0.3-0.5-0.7-0.6-1.1c-0.2-0.4-0.2-0.9-0.2-1.5c0-0.7,0.2-1.4,0.5-1.9
		c0.3-0.5,0.7-1,1.3-1.3c0.5-0.3,1.1-0.6,1.8-0.7c0.7-0.2,1.3-0.2,2-0.2c0.3,0,0.6,0,1,0c0.4,0,0.8,0,1.2,0H229.5z M224.5,9
		c0.2,0,0.5,0,0.7,0c0.3,0,0.5-0.1,0.6-0.1v-6c-0.1,0-0.3-0.1-0.6-0.1c-0.2,0-0.5,0-0.6,0c-1,0-1.8,0.2-2.5,0.7
		c-0.6,0.5-0.9,1.3-0.9,2.4c0,1,0.3,1.8,0.8,2.3C222.6,8.7,223.4,9,224.5,9z"/>
</g>
<g>
	<path class="gallery-title-1" d="M79.1,50.6v-0.5H81V30.7c0-0.7-0.1-1.1-0.4-1.4c-0.2-0.3-0.8-0.4-1.6-0.4v-0.6h3.6v1.3c1.1-0.5,2.2-1,3.2-1.3
		C87,28,88,27.8,89,27.8c0.2,0,0.4,0,0.7,0s0.5,0,0.7,0.1c2.2,0.3,4.1,1.2,5.6,2.8c1.6,1.5,2.4,3.3,2.4,5.4v0.8c0,2.1-0.6,4-1.8,5.7
		c-1.2,1.6-2.8,2.8-4.9,3.4c-0.5,0.1-1,0.3-1.7,0.4c-0.7,0.1-1.3,0.2-1.7,0.2c-0.9,0-1.9-0.1-2.8-0.4c-0.9-0.3-1.8-0.7-2.7-1.2
		l0,1.9c0,1.1,0.1,2,0.4,2.5c0.1,0.2,0.4,0.4,0.7,0.5c0.3,0.1,0.7,0.2,1.1,0.2h0.9v0.5H79.1z M96.8,37.1c0-2.4-0.8-4.4-2.4-6
		c-1.6-1.6-3.5-2.4-5.8-2.4c-1,0-2.1,0.2-3,0.6c-1,0.4-1.9,1-2.8,1.8v12.1c0.7,0.9,1.6,1.5,2.6,2c1.1,0.5,2.1,0.7,3.2,0.7
		c2.2,0,4-0.7,5.6-2.2C95.9,42.1,96.8,39.9,96.8,37.1z"/>
	<path class="gallery-title-1" d="M103.4,35.1h3v-3.5h0.4v7.7h-0.4v-0.8c0-1.2-0.1-1.9-0.4-2.2c-0.4-0.4-1.2-0.6-2.6-0.6V50l2.6,0.1
		c1.9,0,3.1-0.3,3.5-0.9c0.4-0.6,0.6-2.2,0.6-4.8h0.5v7.8h-0.5v-1.6H99.8v-0.5h1.9V30.5c0-0.6-0.1-1.1-0.4-1.3
		c-0.2-0.2-0.8-0.4-1.6-0.4v-0.5h10.3v-1.6h0.5V35h-0.5c0-2.9-0.2-4.6-0.6-5.2c-0.4-0.6-1.6-0.9-3.7-0.9h-2.4V35.1z"/>
	<path class="gallery-title-1" d="M130.8,48.2c-1,1-2.1,1.7-3.3,2.1c-1.2,0.5-2.5,0.7-3.8,0.7c-2.6,0-4.9-0.8-7-2.4c-2.2-1.7-3.5-3.9-4.1-6.6
		c-0.1-0.4-0.2-0.9-0.2-1.3c-0.1-0.5-0.1-0.9-0.1-1.3c0-3.3,1.1-6,3.4-8.2c2.3-2.1,5.1-3.2,8.3-3.2c1.6,0,3.2,0.3,4.9,0.9v-2.2h0.5
		v8.6h-0.5v-2c0-0.6,0-1.2-0.1-1.6c-0.1-0.5-0.3-0.9-0.5-1.3c-0.4-0.5-1-0.9-1.7-1.2c-0.8-0.3-1.5-0.4-2.3-0.4h-0.4
		c-2.5,0-4.8,0.9-6.8,2.8c-2,1.9-3,4-3,6.5v1c0,3.2,1.1,5.9,3.2,8.2c2.1,2.1,4.4,3.2,7.1,3.2c1.1,0,2.2-0.2,3.3-0.6
		c1-0.4,2-1,2.8-1.9L130.8,48.2z"/>
	<path class="gallery-title-1" d="M137.4,28.8h-1.6c-0.7,0-1.3,0.1-1.8,0.2c-0.5,0.1-0.8,0.3-1,0.7c-0.2,0.3-0.4,0.8-0.5,1.4
		c-0.1,0.6-0.2,1.2-0.2,1.8l0.1,2.7H132v-8.9h0.5v1.6h11.7v-1.6h0.5v8.9h-0.5v-3.3c0-1.5-0.3-2.4-0.9-2.8c-0.6-0.4-1.9-0.6-4.1-0.6
		v18v0.8c0,1.1,0.2,1.8,0.5,2.1c0.4,0.3,1.2,0.4,2.6,0.4v0.6h-7.7V50h2.8V28.8z"/>
	<path class="gallery-title-1" d="M169.8,44.1c-1,2.1-2.5,3.8-4.7,5.1c-2.2,1.3-4.5,1.9-6.9,1.9c-1.6,0-3.1-0.3-4.5-0.8
		c-2.2-0.9-3.9-2.3-5.1-4.2c-1.2-2-1.9-4.1-1.9-6.4c0-1.6,0.3-3.1,0.9-4.6c0.9-2.2,2.4-3.9,4.5-5.2c2.1-1.3,4.4-2,6.8-2
		c1.8,0,3.5,0.4,5.1,1.1c2.1,0.9,3.7,2.3,4.9,4.2s1.8,3.9,1.8,6.1c0,0.8-0.1,1.6-0.2,2.4S170.1,43.3,169.8,44.1z M169.1,39.2
		c0-2.9-1-5.4-3.1-7.5c-2.1-2.1-4.6-3.2-7.5-3.2c-3,0-5.4,1.1-7.3,3.2c-1.9,2.1-2.9,4.7-2.9,7.7v0.4c0,3.3,1.1,5.9,3.2,7.8
		c1.9,1.8,4.3,2.6,7.1,2.6c2.8,0,5.1-0.9,7.1-2.8c2.2-2,3.3-4.7,3.3-8V39.2z"/>
	<path class="gallery-title-1" d="M172.2,50.6v-0.5h1.9V30.7c0-0.7-0.1-1.1-0.4-1.4c-0.2-0.3-0.8-0.4-1.6-0.4v-0.6h3.6v1.3
		c1.1-0.5,2.2-1,3.2-1.3c1.1-0.3,2.1-0.5,3.1-0.5c0.2,0,0.4,0,0.7,0s0.5,0,0.7,0.1c2.2,0.3,4.1,1.2,5.6,2.8s2.4,3.3,2.4,5.4v0.8
		c0,2.1-0.6,4-1.8,5.7c-1.2,1.6-2.8,2.8-4.9,3.4c-0.5,0.1-1,0.3-1.7,0.4c-0.7,0.1-1.3,0.2-1.7,0.2c-0.9,0-1.9-0.1-2.8-0.4
		c-0.9-0.3-1.8-0.7-2.7-1.2l0,1.9c0,1.1,0.1,2,0.4,2.5c0.1,0.2,0.4,0.4,0.7,0.5c0.3,0.1,0.7,0.2,1.1,0.2h0.9v0.5H172.2z M189.9,37.1
		c0-2.4-0.8-4.4-2.4-6c-1.6-1.6-3.5-2.4-5.8-2.4c-1,0-2.1,0.2-3,0.6c-1,0.4-1.9,1-2.8,1.8v12.1c0.7,0.9,1.6,1.5,2.6,2
		c1.1,0.5,2.1,0.7,3.2,0.7c2.2,0,4-0.7,5.6-2.2C189,42.1,189.9,39.9,189.9,37.1z"/>
	<path class="gallery-title-1" d="M192.2,50.6V50h1.2l6.2-23.2l6.4,20.9c0.2,0.7,0.4,1.2,0.4,1.3c0.3,0.7,0.9,1,1.6,1v0.6h-5V50l2,0L200.9,36
		h-3.1l-2.7,11.1c-0.1,0.2-0.1,0.4-0.2,0.7c0,0.3-0.1,0.5-0.1,0.7c0,0.6,0.2,1,0.7,1.2c0.5,0.2,1.3,0.3,2.4,0.3v0.6H192.2z
		 M198.1,35.4l2.7,0l-1.5-4.9L198.1,35.4z"/>
	<path class="gallery-title-1" d="M221.7,46.8V48c0,0.7,0.1,1.2,0.4,1.6s0.8,0.5,1.6,0.5v0.6h-5.5V50h2V35.7h-7.3v11.1v0.4
		c0,1.2,0.1,1.9,0.4,2.3c0.3,0.4,1,0.5,2.1,0.5v0.6h-6.1V50h1.9V30.7c0-0.7-0.1-1.2-0.4-1.4c-0.2-0.2-0.8-0.4-1.6-0.4v-0.6h5.6v0.6
		h-2v6.2h7.3v-4c0-0.9-0.1-1.5-0.2-1.7c-0.2-0.3-0.8-0.5-1.7-0.5v-0.6h5.5v0.6h-1.9V46.8z"/>
	<path class="gallery-title-1" d="M224.2,50.6V50h1.2l6.2-23.2l6.4,20.9c0.2,0.7,0.4,1.2,0.4,1.3c0.3,0.7,0.9,1,1.6,1v0.6h-5V50l2,0L232.9,36
		h-3.1l-2.7,11.1c-0.1,0.2-0.1,0.4-0.2,0.7c0,0.3-0.1,0.5-0.1,0.7c0,0.6,0.2,1,0.7,1.2c0.5,0.2,1.3,0.3,2.4,0.3v0.6H224.2z
		 M230.1,35.4l2.7,0l-1.5-4.9L230.1,35.4z"/>
</g>
</svg>
