<svg id="Слой_1" xmlns="http://www.w3.org/2000/svg" viewBox="0 0 289.5 68"><style>.st0{fill:#671700}.st1{enable-background:new}.st2{fill:#c9a468}</style><path class="st0" d="M67.3 51.4l1.1-.8c-9.3-11.4-18.7-11-29.9-9.1-8.2 1.4-11.4-4.9-9.1-7.7 1-1.2 2.7-1.3 3.5-.4-1.7.1-2.3 2.9-.8 3.8 2 1.3 4.1-1.1 4-3.3-.1-1.6-1.9-5-6.5-3.6-6.7 2.1-5 13.3 6.5 13.5 9.2.2 17.6-6.4 31.2 7.6zM6.7 56.6c.8-1.4 1.1-3.2 6.4-6.1 1.8-1 3.3-2 4.1-3.3 1.3-2.1 1.3-5.6.2-6.9.9-.2 7.5 4.1 1.8 8.9-4.5 3.8-8.5 2-12.5 7.4zM1.5 66.6c-1.7-.3-2.3-4.1.3-5.1C5 60.3 8.2 64 9 66.1c-1-.6-4.2-2.6-6.3-1.9-.8.3-1.3 1-1.2 2.4zM10 64.9c-4.8-4.2-3.1-8.8.3-9.8 3.6-1 6.6 3.3 3.8 5.7 0-2.1-2-2.2-3.3-1.8-1.5.5-1.9 2.7-.8 5.9z"/><path class="st0" d="M10.2 65c2.1 1 5.5 2.3 10.2-5.2 2.4-3.7 5.9-7.9 9.8-10.7 3.9-2.9 7.5-3.7 10.4-4.1-16.4 9.1-13.2 15.8-19.7 20.4-3.9 2.8-8.4 2.5-10.7-.4z"/><path class="st0" d="M60.5 48.1c-1-.3-4.5-3.1-11.1-.9-3.4 1.1-5.2 3.7-5.5 6.1-.2 2.4.5 4.7 2.1 5.7 2.9 1.9 7.1 1.3 7.8-2.1.7-3.4-3.1-4.7-3.8-4.9 1-1.6 4.8-1.4 6.3-.3 1.5 1.1 1.3 3 1.4 4.8.2.7 2.6.7 3 .5.1 1.5-.6 3.3-3.1 3.2 0 0-.2 1.5-.1 2.5-.5.7-2.3.8-2.9.9-.1.3 0 1.3.4 2.5-1.1.7-5.3.8-6.7-.1-.3.1-.3 1.1-.5 2-5.4.3-6.4-2-6.3-4-.3.1-6.1 2.7-5.8-7.7.5-16.2 22.9-13.1 24.8-8.2zM222.3 51.4c13.6-14 22-7.4 31.2-7.5 11.5-.2 13.2-11.4 6.5-13.5-4.6-1.4-6.5 2-6.5 3.6-.1 2.2 2 4.6 4 3.3 1.5-.9.9-3.7-.8-3.8.8-.9 2.5-.8 3.5.4 2.3 2.8-.9 9.1-9.1 7.7-11.1-2-20.5-2.3-29.9 9.1l1.1.7zM282.9 56.6c-4-5.4-8-3.6-12.4-7.4-5.7-4.8.9-9.1 1.8-8.9-1.2 1.3-1.1 4.8.2 6.9.8 1.3 2.3 2.3 4.1 3.3 5.2 2.9 5.5 4.7 6.3 6.1zM288.1 66.6c.1-1.4-.4-2.2-1.3-2.4-2.1-.7-5.3 1.3-6.3 1.9.8-2.1 4-5.9 7.2-4.6 2.7 1 2.1 4.8.4 5.1zM279.6 64.9c1.1-3.2.7-5.4-.8-5.8-1.3-.4-3.3-.3-3.3 1.8-2.7-2.4.3-6.8 3.8-5.7 3.4.9 5.1 5.6.3 9.7z"/><path class="st0" d="M279.4 65c-2.3 2.9-6.7 3.1-10.7.3-6.5-4.6-3.3-11.3-19.8-20.3 3 .4 6.5 1.3 10.4 4.1s7.5 7 9.8 10.7c4.8 7.6 8.1 6.3 10.3 5.2z"/><path class="st0" d="M229.1 48.1c1.9-4.9 24.3-8 24.8 8.2.3 10.4-5.5 7.8-5.8 7.7 0 2.1-.9 4.3-6.4 4-.2-.9-.3-1.9-.5-2-1.4.9-5.6.8-6.7.1.5-1.2.5-2.2.4-2.5-.6 0-2.4-.1-2.9-.9.1-1-.1-2.5-.1-2.5-2.5.1-3.2-1.7-3.1-3.2.4.2 2.8.1 3-.5.1-1.8-.1-3.7 1.4-4.8s5.3-1.3 6.3.3c-.8.2-4.6 1.4-3.8 4.9s4.9 4 7.8 2.1c1.6-1 2.3-3.3 2.1-5.7-.2-2.5-2.1-5.1-5.5-6.1-6.5-2.1-10 .6-11 .9z"/><g class="st1"><path class="st2" d="M88 48c.3.1.6.3.8.6.2.2.4.5.6.8.1.3.2.7.2 1 0 .4-.1.7-.2 1-.1.3-.3.6-.5.8s-.5.4-.8.5c-.3.1-.7.2-1 .2-.5 0-.8-.1-1.2-.2s-.7-.3-1-.5-.7-.5-1.1-.9c-.4-.4-.8-.8-1.4-1.3v18h-4V29.6h13v13.5c-1.1.5-2.1.9-3.1 1.2-1 .3-1.8.7-2.5 1s-1.3.7-1.7 1c-.4.4-.6.8-.6 1.3 0 .7.1 1.3.3 1.9.2.6.5 1 .9 1.3 0-.4.1-.8.2-1.1.1-.4.3-.7.5-1 .2-.3.5-.5.8-.7.3-.2.7-.2 1-.2.1 0 .4 0 .8.2zm-1-17.5h-4.6v14.9l4.6-2.1V30.5zM101.6 33.3c0-.3-.1-.6-.2-.9-.1-.3-.3-.5-.5-.7s-.5-.3-.7-.5c-.3-.1-.6-.2-.9-.2-.3 0-.5.1-.8.2-.2.1-.5.3-.6.6-.2.2-.3.5-.4.8-.1.3-.2.6-.2.9v10.1h4.4c1.8 0 3 .9 3.6 2.7.4 1.1.6 2.7.6 4.9h-4.2V47c0-.2-.1-.4-.2-.6-.1-.2-.3-.4-.6-.6-.2-.2-.5-.3-.7-.5s-.5-.2-.7-.2c-.2 0-.5.1-.8.2-.3.1-.5.2-.7.4-.2.2-.4.4-.5.6s-.2.5-.2.7v15.8c0 2.5.3 3.7.9 3.7.4 0 .8-.2 1.2-.5.3-.4.6-.8.9-1.4s.5-1.3.6-2.1.3-1.6.4-2.4c.1-.8.2-1.7.2-2.5s.1-1.6.1-2.3h4.2c0 3.9-.9 7.1-2.7 9.4-1.7 2.2-3.9 3.4-6.6 3.4-.5 0-1 0-1.4-.1-.5-.1-.9-.2-1.3-.4s-.7-.4-1-.7c-.3-.3-.4-.6-.4-1 0-.9.1-1.5.3-1.9.3-.5.8-.8 1.7-.8.1 0 .3.1.4.4s.3.5.4.8c.1.3.3.5.4.8.1.2.3.4.5.4-.2-.9-.4-2-.7-3.1s-.4-2.5-.7-3.7c-.2-1.2-.4-2.4-.6-3.7-.2-1.2-.4-2.4-.5-3.6s-.3-2.2-.4-3.2c-.1-1-.1-1.9-.1-2.6 0-4.3.5-7.9 1.4-10.8 1.1-3.5 2.7-5.3 4.8-5.3 1.4 0 2.5.2 3.4.7.9.4 1.5 1.1 2 1.8s.8 1.7.9 2.8c.2 1.1.2 2.3.2 3.6v3.9h-4.2v-9.1zM116.6 33.3c0-.3-.1-.6-.2-.9-.1-.3-.3-.5-.5-.7s-.5-.4-.7-.5c-.3-.1-.6-.2-.9-.2-.3 0-.5.1-.8.2-.2.1-.5.3-.6.6-.2.2-.3.5-.4.8-.1.3-.2.6-.2.9v29.2c0 2.5.3 3.7.9 3.7.4 0 .8-.2 1.2-.5.3-.4.6-.8.9-1.4s.5-1.3.6-2.1.3-1.6.4-2.4c.1-.8.2-1.7.2-2.5s.1-1.6.1-2.3h4.2c0 3.9-.9 7.1-2.7 9.4-1.7 2.2-3.9 3.4-6.6 3.4-.5 0-1 0-1.4-.1-.5-.1-.9-.2-1.3-.4s-.7-.4-1-.7c-.3-.3-.4-.6-.4-1 0-.9.1-1.5.3-1.9.3-.5.8-.8 1.7-.8.1 0 .3.1.5.4s.3.5.5.8c.2.3.3.5.5.8.1.2.3.4.3.4-.2-.9-.4-2-.7-3.1s-.5-2.3-.7-3.5c-.2-1.2-.4-2.4-.6-3.7-.2-1.2-.4-2.4-.5-3.6s-.3-2.2-.4-3.2c-.1-1-.1-1.9-.1-2.6 0-4.3.5-7.9 1.4-10.8 1.1-3.5 2.7-5.3 4.8-5.3 1.5 0 2.6.2 3.5.7s1.5 1.2 2 2.1.7 1.9.9 3.1c.1 1.2.2 2.5.2 3.9v3h-4.2v-9.2zM134.6 35.8v-5.3h-1.9V68h-4.4V30.5h-2.1v9.9H122V29.6h17v6.2h-4.4zM148.5 30.3c.2.4.4 1 .6 1.8s.5 1.6.7 2.6c.3 1 .5 2 .8 3 .2 1 .5 2.1.7 3.1s.4 2 .6 2.9c.2.9.3 1.7.5 2.4.1.7.2 1.2.3 1.5.2 1.5.4 2.7.4 3.7 0 1.7-.2 3.4-.6 5.2-.4 1.7-1 3.5-1.9 5.4-1.9 4.1-3.9 6.2-6.1 6.2-.3 0-.5-.2-.8-.6-.2-.4-.5-1-.7-1.7-.2-.7-.4-1.5-.6-2.5l-.6-3c-.2-1.1-.4-2.2-.5-3.3s-.3-2.3-.4-3.4c-.1-1.1-.2-2.2-.4-3.2-.1-1-.2-1.9-.3-2.7-.1-.8-.1-1.5-.2-2s-.1-.9-.1-1c0-.7.1-1.5.2-2.5s.4-2.1.7-3.2c.3-1.1.7-2.2 1.1-3.3.4-1.1 1-2.1 1.6-3 .6-.9 1.3-1.6 2-2.1s1.5-.8 2.4-.8c.3-.2.4 0 .6.5zm-2.8 2.8c-.4.4-.8.8-1.2 1.4-.4.6-.7 1.2-1 2-.3.7-.5 1.4-.7 2.1-.2.7-.4 1.4-.5 2-.1.6-.2 1.1-.2 1.5 0 .8.1 1.7.4 2.7s.5 2 .9 3c.4 1.1.7 2.1 1.2 3.2.4 1.1.8 2.2 1.2 3.2.4 1 .7 2.1.9 3s.4 1.8.4 2.6c0 .7-.1 1.4-.2 2.1s-.3 1.5-.6 2.3c.5 0 .9-.2 1.3-.6.4-.4.8-1 1.1-1.6.3-.7.6-1.4.9-2.2.2-.8.5-1.6.6-2.4s.3-1.5.4-2.1c.1-.7.1-1.1.1-1.5 0-.4-.1-1-.3-1.7s-.5-1.4-.8-2.3c-.3-.8-.7-1.7-1-2.6s-.7-1.8-1-2.6c-.3-.8-.6-1.6-.8-2.3s-.3-1.3-.3-1.7c0-1.4.1-2.8.2-4.2.1-1.4.4-2.7.6-4-.7.1-1.1.3-1.6.7zM164.3 48c.3.1.6.3.8.6.2.2.4.5.6.8.1.3.2.7.2 1 0 .4-.1.7-.2 1-.1.3-.3.6-.5.8s-.5.4-.8.5c-.3.1-.7.2-1 .2-.5 0-.8-.1-1.2-.2s-.7-.3-1-.5-.7-.5-1.1-.9c-.4-.4-.8-.8-1.4-1.3v18h-4V29.6h13v13.5c-1.1.5-2.1.9-3.1 1.2-1 .3-1.8.7-2.5 1s-1.3.7-1.7 1c-.4.4-.6.8-.6 1.3 0 .7.1 1.3.3 1.9.2.6.5 1 .9 1.3 0-.4.1-.8.2-1.1.1-.4.3-.7.5-1 .2-.3.5-.5.8-.7.3-.2.7-.2 1-.2.2 0 .5 0 .8.2zm-1-17.5h-4.6v14.9l4.6-2.1V30.5zM172.7 32.1c.3.1.6.3.8.6.2.2.4.5.5.8.1.3.2.7.2 1 0 .4-.1.7-.2 1-.1.3-.3.6-.5.8-.2.2-.5.4-.8.5s-.7.2-1 .2c-.4 0-.7-.1-1-.2s-.6-.3-.8-.5c-.2-.2-.4-.5-.5-.8-.1-.3-.2-.6-.2-1 0-.6.1-1.2.2-1.8.2-.6.4-1.1.7-1.5.3-.4.7-.8 1.2-1.1.5-.3 1-.4 1.7-.4 1.5 0 2.6.4 3.3 1.3 0 0 .1.1.1.2.1.1.2.3.3.4.1.2.2.3.3.4l.2.2h.1v-2.6h4.2V68h-4.2V48l-4.2 3.4V68H169V52.7l7.8-6.2v-1l-.4.2c-.2.1-.5.3-.8.5s-.7.3-1.1.5c-.4.1-.8.2-1.2.2-.6 0-1.1-.1-1.7-.4-.5-.3-1-.6-1.3-1.1-.4-.4-.7-1-.9-1.5s-.3-1.2-.3-1.7c0-.7.1-1.2.2-1.7.1-.4.4-.8.6-1.1s.6-.5 1-.7c.4-.2.9-.4 1.4-.6.4-.2.8-.4 1.3-.6.5-.2 1-.5 1.5-.8s.9-.6 1.2-.9.5-.6.5-.9V33c0-.3-.1-.5-.3-.8-.2-.3-.4-.6-.7-.8s-.6-.5-1-.7c-.3-.2-.7-.3-.9-.3h-.9c-.3 0-.6.1-.9.1-.3.1-.5.2-.7.3-.2.1-.3.3-.3.6 0 0 0 .1.1.1s.1.1.2.1.2.1.2.1h.1c.3.1.7.2 1 .4zm3.9 4.2c-.4.4-.8.8-1.2 1.1l-1.2 1.2c-.4.4-.6.8-.8 1.4-.2.5-.3 1.1-.3 1.6 0 .4 0 .8.1 1.2.1.4.2.8.4 1.1.2.3.4.6.6.8.2.2.5.3.9.3 1.5 0 2.2-.6 2.2-1.8v-7h-.7zM192.3 52.3V29.6h4.4V68h-4.4V57.3l-1.7 1.9-.7-3.1 1.1-1.4c.1-.1.1-.2.1-.4v-.5c0-.7-.2-1.5-.5-2.5l-2.5-6.4v23h-4.5V29.6h4.5v11l1.8-2 .8 2.9-1.3 1.6c-.2.2-.2.5-.2 1v.4c0 .1.1.3.1.5l3 7.3zM202.5 32.1c.3.1.6.3.8.6.2.2.4.5.5.8.1.3.2.7.2 1 0 .4-.1.7-.2 1-.1.3-.3.6-.5.8-.2.2-.5.4-.8.5s-.7.2-1 .2c-.4 0-.7-.1-1-.2s-.6-.3-.8-.5c-.2-.2-.4-.5-.5-.8-.1-.3-.2-.6-.2-1 0-.6.1-1.2.2-1.8.2-.6.4-1.1.7-1.5.3-.4.7-.8 1.2-1.1.5-.3 1-.4 1.7-.4 1.5 0 2.6.4 3.3 1.3 0 0 .1.1.1.2.1.1.2.3.3.4.1.2.2.3.3.4l.2.2h.1v-2.6h4.2V68h-4.2V48l-4.2 3.4V68h-4.2V52.7l7.8-6.2v-1l-.4.2c-.2.1-.5.3-.8.5s-.7.3-1.1.5c-.4.1-.8.2-1.2.2-.6 0-1.1-.1-1.7-.4-.5-.3-1-.6-1.3-1.1-.4-.4-.7-1-.9-1.5s-.3-1.2-.3-1.7c0-.7.1-1.2.2-1.7.1-.4.4-.8.6-1.1s.6-.5 1-.7c.4-.2.9-.4 1.4-.6.4-.2.8-.4 1.3-.6.5-.2 1-.5 1.5-.8s.9-.6 1.2-.9.5-.6.5-.9V33c0-.3-.1-.5-.3-.8-.2-.3-.4-.6-.7-.8s-.6-.5-1-.7c-.3-.2-.7-.3-.9-.3h-.9c-.3 0-.6.1-.9.1-.3.1-.5.2-.7.3-.2.1-.3.3-.3.6 0 0 0 .1.1.1s.1.1.2.1.2.1.2.1h.1c.4.1.8.2 1.1.4zm3.9 4.2c-.4.4-.8.8-1.2 1.1l-1.2 1.2c-.4.4-.6.8-.8 1.4-.2.5-.3 1.1-.3 1.6 0 .4 0 .8.1 1.2.1.4.2.8.4 1.1.2.3.4.6.6.8.2.2.5.3.9.3 1.5 0 2.2-.6 2.2-1.8v-7h-.7z"/></g><path class="st0" d="M80.1 3h4.5v.6c-.1.1-.3.2-.5.2-.2.1-.5.2-.8.2v1H85c.6 0 1.2.1 1.8.3s1 .5 1.4 1 .7.9 1 1.5c.2.6.3 1.3.3 2 0 .9-.1 1.6-.4 2.2-.3.6-.6 1.1-1.1 1.6s-1 .7-1.6.9c-.6.2-1.2.3-1.8.3h-1.1c-.1 0-.2 0-.3-.1v1.2c.3.1.5.1.7.2l.6.3v.6H80v-.6c.2-.1.4-.2.7-.3.2-.1.5-.1.8-.2v-1.2c-.3 0-.5.1-.8.1h-.9c-.5 0-1.1-.1-1.6-.3-.5-.2-1-.5-1.5-.8-.4-.4-.8-.9-1-1.5-.3-.6-.4-1.4-.4-2.2 0-.8.1-1.5.4-2.1.3-.6.6-1.2 1.1-1.6.5-.4 1-.8 1.6-1 .6-.2 1.2-.3 1.9-.3h.6c.3 0 .5 0 .6.1v-1c-.6-.1-1.1-.3-1.4-.5V3zm.5 10.9h.5c.2 0 .3 0 .5-.1V5.9c-.3 0-.6-.1-1-.1s-.8.1-1.2.2c-.4.2-.8.4-1.1.8-.3.3-.6.8-.8 1.3-.2.5-.3 1.1-.3 1.9 0 .6.1 1.2.3 1.7.2.5.4.9.7 1.2.3.3.7.6 1.1.8.4.1.8.2 1.3.2zm3.8-8h-.5c-.2 0-.4 0-.6.1v7.8c.1 0 .3 0 .5.1h.5c.4 0 .9-.1 1.3-.2.4-.2.8-.4 1.1-.7s.6-.8.8-1.3.3-1.1.3-1.9c0-1.2-.3-2.2-.9-2.9-.6-.7-1.4-1-2.5-1zM91.4 10c0-1 .1-2 .4-2.9.3-.9.7-1.7 1.2-2.3.5-.6 1.2-1.1 2-1.5.8-.4 1.7-.5 2.7-.5s1.9.2 2.7.5c.8.4 1.4.9 2 1.5.5.6 1 1.4 1.2 2.3.3.9.4 1.9.4 2.9s-.1 2-.4 2.9c-.3.9-.7 1.7-1.2 2.3-.5.6-1.2 1.1-2 1.5-.8.4-1.7.5-2.7.5s-1.9-.2-2.7-.5c-.8-.4-1.5-.9-2-1.5s-1-1.4-1.2-2.3c-.3-.9-.4-1.9-.4-2.9zm2.1 0c0 .9.1 1.7.3 2.4.2.8.4 1.4.8 2 .4.6.8 1 1.4 1.3.5.3 1.2.5 1.9.5s1.3-.2 1.8-.5.9-.8 1.3-1.3.6-1.2.7-2c.2-.8.3-1.6.3-2.4 0-.9-.1-1.7-.3-2.4-.2-.8-.4-1.4-.8-2s-.8-1-1.4-1.3c-.5-.3-1.2-.5-1.9-.5s-1.4.2-1.9.5-.9.8-1.3 1.3c-.3.6-.6 1.2-.7 2-.1.7-.2 1.5-.2 2.4zM113.6 17H108v-.6l.9-.3c.3-.1.6-.1 1-.2V4h-3.1l-1.1 2.9h-.5c0-.3-.1-.6-.1-.9 0-.3 0-.7-.1-1 0-.4 0-.7-.1-1v-.9h11.6V4c0 .3 0 .7-.1 1 0 .4 0 .7-.1 1 0 .3-.1.6-.1.9h-.5l-.9-2.9h-3v11.9c.3.1.7.1 1 .2l.9.3v.6zM117.6 10c0-1 .1-2 .4-2.9.3-.9.7-1.7 1.2-2.3.5-.6 1.2-1.1 2-1.5.8-.4 1.7-.5 2.7-.5s1.9.2 2.7.5c.8.4 1.5.9 2 1.5s1 1.4 1.2 2.3c.3.9.4 1.9.4 2.9s-.1 2-.4 2.9c-.3.9-.7 1.7-1.2 2.3-.5.6-1.2 1.1-2 1.5-.8.4-1.7.5-2.7.5s-1.9-.2-2.7-.5c-.8-.4-1.5-.9-2-1.5s-1-1.4-1.2-2.3c-.3-.9-.4-1.9-.4-2.9zm2.1 0c0 .9.1 1.7.3 2.4.2.8.4 1.4.8 2 .4.6.8 1 1.4 1.3.5.3 1.2.5 1.9.5s1.3-.2 1.8-.5.9-.8 1.3-1.3c.3-.6.6-1.2.7-2 .2-.8.3-1.6.3-2.4 0-.9-.1-1.7-.3-2.4-.2-.8-.4-1.4-.8-2s-.8-1-1.4-1.3c-.5-.3-1.2-.5-1.9-.5s-1.4.2-1.9.5-.9.8-1.3 1.3c-.3.6-.6 1.2-.7 2-.1.7-.2 1.5-.2 2.4zM135.5 15.9c.7.1 1.3.3 1.9.5v.6h-5.5v-.6c.5-.2 1.1-.4 1.6-.5V4.1c-.2-.1-.5-.1-.8-.2-.3-.1-.6-.2-.8-.3V3h9.4v2c0 .4 0 .7-.1 1.1 0 .4-.1.7-.1 1h-.5l-1-3h-4v11.8zM144.4 17H140v-.6c.5-.2 1-.4 1.4-.5l5.1-13.2h.6l5.1 13.2c.3.1.5.1.8.2.3.1.5.2.7.3v.6h-5.2v-.6c.3-.1.5-.2.8-.3.3-.1.6-.1.8-.2l-1.4-3.7H144l-1.3 3.7c.6.1 1.1.2 1.7.5v.6zm0-5.8h4L146.9 7l-.4-1.7L146 7l-1.6 4.2zM157.7 4.2c-.8-.1-1.5-.3-2-.6V3h10.5v.6c-.5.2-1 .4-1.6.5V16c.6.1 1.2.3 1.6.5v.5h-5.1v-.6c.2-.1.5-.2.7-.3.3-.1.5-.1.8-.2V4h-3.7c-.1 2.1-.1 3.8-.3 5.2-.1 1.4-.3 2.5-.5 3.4-.2.9-.5 1.6-.7 2.1-.3.5-.6 1-.9 1.4-.3.3-.6.6-1 .8s-.8.2-1.1.2c-.1-.1-.2-.3-.3-.5l-.3-.6c-.1-.2-.2-.4-.2-.7-.1-.2-.1-.4-.1-.6l.3-.5 2.3.4c.2-.3.4-.8.6-1.3.2-.5.4-1.2.5-2.1s.3-1.9.4-3.1c0-.9.1-2.3.1-3.9zM176.8 3c0 .5 0 1.1-.1 1.6s-.1 1.1-.2 1.6h-.5l-.8-2.2h-4.4v5.3h3.3l.8-1.5h.5c.1 1.3.1 2.7 0 4h-.5l-.8-1.5h-3.3V16h4.6l1-2.4h.5c.1.6.2 1.1.2 1.7V17h-9.9v-.6c.5-.2 1-.4 1.6-.5V4.1c-.3-.1-.5-.1-.8-.2-.3-.1-.6-.2-.8-.3V3h9.6zM182.5 15.9c.4 0 .7.1 1 .2l.9.3v.6H179v-.6c.3-.1.5-.2.8-.3.3-.1.6-.1.8-.2V4.1c-.3-.1-.6-.1-.9-.2-.3-.1-.5-.2-.8-.3V3h1.8c.5 0 1.1 0 1.7-.1.6-.1 1.2-.1 1.8-.1.7 0 1.3.1 1.9.2.6.1 1.2.4 1.7.7.5.3.9.8 1.2 1.3.3.6.4 1.2.4 2.1 0 .8-.2 1.5-.5 2s-.7 1-1.2 1.4c-.5.4-1.1.6-1.8.8-.7.2-1.3.3-2 .3h-1.6v4.3zm1.4-12h-.8c-.2 0-.4 0-.6.1v6.5H183.9c.5 0 .9-.1 1.3-.2s.8-.3 1.1-.6c.3-.3.6-.6.8-1.1s.3-.9.3-1.5c0-1.1-.3-1.9-.9-2.5s-1.5-.7-2.6-.7zM200.4 3c0 .5 0 1.1-.1 1.6s-.1 1.1-.2 1.6h-.5l-.8-2.2h-4.4v5.3h3.3l.8-1.5h.5c.1 1.3.1 2.7 0 4h-.5l-.8-1.5h-3.3V16h4.6l1-2.4h.5c.1.6.2 1.1.2 1.7V17h-9.9v-.6c.5-.2 1-.4 1.6-.5V4.1c-.2-.1-.4-.1-.7-.2-.3-.1-.6-.2-.8-.3V3h9.5zM214.1 3v.6c-.2.1-.4.2-.7.3-.3.1-.6.2-.9.2V16c.7.1 1.2.3 1.6.5v.5h-5.3v-.6c.5-.2 1.1-.4 1.7-.5v-4.8h-2c-.3.5-.6 1-.8 1.4s-.5.9-.7 1.4c-.2.5-.5.9-.8 1.3s-.6.8-.9 1.3l-.7.5h-2.5v-.5l1-.5c.4-.5.8-.9 1.1-1.3.3-.4.6-.9.9-1.3.3-.4.5-.8.8-1.2.3-.4.5-.8.8-1.2-.4-.1-.8-.3-1.1-.5-.4-.2-.7-.5-.9-.8-.3-.3-.5-.7-.6-1.1-.2-.4-.2-.9-.2-1.5 0-.7.2-1.4.5-1.9s.7-1 1.3-1.3c.5-.3 1.1-.6 1.8-.7.7-.2 1.3-.2 2-.2h4.6zm-5 7.2h.7c.3 0 .5-.1.6-.1v-6c-.1 0-.3-.1-.6-.1h-.6c-1 0-1.8.2-2.5.7-.6.5-.9 1.3-.9 2.4 0 1 .3 1.8.8 2.3.6.6 1.5.8 2.5.8z"/></svg>