<?xml version="1.0" encoding="utf-8"?>
<!-- Generator: Adobe Illustrator 21.0.2, SVG Export Plug-In . SVG Version: 6.00 Build 0)  -->
<svg version="1.1" id="Layer_1" xmlns="http://www.w3.org/2000/svg" xmlns:xlink="http://www.w3.org/1999/xlink" x="0px" y="0px"
	 viewBox="0 0 460.8 512" style="enable-background:new 0 0 460.8 512;" xml:space="preserve">
<style type="text/css">
	.menu-0{fill:#FFFFFF;}
</style>
<g>
	<g>
		<g>
			<path class="menu-0" d="M435.2,0H25.6C11.5,0,0,11.5,0,25.6v460.8C0,500.5,11.5,512,25.6,512h409.6c14.1,0,25.6-11.5,25.6-25.6V25.6
				C460.8,11.5,449.3,0,435.2,0z M341.3,59.7V256v213.3c0,14.1-11.5,25.6-25.6,25.6H25.6c-4.7,0-8.5-3.8-8.5-8.5V25.6
				c0-4.7,3.8-8.5,8.5-8.5h290.1c14.1,0,25.6,11.5,25.6,25.6V59.7z M443.7,486.4c0,4.7-3.8,8.5-8.5,8.5h-85.6
				c5.4-7.2,8.8-16,8.8-25.6v-51.2H384c4.7,0,8.5-3.8,8.5-8.5c0-4.7-3.8-8.5-8.5-8.5h-25.6V384h42.7c4.7,0,8.5-3.8,8.5-8.5
				c0-4.7-3.8-8.5-8.5-8.5h-42.7v-17.1H384c4.7,0,8.5-3.8,8.5-8.5c0-4.7-3.8-8.5-8.5-8.5h-25.6v-17.1h42.7c4.7,0,8.5-3.8,8.5-8.5
				c0-4.7-3.8-8.5-8.5-8.5h-42.7v-34.1h34.1c14.1,0,25.6-11.5,25.6-25.6V76.8c0-14.1-11.5-25.6-25.6-25.6h-34.1v-8.5
				c0-9.6-3.3-18.4-8.8-25.6h85.6c4.7,0,8.5,3.8,8.5,8.5V486.4z M358.4,247.5V68.3h34.1c4.7,0,8.5,3.8,8.5,8.5v162.1
				c0,4.7-3.8,8.5-8.5,8.5H358.4z"/>
			<path class="menu-0" d="M304.3,87c-1.8-1.6-4.2-2.4-6.7-2.1l-1.1,0.1c-0.7,0.1-1.4,0.2-2.1,0.2c-11.8,0-21.3-9.6-21.3-21.3
				c0-0.7,0.1-1.5,0.2-2.2l0.1-1c0.3-2.4-0.5-4.9-2.1-6.7c-1.6-1.8-4-2.9-6.4-2.9H93.4c-2.4,0-4.8,1-6.4,2.9
				c-1.6,1.8-2.4,4.3-2.1,6.7l0.1,1c0.1,0.7,0.2,1.5,0.2,2.2c0,11.8-9.6,21.3-21.3,21.3c-0.7,0-1.4-0.1-2.1-0.2L60.8,85
				c-2.4-0.3-4.9,0.5-6.7,2.1c-1.8,1.6-2.9,4-2.9,6.4v325.1c0,2.4,1,4.8,2.9,6.4c1.8,1.6,4.3,2.4,6.7,2.1l1.1-0.1
				c0.7-0.1,1.4-0.2,2.1-0.2c11.8,0,21.3,9.6,21.3,21.3c0,0.7-0.1,1.5-0.2,2.2l-0.1,1c-0.3,2.4,0.5,4.9,2.1,6.7
				c1.6,1.8,4,2.9,6.4,2.9H265c2.4,0,4.8-1,6.4-2.9c1.6-1.8,2.4-4.3,2.1-6.7l-0.1-1c-0.1-0.7-0.2-1.5-0.2-2.2
				c0-11.8,9.6-21.3,21.3-21.3c0.7,0,1.4,0.1,2.1,0.2l1.1,0.1c2.4,0.4,4.9-0.5,6.7-2.1c1.8-1.6,2.9-4,2.9-6.4V93.4
				C307.2,91,306.2,88.7,304.3,87z M290.1,409.8c-17.8,2-31.9,16.1-33.9,33.9H102.2c-2-17.8-16.1-31.9-33.9-33.9V102.2
				c17.8-2,31.9-16.1,33.9-33.9h154.1c2,17.8,16.1,31.9,33.9,33.9V409.8z"/>
			<path class="menu-0" d="M247.5,307.2H102.4c-4.7,0-8.5,3.8-8.5,8.5c0,4.7,3.8,8.5,8.5,8.5h145.1c4.7,0,8.5-3.8,8.5-8.5
				C256,311,252.2,307.2,247.5,307.2z"/>
			<path class="menu-0" d="M102.4,358.4h42.7c4.7,0,8.5-3.8,8.5-8.5c0-4.7-3.8-8.5-8.5-8.5h-42.7c-4.7,0-8.5,3.8-8.5,8.5
				C93.9,354.6,97.7,358.4,102.4,358.4z"/>
			<path class="menu-0" d="M247.5,341.3h-68.3c-4.7,0-8.5,3.8-8.5,8.5c0,4.7,3.8,8.5,8.5,8.5h68.3c4.7,0,8.5-3.8,8.5-8.5
				C256,345.1,252.2,341.3,247.5,341.3z"/>
			<path class="menu-0" d="M247.5,375.5h-42.7c-4.7,0-8.5,3.8-8.5,8.5c0,4.7,3.8,8.5,8.5,8.5h42.7c4.7,0,8.5-3.8,8.5-8.5
				C256,379.3,252.2,375.5,247.5,375.5z"/>
			<path class="menu-0" d="M170.7,375.5h-68.3c-4.7,0-8.5,3.8-8.5,8.5c0,4.7,3.8,8.5,8.5,8.5h68.3c4.7,0,8.5-3.8,8.5-8.5
				C179.2,379.3,175.4,375.5,170.7,375.5z"/>
			<path class="menu-0" d="M110.9,170.7c4.7,0,8.5-3.8,8.5-8.5v-17.1c0-4.7-3.8-8.5-8.5-8.5c-4.7,0-8.5,3.8-8.5,8.5v17.1
				C102.4,166.9,106.2,170.7,110.9,170.7z"/>
			<path class="menu-0" d="M179.2,230.4c28.2,0,51.2-23,51.2-51.2s-23-51.2-51.2-51.2S128,151,128,179.2S151,230.4,179.2,230.4z
				 M179.2,145.1c18.8,0,34.1,15.3,34.1,34.1s-15.3,34.1-34.1,34.1s-34.1-15.3-34.1-34.1S160.4,145.1,179.2,145.1z"/>
			<path class="menu-0" d="M247.5,179.2c-4.7,0-8.5,3.8-8.5,8.5c0,32.9-26.8,59.7-59.7,59.7s-59.7-26.8-59.7-59.7
				c0-4.7-3.8-8.5-8.5-8.5c-4.7,0-8.5,3.8-8.5,8.5c0,42.4,34.5,76.8,76.8,76.8s76.8-34.4,76.8-76.8C256,183,252.2,179.2,247.5,179.2
				z"/>
			<path class="menu-0" d="M247.5,136.5c-4.7,0-8.5,3.8-8.5,8.5v17.1c0,4.7,3.8,8.5,8.5,8.5c4.7,0,8.5-3.8,8.5-8.5v-17.1
				C256,140.3,252.2,136.5,247.5,136.5z"/>
		</g>
	</g>
</g>
</svg>
