<?xml version="1.0" encoding="utf-8"?>
<!-- Generator: Adobe Illustrator 21.0.2, SVG Export Plug-In . SVG Version: 6.00 Build 0)  -->
<svg version="1.1" id="pattern" xmlns="http://www.w3.org/2000/svg" xmlns:xlink="http://www.w3.org/1999/xlink" x="0px" y="0px"
	 viewBox="0 0 412.4 111.6" style="enable-background:new 0 0 412.4 111.6;" xml:space="preserve">
<style type="text/css">
	.hotel-weave-0{fill:#FFFFFF;}
	.hotel-weave-1{fill:#671700;}
</style>
<path class="hotel-weave-0" d="M10.1,0c29.7,17.6,100.1,53.9,196.8,54.1C304,54.2,374.8,17.6,404.6,0c2.1,2.7,4.5,6.5,6.1,11.5
	c4.5,13.9-0.8,26.2-2.6,29.8c-33.4,18-105.2,50.8-201.9,50.7C110.1,91.9,38.5,59.3,5.1,41.3C3.9,39.2-4,24.5,2.6,10.1
	C4.6,5.5,7.6,2.2,10.1,0z"/>
<path class="hotel-weave-1" d="M212.3,48.4l-3.1,2.4c27.2,33.2,54.5,32.1,86.9,26.4c23.8-4.2,33.2,14.2,26.5,22.3c-3,3.6-8,3.9-10.3,1.2
	c4.9-0.4,6.7-8.4,2.3-11.1c-5.8-3.7-11.9,3.1-11.6,9.6c0.2,4.6,5.6,14.6,19,10.4c19.5-6.2,14.6-38.6-18.8-39.3
	C276.3,69.8,251.9,89.2,212.3,48.4L212.3,48.4z"/>
<path class="hotel-weave-1" d="M388.7,33.2c-2.2,4-3.2,9.2-18.6,17.8c-5.3,2.9-9.7,5.7-11.9,9.5c-3.8,6.2-3.9,16.3-0.5,20.1
	c-2.5,0.7-21.7-11.8-5.1-25.9C365.5,43.7,377.2,48.9,388.7,33.2L388.7,33.2z"/>
<path class="hotel-weave-1" d="M403.9,4c4.9,0.9,6.8,11.9-1,14.9c-9.2,3.6-18.7-7.4-20.9-13.5c2.8,1.7,12.1,7.5,18.2,5.6
	C402.8,10.3,404.3,8.1,403.9,4L403.9,4z"/>
<path class="hotel-weave-1" d="M379.2,9c14,12.1,8.9,25.6-0.8,28.4c-10.4,3-19.2-9.6-11.2-16.7c0,6.2,5.7,6.5,9.6,5.3
	C381.1,24.7,382.5,18.2,379.2,9L379.2,9z"/>
<path class="hotel-weave-1" d="M378.5,8.6c-6.2-3-15.9-6.8-29.7,15c-6.9,10.8-17.3,23-28.6,31.2c-11.4,8.3-21.7,10.9-30.3,12
	c48-26.4,38.6-45.9,57.6-59.2C358.9-0.5,371.8,0.3,378.5,8.6L378.5,8.6z"/>
<path class="hotel-weave-1" d="M232.2,57.9c3,0.9,13.2,8.9,32.2,2.6c9.8-3.2,15.2-10.7,15.9-17.9c0.7-6.9-1.3-13.6-6-16.5
	c-8.4-5.4-20.6-3.9-22.7,6.1c-2.1,10,8.9,13.6,11.2,14.2c-3,4.6-13.9,4-18.3,0.9c-4.3-3.2-3.9-8.7-4.1-14c-0.6-2-7.6-2.1-8.7-1.6
	c-0.2-4.4,1.7-9.6,9-9.3c0,0,0.6-4.3,0.2-7.2c1.4-2.1,6.6-2.4,8.4-2.5c0.3-0.9,0.1-3.8-1.3-7.2c3.2-1.9,15.3-2.2,19.4,0.3
	c0.8-0.2,1-3.1,1.6-5.7c15.9-1,18.7,5.6,18.6,11.6c0.9-0.2,17.8-7.8,16.8,22.4C303,81.1,237.7,72.3,232.2,57.9L232.2,57.9z"/>
<path class="hotel-weave-1" d="M201.1,48.4c-39.6,40.8-64,21.4-90.9,21.9c-33.4,0.7-38.3,33.1-18.8,39.2c13.4,4.2,18.8-5.8,19-10.4
	c0.3-6.5-5.8-13.3-11.6-9.6c-4.4,2.8-2.6,10.8,2.3,11.1c-2.3,2.7-7.3,2.4-10.3-1.2c-6.7-8.2,2.7-26.5,26.5-22.4
	c32.4,5.7,59.7,6.7,86.9-26.4L201.1,48.4L201.1,48.4z"/>
<path class="hotel-weave-1" d="M24.7,33.2c11.5,15.7,23.1,10.4,36.1,21.5c16.6,14.1-2.6,26.6-5.1,25.9c3.4-3.8,3.3-13.9-0.5-20.1
	c-2.3-3.7-6.7-6.5-11.9-9.5C27.9,42.5,26.9,37.2,24.7,33.2L24.7,33.2z"/>
<path class="hotel-weave-1" d="M9.5,4c-0.4,4.1,1.1,6.2,3.6,7c6.1,1.9,15.4-4,18.2-5.6c-2.2,6.1-11.6,17.1-20.9,13.5C2.6,15.9,4.6,5,9.5,4
	L9.5,4z"/>
<path class="hotel-weave-1" d="M34.1,9c-3.3,9.3-1.8,15.8,2.5,17.1c3.8,1.2,9.5,0.9,9.6-5.3c8,7.1-0.8,19.7-11.2,16.7
	C25.3,34.6,20.2,21.1,34.1,9L34.1,9z"/>
<path class="hotel-weave-1" d="M34.9,8.6c6.7-8.3,19.6-9.1,31.1-1c19,13.3,9.5,32.8,57.6,59.2c-8.7-1.1-18.9-3.7-30.3-12
	c-11.4-8.2-21.8-20.3-28.6-31.2C50.8,1.8,41,5.6,34.9,8.6L34.9,8.6z"/>
<path class="hotel-weave-1" d="M181.2,57.9c-5.6,14.4-70.9,23.2-72.4-23.8c-1-30.2,15.9-22.6,16.8-22.4c-0.1-6,2.7-12.7,18.6-11.6
	c0.6,2.5,0.8,5.5,1.6,5.7c4.1-2.5,16.3-2.2,19.4-0.3c-1.4,3.4-1.6,6.3-1.3,7.2c1.8,0.2,7,0.4,8.4,2.5c-0.5,2.9,0.2,7.2,0.2,7.2
	c7.3-0.3,9.2,4.9,9,9.3c-1.1-0.5-8-0.4-8.7,1.6c-0.2,5.2,0.2,10.8-4.1,14s-15.3,3.7-18.3-0.9c2.3-0.7,13.3-4.2,11.2-14.2
	s-14.2-11.4-22.7-6.1c-4.6,2.9-6.6,9.6-6,16.5c0.7,7.3,6.2,14.7,15.9,17.9C168,66.8,178.3,58.8,181.2,57.9L181.2,57.9z"/>
<path class="hotel-weave-1" d="M206.2,62.5v-1.1c0,0,11.8,30.9,33.1,19.7c-7,11.2-19,12.7-26.3,12c-0.4,1.6,1.2,4,2.9,5.6
	c2.1-1.1,4.9-0.8,6.7,1c2.2,2.2,2.2,5.8,0,8.1c-2.2,2.3-5.8,2.3-8.1,0c-1.7-1.7-2.1-4.2-1.2-6.3c-2.9-2.7-5.9-7.3-7-9.5
	c-0.5,1.5-4.1,7.1-7.6,10.2c0.9,2.1,0.5,4.6-1.3,6.3c-2.2,2.2-5.8,2.1-8-0.2c-2.2-2.3-2.2-5.9,0.1-8.1c1.8-1.8,4.5-2,6.7-0.9
	c1.7-1.6,3.4-3.9,3-5.6c-7.4,0.5-19.4-1.1-26.2-12.4C192.9,92.3,205,65.3,206.2,62.5L206.2,62.5z"/>
</svg>
