<?xml version="1.0" encoding="utf-8"?>
<!-- Generator: Adobe Illustrator 21.0.2, SVG Export Plug-In . SVG Version: 6.00 Build 0)  -->
<svg version="1.1" id="Слой_1" xmlns="http://www.w3.org/2000/svg" xmlns:xlink="http://www.w3.org/1999/xlink" x="0px" y="0px"
	 viewBox="0 0 189 39" style="enable-background:new 0 0 189 39;" xml:space="preserve">
<style type="text/css">
	.kuren{fill:#671700;}
</style>
<g>
	<path class="kuren" d="M4.3,2.7C4.6,2.8,4.9,3,5.1,3.2c0.2,0.2,0.4,0.5,0.5,0.8c0.1,0.3,0.2,0.7,0.2,1c0,0.4-0.1,0.7-0.2,1
		C5.5,6.4,5.4,6.7,5.1,6.9C4.9,7.1,4.6,7.3,4.3,7.4C4,7.6,3.7,7.6,3.3,7.6c-0.4,0-0.7-0.1-1-0.2C2,7.3,1.7,7.1,1.5,6.9
		C1.3,6.7,1.1,6.4,1,6.1c-0.1-0.3-0.2-0.6-0.2-1c0-0.6,0.1-1.2,0.2-1.8c0.2-0.6,0.4-1.1,0.7-1.5C2.1,1.3,2.5,0.9,3,0.6
		c0.5-0.3,1-0.4,1.7-0.4c1.5,0,2.6,0.4,3.3,1.3c0,0,0.1,0.1,0.1,0.2c0.1,0.1,0.2,0.3,0.3,0.4c0.1,0.2,0.2,0.3,0.3,0.4
		c0.1,0.1,0.2,0.2,0.2,0.2H9V0.2h4.2v38.4H9v-20L4.8,22v16.6H0.6V23.3l7.8-6.2v-1c0,0-0.2,0.1-0.4,0.2c-0.2,0.1-0.5,0.3-0.8,0.5
		C6.8,17,6.4,17.1,6,17.3c-0.4,0.1-0.8,0.2-1.2,0.2c-0.6,0-1.1-0.1-1.7-0.4c-0.5-0.3-1-0.6-1.3-1.1c-0.4-0.4-0.7-1-0.9-1.5
		c-0.2-0.6-0.3-1.2-0.3-1.7c0-0.7,0.1-1.2,0.2-1.7C1,10.7,1.2,10.3,1.4,10s0.6-0.5,1-0.7c0.4-0.2,0.9-0.4,1.4-0.6
		c0.4-0.2,0.8-0.4,1.3-0.6c0.5-0.2,1-0.5,1.5-0.8s0.9-0.6,1.2-0.9c0.3-0.3,0.5-0.6,0.5-0.8V3.7c0-0.3-0.1-0.5-0.3-0.8
		C7.9,2.5,7.6,2.3,7.3,2C7,1.7,6.7,1.5,6.4,1.3C6,1.2,5.7,1.1,5.4,1.1c-0.3,0-0.6,0-0.9,0c-0.3,0-0.6,0.1-0.9,0.1
		C3.4,1.3,3.1,1.4,2.9,1.6C2.7,1.7,2.7,1.9,2.7,2.1c0,0,0,0.1,0.1,0.1s0.1,0.1,0.2,0.1c0.1,0,0.2,0.1,0.2,0.1c0.1,0,0.1,0,0.1,0
		C3.7,2.5,4,2.5,4.3,2.7z M8.3,6.9C7.9,7.3,7.5,7.7,7,8C6.6,8.4,6.2,8.8,5.8,9.2C5.5,9.6,5.2,10,5.1,10.6c-0.2,0.5-0.3,1.1-0.3,1.6
		c0,0.4,0,0.8,0.1,1.2c0.1,0.4,0.2,0.8,0.4,1.1c0.2,0.3,0.4,0.6,0.6,0.8c0.2,0.2,0.5,0.3,0.9,0.3c1.5,0,2.2-0.6,2.2-1.8v-7H8.3z"/>
	<path class="kuren" d="M27.4,6.4V1.1h-1.9v37.5h-4.4V1.1H19V11h-4.2V0.2h17v6.2H27.4z"/>
	<path class="kuren" d="M36.9,2.7c0.3,0.1,0.6,0.3,0.8,0.6c0.2,0.2,0.4,0.5,0.5,0.8c0.1,0.3,0.2,0.7,0.2,1c0,0.4-0.1,0.7-0.2,1
		c-0.1,0.3-0.3,0.6-0.5,0.8c-0.2,0.2-0.5,0.4-0.8,0.5c-0.3,0.1-0.7,0.2-1,0.2c-0.4,0-0.7-0.1-1-0.2c-0.3-0.1-0.6-0.3-0.8-0.5
		c-0.2-0.2-0.4-0.5-0.5-0.8c-0.1-0.3-0.2-0.6-0.2-1c0-0.6,0.1-1.2,0.2-1.8c0.2-0.6,0.4-1.1,0.7-1.5c0.3-0.4,0.7-0.8,1.2-1.1
		c0.5-0.3,1-0.4,1.7-0.4c1.5,0,2.6,0.4,3.3,1.3c0,0,0.1,0.1,0.1,0.2c0.1,0.1,0.2,0.3,0.3,0.4c0.1,0.2,0.2,0.3,0.3,0.4
		c0.1,0.1,0.2,0.2,0.2,0.2h0.1V0.2h4.2v38.4h-4.2v-20L37.4,22v16.6h-4.2V23.3l7.8-6.2v-1c0,0-0.2,0.1-0.4,0.2
		c-0.2,0.1-0.5,0.3-0.8,0.5c-0.3,0.2-0.7,0.3-1.1,0.5c-0.4,0.1-0.8,0.2-1.2,0.2c-0.6,0-1.1-0.1-1.7-0.4c-0.5-0.3-1-0.6-1.3-1.1
		c-0.4-0.4-0.7-1-0.9-1.5c-0.2-0.6-0.3-1.2-0.3-1.7c0-0.7,0.1-1.2,0.2-1.7c0.1-0.4,0.4-0.8,0.6-1.1s0.6-0.5,1-0.7
		c0.4-0.2,0.9-0.4,1.4-0.6c0.4-0.2,0.8-0.4,1.3-0.6c0.5-0.2,1-0.5,1.5-0.8s0.9-0.6,1.2-0.9C40.8,6.1,41,5.8,41,5.5V3.7
		c0-0.3-0.1-0.5-0.3-0.8c-0.2-0.3-0.4-0.6-0.7-0.8c-0.3-0.3-0.6-0.5-1-0.7c-0.3-0.2-0.7-0.3-0.9-0.3c-0.3,0-0.6,0-0.9,0
		c-0.3,0-0.6,0.1-0.9,0.1c-0.3,0.1-0.5,0.2-0.7,0.3c-0.2,0.1-0.3,0.3-0.3,0.6c0,0,0,0.1,0.1,0.1s0.1,0.1,0.2,0.1
		c0.1,0,0.2,0.1,0.2,0.1c0.1,0,0.1,0,0.1,0C36.3,2.5,36.6,2.5,36.9,2.7z M40.9,6.9c-0.4,0.4-0.8,0.8-1.2,1.1
		c-0.4,0.4-0.8,0.8-1.2,1.2c-0.4,0.4-0.6,0.8-0.8,1.4c-0.2,0.5-0.3,1.1-0.3,1.6c0,0.4,0,0.8,0.1,1.2c0.1,0.4,0.2,0.8,0.4,1.1
		c0.2,0.3,0.4,0.6,0.6,0.8c0.2,0.2,0.5,0.3,0.9,0.3c1.5,0,2.2-0.6,2.2-1.8v-7H40.9z"/>
	<path class="kuren" d="M51.6,2.7c0.3,0.1,0.6,0.3,0.8,0.6c0.2,0.2,0.4,0.5,0.5,0.8c0.1,0.3,0.2,0.7,0.2,1c0,0.4-0.1,0.7-0.2,1
		c-0.1,0.3-0.3,0.6-0.5,0.8c-0.2,0.2-0.5,0.4-0.8,0.5c-0.3,0.1-0.7,0.2-1,0.2c-0.4,0-0.7-0.1-1-0.2c-0.3-0.1-0.6-0.3-0.8-0.5
		c-0.2-0.2-0.4-0.5-0.5-0.8c-0.1-0.3-0.2-0.6-0.2-1c0-0.6,0.1-1.2,0.2-1.8c0.2-0.6,0.4-1.1,0.7-1.5c0.3-0.5,0.7-0.8,1.2-1.1
		c0.5-0.3,1-0.4,1.7-0.4c0.6,0,1.1,0,1.5,0.1c0.4,0.1,0.8,0.2,1.1,0.4s0.6,0.5,0.8,0.8c0.2,0.3,0.5,0.8,0.7,1.3V0.2h4.4v22.7
		l2.9-7.4c0.1-0.2,0.1-0.3,0.1-0.5c0-0.1,0-0.3,0-0.4c0-0.3-0.1-0.6-0.2-1l-1.3-1.6l0.8-2.9l1.8,2v-11h4.5v38.4h-4.5v-23L62.2,22
		c-0.4,1-0.5,1.8-0.5,2.5c0,0.2,0,0.4,0,0.5c0,0.1,0.1,0.3,0.1,0.4l1.1,1.4l-0.7,3.1l-1.7-1.9v10.7h-4.4V18.9l-4,3.2v16.6h-4.2V23.3
		l7.8-6.2v-1c0,0-0.2,0.1-0.4,0.2c-0.2,0.1-0.5,0.3-0.8,0.5c-0.3,0.2-0.7,0.3-1.1,0.5c-0.4,0.1-0.8,0.2-1.2,0.2
		c-0.6,0-1.1-0.1-1.7-0.4c-0.5-0.3-1-0.6-1.3-1.1c-0.4-0.4-0.7-1-0.9-1.5s-0.3-1.2-0.3-1.7c0-0.7,0.1-1.2,0.2-1.7
		c0.1-0.4,0.4-0.8,0.6-1.1c0.3-0.3,0.6-0.5,1-0.7c0.4-0.2,0.9-0.4,1.4-0.6c0.4-0.2,0.8-0.4,1.3-0.6c0.5-0.2,1-0.5,1.5-0.8
		c0.5-0.3,0.9-0.6,1.2-0.9c0.3-0.3,0.5-0.6,0.5-0.9V3.7c0-0.3-0.1-0.5-0.3-0.8c-0.2-0.3-0.5-0.6-0.8-0.8c-0.3-0.3-0.6-0.5-1-0.7
		c-0.3-0.2-0.7-0.3-0.9-0.3c-0.3,0-0.5,0-0.9,0S51.2,1.1,51,1.2c-0.3,0.1-0.5,0.2-0.7,0.3C50.1,1.7,50,1.9,50,2.1c0,0,0,0.1,0.1,0.1
		c0.1,0,0.1,0.1,0.2,0.1c0.1,0,0.1,0.1,0.2,0.1c0.1,0,0.1,0,0.1,0C51,2.5,51.3,2.5,51.6,2.7z M55.6,6.9c-0.4,0.4-0.8,0.8-1.2,1.1
		c-0.4,0.4-0.8,0.8-1.2,1.2c-0.4,0.4-0.6,0.8-0.8,1.4c-0.2,0.5-0.3,1.1-0.3,1.6c0,0.4,0,0.8,0.1,1.2c0.1,0.4,0.2,0.8,0.4,1.1
		c0.2,0.3,0.4,0.6,0.6,0.8c0.2,0.2,0.5,0.3,0.9,0.3c1,0,1.6-0.3,2-0.9V6.9L55.6,6.9z"/>
	<path class="kuren" d="M74.8,2.7c0.3,0.1,0.6,0.3,0.8,0.6c0.2,0.2,0.4,0.5,0.5,0.8c0.1,0.3,0.2,0.7,0.2,1c0,0.4-0.1,0.7-0.2,1
		c-0.1,0.3-0.3,0.6-0.5,0.8c-0.2,0.2-0.5,0.4-0.8,0.5c-0.3,0.1-0.7,0.2-1,0.2c-0.4,0-0.7-0.1-1-0.2c-0.3-0.1-0.6-0.3-0.8-0.5
		c-0.2-0.2-0.4-0.5-0.5-0.8c-0.1-0.3-0.2-0.6-0.2-1c0-0.6,0.1-1.2,0.2-1.8c0.2-0.6,0.4-1.1,0.7-1.5c0.3-0.4,0.7-0.8,1.2-1.1
		c0.5-0.3,1-0.4,1.7-0.4c1.5,0,2.6,0.4,3.3,1.3c0,0,0.1,0.1,0.1,0.2c0.1,0.1,0.2,0.3,0.3,0.4c0.1,0.2,0.2,0.3,0.3,0.4
		c0.1,0.1,0.2,0.2,0.2,0.2h0.1V0.2h4.2v38.4h-4.2v-20L75.3,22v16.6h-4.2V23.3l7.8-6.2v-1c0,0-0.2,0.1-0.4,0.2
		c-0.2,0.1-0.5,0.3-0.8,0.5c-0.3,0.2-0.7,0.3-1.1,0.5c-0.4,0.1-0.8,0.2-1.2,0.2c-0.6,0-1.1-0.1-1.7-0.4c-0.5-0.3-1-0.6-1.3-1.1
		c-0.4-0.4-0.7-1-0.9-1.5c-0.2-0.6-0.3-1.2-0.3-1.7c0-0.7,0.1-1.2,0.2-1.7c0.1-0.4,0.4-0.8,0.6-1.1s0.6-0.5,1-0.7
		c0.4-0.2,0.9-0.4,1.4-0.6c0.4-0.2,0.8-0.4,1.3-0.6c0.5-0.2,1-0.5,1.5-0.8s0.9-0.6,1.2-0.9c0.3-0.3,0.5-0.6,0.5-0.8V3.7
		c0-0.3-0.1-0.5-0.3-0.8c-0.2-0.3-0.4-0.6-0.7-0.8c-0.3-0.3-0.6-0.5-1-0.7c-0.3-0.2-0.7-0.3-0.9-0.3c-0.3,0-0.6,0-0.9,0
		c-0.3,0-0.6,0.1-0.9,0.1c-0.3,0.1-0.5,0.2-0.7,0.3c-0.2,0.1-0.3,0.3-0.3,0.6c0,0,0,0.1,0.1,0.1s0.1,0.1,0.2,0.1
		c0.1,0,0.2,0.1,0.2,0.1c0.1,0,0.1,0,0.1,0C74.2,2.5,74.5,2.5,74.8,2.7z M78.8,6.9C78.4,7.3,78,7.7,77.5,8c-0.4,0.4-0.8,0.8-1.2,1.2
		c-0.4,0.4-0.6,0.8-0.8,1.4c-0.2,0.5-0.3,1.1-0.3,1.6c0,0.4,0,0.8,0.1,1.2c0.1,0.4,0.2,0.8,0.4,1.1c0.2,0.3,0.4,0.6,0.6,0.8
		c0.2,0.2,0.5,0.3,0.9,0.3c1.5,0,2.2-0.6,2.2-1.8v-7H78.8z"/>
	<path class="kuren" d="M94.4,22.9V0.2h4.4v38.4h-4.4V27.9l-1.7,1.9L92,26.8l1.1-1.4c0.1-0.1,0.1-0.2,0.1-0.4c0-0.1,0-0.3,0-0.5
		c0-0.7-0.2-1.5-0.5-2.5l-2.5-6.4v23h-4.5V0.2h4.5v11l1.8-2l0.8,2.9l-1.3,1.6c-0.2,0.2-0.2,0.5-0.2,1c0,0.1,0,0.3,0,0.4
		c0,0.1,0.1,0.3,0.1,0.5L94.4,22.9z"/>
	<path class="kuren" d="M101,38.6V0.2h4.3v15.4h0.3c0.8-1.3,2-2.4,3.9-3.4v-12h4.5v12c-0.3,0-0.8,0.1-1.3,0.2c-0.5,0.1-1,0.4-1.6,0.6
		c-0.5,0.3-1.1,0.6-1.6,0.9c-0.5,0.3-1,0.7-1.4,1.1c-0.4,0.4-0.8,0.8-1,1.2c-0.3,0.4-0.4,0.8-0.4,1.2c0,0.5,0.1,0.9,0.4,1.3
		c0.3,0.4,0.6,0.8,1,1.1c0.4,0.3,0.9,0.7,1.4,0.9c0.5,0.3,1.1,0.5,1.6,0.7c0.5,0.2,1.1,0.3,1.6,0.4c0.5,0.1,0.9,0.2,1.3,0.2v16.5
		h-4.5V22.2c-1.6-0.5-2.9-1.5-3.9-3h-0.3v19.5H101z"/>
	<path class="kuren" d="M128.8,4.5c-0.3,0-0.6,0.3-1,0.8c-0.3,0.6-0.6,1.3-0.9,2.2c-0.3,0.9-0.6,1.9-0.8,3c-0.3,1.1-0.5,2.2-0.7,3.4
		c-0.2,1.1-0.4,2.2-0.6,3.2c-0.2,1-0.3,1.9-0.4,2.6c-0.3,1.8-0.5,3.6-0.6,5.3c1.8,0,3.1,0.9,4,2.6c0.7,1.4,1.1,3,1.1,5
		c0,0.9-0.2,1.8-0.5,2.5c-0.4,0.7-0.8,1.4-1.5,1.9c-0.6,0.5-1.3,0.9-2.2,1.2s-1.7,0.4-2.6,0.4c-0.9,0-1.8-0.2-2.6-0.5
		c-0.8-0.3-1.5-0.7-2.1-1.3c-0.6-0.5-1-1.2-1.4-1.9c-0.3-0.7-0.5-1.6-0.5-2.5c0-2.3,0.7-4.1,2.2-5.6c0.7-0.7,1.4-1.2,2.1-1.5
		c0.8-0.3,1.6-0.5,2.4-0.5l1.4-7.9h-3.4l-4.5-16.9h4.1l3.6,13.7h0.5c0.1-0.6,0.1-1.1,0.2-1.6c0.1-0.5,0.1-1,0.2-1.6
		c0.1-0.6,0.2-1.1,0.2-1.7c0.1-0.6,0.2-1.1,0.2-1.6c0.1-0.5,0.1-0.9,0.2-1.1c0.1-0.7,0.3-1.4,0.5-2.1c0.2-0.7,0.5-1.4,0.8-2
		c0.3-0.6,0.7-1.1,1.1-1.5c0.4-0.4,0.9-0.6,1.4-0.6V4.5z M118.3,32c0.2,0.6,0.6,1.1,1.1,1.5c0.8,0.6,1.8,1,3.2,1
		c0.7,0,1.4-0.1,1.9-0.3c0.6-0.2,1.1-0.5,1.5-0.9c0.4-0.4,0.7-0.9,0.9-1.4c0.2-0.6,0.3-1.2,0.3-1.9c0-0.5-0.1-0.9-0.3-1.4
		c-0.2-0.5-0.5-0.9-0.8-1.3c-0.3-0.4-0.7-0.7-1.1-0.9c-0.4-0.2-0.9-0.4-1.3-0.4c0,0.3-0.1,0.6-0.2,1c-0.1,0.4-0.2,0.8-0.3,1.3
		c-0.1,0.5-0.2,0.9-0.4,1.4c-0.1,0.5-0.3,0.9-0.4,1.3c-0.1,0.4-0.3,0.8-0.4,1.1c-0.1,0.3-0.3,0.5-0.5,0.7l-1.3-2.8l1.6-1l0.6-2.9
		c-0.5,0-1.1,0.1-1.6,0.3c-0.5,0.2-1,0.4-1.4,0.8c-0.4,0.3-0.8,0.7-1,1.2c-0.3,0.5-0.4,1-0.4,1.6C117.9,30.7,118,31.4,118.3,32z"/>
	<path class="kuren" d="M140.4,18.6c0.3,0.1,0.6,0.3,0.8,0.6s0.4,0.5,0.6,0.8s0.2,0.7,0.2,1c0,0.4-0.1,0.7-0.2,1s-0.3,0.6-0.5,0.8
		c-0.2,0.2-0.5,0.4-0.8,0.5c-0.3,0.1-0.7,0.2-1,0.2c-0.5,0-0.8-0.1-1.2-0.2c-0.3-0.1-0.7-0.3-1-0.5c-0.3-0.2-0.7-0.5-1.1-0.9
		s-0.8-0.8-1.4-1.3v18h-4V0.2h13v13.5c-1.1,0.5-2.1,0.9-3.1,1.2s-1.8,0.7-2.5,1s-1.3,0.7-1.7,1s-0.6,0.8-0.6,1.3
		c0,0.7,0.1,1.3,0.3,1.9c0.2,0.6,0.5,1,0.9,1.3c0-0.4,0.1-0.8,0.2-1.1c0.1-0.4,0.3-0.7,0.5-1c0.2-0.3,0.5-0.5,0.8-0.7
		c0.3-0.2,0.7-0.2,1-0.2C139.8,18.4,140.1,18.5,140.4,18.6z M139.4,1.1h-4.6V16l4.6-2.1V1.1z"/>
	<path class="kuren" d="M154,3.9c0-0.3-0.1-0.6-0.2-0.9c-0.1-0.3-0.3-0.5-0.5-0.7s-0.5-0.3-0.7-0.5c-0.3-0.1-0.6-0.2-0.9-0.2
		c-0.3,0-0.5,0.1-0.8,0.2c-0.2,0.1-0.5,0.3-0.6,0.6s-0.3,0.5-0.4,0.8c-0.1,0.3-0.2,0.6-0.2,0.9v10.1h4.4c1.8,0,3,0.9,3.6,2.7
		c0.4,1.1,0.6,2.7,0.6,4.9H154v-4.4c0-0.2-0.1-0.4-0.2-0.6c-0.1-0.2-0.3-0.4-0.6-0.6c-0.2-0.2-0.5-0.3-0.7-0.5
		c-0.3-0.1-0.5-0.2-0.7-0.2c-0.2,0-0.5,0.1-0.8,0.2c-0.3,0.1-0.5,0.2-0.7,0.4c-0.2,0.2-0.4,0.4-0.5,0.6c-0.1,0.2-0.2,0.5-0.2,0.7
		v15.8c0,2.5,0.3,3.7,0.9,3.7c0.4,0,0.8-0.2,1.2-0.5c0.3-0.4,0.6-0.8,0.9-1.4c0.3-0.6,0.5-1.3,0.6-2.1c0.2-0.8,0.3-1.6,0.4-2.4
		c0.1-0.8,0.2-1.7,0.2-2.5s0.1-1.6,0.1-2.3h4.2c0,3.9-0.9,7.1-2.7,9.4c-1.7,2.2-3.9,3.4-6.6,3.4c-0.5,0-1,0-1.4-0.1
		s-0.9-0.2-1.3-0.4s-0.7-0.4-1-0.7c-0.3-0.3-0.4-0.6-0.4-1c0-0.9,0.1-1.5,0.3-1.9c0.3-0.5,0.8-0.8,1.7-0.8c0.1,0,0.3,0.1,0.4,0.4
		s0.3,0.5,0.4,0.8c0.1,0.3,0.3,0.5,0.4,0.8s0.3,0.4,0.5,0.4c-0.2-0.9-0.4-2-0.7-3.1c-0.2-1.1-0.5-2.3-0.7-3.5
		c-0.2-1.2-0.4-2.4-0.6-3.7s-0.4-2.4-0.5-3.6c-0.2-1.1-0.3-2.2-0.4-3.2c-0.1-1-0.1-1.9-0.1-2.6c0-4.3,0.5-7.9,1.4-10.8
		c1.1-3.5,2.7-5.3,4.8-5.3c1.4,0,2.5,0.2,3.4,0.7c0.9,0.4,1.5,1.1,2,1.8c0.5,0.8,0.8,1.7,0.9,2.8s0.2,2.3,0.2,3.6v3.9H154V3.9z"/>
	<path class="kuren" d="M168.7,22.9V0.2h4.4v38.4h-4.4V27.9l-1.7,1.9l-0.7-3.1l1.1-1.4c0.1-0.1,0.1-0.2,0.1-0.4c0-0.1,0-0.3,0-0.5
		c0-0.7-0.2-1.5-0.5-2.5l-2.5-6.4v23h-4.5V0.2h4.5v11l1.8-2l0.8,2.9l-1.3,1.6c-0.2,0.2-0.2,0.5-0.2,1c0,0.1,0,0.3,0,0.4
		s0.1,0.3,0.1,0.5L168.7,22.9z"/>
	<path class="kuren" d="M183,20.2c-0.3-0.2-0.6-0.4-0.8-0.7c-0.2-0.3-0.4-0.5-0.5-0.8c-0.1-0.3-0.2-0.5-0.2-0.8
		c-0.2,0.3-0.4,0.6-0.6,0.9c-0.1,0.3-0.3,0.5-0.4,0.9s-0.2,0.6-0.2,0.9c0,0.5,0.2,1,0.7,1.3c0.4,0.4,1,0.7,1.8,1.1s1.6,0.7,2.5,1
		s2,0.7,3,1.1v13.5h-13V0.2h4v18c0.5-0.5,1-0.9,1.4-1.3s0.7-0.7,1.1-0.9c0.3-0.2,0.7-0.4,1-0.5c0.3-0.1,0.7-0.2,1.2-0.2
		c0.4,0,0.7,0.1,1,0.2c0.3,0.1,0.6,0.3,0.8,0.5c0.2,0.2,0.4,0.5,0.5,0.8c0.1,0.3,0.2,0.7,0.2,1c0,0.4-0.1,0.7-0.2,1
		s-0.3,0.6-0.5,0.8s-0.5,0.4-0.8,0.6s-0.6,0.2-1,0.2S183.3,20.4,183,20.2z M183.8,37.8V25l-4.6-2.1v14.9H183.8z"/>
</g>
</svg>
