<?xml version="1.0" encoding="utf-8"?>
<!-- Generator: Adobe Illustrator 21.0.2, SVG Export Plug-In . SVG Version: 6.00 Build 0)  -->
<svg version="1.1" id="_x31_" xmlns="http://www.w3.org/2000/svg" xmlns:xlink="http://www.w3.org/1999/xlink" x="0px" y="0px"
	 viewBox="0 0 251.5 36.3" style="enable-background:new 0 0 251.5 36.3;" xml:space="preserve">
<style type="text/css">
	.footer-logo-0{fill:#671700;}
</style>
<g>
	<g>
		<path class="footer-logo-0" d="M2.4,30.4h2V7.2c0-0.2,0-0.4-0.1-0.6l0,0c0-0.1-0.1-0.2-0.2-0.2l0,0C4,6.3,3.8,6.3,3.6,6.3
			c-0.3,0-0.7-0.1-1.2-0.1H1.9V5.7V4.6V4.2h0.5h9.3c0.9,0,1.6,0.1,2.2,0.3c0.7,0.2,1.2,0.6,1.7,1l0,0c0.4,0.4,0.8,0.9,1,1.5
			c0.2,0.5,0.3,1.1,0.3,1.8c0,0.5-0.1,0.9-0.2,1.3c-0.1,0.4-0.3,0.8-0.5,1.2l0,0c-0.2,0.4-0.5,0.7-0.8,1l-0.1,0.1
			c0.4,0.2,0.8,0.4,1.2,0.6c0.7,0.4,1.3,0.8,1.8,1.4l0,0c0.5,0.5,1,1.1,1.4,1.7c0.4,0.6,0.7,1.3,1,2l0,0c0.3,0.7,0.5,1.4,0.6,2.1
			s0.2,1.4,0.2,2.1c0,1.7-0.4,3.3-1.2,4.8c-0.4,0.8-0.9,1.5-1.5,2.1s-1.3,1.2-2,1.6l0,0c-0.8,0.5-1.6,0.8-2.5,1.1
			c-0.9,0.2-1.9,0.4-2.9,0.4H2.3H1.8l0.1-0.5L2,30.9v-0.4h0.4V30.4z M7.1,30.4h0.3c0.2,0,0.5,0.1,0.8,0.1l0,0c0.3,0,0.6,0.1,0.8,0.1
			s0.4,0,0.6,0c1.1,0,2.1-0.1,3-0.3s1.6-0.6,2.3-1l0,0c0.7-0.4,1.2-0.9,1.6-1.5c0.4-0.5,0.8-1.1,1.1-1.8l0,0c0.3-0.6,0.5-1.3,0.6-2
			s0.2-1.3,0.2-2v-1.3c-0.1-1.1-0.4-2.1-0.7-2.9c-0.4-0.8-0.8-1.5-1.4-2l0,0c-0.6-0.6-1.2-1-1.8-1.4s-1.3-0.6-2-0.8l0,0
			c-0.7-0.2-1.5-0.3-2.4-0.3c-0.8-0.1-1.7-0.1-2.6-0.1H7.2L7.1,30.4L7.1,30.4z M10.9,11.4c0.6,0,1.1-0.1,1.5-0.2s0.7-0.3,0.9-0.6
			l0,0c0.2-0.3,0.4-0.6,0.5-0.9S14,9.1,14,8.6c0-0.1,0-0.1,0-0.2l0,0c0-0.1,0-0.2,0-0.3l0,0c0-0.1,0-0.2,0-0.3V7.7
			c-0.1-0.3-0.2-0.5-0.4-0.7l0,0c-0.2-0.2-0.6-0.4-1-0.6l0,0c-0.4-0.2-0.9-0.3-1.4-0.4s-1-0.1-1.5-0.1c-0.4,0-0.7,0-1,0.1
			C8.4,6,8.1,6.1,7.9,6.2S7.5,6.3,7.4,6.4l0,0l0,0l-0.1,5.2h3.6V11.4z M30.1,14.3l4.8-7l0,0c0.2-0.3,0.4-0.6,0.5-0.7
			s0.1-0.2,0.1-0.3c0,0,0,0-0.1,0l0,0c-0.2-0.1-0.5-0.1-1-0.1h-0.5V5.7v-1V4.2h0.5h6.5h0.5v0.5v1v0.5h-0.5h-2.2l-6.3,8.9l7.5,13.2
			c0.3,0.4,0.5,0.7,0.8,0.9c0.2,0.2,0.5,0.4,0.7,0.6c0.2,0.1,0.5,0.3,0.9,0.4s0.9,0.2,1.5,0.3l0.4,0.1V31v0.9v0.5h-0.5h-7.6h-0.5
			l0.1-0.5l0.1-0.9v-0.4h0.4h1.4l-7-12.7l-0.4,0.7v10.1c0,0.4,0,0.7,0.1,0.9c0,0.2,0.1,0.4,0.2,0.5s0.1,0.2,0.2,0.3s0.1,0.1,0.2,0.1
			l0,0c0.1,0,0.3,0.1,0.5,0.1s0.5,0,0.8,0h0.5l-0.1,0.5L32.5,32v0.4h-0.4h-6.9h-0.5v-0.5l0.1-0.9v-0.4h0.4h1.7V8.2
			c0-0.4,0-0.7-0.1-1c-0.1-0.2-0.2-0.4-0.3-0.5l0,0c-0.2-0.1-0.4-0.2-0.7-0.3c-0.3-0.1-0.7-0.1-1.1-0.1h-0.5V5.8v-1V4.2h0.5h7.1h0.5
			v0.5v1v0.5h-0.5h-1.6L30.1,14.3L30.1,14.3z M41.3,29.6L41.3,29.6L41.3,29.6L41.3,29.6z M53.7,28.6c-0.3,0.4-0.5,0.7-0.6,1
			c-0.1,0.2-0.2,0.3-0.2,0.4c0,0.3,0.6,0.4,1.8,0.4h0.5v0.5v0.9v0.5h-0.5h-7.6h-0.5v-0.5v-0.9v-0.5h0.5h2.1l6.4-11.2L50.2,6H48h-0.5
			V5.5v-1V4.1H48h6.5H55v0.5v1V6l-0.4,0.1c-0.4,0.1-0.7,0.1-0.9,0.2s-0.4,0.1-0.6,0.2l0,0c-0.1,0-0.1,0.1-0.2,0.1l0,0l0,0l0,0
			c0.1,0.2,0.2,0.7,0.5,1.5l3.3,8.3L61.8,6h-1.7h-0.5V5.5v-1V4.1h0.5h7.1h0.5v0.5v1V6l-0.4,0.1c-0.7,0.1-1.3,0.3-1.7,0.7
			c-0.4,0.3-0.8,0.8-1,1.3l0,0l0,0L53.7,28.6L53.7,28.6L53.7,28.6L53.7,28.6z M91.7,5.1l-0.1-1.4V3.2h0.5H93h0.5v0.5l-0.1,10.2v0.5
			h-0.5H92h-0.5v-0.5v-1.1c0-2.1-0.5-3.7-1.5-4.7c-0.5-0.5-1-1-1.6-1.3c-0.5-0.3-1-0.6-1.6-0.7s-1.1-0.2-1.6-0.3
			c-0.5-0.1-0.9-0.1-1.3-0.1l0,0c-1.2,0.1-2.2,0.3-3.2,0.6c-1,0.3-1.9,0.8-2.7,1.4l0,0c-0.8,0.6-1.5,1.2-2.1,2
			c-0.6,0.7-1.1,1.6-1.5,2.5S73.7,14,73.5,15s-0.3,1.9-0.3,3c0,1,0.1,2.1,0.3,3.1s0.5,2,1,3c0.4,1,0.9,1.8,1.5,2.6s1.3,1.5,2.1,2.1
			l0,0c0.8,0.6,1.6,1,2.5,1.3l0,0c0.9,0.3,1.9,0.5,2.9,0.5l0,0c0.1,0,0.1,0,0.2,0s0.1,0,0.2,0l0,0H84c1.9,0,3.5-0.4,5.1-1.1
			c0.8-0.4,1.4-0.8,2-1.2s1.1-0.9,1.5-1.4l0.4-0.5l0.4,0.5l0.6,0.8l0.2,0.2l-0.1,0.3c-0.2,0.4-0.5,0.8-0.9,1.2s-0.8,0.7-1.4,1
			c-0.5,0.3-1.1,0.6-1.7,0.8c-0.6,0.2-1.2,0.4-1.9,0.6s-1.3,0.3-1.9,0.4c-0.6,0.1-1.2,0.1-1.8,0.1c-0.1,0-0.2,0-0.3,0l0,0
			c-0.1,0-0.2,0-0.3,0l0,0c-0.1,0-0.2,0-0.2,0l0,0h-0.1l0,0c-1.4,0-2.7-0.2-3.9-0.6s-2.3-0.9-3.3-1.6s-1.9-1.5-2.7-2.3
			c-0.8-0.9-1.4-1.8-1.9-2.9s-0.9-2.2-1.2-3.3s-0.4-2.3-0.4-3.4c0-0.9,0.1-1.7,0.2-2.6c0.1-0.8,0.4-1.7,0.7-2.5s0.7-1.6,1.1-2.4
			c0.5-0.8,1-1.5,1.6-2.2s1.3-1.3,2-1.9s1.6-1,2.5-1.5l0,0c0.9-0.4,1.9-0.8,2.9-1s2.1-0.4,3.2-0.4l0,0c1.5,0,2.8,0.1,4.1,0.4l0,0
			C89.8,4.3,90.8,4.7,91.7,5.1L91.7,5.1z M84.3,30.4L84.3,30.4L84.3,30.4L84.3,30.4L84.3,30.4z M112.2,6.1v23c0,0.2,0,0.4,0.1,0.6
			c0,0.2,0.1,0.3,0.2,0.4c0,0.1,0.1,0.1,0.2,0.2l0,0c0.2,0.1,0.4,0.1,0.7,0.1h0.1l0,0c0.1,0,0.1,0,0.2,0l0,0c0.1,0,0.2,0,0.3,0l0,0
			c0.1,0,0.2,0,0.2,0h0.5v0.5v0.9v0.5h-0.5h-6.8h-0.5v-0.5v-0.9v-0.5h0.5h1.6V14.1h-6.8v14.8c0,0.4,0,0.7,0.1,1
			c0,0.2,0.1,0.4,0.1,0.5s0.1,0.1,0.2,0.1s0.2,0.1,0.4,0.1h0.1l0,0c0.1,0,0.1,0,0.3,0l0,0c0.1,0,0.2,0,0.3,0l0,0c0.1,0,0.2,0,0.2,0
			h0.5v0.5V32v0.5h-0.5h-6.8h-0.5V32v-0.9v-0.5h0.5h2V8.1c0-0.5,0-0.8-0.1-1.1c0-0.2-0.1-0.3-0.2-0.4l0,0c-0.1-0.1-0.2-0.1-0.5-0.2
			s-0.7-0.1-1.2-0.1h-0.5V5.8v-1V4.2h0.5h6.5h0.5v0.5v1v0.5h-0.5h-1.4v5.7h6.8v-4c0-0.4,0-0.6-0.1-0.9c-0.1-0.2-0.1-0.4-0.2-0.5l0,0
			c-0.1-0.1-0.2-0.2-0.5-0.2l0,0c-0.3-0.1-0.7-0.1-1.2-0.1h-0.5V5.7v-1V4.2h0.5h6.9h0.5v0.5v1v0.5h-0.5L112.2,6.1
			C112.2,6.2,112.2,6.1,112.2,6.1z M131.4,4.2h0.8c1.5,0,2.8,0.2,4,0.5s2.4,0.8,3.4,1.5l0,0c1,0.7,1.9,1.4,2.7,2.3s1.4,1.8,1.9,2.8
			l0,0c0.5,1,0.9,2.1,1.2,3.2l0,0c0.3,1.1,0.4,2.2,0.5,3.4l0,0v0.7c0,1.1-0.1,2.2-0.4,3.3l0,0c-0.3,1.1-0.6,2.2-1.1,3.2l0,0
			c-0.5,1.1-1.1,2-1.9,2.9s-1.6,1.6-2.7,2.3l0,0c-1,0.7-2.1,1.2-3.4,1.5c-1.2,0.3-2.5,0.5-3.9,0.5c-0.1,0-0.1,0-0.3,0l0,0
			c-0.1,0-0.2,0-0.3,0l0,0c-0.1,0-0.2,0-0.3,0s-0.1,0-0.2,0l0,0l0,0l0,0l0,0h-0.2l0,0c-0.1,0-0.1,0-0.2,0l0,0c-0.1,0-0.1,0-0.2,0
			c-1.1,0-2.2-0.1-3.2-0.3s-2-0.5-2.9-0.9l0,0c-0.9-0.4-1.7-0.8-2.5-1.4c-0.7-0.5-1.4-1.1-2-1.8s-1.1-1.4-1.6-2.1s-0.8-1.5-1.1-2.3
			s-0.5-1.7-0.7-2.5c-0.1-0.9-0.2-1.7-0.2-2.6c0-1.2,0.1-2.4,0.4-3.5s0.7-2.3,1.2-3.3l0,0c0.5-1.1,1.2-2.1,2-3s1.8-1.7,2.8-2.3l0,0
			c1.1-0.7,2.3-1.2,3.5-1.5c1.3-0.3,2.6-0.5,4.1-0.5L131.4,4.2L131.4,4.2L131.4,4.2z M131.5,32.1L131.5,32.1L131.5,32.1L131.5,32.1z
			 M131.4,6.3c-1.1,0-2.2,0.2-3.1,0.5c-1,0.3-1.9,0.7-2.8,1.2s-1.6,1.2-2.3,1.9s-1.2,1.5-1.7,2.4l0,0c-0.5,0.9-0.8,1.8-1,2.7
			s-0.3,1.9-0.3,2.9v0.5c0,1,0.1,1.9,0.3,2.8c0.2,0.9,0.6,1.8,1,2.7l0,0c0.5,0.9,1,1.7,1.7,2.4s1.4,1.4,2.3,1.9l0,0
			c1.7,1.1,3.7,1.6,5.9,1.6c0.1,0,0.2,0,0.3,0.1l0,0l0,0c1.1,0,2.2-0.1,3.1-0.4c1-0.3,1.8-0.7,2.6-1.2l0,0c0.8-0.5,1.5-1.1,2.1-1.8
			s1.1-1.5,1.5-2.4s0.7-1.8,0.9-2.7s0.3-1.9,0.3-2.9c0-0.8-0.1-1.5-0.2-2.3c-0.1-0.7-0.3-1.5-0.5-2.2l0,0c-0.2-0.7-0.5-1.4-0.9-2.1
			c-0.3-0.7-0.7-1.3-1.2-1.9c-0.9-1.2-2-2.1-3.3-2.8l0,0c-0.6-0.3-1.3-0.6-2.1-0.8c-0.7-0.2-1.5-0.3-2.3-0.3l0,0L131.4,6.3
			L131.4,6.3L131.4,6.3z M131.8,29.9L131.8,29.9L131.8,29.9L131.8,29.9L131.8,29.9z M174,32.3h-10.7h-0.5l0.1-0.5l0.1-0.9v-0.4h0.4
			h1.7V8.6l0,0c0-0.3,0-0.6-0.1-0.8c0-0.2-0.1-0.4-0.1-0.6l0,0c0-0.1-0.1-0.2-0.1-0.3c0-0.1-0.1-0.1-0.1-0.1c-0.1,0-0.1-0.1-0.2-0.1
			s-0.2-0.1-0.3-0.1l0,0c-0.2,0-0.4-0.1-0.6-0.1c-0.3-0.1-0.5-0.1-0.7-0.1l-0.4-0.1l0.1-0.5l0.2-1.1l0.1-0.4h0.4h11V3.4V2.9h0.5h0.9
			h0.5v0.5v8.8v0.5h-0.5h-0.9h-0.5v-0.5v-0.8c0-0.8-0.1-1.4-0.2-2c-0.1-0.5-0.3-1-0.5-1.4s-0.5-0.7-0.8-0.9
			c-0.3-0.2-0.7-0.4-1.1-0.6c-0.5-0.1-1-0.2-1.6-0.3c-0.5-0.1-1.1-0.1-1.7-0.1v5.6h1.9V8.2V7.7h0.5h0.9h0.5v0.5v10v0.5h-0.9h-0.9
			h-0.5v-0.5c0-0.8-0.1-1.5-0.2-2.1s-0.2-1.1-0.4-1.4l0,0c-0.1-0.3-0.3-0.6-0.6-0.7c-0.2-0.1-0.4-0.2-0.7-0.2v16.7
			c0.1,0,0.2,0,0.3,0s0.3,0,0.4,0s0.2,0,0.3,0c0.8,0,1.4-0.1,2-0.2c0.5-0.1,1-0.3,1.3-0.6c0.4-0.2,0.7-0.5,0.9-0.8l0,0
			c0.2-0.3,0.4-0.6,0.5-1l0,0c0.1-0.4,0.2-0.8,0.2-1.3l0,0c0.1-0.5,0.1-1,0.1-1.6v-1.3v-0.5h0.5h0.9h0.5v0.5l-0.1,9.6v0.5h-0.5h-0.9
			h-0.5v-0.5L174,32.3L174,32.3z M164.6,6.6L164.6,6.6L164.6,6.6L164.6,6.6z M199.9,5.1l-0.1-1.4V3.2h0.5h0.9h0.5v0.5l-0.1,10.2v0.5
			h-0.5h-0.9h-0.5v-0.5v-1.1c0-2.1-0.5-3.7-1.5-4.7c-0.5-0.5-1-1-1.6-1.3c-0.5-0.3-1-0.6-1.6-0.7s-1.1-0.2-1.6-0.3
			c-0.5-0.1-0.9-0.1-1.3-0.1l0,0c-1.2,0.1-2.2,0.3-3.2,0.6c-1,0.3-1.9,0.8-2.7,1.4l0,0c-0.8,0.6-1.5,1.2-2.1,2
			c-0.6,0.7-1.1,1.6-1.5,2.5s-0.7,1.8-0.9,2.8s-0.3,1.9-0.3,3c0,1,0.1,2.1,0.3,3.1s0.5,2,1,3c0.4,1,0.9,1.8,1.5,2.6s1.3,1.5,2.1,2.1
			l0,0c0.8,0.6,1.6,1,2.5,1.3l0,0c0.9,0.3,1.9,0.5,2.9,0.5l0,0c0.1,0,0.1,0,0.2,0s0.1,0,0.2,0l0,0h0.1c1.9,0,3.5-0.4,5.1-1.1
			c0.8-0.4,1.4-0.8,2-1.2s1.1-0.9,1.5-1.4l0.4-0.5l0.4,0.5l0.6,0.8l0.2,0.2l-0.1,0.3c-0.2,0.4-0.5,0.8-0.9,1.2s-0.8,0.7-1.4,1
			c-0.5,0.3-1.1,0.6-1.7,0.8s-1.2,0.4-1.9,0.6s-1.3,0.3-1.9,0.4s-1.2,0.1-1.8,0.1c-0.1,0-0.2,0-0.3,0l0,0c-0.1,0-0.2,0-0.3,0l0,0
			c-0.1,0-0.2,0-0.2,0l0,0h-0.1l0,0c-1.4,0-2.7-0.2-3.9-0.6s-2.3-0.9-3.3-1.6s-1.9-1.5-2.7-2.3c-0.8-0.9-1.4-1.8-1.9-2.9
			s-0.9-2.2-1.2-3.3c-0.3-1.1-0.4-2.3-0.4-3.4c0-0.9,0.1-1.7,0.2-2.6c0.1-0.8,0.4-1.7,0.7-2.5s0.7-1.6,1.1-2.4
			c0.5-0.8,1-1.5,1.6-2.2s1.3-1.3,2-1.9c0.7-0.5,1.6-1,2.5-1.5l0,0c0.9-0.4,1.9-0.8,2.9-1s2.1-0.4,3.2-0.4l0,0
			c1.5,0,2.8,0.1,4.1,0.4l0,0C198,4.3,198.9,4.7,199.9,5.1L199.9,5.1z M192.5,30.4L192.5,30.4L192.5,30.4L192.5,30.4L192.5,30.4z
			 M211,30.3V5.9c-0.4,0-0.8,0-1.2,0.1c-0.5,0.1-0.8,0.2-1.2,0.3l0,0c-0.3,0.1-0.6,0.3-0.8,0.5s-0.4,0.4-0.5,0.7
			c-0.1,0.3-0.3,0.6-0.3,1c-0.1,0.3-0.1,0.7-0.2,1l0,0c0,0.4-0.1,0.9-0.1,1.7c0,0.7-0.1,1.7-0.1,2.7v0.5h-0.5h-0.8h-0.5v-0.5V3.1
			V2.6h0.5h0.9h0.5v0.5V4h12.1V3.1V2.6h0.5h0.9h0.5v0.5V14v0.5h-0.5h-0.9h-0.5V14c0-0.6,0-1.2-0.1-1.8c0-0.6,0-1.1-0.1-1.7
			c0-0.5-0.1-1-0.2-1.4s-0.2-0.8-0.3-1.1l0,0c-0.1-0.3-0.3-0.6-0.5-0.8c-0.2-0.2-0.5-0.5-0.9-0.7l0,0c-0.4-0.2-0.8-0.3-1.3-0.4
			C215,6,214.5,6,214,6v22.5c0,0.4,0.1,0.8,0.2,1l0,0c0.1,0.2,0.2,0.4,0.4,0.4c0.2,0.1,0.6,0.2,1,0.2c0.4,0.1,0.9,0.1,1.5,0.1h0.5
			v0.5v0.9v0.5h-0.5h-7.6H209v-0.5v-0.9v-0.5h0.5h1.5V30.3z M235.6,4.4v0.9v0.5h-0.5H234c-0.7,0-1.1,0.1-1.4,0.3l0,0
			c-0.2,0.2-0.4,0.5-0.4,0.8v2.2c0.9-0.3,1.7-0.5,2.6-0.7c1.1-0.2,2.1-0.3,3.2-0.3c1.2,0,2.3,0.2,3.4,0.5s2,0.8,2.9,1.4l0,0
			c0.9,0.6,1.7,1.3,2.3,2.1l0,0c0.7,0.8,1.2,1.7,1.7,2.6l0,0c0.4,1,0.8,1.9,1,3c0.2,1,0.3,2.1,0.3,3.1s-0.1,1.9-0.3,2.8
			s-0.5,1.8-0.9,2.7s-0.9,1.7-1.5,2.4s-1.3,1.3-2.1,1.9l0,0c-0.8,0.5-1.7,1-2.6,1.2l0,0c-1,0.3-2,0.4-3.1,0.4c0,0-0.1,0-0.2,0l0,0
			c-0.1,0-0.1,0-0.2,0l0,0c-0.1,0-0.1,0-0.2,0l0,0c0,0,0,0-0.1,0l0,0c-0.9,0-2-0.2-3.1-0.5c-0.9-0.2-2-0.6-3.1-1v1v0.5h-0.5H227
			h-0.5v-0.5v-1v-0.5h0.5c0.4,0,0.8,0,1.1-0.1s0.5-0.2,0.7-0.3s0.3-0.3,0.4-0.6s0.1-0.6,0.1-1V6.1c-0.4,0-0.8,0.1-1.1,0.1
			c-0.5,0.1-0.8,0.2-1.2,0.3l0,0c-0.3,0.1-0.6,0.3-0.8,0.5s-0.4,0.5-0.5,0.7c-0.1,0.3-0.3,0.7-0.4,1c-0.1,0.4-0.2,0.7-0.2,1.1l0,0
			c0,0.4-0.1,1-0.1,1.7s-0.1,1.6-0.1,2.5v0.5h-0.5h-0.9H223V14V3.1V2.6h0.5h0.9h0.5v0.5V4h10.2h0.5L235.6,4.4L235.6,4.4z
			 M232.2,12.8v15.1c0.2,0.3,0.5,0.5,0.8,0.7c0.4,0.3,0.9,0.5,1.4,0.7l0,0c0.5,0.2,1.1,0.4,1.6,0.5c0.6,0.1,1.1,0.2,1.7,0.2
			c0.7,0,1.4-0.1,2.1-0.2c0.7-0.2,1.3-0.4,2-0.7c0.6-0.3,1.2-0.7,1.8-1.1c0.5-0.5,1-1,1.5-1.7l0,0c0.4-0.6,0.8-1.3,1-2.1
			s0.4-1.7,0.5-2.6l0,0v-0.8c0-0.9-0.1-1.8-0.3-2.6c-0.2-0.8-0.5-1.7-0.9-2.5l0,0c-0.4-0.8-0.9-1.5-1.5-2.2
			c-0.5-0.6-1.2-1.2-1.9-1.7s-1.4-0.8-2.1-1.1c-0.7-0.2-1.4-0.3-2.1-0.3c-1,0-2,0.2-2.9,0.6C234,11.4,233.1,11.9,232.2,12.8z"/>
	</g>
</g>
</svg>
