<?xml version="1.0" encoding="utf-8"?>
<!-- Generator: Adobe Illustrator 21.0.2, SVG Export Plug-In . SVG Version: 6.00 Build 0)  -->
<svg version="1.1" id="Layer_1" xmlns="http://www.w3.org/2000/svg" xmlns:xlink="http://www.w3.org/1999/xlink" x="0px" y="0px"
	 viewBox="0 0 99.2 99.2" style="enable-background:new 0 0 99.2 99.2;" xml:space="preserve">
<style type="text/css">
	.st0{fill-rule:evenodd;clip-rule:evenodd;fill:#FAF7F5;}
</style>
<g>
	<path class="st0" d="M6.5,5.5c1.3,1.4,4.6,4.8,6.2,5.6c0.6,0.3,1.1,0.3,1.4,0.1c0.3-0.2,0.6-0.5,0.9-0.7c0.7-0.4,1-0.3,1.2-0.2
		c-0.2,0.1-0.5,0.1-0.9,0.6C14.8,11.7,14,12.5,13,12c-1.2-0.6-3.2-2.7-6.7-6.2L6.5,5.5L6.5,5.5z"/>
	<path class="st0" d="M16.9,16.5c-0.1,0-0.2,0.1-0.2,0.1c0,0,0,0.1-0.1,0.1C16.5,17,16.3,17,16.1,17c-0.1-0.1-0.2-0.3-0.1-0.5
		c0.1-0.1,0.2-0.2,0.3-0.2c0-0.1,0.1-0.2,0.2-0.2c0.2-0.1,0.4-0.1,0.5,0.1C17.2,16.2,17.1,16.4,16.9,16.5L16.9,16.5z"/>
	<path class="st0" d="M13.6,12.6c2.2,0.9,3.2-0.4,3.7-1.3c0.4-0.6,1.1-0.4,1.3-0.1c0.1,0.2,0,0.5-0.2,0.6c0,0,0-0.2-0.2-0.2
		c-0.4,0-0.3,0.4-0.2,0.5c0.2,0.1,0.4,0.1,0.6-0.1c1-0.9-0.7-2.5-2.2-1.4c-0.6,0.4-0.7,1.1-1.3,1.6C14.8,12.4,14.3,12.5,13.6,12.6
		L13.6,12.6z"/>
	<path class="st0" d="M9.6,7.9c0.5,0.9,1.7,1.8,2.7,1.7c0.4,0,0.8,0,1,0.2c0.1,0.1,0.1,0.5-0.2,0.5c0.2,0.5,1.5,0.1,1-1
		C14.1,9.1,13.8,9,13.7,9c-0.4-0.2-1.1-0.1-2.1-0.3C11.1,8.6,10.4,8.4,9.6,7.9L9.6,7.9z"/>
	<path class="st0" d="M7,4.8c3.3,3.3,5.2,1.7,7.4,1.7c2.7,0,3.1,2.6,1.6,3.2c-1.1,0.4-1.5-0.4-1.6-0.8c0-0.5,0.5-1.1,0.9-0.8
		c0.4,0.2,0.2,0.9-0.2,0.9c0.2,0.2,0.6,0.2,0.8-0.1c0.5-0.7-0.2-2.1-2.2-1.8C11.2,7.5,9,7.6,6.8,5L7,4.8L7,4.8z"/>
	<path class="st0" d="M21.3,3.4c-0.9,1.3-1.9,0.9-2.9,1.8c-1.3,1.2,0.2,2.2,0.4,2.1c-0.3-0.3-0.3-1.1,0-1.6c0.2-0.3,0.5-0.5,1-0.8
		C21,4.1,21.1,3.7,21.3,3.4L21.3,3.4z"/>
	<path class="st0" d="M22.5,1c0.4,0.1,0.6,1-0.1,1.2c-0.7,0.3-1.5-0.6-1.7-1.1c0.2,0.1,1,0.6,1.5,0.4C22.4,1.5,22.5,1.3,22.5,1
		L22.5,1z"/>
	<path class="st0" d="M20.5,1.4c1.1,1,0.7,2.1,0,2.3c-0.8,0.3-1.6-0.8-0.9-1.3c0,0.5,0.5,0.5,0.8,0.4C20.7,2.7,20.8,2.1,20.5,1.4
		L20.5,1.4z"/>
	<path class="st0" d="M20.4,1.4c-0.6-0.7-1.6-0.7-2.5,0c-1.5,1.1-0.7,2.7-4.6,4.9c0.7-0.1,1.5-0.3,2.4-1c0.9-0.7,1.7-1.7,2.3-2.6
		C19.1,0.8,19.9,1.1,20.4,1.4L20.4,1.4z"/>
	<path class="st0" d="M8.6,5.5c0.5,1.2,5.8,1.8,5.8-2c0-2.5-1.3-1.8-1.4-1.8c0-0.5-0.2-1-1.5-0.9c0,0.2-0.1,0.4-0.1,0.5
		c-0.3-0.2-1.3-0.2-1.6,0C10,1.5,10,1.8,10,1.8c-0.1,0-0.6,0-0.7,0.2c0,0.2,0,0.6,0,0.6c-0.6,0-0.7,0.4-0.7,0.8c0.1,0,0.7,0,0.7,0.1
		c0,0.4,0,0.9,0.3,1.1c0.4,0.3,1.2,0.3,1.5-0.1c-0.2-0.1-1.1-0.3-0.9-1.1c0.2-0.8,1.1-0.9,1.8-0.5c0.4,0.2,0.6,0.8,0.5,1.3
		c0,0.6-0.5,1.2-1.3,1.5C9.7,6.2,8.9,5.6,8.6,5.5L8.6,5.5z"/>
	<path class="st0" d="M13.9,13.9L13.9,13.9c-0.1,0,0.8,1.9-0.7,2.3c0.8,0.2,1.4-0.3,1.7-0.6c0.1,0.1,0.1,0.2,0.1,0.4
		c-0.1,0-0.3,0.2-0.3,0.3c0,0.2,0.2,0.4,0.4,0.4c0.2,0,0.4-0.2,0.4-0.4c0-0.2-0.1-0.3-0.2-0.3c0-0.3-0.1-0.6-0.1-0.7
		c0.1,0,0.5,0.1,0.8,0.1c0.1,0.1,0.2,0.2,0.3,0.2c0.2,0,0.4-0.2,0.4-0.4c0-0.2-0.2-0.4-0.4-0.4c-0.2,0-0.3,0.1-0.3,0.3
		c-0.2,0-0.3,0-0.4-0.1c0.4-0.3,0.8-0.9,0.6-1.7C15.9,14.6,14.1,13.9,13.9,13.9L13.9,13.9z"/>
	<path class="st0" d="M5.4,6.5l0.3-0.2c3.6,3.4,5.7,5.4,6.3,6.6c0.5,1-0.3,1.8-1.1,2.4c-0.4,0.3-0.4,0.6-0.5,0.9
		c-0.1-0.2-0.2-0.5,0.2-1.2c0.2-0.3,0.5-0.6,0.7-0.9c0.2-0.3,0.2-0.8-0.1-1.4C10.3,11.1,6.8,7.8,5.4,6.5L5.4,6.5z"/>
	<path class="st0" d="M12.6,13.5c1,2.1-0.4,3.2-1.3,3.8c-0.6,0.4-0.4,1.1-0.1,1.3c0.2,0.1,0.5,0,0.6-0.2c0,0-0.2,0-0.2-0.2
		c0-0.4,0.3-0.3,0.5-0.2c0.1,0.2,0.1,0.4,0,0.6c-0.9,1-2.5-0.6-1.4-2.1c0.4-0.6,1.1-0.7,1.5-1.3C12.4,14.7,12.6,14.2,12.6,13.5
		L12.6,13.5z"/>
	<path class="st0" d="M7.9,9.6c0.5,0.7,0.7,1.4,0.8,2c0.2,1,0.1,1.7,0.3,2.1c0.1,0.1,0.2,0.3,0.4,0.4c1.1,0.5,1.5-0.8,1-1
		c0,0.3-0.4,0.3-0.5,0.2c-0.2-0.2-0.2-0.6-0.2-1C9.6,11.2,8.8,10.1,7.9,9.6L7.9,9.6z"/>
	<path class="st0" d="M4.7,7l0.2-0.2C7.6,9,7.5,11.2,7,13.8c-0.3,1.9,1.1,2.7,1.8,2.1c0.3-0.2,0.3-0.6,0.1-0.8
		c0,0.4-0.7,0.5-0.9,0.2c-0.3-0.5,0.2-1,0.8-0.9c0.4,0,1.2,0.5,0.8,1.5c-0.5,1.6-3.1,1.2-3.2-1.5C6.4,12.2,8,10.3,4.7,7L4.7,7z"/>
	<path class="st0" d="M3.5,21.3c0.3-0.2,0.8-0.3,1.4-1.5c0.2-0.4,0.5-0.8,0.8-1c0.5-0.3,1.3-0.3,1.6,0c0.1-0.2-1-1.8-2.1-0.4
		C4.3,19.5,4.8,20.4,3.5,21.3L3.5,21.3z"/>
	<path class="st0" d="M1.1,22.6c0.1,0.4,1,0.6,1.2-0.1c0.3-0.7-0.6-1.5-1.1-1.7c0.1,0.2,0.6,1,0.5,1.5C1.6,22.5,1.4,22.6,1.1,22.6
		L1.1,22.6z"/>
	<path class="st0" d="M1.5,20.6c0.8,0.3,1.3,0.1,1.4-0.2C3,20.1,3,19.6,2.5,19.6C3,19,4.1,19.7,3.8,20.5C3.6,21.3,2.5,21.7,1.5,20.6
		L1.5,20.6z"/>
	<path class="st0" d="M1.5,20.5c-0.2-0.5-0.5-1.3,1.2-2.4c0.9-0.6,1.9-1.4,2.5-2.3c0.7-0.9,0.9-1.8,1-2.5c-2.1,3.9-3.7,3.1-4.8,4.7
		C0.7,18.9,0.8,20,1.5,20.5L1.5,20.5z"/>
	<path class="st0" d="M5.5,8.6c0.1,0.2,0.7,1.1,0.2,2.6c-0.3,0.8-0.9,1.2-1.5,1.3c-0.6,0.1-1.1-0.1-1.3-0.5
		c-0.4-0.7-0.3-1.7,0.5-1.8c0.8-0.2,1.1,0.7,1.2,0.9c0.4-0.2,0.3-1.1,0.1-1.5C4.4,9.3,3.9,9.3,3.5,9.3c-0.2,0-0.2-0.6-0.1-0.7
		C3,8.6,2.6,8.8,2.6,9.4c0,0-0.3,0-0.6,0C1.8,9.5,1.8,9.9,1.8,10c-0.1,0-0.3,0-0.6-0.1c-0.1,0.3-0.2,1.2,0,1.6
		c0,0.1-0.3,0.1-0.5,0.1c-0.1,1.3,0.5,1.5,0.9,1.5c0,0.1-0.6,1.4,1.8,1.4C7.4,14.4,6.6,9.1,5.5,8.6L5.5,8.6z"/>
	<path class="st0" d="M5.1,0c0,2.8-2.4,5.3-5.1,5.4c0,0,0,0,0,0v1.7c0.1,0,0.2,0,0.3,0C4,6.9,7.1,3.8,7.1,0H5.1z M0.9,6.6
		c0,0,0-0.1,0.1-0.1C1.1,6.2,1.1,6,1.1,5.8c0,0,0.1,0.1,0.1,0.1c0.1,0.2,0.3,0.3,0.6,0.4C1.5,6.4,1.2,6.5,0.9,6.6z M3.5,5.6
		c0-0.1,0-0.2,0-0.3c0-0.2,0-0.3-0.1-0.4c0.1-0.1,0.1-0.1,0.2-0.2l0.9,0.1C4.2,5.1,3.9,5.4,3.5,5.6z M4.9,4.4L4.6,3.6
		c0-0.1,0.1-0.1,0.1-0.2c0.1,0,0.2,0.1,0.4,0.1c0.2,0,0.4-0.1,0.6-0.2C5.5,3.7,5.2,4.1,4.9,4.4z M5.7,1.1C5.9,1.1,6,1,6.2,1
		c0.2-0.1,0.3-0.2,0.4-0.3c0,0.5-0.2,1-0.3,1.5C6.3,1.6,6,1.3,5.7,1.1z"/>
</g>
<g>
	<path class="st0" d="M92.7,5.5L93,5.8c-3.5,3.6-5.5,5.6-6.7,6.2c-1.1,0.5-1.8-0.3-2.4-1.1c-0.3-0.4-0.6-0.4-0.9-0.6
		c0.2-0.1,0.5-0.2,1.2,0.2c0.3,0.2,0.6,0.5,0.9,0.7c0.3,0.2,0.8,0.2,1.4-0.1C88.1,10.3,91.4,6.9,92.7,5.5L92.7,5.5z"/>
	<path class="st0" d="M82.3,16.5c-0.2-0.1-0.3-0.3-0.2-0.5c0.1-0.1,0.3-0.2,0.5-0.1c0.1,0.1,0.2,0.1,0.2,0.2c0.1,0,0.2,0.1,0.3,0.2
		c0.1,0.2,0.1,0.4-0.1,0.5c-0.1,0.1-0.4,0-0.5-0.2c0,0,0-0.1-0.1-0.1C82.5,16.6,82.4,16.6,82.3,16.5L82.3,16.5z"/>
	<path class="st0" d="M85.7,12.6c-0.8-0.1-1.3-0.2-1.6-0.5c-0.6-0.4-0.7-1.2-1.3-1.6c-1.5-1-3.1,0.5-2.2,1.4
		c0.2,0.2,0.4,0.2,0.6,0.1c0.2-0.1,0.3-0.5-0.2-0.5c-0.1,0-0.1,0.2-0.2,0.2c-0.3-0.1-0.3-0.4-0.2-0.6c0.2-0.3,0.9-0.5,1.3,0.1
		C82.5,12.2,83.5,13.6,85.7,12.6L85.7,12.6z"/>
	<path class="st0" d="M89.6,7.9c-0.8,0.5-1.5,0.7-2,0.8c-1,0.2-1.7,0-2.1,0.3c-0.1,0.1-0.3,0.2-0.4,0.4c-0.5,1.1,0.7,1.5,1,1
		c-0.3,0-0.3-0.4-0.2-0.5c0.2-0.2,0.6-0.2,1-0.2C88,9.7,89.1,8.8,89.6,7.9L89.6,7.9z"/>
	<path class="st0" d="M92.2,4.8L92.5,5c-2.2,2.7-4.5,2.5-7.1,2c-1.9-0.4-2.7,1.1-2.2,1.8c0.2,0.3,0.6,0.3,0.8,0.1
		c-0.4,0-0.5-0.7-0.2-0.9c0.5-0.3,1,0.3,0.9,0.8c0,0.4-0.5,1.2-1.6,0.8c-1.6-0.5-1.1-3.1,1.6-3.2C87,6.4,89,8.1,92.2,4.8L92.2,4.8z"
		/>
	<path class="st0" d="M77.9,3.4c0.2,0.3,0.2,0.8,1.5,1.5c0.4,0.2,0.8,0.5,1,0.8c0.3,0.5,0.3,1.3,0,1.6c0.2,0.1,1.8-0.9,0.4-2.1
		C79.8,4.2,78.8,4.6,77.9,3.4L77.9,3.4z"/>
	<path class="st0" d="M76.7,1c0,0.3,0.1,0.5,0.3,0.6c0.5,0.2,1.3-0.3,1.5-0.4c-0.2,0.5-1,1.4-1.7,1.1C76.2,1.9,76.3,1,76.7,1L76.7,1
		z"/>
	<path class="st0" d="M78.7,1.4c-0.3,0.7-0.2,1.3,0.2,1.4c0.3,0.1,0.8,0.1,0.8-0.4c0.6,0.6-0.1,1.6-0.9,1.3
		C78,3.5,77.6,2.4,78.7,1.4L78.7,1.4z"/>
	<path class="st0" d="M78.8,1.4c0.5-0.2,1.3-0.5,2.4,1.3c0.5,0.9,1.4,1.9,2.3,2.6c0.9,0.7,1.7,0.9,2.4,1C82,4,82.8,2.4,81.3,1.3
		C80.4,0.7,79.3,0.7,78.8,1.4L78.8,1.4z"/>
	<path class="st0" d="M90.6,5.5c-0.2,0.1-1.1,0.7-2.6,0.2c-0.8-0.3-1.2-0.9-1.3-1.5c0-0.6,0.1-1.1,0.5-1.3c0.7-0.4,1.7-0.3,1.8,0.5
		c0.2,0.8-0.7,1.1-0.9,1.1c0.2,0.4,1.1,0.3,1.5,0.1C90,4.4,89.9,4,89.9,3.5c0.1-0.2,0.6-0.2,0.7-0.1c0-0.4-0.1-0.8-0.7-0.8
		c0,0,0-0.3,0-0.6c-0.1-0.2-0.5-0.2-0.7-0.2c0-0.1,0-0.3,0.1-0.6c-0.3-0.2-1.2-0.2-1.6,0c-0.1,0-0.1-0.3-0.1-0.5
		c-1.3-0.1-1.5,0.4-1.5,0.9c-0.1,0-1.4-0.7-1.4,1.8C84.8,7.3,90.1,6.7,90.6,5.5L90.6,5.5z"/>
	<path class="st0" d="M85.3,13.9c-0.2,0.1-1.9,0.7-2.4-0.6c-0.2,0.8,0.3,1.4,0.6,1.7c-0.1,0.1-0.2,0.1-0.4,0.1
		c0-0.1-0.2-0.3-0.3-0.3c-0.2,0-0.4,0.2-0.4,0.4c0,0.2,0.2,0.4,0.4,0.4c0.2,0,0.3-0.1,0.3-0.2c0.3,0,0.7-0.1,0.8-0.1
		c0,0.1-0.1,0.5-0.1,0.7c-0.1,0.1-0.2,0.2-0.2,0.3c0,0.2,0.2,0.4,0.4,0.4c0.2,0,0.4-0.2,0.4-0.4c0-0.2-0.1-0.3-0.3-0.3
		c0-0.2,0-0.3,0.1-0.4c0.3,0.4,0.9,0.8,1.7,0.6C84.5,15.7,85.4,13.8,85.3,13.9L85.3,13.9L85.3,13.9z"/>
	<path class="st0" d="M93.8,6.5c-1.4,1.3-4.9,4.6-5.7,6.1c-0.3,0.6-0.3,1.1-0.1,1.4c0.2,0.3,0.5,0.6,0.7,0.9c0.4,0.7,0.2,1,0.2,1.2
		c-0.1-0.2-0.1-0.5-0.5-0.9c-0.8-0.6-1.6-1.3-1.1-2.4c0.6-1.2,2.7-3.2,6.3-6.6L93.8,6.5L93.8,6.5z"/>
	<path class="st0" d="M86.6,13.5c0.1,0.8,0.2,1.3,0.5,1.6c0.4,0.6,1.2,0.8,1.5,1.3c1,1.5-0.6,3.1-1.4,2.1c-0.2-0.2-0.2-0.4,0-0.6
		c0.1-0.2,0.5-0.3,0.5,0.2c0,0.1-0.2,0.1-0.2,0.2c0.1,0.3,0.4,0.3,0.6,0.2c0.3-0.2,0.6-0.9-0.1-1.3C86.9,16.6,85.6,15.6,86.6,13.5
		L86.6,13.5z"/>
	<path class="st0" d="M91.4,9.6c-1,0.5-1.8,1.6-1.8,2.7c0,0.4,0,0.8-0.2,1c-0.1,0.1-0.5,0.1-0.5-0.2c-0.5,0.2-0.1,1.5,1,1
		c0.2-0.1,0.3-0.3,0.4-0.4c0.2-0.4,0.1-1.1,0.3-2.1C90.7,11,90.9,10.3,91.4,9.6L91.4,9.6z"/>
	<path class="st0" d="M94.5,7c-3.3,3.2-1.7,5.2-1.8,7.4c-0.1,2.7-2.7,3.1-3.2,1.5c-0.3-1.1,0.5-1.5,0.8-1.5c0.5,0,1.1,0.5,0.8,0.9
		c-0.2,0.4-0.9,0.2-0.9-0.2c-0.2,0.2-0.2,0.6,0.1,0.8c0.7,0.5,2.2-0.2,1.8-2.1c-0.5-2.6-0.5-4.8,2.1-7.1L94.5,7L94.5,7z"/>
	<path class="st0" d="M95.7,21.3c-1.3-0.9-0.8-1.9-1.7-2.9c-1.1-1.3-2.2,0.2-2.1,0.4c0.3-0.3,1.1-0.3,1.6,0c0.3,0.2,0.5,0.5,0.8,1
		C95,21.1,95.4,21.2,95.7,21.3L95.7,21.3z"/>
	<path class="st0" d="M98.1,22.6c-0.3,0-0.5-0.1-0.6-0.3c-0.2-0.5,0.3-1.3,0.5-1.5c-0.5,0.2-1.4,0.9-1.1,1.7
		C97.2,23.1,98,23,98.1,22.6L98.1,22.6z"/>
	<path class="st0" d="M97.7,20.6c-1,1.1-2.1,0.7-2.3-0.1c-0.2-0.8,0.8-1.6,1.4-0.9c-0.5,0-0.5,0.5-0.4,0.8
		C96.4,20.7,97,20.9,97.7,20.6L97.7,20.6z"/>
	<path class="st0" d="M97.7,20.5c0.7-0.5,0.7-1.6,0.1-2.5c-1.1-1.5-2.7-0.8-4.8-4.7c0.1,0.7,0.3,1.5,1,2.5c0.7,0.9,1.7,1.8,2.5,2.3
		C98.3,19.2,98,20,97.7,20.5L97.7,20.5z"/>
	<path class="st0" d="M93.7,8.6c-1.2,0.5-1.9,5.7,1.9,5.9c2.4,0.1,1.8-1.3,1.8-1.4c0.5,0,1-0.2,0.9-1.5c-0.2,0-0.4-0.1-0.5-0.1
		c0.2-0.3,0.2-1.3,0-1.6c-0.3,0.1-0.5,0.1-0.6,0.1c0-0.1,0-0.6-0.2-0.7c-0.2,0-0.6,0-0.6,0c0-0.6-0.4-0.7-0.8-0.7
		c0,0.1,0,0.7-0.1,0.7c-0.4,0-0.9,0-1.1,0.3c-0.3,0.4-0.3,1.2,0.1,1.5c0.1-0.2,0.3-1.1,1.2-0.9c0.8,0.2,0.9,1.2,0.5,1.8
		c-0.2,0.4-0.8,0.5-1.3,0.5c-0.6-0.1-1.2-0.5-1.5-1.3C93,9.7,93.7,8.9,93.7,8.6L93.7,8.6z"/>
	<path class="st0" d="M92.2,0c0,3.8,3,6.9,6.8,7.1c0.1,0,0.2,0,0.3,0V5.4c0,0,0,0,0,0c-2.7-0.1-5.1-2.6-5.1-5.4L92.2,0z M97.4,6.4
		c0.2-0.1,0.4-0.2,0.6-0.4c0,0,0.1-0.1,0.1-0.1c0,0.2,0,0.3,0.1,0.6c0,0,0,0.1,0.1,0.1C98,6.5,97.7,6.4,97.4,6.4z M94.7,4.8l0.9-0.1
		c0.1,0.1,0.1,0.1,0.2,0.2c-0.1,0.1-0.1,0.3-0.1,0.4c0,0.1,0,0.2,0,0.3C95.4,5.4,95,5.1,94.7,4.8z M93.5,3.2
		c0.2,0.1,0.4,0.2,0.6,0.2c0.1,0,0.3,0,0.4-0.1c0,0.1,0.1,0.1,0.1,0.2l-0.3,0.9C94,4.1,93.7,3.7,93.5,3.2z M92.9,2.1
		c-0.2-0.5-0.3-1-0.3-1.5c0.1,0.1,0.3,0.3,0.4,0.3c0.1,0.1,0.3,0.1,0.5,0.1C93.2,1.3,93,1.6,92.9,2.1z"/>
</g>
<g>
	<path class="st0" d="M6.5,93.7l-0.2-0.3c3.5-3.6,5.5-5.6,6.7-6.2c1.1-0.5,1.8,0.3,2.4,1.1c0.3,0.4,0.6,0.4,0.9,0.6
		c-0.2,0.1-0.5,0.2-1.2-0.2c-0.3-0.2-0.6-0.5-0.9-0.7c-0.3-0.2-0.8-0.2-1.4,0.1C11.1,88.9,7.8,92.3,6.5,93.7L6.5,93.7z"/>
	<path class="st0" d="M16.9,82.7c0.2,0.1,0.3,0.3,0.2,0.5c-0.1,0.1-0.3,0.2-0.5,0.1c-0.1-0.1-0.2-0.1-0.2-0.2
		c-0.1,0-0.2-0.1-0.3-0.2c-0.1-0.2-0.1-0.4,0.1-0.5c0.1-0.1,0.4,0,0.5,0.2c0,0,0,0.1,0.1,0.1C16.7,82.6,16.8,82.6,16.9,82.7
		L16.9,82.7z"/>
	<path class="st0" d="M13.6,86.6c0.8,0.1,1.3,0.2,1.6,0.5c0.6,0.4,0.7,1.2,1.3,1.6c1.5,1,3.1-0.5,2.2-1.4C18.5,87,18.2,87,18,87.2
		c-0.2,0.1-0.3,0.5,0.2,0.5c0.1,0,0.1-0.2,0.2-0.2c0.3,0.1,0.3,0.4,0.2,0.6c-0.2,0.3-0.9,0.5-1.3-0.1C16.7,87,15.7,85.6,13.6,86.6
		L13.6,86.6z"/>
	<path class="st0" d="M9.6,91.3c0.8-0.5,1.5-0.7,2-0.8c1-0.2,1.7,0,2.1-0.3c0.1-0.1,0.3-0.2,0.4-0.4c0.5-1.1-0.7-1.5-1-1
		c0.3,0,0.3,0.4,0.2,0.5c-0.2,0.2-0.6,0.2-1,0.2C11.3,89.6,10.1,90.4,9.6,91.3L9.6,91.3z"/>
	<path class="st0" d="M7,94.4l-0.2-0.2c2.2-2.7,4.5-2.5,7.1-2c1.9,0.4,2.7-1.1,2.2-1.8c-0.2-0.3-0.6-0.3-0.8-0.1
		c0.4,0,0.5,0.7,0.2,0.9c-0.5,0.3-1-0.3-0.9-0.8c0-0.4,0.5-1.2,1.6-0.8c1.6,0.5,1.1,3.1-1.6,3.2C12.2,92.8,10.3,91.2,7,94.4L7,94.4z
		"/>
	<path class="st0" d="M21.3,95.9c-0.2-0.3-0.2-0.8-1.5-1.5c-0.4-0.2-0.8-0.5-1-0.8c-0.3-0.5-0.3-1.3,0-1.6c-0.2-0.1-1.8,0.9-0.4,2.1
		C19.4,95,20.4,94.6,21.3,95.9L21.3,95.9z"/>
	<path class="st0" d="M22.5,98.2c0-0.3-0.1-0.5-0.3-0.6c-0.5-0.2-1.3,0.3-1.5,0.4c0.2-0.5,1-1.4,1.7-1.1
		C23.1,97.3,22.9,98.2,22.5,98.2L22.5,98.2z"/>
	<path class="st0" d="M20.5,97.8c0.3-0.7,0.2-1.3-0.2-1.4c-0.3-0.1-0.8-0.1-0.8,0.4c-0.6-0.6,0.1-1.6,0.9-1.3
		C21.3,95.8,21.6,96.8,20.5,97.8L20.5,97.8z"/>
	<path class="st0" d="M20.4,97.8c-0.5,0.2-1.3,0.5-2.4-1.3c-0.5-0.9-1.4-1.9-2.3-2.6c-0.9-0.7-1.7-0.9-2.4-1
		c3.9,2.2,3.1,3.8,4.6,4.9C18.8,98.6,19.9,98.5,20.4,97.8L20.4,97.8z"/>
	<path class="st0" d="M8.6,93.7c0.2-0.1,1.1-0.7,2.6-0.2c0.8,0.3,1.2,0.9,1.3,1.5c0,0.6-0.1,1.1-0.5,1.3c-0.7,0.4-1.7,0.3-1.8-0.5
		c-0.2-0.8,0.7-1.1,0.9-1.1c-0.2-0.4-1.1-0.3-1.5-0.1c-0.4,0.3-0.3,0.7-0.3,1.1c-0.1,0.2-0.6,0.2-0.7,0.1c0,0.4,0.1,0.8,0.7,0.8
		c0,0,0,0.3,0,0.6c0.1,0.2,0.5,0.2,0.7,0.2c0,0.1,0,0.3-0.1,0.6c0.3,0.2,1.2,0.2,1.6,0c0.1,0,0.1,0.3,0.1,0.5
		c1.3,0.1,1.5-0.4,1.5-0.9c0.1,0,1.4,0.7,1.4-1.8C14.4,91.9,9.1,92.5,8.6,93.7L8.6,93.7z"/>
	<path class="st0" d="M13.9,85.4c0.2-0.1,1.9-0.7,2.4,0.6c0.2-0.8-0.3-1.4-0.6-1.7c0.1-0.1,0.2-0.1,0.4-0.1c0,0.1,0.2,0.3,0.3,0.3
		c0.2,0,0.4-0.2,0.4-0.4c0-0.2-0.2-0.4-0.4-0.4c-0.2,0-0.3,0.1-0.3,0.2c-0.3,0-0.7,0.1-0.8,0.1c0-0.1,0.1-0.5,0.1-0.7
		c0.1-0.1,0.2-0.2,0.2-0.3c0-0.2-0.2-0.4-0.4-0.4c-0.2,0-0.4,0.2-0.4,0.4c0,0.2,0.1,0.3,0.3,0.3c0,0.2,0,0.3-0.1,0.4
		c-0.3-0.4-0.9-0.8-1.7-0.6C14.7,83.5,13.9,85.4,13.9,85.4L13.9,85.4L13.9,85.4z"/>
	<path class="st0" d="M5.4,92.7c1.4-1.3,4.9-4.6,5.7-6.1c0.3-0.6,0.3-1.1,0.1-1.4c-0.2-0.3-0.5-0.6-0.7-0.9c-0.4-0.7-0.2-1-0.2-1.2
		c0.1,0.2,0.1,0.5,0.5,0.9c0.8,0.6,1.6,1.3,1.1,2.4c-0.6,1.2-2.7,3.2-6.3,6.6L5.4,92.7L5.4,92.7z"/>
	<path class="st0" d="M12.6,85.7c-0.1-0.8-0.2-1.3-0.5-1.6c-0.4-0.6-1.2-0.8-1.5-1.3c-1-1.5,0.6-3.1,1.4-2.1c0.2,0.2,0.2,0.4,0,0.6
		c-0.1,0.2-0.5,0.3-0.5-0.2c0-0.1,0.2-0.1,0.2-0.2c-0.1-0.3-0.4-0.3-0.6-0.2c-0.3,0.2-0.6,0.9,0.1,1.3
		C12.3,82.6,13.6,83.6,12.6,85.7L12.6,85.7z"/>
	<path class="st0" d="M7.9,89.6c1-0.5,1.8-1.6,1.8-2.7c0-0.4,0-0.8,0.2-1c0.1-0.1,0.5-0.1,0.5,0.2c0.5-0.2,0.1-1.5-1-1
		c-0.2,0.1-0.3,0.3-0.4,0.4c-0.2,0.4-0.1,1.1-0.3,2.1C8.6,88.2,8.4,88.9,7.9,89.6L7.9,89.6z"/>
	<path class="st0" d="M4.7,92.2C8,89,6.4,87,6.5,84.8c0.1-2.7,2.7-3.1,3.2-1.5c0.3,1.1-0.5,1.5-0.8,1.5c-0.5,0-1.1-0.5-0.8-0.9
		c0.2-0.4,0.9-0.2,0.9,0.2c0.2-0.2,0.2-0.6-0.1-0.8c-0.7-0.5-2.2,0.2-1.8,2.1c0.5,2.6,0.5,4.8-2.1,7.1L4.7,92.2L4.7,92.2z"/>
	<path class="st0" d="M3.5,77.9c1.3,0.9,0.8,1.9,1.7,2.9c1.1,1.3,2.2-0.2,2.1-0.4c-0.3,0.3-1.1,0.3-1.6,0c-0.3-0.2-0.5-0.5-0.8-1
		C4.2,78.1,3.8,78,3.5,77.9L3.5,77.9z"/>
	<path class="st0" d="M1.1,76.6c0.3,0,0.5,0.1,0.6,0.3c0.2,0.5-0.3,1.3-0.5,1.5c0.5-0.2,1.4-0.9,1.1-1.7C2.1,76.1,1.2,76.2,1.1,76.6
		L1.1,76.6z"/>
	<path class="st0" d="M1.5,78.6c1-1.1,2.1-0.7,2.3,0.1c0.2,0.8-0.8,1.6-1.4,0.9c0.5,0,0.5-0.5,0.4-0.8C2.8,78.5,2.3,78.4,1.5,78.6
		L1.5,78.6z"/>
	<path class="st0" d="M1.5,78.7c-0.7,0.5-0.7,1.6-0.1,2.5c1.1,1.5,2.7,0.8,4.8,4.7c-0.1-0.7-0.3-1.5-1-2.5c-0.7-0.9-1.7-1.8-2.5-2.3
		C0.9,80,1.2,79.2,1.5,78.7L1.5,78.7z"/>
	<path class="st0" d="M5.5,90.6c1.2-0.5,1.9-5.7-1.9-5.9C1.1,84.6,1.7,86,1.7,86c-0.5,0-1,0.2-0.9,1.5c0.2,0,0.4,0.1,0.5,0.1
		c-0.2,0.3-0.2,1.3,0,1.6c0.3-0.1,0.5-0.1,0.6-0.1c0,0.1,0,0.6,0.2,0.7c0.2,0,0.6,0,0.6,0c0,0.6,0.4,0.7,0.8,0.7
		c0-0.1,0-0.7,0.1-0.7c0.4,0,0.9,0,1.1-0.3c0.3-0.4,0.3-1.2-0.1-1.5c-0.1,0.2-0.3,1.1-1.2,0.9c-0.8-0.2-0.9-1.2-0.5-1.8
		c0.2-0.4,0.8-0.5,1.3-0.5c0.6,0.1,1.2,0.5,1.5,1.3C6.2,89.5,5.6,90.3,5.5,90.6L5.5,90.6z"/>
	<path class="st0" d="M7.1,99.2c0-3.8-3-6.9-6.8-7.1c-0.1,0-0.2,0-0.3,0v1.7c0,0,0,0,0,0c2.7,0.1,5.1,2.6,5.1,5.4H7.1z M1.8,92.8
		c-0.2,0.1-0.4,0.2-0.6,0.4c0,0-0.1,0.1-0.1,0.1c0-0.2,0-0.3-0.1-0.6c0,0,0-0.1-0.1-0.1C1.2,92.7,1.5,92.8,1.8,92.8z M4.6,94.4
		l-0.9,0.1c-0.1-0.1-0.1-0.1-0.2-0.2c0.1-0.1,0.1-0.3,0.1-0.4c0-0.1,0-0.2,0-0.3C3.9,93.8,4.2,94.1,4.6,94.4z M5.8,96
		c-0.2-0.1-0.4-0.2-0.6-0.2c-0.1,0-0.3,0-0.4,0.1c0-0.1-0.1-0.1-0.1-0.2l0.3-0.9C5.2,95.1,5.5,95.5,5.8,96z M6.3,97.1
		c0.2,0.5,0.3,1,0.3,1.5c-0.1-0.1-0.3-0.3-0.4-0.3c-0.1-0.1-0.3-0.1-0.5-0.1C6,97.9,6.3,97.6,6.3,97.1z"/>
</g>
<g>
	<path class="st0" d="M92.7,93.7c-1.3-1.4-4.6-4.8-6.2-5.6c-0.6-0.3-1.1-0.3-1.4-0.1c-0.3,0.2-0.6,0.5-0.9,0.7
		c-0.7,0.4-1,0.3-1.2,0.2c0.2-0.1,0.5-0.1,0.9-0.6c0.5-0.8,1.3-1.6,2.4-1.1c1.2,0.6,3.2,2.7,6.7,6.2L92.7,93.7L92.7,93.7z"/>
	<path class="st0" d="M82.3,82.7c0.1,0,0.2-0.1,0.2-0.1c0,0,0-0.1,0.1-0.1c0.1-0.2,0.3-0.3,0.5-0.2c0.1,0.1,0.2,0.3,0.1,0.5
		c-0.1,0.1-0.2,0.2-0.3,0.2c0,0.1-0.1,0.2-0.2,0.2c-0.2,0.1-0.4,0.1-0.5-0.1C82.1,83,82.1,82.8,82.3,82.7L82.3,82.7z"/>
	<path class="st0" d="M85.7,86.6c-2.2-0.9-3.2,0.4-3.7,1.3c-0.4,0.6-1.1,0.4-1.3,0.1c-0.1-0.2,0-0.5,0.2-0.6c0,0,0,0.2,0.2,0.2
		c0.4,0,0.3-0.4,0.2-0.5C81,87,80.8,87,80.6,87.2c-1,0.9,0.7,2.5,2.2,1.4c0.6-0.4,0.7-1.1,1.3-1.6C84.4,86.8,84.9,86.7,85.7,86.6
		L85.7,86.6z"/>
	<path class="st0" d="M89.6,91.3c-0.5-0.9-1.7-1.8-2.7-1.7c-0.4,0-0.8,0-1-0.2c-0.1-0.1-0.1-0.5,0.2-0.5c-0.2-0.5-1.5-0.1-1,1
		c0.1,0.2,0.3,0.3,0.4,0.4c0.4,0.2,1.1,0.1,2.1,0.3C88.2,90.6,88.9,90.8,89.6,91.3L89.6,91.3z"/>
	<path class="st0" d="M92.2,94.4c-3.3-3.3-5.2-1.7-7.4-1.7c-2.7,0-3.1-2.6-1.6-3.2c1.1-0.4,1.5,0.4,1.6,0.8c0,0.5-0.5,1.1-0.9,0.8
		c-0.4-0.2-0.2-0.9,0.2-0.9c-0.2-0.2-0.6-0.2-0.8,0.1c-0.5,0.7,0.2,2.1,2.2,1.8c2.6-0.5,4.8-0.6,7.1,2L92.2,94.4L92.2,94.4z"/>
	<path class="st0" d="M77.9,95.9c0.9-1.3,1.9-0.9,2.9-1.8c1.3-1.2-0.2-2.2-0.4-2.1c0.3,0.3,0.3,1.1,0,1.6c-0.2,0.3-0.5,0.5-1,0.8
		C78.2,95.1,78.1,95.5,77.9,95.9L77.9,95.9z"/>
	<path class="st0" d="M76.7,98.2c-0.4-0.1-0.6-1,0.1-1.2c0.7-0.3,1.5,0.6,1.7,1.1c-0.2-0.1-1-0.6-1.5-0.4
		C76.8,97.7,76.7,97.9,76.7,98.2L76.7,98.2z"/>
	<path class="st0" d="M78.7,97.8c-1.1-1-0.8-2.1,0-2.3c0.8-0.3,1.6,0.8,0.9,1.3c0-0.5-0.5-0.5-0.8-0.4
		C78.6,96.5,78.4,97.1,78.7,97.8L78.7,97.8z"/>
	<path class="st0" d="M78.8,97.8c0.6,0.7,1.6,0.7,2.5,0c1.5-1.1,0.7-2.7,4.6-4.9c-0.7,0.1-1.5,0.3-2.4,1c-0.9,0.7-1.7,1.7-2.3,2.6
		C80.1,98.4,79.3,98.1,78.8,97.8L78.8,97.8z"/>
	<path class="st0" d="M90.6,93.7c-0.5-1.2-5.8-1.8-5.8,2c0,2.5,1.3,1.8,1.4,1.8c0,0.5,0.2,1,1.5,0.9c0-0.2,0.1-0.4,0.1-0.5
		c0.3,0.2,1.3,0.2,1.6,0c-0.1-0.3-0.1-0.5-0.1-0.6c0.1,0,0.6,0,0.7-0.2c0-0.2,0-0.6,0-0.6c0.6,0,0.7-0.4,0.7-0.8
		c-0.1,0-0.7,0-0.7-0.1c0-0.4,0-0.9-0.3-1.1c-0.4-0.3-1.2-0.3-1.5,0.1c0.2,0.1,1.1,0.3,0.9,1.1c-0.2,0.8-1.1,0.9-1.8,0.5
		c-0.4-0.2-0.6-0.8-0.5-1.3c0-0.6,0.5-1.2,1.3-1.5C89.5,93,90.4,93.6,90.6,93.7L90.6,93.7z"/>
	<path class="st0" d="M85.3,85.4L85.3,85.4c0.1,0-0.8-1.9,0.7-2.3c-0.8-0.2-1.4,0.3-1.7,0.6c-0.1-0.1-0.1-0.2-0.1-0.4
		c0.1,0,0.3-0.2,0.3-0.3c0-0.2-0.2-0.4-0.4-0.4c-0.2,0-0.4,0.2-0.4,0.4c0,0.2,0.1,0.3,0.2,0.3c0,0.3,0.1,0.6,0.1,0.7
		c-0.1,0-0.5-0.1-0.8-0.1c-0.1-0.1-0.2-0.2-0.3-0.2c-0.2,0-0.4,0.2-0.4,0.4c0,0.2,0.2,0.4,0.4,0.4c0.2,0,0.3-0.1,0.3-0.3
		c0.2,0,0.3,0,0.4,0.1c-0.4,0.3-0.8,0.9-0.6,1.7C83.4,84.6,85.1,85.3,85.3,85.4L85.3,85.4z"/>
	<path class="st0" d="M93.8,92.7l-0.3,0.2c-3.6-3.4-5.7-5.4-6.3-6.6c-0.5-1,0.3-1.8,1.1-2.4c0.4-0.3,0.4-0.6,0.5-0.9
		c0.1,0.2,0.2,0.5-0.2,1.2c-0.2,0.3-0.5,0.6-0.7,0.9c-0.2,0.3-0.2,0.8,0.1,1.4C89,88.1,92.4,91.4,93.8,92.7L93.8,92.7z"/>
	<path class="st0" d="M86.6,85.7c-1-2.1,0.4-3.2,1.3-3.8c0.6-0.4,0.4-1.1,0.1-1.3c-0.2-0.1-0.5,0-0.6,0.2c0,0,0.2,0,0.2,0.2
		c0,0.4-0.3,0.3-0.5,0.2c-0.1-0.2-0.1-0.4,0-0.6c0.9-1,2.5,0.6,1.4,2.1c-0.4,0.6-1.1,0.7-1.5,1.3C86.8,84.5,86.7,85,86.6,85.7
		L86.6,85.7z"/>
	<path class="st0" d="M91.4,89.6c-0.5-0.7-0.7-1.4-0.8-2c-0.2-1-0.1-1.7-0.3-2.1c-0.1-0.1-0.2-0.3-0.4-0.4c-1.1-0.5-1.5,0.8-1,1
		c0-0.3,0.4-0.3,0.5-0.2c0.2,0.2,0.2,0.6,0.2,1C89.6,88,90.4,89.1,91.4,89.6L91.4,89.6z"/>
	<path class="st0" d="M94.5,92.2l-0.2,0.2c-2.7-2.2-2.6-4.4-2.1-7.1c0.3-1.9-1.1-2.7-1.8-2.1c-0.3,0.2-0.3,0.6-0.1,0.8
		c0-0.4,0.7-0.5,0.9-0.2c0.3,0.5-0.2,1-0.8,0.9c-0.4,0-1.2-0.5-0.8-1.5c0.5-1.6,3.1-1.2,3.2,1.5C92.8,87,91.2,89,94.5,92.2
		L94.5,92.2z"/>
	<path class="st0" d="M95.7,77.9c-0.3,0.2-0.8,0.3-1.4,1.5c-0.2,0.4-0.5,0.8-0.8,1c-0.5,0.3-1.3,0.3-1.6,0c-0.1,0.2,1,1.8,2.1,0.4
		C94.9,79.7,94.5,78.8,95.7,77.9L95.7,77.9z"/>
	<path class="st0" d="M98.1,76.6c-0.1-0.4-1-0.6-1.2,0.1c-0.3,0.7,0.6,1.5,1.1,1.7c-0.1-0.2-0.6-1-0.5-1.5
		C97.6,76.7,97.8,76.6,98.1,76.6L98.1,76.6z"/>
	<path class="st0" d="M97.7,78.6c-0.8-0.3-1.3-0.1-1.4,0.2c-0.1,0.3-0.1,0.8,0.4,0.8c-0.6,0.7-1.6-0.1-1.4-0.9
		C95.6,77.9,96.7,77.5,97.7,78.6L97.7,78.6z"/>
	<path class="st0" d="M97.7,78.7c0.2,0.5,0.5,1.3-1.2,2.4c-0.9,0.6-1.9,1.4-2.5,2.3c-0.7,0.9-0.9,1.8-1,2.5c2.1-3.9,3.7-3.1,4.8-4.7
		C98.5,80.3,98.4,79.2,97.7,78.7L97.7,78.7z"/>
	<path class="st0" d="M93.7,90.6c-0.1-0.2-0.7-1.1-0.2-2.6c0.3-0.8,0.9-1.2,1.5-1.3c0.6-0.1,1.1,0.1,1.3,0.5
		c0.4,0.7,0.3,1.7-0.5,1.8c-0.8,0.2-1.1-0.7-1.2-0.9c-0.4,0.2-0.3,1.1-0.1,1.5c0.3,0.4,0.7,0.3,1.1,0.3c0.2,0,0.2,0.6,0.1,0.7
		c0.4,0,0.8-0.1,0.8-0.7c0,0,0.3,0,0.6,0c0.2-0.1,0.2-0.5,0.2-0.7c0.1,0,0.3,0,0.6,0.1c0.1-0.3,0.2-1.2,0-1.6c0-0.1,0.3-0.1,0.5-0.1
		c0.1-1.3-0.5-1.5-0.9-1.5c0-0.1,0.6-1.4-1.8-1.4C91.9,84.8,92.6,90.1,93.7,90.6L93.7,90.6z"/>
	<path class="st0" d="M94.1,99.2c0-2.8,2.4-5.3,5.1-5.4c0,0,0,0,0,0v-1.7c-0.1,0-0.2,0-0.3,0c-3.8,0.1-6.8,3.2-6.8,7.1H94.1z
		 M98.3,92.7c0,0,0,0.1-0.1,0.1c-0.1,0.3-0.1,0.5-0.1,0.6c0,0-0.1-0.1-0.1-0.1c-0.1-0.2-0.3-0.3-0.6-0.4
		C97.7,92.8,98,92.7,98.3,92.7z M95.8,93.6c0,0.1,0,0.2,0,0.3c0,0.2,0,0.3,0.1,0.4c-0.1,0.1-0.1,0.1-0.2,0.2l-0.9-0.1
		C95,94.1,95.4,93.8,95.8,93.6z M94.3,94.8l0.3,0.9c0,0.1-0.1,0.1-0.1,0.2c-0.1,0-0.2-0.1-0.4-0.1c-0.2,0-0.4,0.1-0.6,0.2
		C93.7,95.5,94,95.1,94.3,94.8z M93.5,98.1c-0.2,0-0.3,0-0.5,0.1c-0.2,0.1-0.3,0.2-0.4,0.3c0-0.5,0.2-1,0.3-1.5
		C93,97.6,93.2,97.9,93.5,98.1z"/>
</g>
<g>
	<path class="st0" d="M49.6,9C27.1,9,8.8,27.3,8.8,49.8s18.3,40.8,40.8,40.8c22.5,0,40.8-18.3,40.8-40.8S72.1,9,49.6,9z M49.6,89.4
		c-21.9,0-39.7-17.8-39.7-39.7c0-21.9,17.8-39.7,39.7-39.7c21.9,0,39.7,17.8,39.7,39.7C89.3,71.7,71.5,89.4,49.6,89.4z"/>
	<path class="st0" d="M60,41.2l-0.4-0.4c5.4-5.5,8.6-8.7,10.4-9.7c1.6-0.8,2.8,0.5,3.7,1.7c0.5,0.7,1,0.7,1.3,0.9
		c-0.4,0.1-0.8,0.3-1.9-0.3c-0.5-0.3-1-0.8-1.4-1.1c-0.5-0.3-1.2-0.3-2.1,0.2C67.2,33.8,62,39.1,60,41.2L60,41.2z"/>
	<path class="st0" d="M76.1,24.1c0.3,0.2,0.4,0.5,0.3,0.7c-0.1,0.2-0.5,0.3-0.8,0.1c-0.1-0.1-0.2-0.2-0.3-0.3
		c-0.2,0-0.4-0.2-0.5-0.4c-0.2-0.3-0.1-0.7,0.1-0.8c0.2-0.1,0.5,0,0.7,0.3c0,0.1,0.1,0.1,0.1,0.2C75.8,24,76,24.1,76.1,24.1
		L76.1,24.1z"/>
	<path class="st0" d="M70.9,30.2c3.3-1.5,4.9,0.6,5.8,2c0.6,1,1.8,0.7,2,0.1c0.2-0.3,0-0.8-0.4-1c-0.1,0.1,0,0.4-0.3,0.4
		c-0.6,0-0.5-0.5-0.2-0.7c0.3-0.2,0.7-0.2,1,0.1c1.5,1.4-1,3.8-3.4,2.2c-0.9-0.6-1.1-1.8-2-2.4C72.8,30.5,72.1,30.3,70.9,30.2
		L70.9,30.2z"/>
	<path class="st0" d="M64.8,37.5c0.8-1.5,2.6-2.7,4.3-2.7c0.6,0,1.2,0,1.5-0.3c0.2-0.2,0.2-0.8-0.3-0.9c0.4-0.8,2.3-0.1,1.5,1.6
		c-0.1,0.3-0.4,0.5-0.7,0.6c-0.7,0.3-1.6,0.1-3.3,0.4C67,36.5,66,36.8,64.8,37.5L64.8,37.5z"/>
	<path class="st0" d="M60.7,42.3L60.4,42c3.5-4.1,6.9-3.9,11-3.2c3,0.6,4.2-1.7,3.4-2.8c-0.4-0.5-1-0.5-1.3-0.2
		c0.6,0.1,0.8,1.1,0.3,1.4c-0.7,0.5-1.5-0.4-1.4-1.2c0-0.6,0.7-1.8,2.4-1.3c2.4,0.8,1.8,4.9-2.4,4.9C68.8,39.8,65.8,37.3,60.7,42.3
		L60.7,42.3z"/>
	<path class="st0" d="M82.9,44.6c-1.4-2-2.9-1.4-4.5-2.8c-2.1-1.8,0.4-3.3,0.7-3.2c-0.4,0.5-0.4,1.7,0,2.5c0.3,0.5,0.8,0.8,1.5,1.2
		C82.5,43.4,82.6,44.1,82.9,44.6L82.9,44.6z"/>
	<path class="st0" d="M84.8,48.3c0.1-0.5-0.1-0.8-0.4-0.9c-0.8-0.2-1.9,0.5-2.3,0.7c0.3-0.8,1.5-2.1,2.6-1.7
		C85.6,46.8,85.4,48.2,84.8,48.3L84.8,48.3z"/>
	<path class="st0" d="M81.7,47.6c0.4-1.2,0.3-2-0.3-2.2c-0.5-0.2-1.2-0.1-1.2,0.7c-1-0.9,0.1-2.5,1.4-2.1
		C82.8,44.4,83.4,46.1,81.7,47.6L81.7,47.6z"/>
	<path class="st0" d="M81.6,47.7c-0.9,1-2.5,1.1-3.9,0.1c-2.4-1.7-1.1-4.1-7.1-7.5c1.1,0.2,2.4,0.5,3.8,1.6c1.4,1.1,2.7,2.6,3.5,4
		C79.6,48.5,80.8,48,81.6,47.7L81.6,47.7z"/>
	<path class="st0" d="M63.3,41.2c0.7-1.8,9-2.8,9.1,3.1c0.1,3.8-2,2.8-2.2,2.8c0,0.8-0.4,1.6-2.4,1.4c-0.1-0.3-0.1-0.7-0.2-0.7
		c-0.5,0.3-2,0.2-2.4,0c0.2-0.4,0.2-0.8,0.2-0.9c-0.2,0-0.9-0.1-1-0.3c0.1-0.4,0-0.9,0-0.9c-0.9,0-1.1-0.6-1.1-1.2
		c0.1,0.1,1,0.1,1.1-0.2c0-0.7,0-1.4,0.5-1.7c0.6-0.4,1.9-0.4,2.3,0.1c-0.3,0.1-1.7,0.5-1.4,1.8c0.2,1.3,1.8,1.5,2.8,0.8
		c0.6-0.4,0.9-1.2,0.8-2.1c-0.1-0.9-0.8-1.9-2-2.3C64.9,40.1,63.6,41.1,63.3,41.2L63.3,41.2z"/>
	<path class="st0" d="M71.5,28.3L71.5,28.3c-0.1,0.1,1.2-2.9-1-3.6c1.3-0.3,2.2,0.4,2.7,1c0.1-0.1,0.2-0.4,0.2-0.6
		c-0.2-0.1-0.4-0.3-0.4-0.5c0-0.3,0.3-0.6,0.6-0.6c0.3,0,0.6,0.3,0.6,0.6c0,0.2-0.1,0.4-0.4,0.5c0,0.4-0.1,0.9-0.2,1.2
		c0.1-0.1,0.8-0.2,1.2-0.2c0.1-0.2,0.3-0.4,0.5-0.4c0.3,0,0.6,0.3,0.6,0.6c0,0.3-0.3,0.6-0.6,0.6c-0.3,0-0.5-0.2-0.5-0.4
		c-0.2,0-0.5,0-0.6,0.2c0.5,0.5,1.3,1.4,1,2.7C74.5,27.1,71.8,28.2,71.5,28.3L71.5,28.3z"/>
	<path class="st0" d="M58.3,39.6c2.1-2,7.5-7.1,8.8-9.5c0.5-0.9,0.5-1.6,0.2-2.1c-0.3-0.4-0.8-0.9-1.1-1.4c-0.6-1-0.4-1.5-0.2-1.9
		c0.2,0.3,0.2,0.8,0.8,1.3c1.2,0.9,2.5,2.1,1.7,3.7c-0.9,1.8-4.2,4.9-9.8,10.2L58.3,39.6L58.3,39.6z"/>
	<path class="st0" d="M69.5,28.9c-0.1-1.2-0.3-1.9-0.7-2.5c-0.7-0.9-1.8-1.2-2.4-2.1c-1.6-2.3,0.9-4.9,2.2-3.3
		c0.3,0.3,0.3,0.7,0.1,1c-0.2,0.3-0.8,0.4-0.7-0.2c0-0.2,0.3-0.2,0.4-0.3c-0.1-0.4-0.6-0.5-0.9-0.4c-0.5,0.2-0.9,1.4,0.1,2
		C68.9,24,71,25.6,69.5,28.9L69.5,28.9z"/>
	<path class="st0" d="M62.1,34.9c0.8-1.2,1.1-2.2,1.3-3.1c0.3-1.6,0.1-2.6,0.5-3.3c0.1-0.2,0.3-0.5,0.6-0.7c1.7-0.7,2.3,1.2,1.6,1.5
		c-0.1-0.5-0.6-0.5-0.8-0.3c-0.3,0.3-0.3,0.9-0.3,1.5C64.8,32.4,63.5,34.1,62.1,34.9L62.1,34.9z"/>
	<path class="st0" d="M57.2,38.9c5.1-5,2.7-8.1,2.8-11.4c0.1-4.2,4.2-4.8,4.9-2.4c0.5,1.7-0.7,2.4-1.3,2.4c-0.8,0-1.7-0.7-1.2-1.5
		c0.4-0.5,1.4-0.3,1.4,0.3c0.3-0.3,0.3-0.9-0.2-1.3c-1-0.8-3.3,0.3-2.8,3.3c0.7,4.1,0.8,7.5-3.3,10.9L57.2,38.9L57.2,38.9z"/>
	<path class="st0" d="M55.3,16.7c0.5,0.3,1.2,0.4,2.2,2.3c0.4,0.7,0.7,1.2,1.2,1.5c0.8,0.5,2.1,0.5,2.5,0.1c0.1,0.3-1.5,2.7-3.3,0.6
		C56.6,19.6,57.3,18.1,55.3,16.7L55.3,16.7z"/>
	<path class="st0" d="M51.6,14.8c0.1-0.6,1.5-0.9,1.9,0.1c0.5,1.2-0.9,2.3-1.7,2.6c0.2-0.3,0.9-1.5,0.7-2.3
		C52.4,14.9,52.1,14.7,51.6,14.8L51.6,14.8z"/>
	<path class="st0" d="M52.2,17.9c1.5-1.8,3.2-1.1,3.6,0.1c0.4,1.3-1.2,2.4-2.1,1.4c0.8,0,0.8-0.7,0.7-1.2
		C54.2,17.6,53.4,17.5,52.2,17.9L52.2,17.9z"/>
	<path class="st0" d="M52.2,18c-0.4,0.8-0.9,2,1.9,3.7c1.4,0.9,2.9,2.2,3.9,3.6c1,1.4,1.4,2.7,1.5,3.8c-3.3-6-5.8-4.9-7.4-7.2
		C51,20.4,51.1,18.8,52.2,18L52.2,18z"/>
	<path class="st0" d="M58.4,36.4c0.1-0.4,1.1-1.7,0.3-4.1c-0.4-1.2-1.3-1.9-2.3-2c-0.9-0.1-1.7,0.2-2.1,0.8
		c-0.7,1.1-0.5,2.6,0.8,2.8c1.3,0.3,1.7-1.1,1.8-1.4c0.6,0.4,0.5,1.8,0.1,2.3c-0.4,0.5-1.1,0.5-1.8,0.5c-0.2,0.1-0.3,1-0.2,1.1
		c-0.6,0-1.2-0.2-1.2-1.1c0,0-0.5-0.1-0.9,0c-0.3-0.2-0.3-0.8-0.3-1.1c-0.1,0-0.5,0-0.9,0.2c-0.2-0.4-0.3-1.9,0-2.4
		c0-0.1-0.4-0.1-0.7-0.2c-0.1-2,0.7-2.4,1.5-2.3c0-0.1-1-2.2,2.8-2.1C61.3,27.5,60.2,35.7,58.4,36.4L58.4,36.4z"/>
	<path class="st0" d="M41.5,39.6l-0.4,0.4c-5.5-5.4-8.7-8.6-9.7-10.4c-0.8-1.6,0.5-2.8,1.7-3.7c0.7-0.5,0.7-1,0.9-1.3
		c0.1,0.4,0.3,0.8-0.3,1.9c-0.3,0.5-0.8,1-1.1,1.4c-0.3,0.5-0.3,1.2,0.2,2.1C34.1,32.4,39.4,37.5,41.5,39.6L41.5,39.6z"/>
	<path class="st0" d="M24.4,23.5c0.2-0.3,0.5-0.4,0.7-0.3c0.2,0.1,0.3,0.5,0.1,0.8c-0.1,0.1-0.2,0.2-0.3,0.3c0,0.2-0.2,0.4-0.4,0.5
		c-0.3,0.2-0.7,0.1-0.8-0.1c-0.1-0.2,0-0.5,0.3-0.7c0.1,0,0.1-0.1,0.2-0.1C24.3,23.7,24.3,23.6,24.4,23.5L24.4,23.5z"/>
	<path class="st0" d="M30.4,28.6c-1.5-3.3,0.6-4.9,2-5.8c1-0.6,0.7-1.8,0.1-2c-0.3-0.2-0.8,0-1,0.4c0.1,0.1,0.4,0,0.4,0.3
		c0,0.6-0.5,0.5-0.7,0.2c-0.2-0.3-0.2-0.7,0.1-1c1.4-1.5,3.8,1,2.2,3.4c-0.6,0.9-1.8,1.1-2.4,2C30.8,26.7,30.6,27.4,30.4,28.6
		L30.4,28.6z"/>
	<path class="st0" d="M37.8,34.8c-1.5-0.8-2.7-2.6-2.7-4.3c0-0.6,0-1.2-0.3-1.5c-0.2-0.2-0.8-0.2-0.9,0.3c-0.8-0.4-0.1-2.3,1.6-1.5
		c0.3,0.1,0.5,0.4,0.6,0.7c0.3,0.7,0.1,1.6,0.4,3.3C36.7,32.5,37,33.6,37.8,34.8L37.8,34.8z"/>
	<path class="st0" d="M42.6,38.8l-0.3,0.4c-4.1-3.5-3.9-6.9-3.2-11c0.6-3-1.7-4.2-2.8-3.4c-0.5,0.4-0.5,1-0.2,1.3
		c0.1-0.6,1.1-0.8,1.4-0.3c0.5,0.7-0.4,1.5-1.2,1.4c-0.6,0-1.8-0.7-1.3-2.4c0.8-2.4,4.9-1.8,4.9,2.4C40,30.7,37.5,33.7,42.6,38.8
		L42.6,38.8z"/>
	<path class="st0" d="M44.8,16.6c-2,1.4-1.4,2.9-2.8,4.5c-1.8,2.1-3.3-0.4-3.2-0.7c0.5,0.4,1.7,0.4,2.5,0c0.5-0.3,0.8-0.8,1.2-1.5
		C43.6,17,44.3,16.9,44.8,16.6L44.8,16.6z"/>
	<path class="st0" d="M48.5,14.8c-0.5-0.1-0.8,0.1-0.9,0.4c-0.2,0.8,0.5,1.9,0.7,2.3c-0.8-0.3-2.1-1.5-1.7-2.6
		C47,13.9,48.4,14.2,48.5,14.8L48.5,14.8z"/>
	<path class="st0" d="M47.9,17.9c-1.2-0.4-2-0.3-2.2,0.3c-0.2,0.5-0.1,1.2,0.7,1.2c-0.9,1-2.5-0.1-2.1-1.4
		C44.6,16.7,46.3,16.1,47.9,17.9L47.9,17.9z"/>
	<path class="st0" d="M47.9,18c1,0.9,1.1,2.5,0.1,3.9c-1.7,2.4-4.1,1.1-7.5,7.1c0.2-1.1,0.5-2.4,1.6-3.8c1.1-1.4,2.6-2.7,4-3.5
		C48.7,20,48.3,18.7,47.9,18L47.9,18z"/>
	<path class="st0" d="M41.4,36.3c-1.8-0.7-2.8-9,3.1-9.1c3.8-0.1,2.8,2,2.8,2.2c0.8,0,1.6,0.4,1.4,2.4c-0.3,0.1-0.7,0.1-0.7,0.2
		c0.3,0.5,0.2,2,0,2.4c-0.4-0.2-0.8-0.2-0.9-0.2c0,0.2-0.1,0.9-0.3,1.1c-0.4-0.1-0.9,0-0.9,0c0,0.9-0.6,1.1-1.2,1.1
		c0.1-0.1,0.1-1-0.2-1.1c-0.7,0-1.4,0-1.7-0.5c-0.4-0.6-0.4-1.9,0.1-2.3c0.1,0.3,0.5,1.7,1.8,1.4c1.3-0.2,1.5-1.8,0.8-2.8
		c-0.4-0.6-1.2-0.9-2.1-0.8c-0.9,0.1-1.9,0.8-2.3,2C40.3,34.6,41.3,35.9,41.4,36.3L41.4,36.3z"/>
	<path class="st0" d="M28.5,28.1L28.5,28.1c0.1,0.1-2.9-1.2-3.6,1c-0.3-1.3,0.4-2.2,1-2.7c-0.1-0.1-0.4-0.2-0.6-0.2
		c-0.1,0.2-0.3,0.4-0.5,0.4c-0.3,0-0.6-0.3-0.6-0.6c0-0.3,0.3-0.6,0.6-0.6c0.2,0,0.4,0.1,0.5,0.4c0.4,0,0.9,0.1,1.2,0.2
		c-0.1-0.1-0.2-0.8-0.2-1.2c-0.2-0.1-0.4-0.3-0.4-0.5c0-0.3,0.3-0.6,0.6-0.6c0.3,0,0.6,0.3,0.6,0.6c0,0.3-0.2,0.5-0.4,0.5
		c0,0.2,0,0.5,0.2,0.6c0.5-0.5,1.4-1.3,2.7-1C27.4,25.1,28.4,27.8,28.5,28.1L28.5,28.1z"/>
	<path class="st0" d="M39.9,41.3c-2-2.1-7.1-7.5-9.5-8.8c-0.9-0.5-1.6-0.5-2.1-0.2c-0.4,0.3-0.9,0.8-1.4,1.1c-1,0.6-1.5,0.4-1.9,0.2
		c0.3-0.2,0.8-0.2,1.3-0.8c0.9-1.2,2.1-2.5,3.7-1.7c1.8,0.9,4.9,4.2,10.2,9.8L39.9,41.3L39.9,41.3z"/>
	<path class="st0" d="M29.1,30.1c-1.2,0.1-1.9,0.3-2.5,0.7c-0.9,0.7-1.2,1.8-2.1,2.4c-2.3,1.6-4.9-0.9-3.3-2.2
		c0.3-0.3,0.7-0.3,1-0.1c0.3,0.2,0.4,0.8-0.2,0.7c-0.2,0-0.2-0.3-0.3-0.4c-0.4,0.1-0.5,0.6-0.4,0.9c0.2,0.5,1.4,0.9,2-0.1
		C24.2,30.6,25.8,28.5,29.1,30.1L29.1,30.1z"/>
	<path class="st0" d="M35.1,37.5c-1.2-0.8-2.2-1.1-3.1-1.3c-1.6-0.3-2.6-0.1-3.3-0.5c-0.2-0.1-0.5-0.3-0.7-0.6
		c-0.7-1.7,1.2-2.3,1.5-1.6c-0.5,0.1-0.5,0.6-0.3,0.8c0.3,0.3,0.9,0.3,1.5,0.3C32.6,34.7,34.4,36,35.1,37.5L35.1,37.5z"/>
	<path class="st0" d="M39.1,42.3c-5-5.1-8.1-2.7-11.4-2.8c-4.2-0.1-4.8-4.2-2.4-4.9c1.7-0.5,2.4,0.7,2.4,1.3c0,0.8-0.7,1.7-1.5,1.2
		c-0.5-0.3-0.3-1.4,0.3-1.4c-0.3-0.3-0.9-0.3-1.3,0.2c-0.8,1,0.3,3.3,3.3,2.8c4.1-0.7,7.5-0.8,10.9,3.3L39.1,42.3L39.1,42.3z"/>
	<path class="st0" d="M16.9,44.3c0.3-0.5,0.4-1.2,2.3-2.2c0.7-0.4,1.2-0.7,1.5-1.2c0.5-0.8,0.5-2,0.1-2.5c0.3-0.1,2.7,1.5,0.6,3.3
		C19.8,42.9,18.4,42.3,16.9,44.3L16.9,44.3z"/>
	<path class="st0" d="M15,47.9c-0.6-0.1-0.9-1.5,0.1-1.9c1.2-0.4,2.4,0.9,2.6,1.7c-0.4-0.2-1.5-0.9-2.3-0.7
		C15.1,47.1,15,47.4,15,47.9L15,47.9z"/>
	<path class="st0" d="M18.1,47.3c-1.8-1.5-1.1-3.2,0.1-3.6c1.3-0.4,2.4,1.2,1.4,2.1c0-0.8-0.7-0.8-1.2-0.7
		C17.9,45.3,17.7,46.1,18.1,47.3L18.1,47.3z"/>
	<path class="st0" d="M18.2,47.4c0.8,0.4,2,0.9,3.7-1.9c0.9-1.4,2.2-2.9,3.6-3.9c1.4-1,2.7-1.4,3.8-1.5c-6,3.3-4.9,5.8-7.2,7.4
		C20.7,48.5,19.1,48.4,18.2,47.4L18.2,47.4z"/>
	<path class="st0" d="M36.6,41.1c-0.4-0.1-1.7-1.1-4.1-0.3c-1.2,0.4-1.9,1.3-2,2.3c-0.1,0.9,0.2,1.7,0.8,2.1
		c1.1,0.7,2.6,0.5,2.9-0.8c0.3-1.3-1.1-1.7-1.4-1.8c0.4-0.6,1.8-0.5,2.3-0.1c0.5,0.4,0.5,1.1,0.5,1.8c0.1,0.2,1,0.3,1.1,0.2
		c0,0.6-0.2,1.2-1.1,1.2c0,0-0.1,0.5,0,0.9c-0.2,0.3-0.8,0.3-1.1,0.3c0,0.1,0,0.5,0.2,0.9c-0.4,0.2-1.9,0.3-2.4,0
		c-0.1,0-0.1,0.4-0.2,0.7c-2,0.1-2.4-0.7-2.3-1.5c-0.1,0-2.2,1-2.1-2.8C27.7,38.2,35.9,39.3,36.6,41.1L36.6,41.1z"/>
	<path class="st0" d="M60,58.3c2,2.1,7.2,7.4,9.6,8.7c0.9,0.5,1.6,0.5,2.1,0.2c0.4-0.3,0.9-0.8,1.4-1.1c1-0.6,1.5-0.4,1.9-0.3
		c-0.3,0.2-0.8,0.2-1.3,0.9c-0.8,1.2-2,2.5-3.7,1.7c-1.8-0.9-5-4.1-10.4-9.7L60,58.3L60,58.3z"/>
	<path class="st0" d="M76.1,75.4c-0.1,0.1-0.2,0.1-0.4,0.1c0,0.1,0,0.2-0.1,0.2c-0.2,0.3-0.5,0.4-0.7,0.3c-0.2-0.1-0.3-0.5-0.1-0.8
		c0.1-0.2,0.3-0.3,0.5-0.4c0.1-0.1,0.2-0.2,0.3-0.3c0.3-0.2,0.6-0.1,0.8,0.1C76.5,74.9,76.4,75.2,76.1,75.4L76.1,75.4z"/>
	<path class="st0" d="M70.9,69.3c1.2-0.1,1.9-0.3,2.5-0.7c0.9-0.7,1.1-1.8,2-2.4c2.3-1.6,4.9,0.8,3.4,2.2c-0.3,0.3-0.7,0.3-1,0.1
		c-0.3-0.2-0.4-0.8,0.2-0.7c0.2,0,0.2,0.3,0.3,0.4c0.4-0.1,0.5-0.6,0.4-1c-0.3-0.5-1.4-0.9-2,0.1C75.8,68.7,74.2,70.8,70.9,69.3
		L70.9,69.3z"/>
	<path class="st0" d="M64.8,62c1.2,0.8,2.3,1.1,3.1,1.2c1.6,0.3,2.6,0.1,3.3,0.4c0.2,0.1,0.5,0.3,0.7,0.6c0.7,1.7-1.1,2.4-1.5,1.6
		c0.5-0.1,0.5-0.7,0.3-0.9c-0.3-0.3-0.9-0.3-1.5-0.3C67.3,64.7,65.6,63.5,64.8,62L64.8,62z"/>
	<path class="st0" d="M60.7,57.2c5.1,5.1,8.1,2.6,11.5,2.6c4.2,0,4.9,4.1,2.4,4.9c-1.7,0.6-2.4-0.7-2.4-1.3
		c-0.1-0.8,0.7-1.7,1.4-1.2c0.6,0.3,0.4,1.3-0.3,1.4c0.3,0.3,0.9,0.3,1.3-0.2c0.8-1-0.4-3.3-3.4-2.8c-4.1,0.8-7.5,1-11-3.2
		L60.7,57.2L60.7,57.2z"/>
	<path class="st0" d="M82.9,55c-0.3,0.5-0.4,1.2-2.3,2.3c-0.7,0.4-1.2,0.7-1.5,1.2c-0.5,0.8-0.5,2.1,0,2.5c-0.3,0.1-2.8-1.4-0.7-3.2
		C80,56.3,81.5,57,82.9,55L82.9,55z"/>
	<path class="st0" d="M84.8,51.3c0.6,0.1,0.9,1.5-0.1,1.9c-1.2,0.5-2.4-0.9-2.6-1.7c0.4,0.2,1.5,0.9,2.3,0.7
		C84.6,52.1,84.8,51.8,84.8,51.3L84.8,51.3z"/>
	<path class="st0" d="M81.7,51.9c1.8,1.5,1.2,3.2,0,3.6c-1.3,0.4-2.4-1.2-1.4-2.1c0,0.8,0.7,0.8,1.2,0.7
		C81.9,53.9,82.1,53.1,81.7,51.9L81.7,51.9z"/>
	<path class="st0" d="M81.6,51.9c-0.8-0.4-2-0.8-3.7,1.9c-0.8,1.4-2.1,2.9-3.5,4c-1.4,1.1-2.7,1.4-3.8,1.6c6-3.4,4.8-5.8,7.1-7.5
		C79.1,50.8,80.7,50.9,81.6,51.9L81.6,51.9z"/>
	<path class="st0" d="M63.3,58.4c0.4,0.1,1.7,1.1,4.1,0.3c1.2-0.4,1.9-1.4,2-2.3c0.1-0.9-0.2-1.7-0.8-2.1c-1.1-0.7-2.6-0.5-2.8,0.8
		c-0.2,1.3,1.1,1.7,1.4,1.8c-0.4,0.6-1.7,0.5-2.3,0.1c-0.5-0.4-0.5-1.1-0.5-1.7c-0.1-0.2-1-0.3-1.1-0.2c0-0.6,0.2-1.2,1.1-1.2
		c0,0,0.1-0.5,0-0.9c0.2-0.3,0.8-0.3,1-0.3c0-0.1,0-0.5-0.2-0.9c0.4-0.2,1.9-0.3,2.4,0c0.1,0,0.1-0.4,0.2-0.7c2-0.2,2.4,0.7,2.4,1.4
		c0.1,0,2.2-1,2.2,2.8C72.2,61.1,64,60.2,63.3,58.4L63.3,58.4z"/>
	<path class="st0" d="M71.5,71.2c0.3,0.1,3,1.2,3.6-1c0.3,1.3-0.4,2.2-1,2.7c0.1,0.1,0.4,0.2,0.6,0.2c0.1-0.2,0.3-0.4,0.5-0.4
		c0.3,0,0.6,0.2,0.6,0.6c0,0.3-0.2,0.6-0.6,0.6c-0.2,0-0.4-0.1-0.5-0.3c-0.5,0-1.1-0.1-1.2-0.2c0.1,0.2,0.2,0.8,0.2,1.2
		c0.2,0.1,0.4,0.3,0.4,0.5c0,0.3-0.3,0.6-0.6,0.6c-0.3,0-0.6-0.3-0.6-0.6c0-0.3,0.2-0.5,0.4-0.5c0-0.2,0-0.5-0.2-0.6
		c-0.5,0.6-1.4,1.3-2.7,1C72.7,74.2,71.4,71.2,71.5,71.2L71.5,71.2L71.5,71.2z"/>
	<path class="st0" d="M58.3,59.9l0.4-0.4c5.6,5.3,8.9,8.4,9.8,10.3c0.8,1.6-0.5,2.8-1.7,3.7c-0.7,0.5-0.7,1-0.8,1.3
		c-0.1-0.4-0.3-0.8,0.2-1.9c0.3-0.5,0.8-1,1.1-1.4c0.3-0.5,0.3-1.2-0.2-2.1C65.8,67,60.4,61.9,58.3,59.9L58.3,59.9z"/>
	<path class="st0" d="M69.5,70.7c1.5,3.3-0.6,4.9-2,5.8c-1,0.6-0.6,1.8-0.1,2c0.3,0.2,0.8,0,0.9-0.4c-0.1-0.1-0.4,0-0.4-0.3
		c0-0.6,0.5-0.5,0.7-0.2c0.2,0.3,0.2,0.7-0.1,1c-1.4,1.5-3.8-1-2.2-3.3c0.6-0.9,1.7-1.1,2.4-2.1C69.2,72.6,69.4,71.8,69.5,70.7
		L69.5,70.7z"/>
	<path class="st0" d="M62.1,64.6c1.5,0.8,2.8,2.5,2.8,4.2c0,0.6,0,1.2,0.3,1.5c0.2,0.2,0.8,0.2,0.8-0.3c0.8,0.4,0.1,2.3-1.6,1.5
		c-0.3-0.1-0.5-0.4-0.6-0.7c-0.4-0.7-0.1-1.6-0.5-3.3C63.2,66.9,62.8,65.8,62.1,64.6L62.1,64.6z"/>
	<path class="st0" d="M57.2,60.7l0.3-0.4c4.2,3.4,4,6.9,3.3,10.9c-0.5,3,1.8,4.2,2.8,3.3c0.5-0.4,0.5-1,0.2-1.3
		c0,0.6-1.1,0.8-1.4,0.3c-0.5-0.7,0.4-1.5,1.2-1.5c0.6,0,1.8,0.7,1.3,2.4c-0.8,2.5-4.8,1.8-4.9-2.4C59.9,68.7,62.3,65.7,57.2,60.7
		L57.2,60.7z"/>
	<path class="st0" d="M55.3,82.9c2-1.4,1.3-2.9,2.7-4.5c1.8-2.1,3.3,0.3,3.3,0.6c-0.5-0.4-1.7-0.4-2.5,0.1c-0.5,0.3-0.8,0.8-1.2,1.5
		C56.4,82.4,55.8,82.6,55.3,82.9L55.3,82.9z"/>
	<path class="st0" d="M51.6,84.8c0.5,0.1,0.8-0.1,0.9-0.5c0.2-0.8-0.5-1.9-0.7-2.3c0.8,0.3,2.2,1.5,1.7,2.6
		C53.1,85.6,51.7,85.4,51.6,84.8L51.6,84.8z"/>
	<path class="st0" d="M52.2,81.7c1.2,0.4,2,0.2,2.2-0.3c0.1-0.5,0.1-1.2-0.7-1.2c0.9-1,2.5,0.1,2.1,1.4
		C55.5,82.8,53.8,83.4,52.2,81.7L52.2,81.7z"/>
	<path class="st0" d="M52.2,81.6c-1-0.8-1.1-2.5-0.1-3.9c1.7-2.4,4.1-1.2,7.4-7.2c-0.1,1.1-0.5,2.4-1.5,3.8c-1,1.4-2.6,2.7-3.9,3.6
		C51.3,79.6,51.8,80.8,52.2,81.6L52.2,81.6z"/>
	<path class="st0" d="M58.4,63.2c1.8,0.7,2.9,8.9-3,9.1c-3.8,0.1-2.8-2-2.8-2.1c-0.8,0-1.6-0.3-1.5-2.3c0.3-0.1,0.7-0.1,0.7-0.2
		c-0.3-0.5-0.3-2,0-2.4c0.4,0.2,0.8,0.2,0.9,0.2c0-0.2,0.1-0.9,0.3-1.1c0.4,0.1,0.9,0,0.9,0c0-0.9,0.6-1.2,1.2-1.1
		c-0.1,0.1,0,1,0.2,1.1c0.7,0,1.4,0,1.8,0.5c0.4,0.5,0.5,1.9-0.1,2.3c-0.1-0.3-0.5-1.7-1.8-1.4c-1.3,0.3-1.4,1.8-0.8,2.9
		c0.4,0.6,1.2,0.8,2.1,0.8c0.9-0.1,1.8-0.8,2.3-2C59.5,64.8,58.5,63.5,58.4,63.2L58.4,63.2z"/>
	<path class="st0" d="M41.5,60c-2.1,2-7.4,7.2-8.7,9.6c-0.5,0.9-0.5,1.6-0.2,2.1c0.3,0.4,0.8,0.9,1.1,1.4c0.6,1,0.4,1.5,0.3,1.9
		c-0.2-0.3-0.2-0.8-0.9-1.3c-1.2-0.8-2.5-2-1.7-3.7c0.9-1.8,4.1-5,9.7-10.4L41.5,60L41.5,60z"/>
	<path class="st0" d="M24.4,76.1c-0.1-0.1-0.1-0.2-0.1-0.4c-0.1,0-0.2,0-0.2-0.1c-0.3-0.2-0.4-0.5-0.3-0.7c0.1-0.2,0.5-0.3,0.8-0.1
		c0.2,0.1,0.3,0.3,0.4,0.5c0.1,0.1,0.2,0.2,0.3,0.3c0.2,0.3,0.1,0.6-0.1,0.8C24.9,76.5,24.6,76.4,24.4,76.1L24.4,76.1z"/>
	<path class="st0" d="M30.4,70.9c0.1,1.2,0.3,1.9,0.7,2.5c0.7,0.9,1.8,1.1,2.4,2c1.6,2.3-0.8,4.9-2.2,3.4c-0.3-0.3-0.3-0.7-0.1-1
		c0.2-0.3,0.8-0.4,0.7,0.2c0,0.2-0.3,0.2-0.4,0.3c0.1,0.4,0.6,0.5,1,0.3c0.5-0.2,0.9-1.4-0.1-2C31.1,75.8,29,74.2,30.4,70.9
		L30.4,70.9z"/>
	<path class="st0" d="M37.8,64.8C37,66,36.7,67,36.5,67.9c-0.3,1.6-0.1,2.6-0.4,3.3c-0.1,0.2-0.3,0.5-0.6,0.7
		c-1.7,0.7-2.4-1.1-1.6-1.5c0.1,0.5,0.7,0.5,0.9,0.3c0.3-0.3,0.3-0.9,0.3-1.5C35.1,67.3,36.3,65.6,37.8,64.8L37.8,64.8z"/>
	<path class="st0" d="M42.6,60.7c-5.1,5.1-2.6,8.1-2.6,11.5c0,4.2-4.1,4.9-4.9,2.4c-0.6-1.7,0.7-2.4,1.3-2.4
		c0.8-0.1,1.7,0.7,1.2,1.4c-0.3,0.6-1.4,0.4-1.4-0.3c-0.3,0.3-0.3,0.9,0.2,1.3c1,0.8,3.3-0.4,2.8-3.4c-0.8-4.1-1-7.5,3.2-11
		L42.6,60.7L42.6,60.7z"/>
	<path class="st0" d="M44.8,82.9c-0.5-0.3-1.2-0.4-2.3-2.3c-0.4-0.7-0.7-1.2-1.2-1.5c-0.8-0.5-2.1-0.5-2.5,0
		c-0.1-0.3,1.4-2.8,3.2-0.7C43.5,80,42.8,81.5,44.8,82.9L44.8,82.9z"/>
	<path class="st0" d="M48.5,84.8c-0.1,0.6-1.5,0.9-1.9-0.1c-0.5-1.2,0.9-2.4,1.7-2.6c-0.2,0.4-0.9,1.5-0.7,2.3
		C47.7,84.6,48,84.8,48.5,84.8L48.5,84.8z"/>
	<path class="st0" d="M47.9,81.7c-1.5,1.8-3.2,1.2-3.6,0c-0.4-1.3,1.2-2.4,2.1-1.4c-0.8,0-0.8,0.7-0.7,1.2
		C45.9,81.9,46.7,82.1,47.9,81.7L47.9,81.7z"/>
	<path class="st0" d="M47.9,81.6c0.4-0.8,0.8-2-1.9-3.7c-1.4-0.8-2.9-2.1-4-3.5c-1.1-1.4-1.4-2.7-1.6-3.8c3.4,6,5.8,4.8,7.5,7.1
		C49,79.1,48.9,80.7,47.9,81.6L47.9,81.6z"/>
	<path class="st0" d="M41.4,63.3c-0.1,0.4-1.1,1.7-0.3,4.1c0.4,1.2,1.4,1.9,2.3,2c0.9,0.1,1.7-0.2,2.1-0.8c0.7-1.1,0.5-2.6-0.8-2.8
		c-1.3-0.2-1.7,1.1-1.8,1.4c-0.6-0.4-0.5-1.7-0.1-2.3c0.4-0.6,1.1-0.5,1.7-0.5c0.2-0.1,0.3-1,0.2-1.1c0.6,0,1.2,0.2,1.2,1.1
		c0,0,0.5,0.1,0.9,0c0.3,0.2,0.3,0.8,0.3,1c0.1,0,0.5,0,0.9-0.2c0.2,0.4,0.3,1.9,0,2.4c0,0.1,0.4,0.1,0.7,0.2c0.2,2-0.7,2.4-1.4,2.4
		c0,0.1,1,2.2-2.8,2.2C38.6,72.2,39.6,64,41.4,63.3L41.4,63.3z"/>
	<path class="st0" d="M28.5,71.5c-0.1,0.3-1.2,3,1,3.6c-1.3,0.3-2.2-0.4-2.7-1c-0.1,0.1-0.2,0.4-0.2,0.6c0.2,0.1,0.4,0.3,0.4,0.5
		c0,0.3-0.2,0.6-0.6,0.6c-0.3,0-0.6-0.2-0.6-0.5c0-0.2,0.1-0.4,0.4-0.5c0-0.5,0.1-1.1,0.2-1.2c-0.2,0.1-0.8,0.2-1.2,0.2
		c-0.1,0.2-0.3,0.4-0.5,0.4c-0.3,0-0.6-0.3-0.6-0.6s0.3-0.6,0.6-0.6c0.3,0,0.5,0.2,0.5,0.4c0.2,0,0.5,0,0.6-0.2
		c-0.6-0.5-1.3-1.4-1-2.7C25.6,72.7,28.6,71.4,28.5,71.5L28.5,71.5L28.5,71.5z"/>
	<path class="st0" d="M39.9,58.3l0.4,0.4c-5.3,5.6-8.4,8.9-10.2,9.8c-1.6,0.8-2.8-0.5-3.7-1.7c-0.5-0.7-1-0.7-1.3-0.8
		c0.4-0.1,0.8-0.3,1.9,0.2c0.5,0.3,1,0.8,1.4,1.1c0.5,0.3,1.2,0.3,2.1-0.2C32.8,65.8,37.9,60.4,39.9,58.3L39.9,58.3z"/>
	<path class="st0" d="M29.1,69.5c-3.3,1.5-4.9-0.6-5.8-2c-0.6-1-1.8-0.6-2-0.1c-0.2,0.3,0,0.8,0.4,0.9c0.1-0.1,0-0.4,0.3-0.4
		c0.6,0,0.5,0.5,0.2,0.7c-0.3,0.2-0.7,0.2-1-0.1c-1.5-1.4,1-3.8,3.3-2.2c0.9,0.6,1.1,1.7,2.1,2.4C27.2,69.2,27.9,69.4,29.1,69.5
		L29.1,69.5z"/>
	<path class="st0" d="M35.1,62.1c-0.8,1.5-2.5,2.8-4.2,2.8c-0.6,0-1.2,0-1.5,0.3c-0.2,0.2-0.2,0.8,0.3,0.8c-0.4,0.8-2.3,0.1-1.5-1.6
		c0.1-0.3,0.4-0.5,0.7-0.6c0.7-0.4,1.6-0.1,3.3-0.5C32.9,63.2,34,62.8,35.1,62.1L35.1,62.1z"/>
	<path class="st0" d="M39.1,57.2l0.4,0.3c-3.4,4.2-6.9,4-10.9,3.3c-3-0.5-4.2,1.8-3.3,2.8c0.4,0.5,1,0.5,1.3,0.2
		c-0.6,0-0.8-1.1-0.3-1.4c0.7-0.5,1.5,0.4,1.5,1.2c0,0.6-0.7,1.8-2.4,1.3c-2.5-0.8-1.8-4.8,2.4-4.9C31.1,59.9,34.1,62.3,39.1,57.2
		L39.1,57.2z"/>
	<path class="st0" d="M16.9,55.3c1.4,2,2.9,1.3,4.5,2.7c2.1,1.8-0.3,3.3-0.6,3.3c0.4-0.5,0.4-1.7-0.1-2.5c-0.3-0.5-0.8-0.8-1.5-1.2
		C17.3,56.5,17.2,55.8,16.9,55.3L16.9,55.3z"/>
	<path class="st0" d="M15,51.6c-0.1,0.5,0.1,0.8,0.5,0.9c0.8,0.2,1.9-0.5,2.3-0.7c-0.3,0.8-1.5,2.2-2.6,1.7
		C14.2,53.1,14.4,51.7,15,51.6L15,51.6z"/>
	<path class="st0" d="M18.1,52.2c-0.4,1.2-0.2,2,0.3,2.2c0.5,0.1,1.2,0.1,1.2-0.7c1,0.9-0.1,2.5-1.4,2.1
		C17,55.5,16.4,53.8,18.1,52.2L18.1,52.2z"/>
	<path class="st0" d="M18.2,52.2c0.8-1,2.5-1.1,3.9-0.1c2.4,1.7,1.2,4.1,7.2,7.4C28.3,59.4,27,59,25.5,58c-1.4-1-2.7-2.6-3.6-3.9
		C20.2,51.3,19,51.8,18.2,52.2L18.2,52.2z"/>
	<path class="st0" d="M36.6,58.4c-0.7,1.8-8.9,2.9-9.1-3c-0.1-3.8,2-2.8,2.1-2.8c0-0.8,0.3-1.6,2.3-1.5c0.1,0.3,0.1,0.7,0.2,0.7
		c0.5-0.3,2-0.3,2.4,0c-0.2,0.4-0.2,0.8-0.2,0.9c0.2,0,0.9,0.1,1.1,0.3c-0.1,0.4,0,0.9,0,0.9c0.9,0,1.2,0.6,1.1,1.2
		c-0.1-0.1-1,0-1.1,0.2c0,0.7,0,1.4-0.5,1.8c-0.5,0.4-1.9,0.5-2.3-0.1c0.3-0.1,1.7-0.5,1.4-1.8c-0.3-1.3-1.8-1.4-2.9-0.8
		c-0.6,0.4-0.8,1.2-0.8,2.1c0.1,0.9,0.8,1.8,2,2.3C34.9,59.5,36.2,58.5,36.6,58.4L36.6,58.4z"/>
	<g>
		<path class="st0" d="M49.6,37.5c-6.8,0-12.3,5.5-12.3,12.3c0,6.8,5.5,12.3,12.3,12.3c6.8,0,12.3-5.5,12.3-12.3
			C61.9,43,56.4,37.5,49.6,37.5z M49.6,61.3c-6.4,0-11.5-5.2-11.5-11.5c0-6.4,5.2-11.5,11.5-11.5c6.4,0,11.5,5.2,11.5,11.5
			C61.1,56.1,56,61.3,49.6,61.3z"/>
		<path class="st0" d="M60.5,49.7c0-0.6-0.4-1.3-1-1.6c-0.2-0.1-0.5-0.2-0.7-0.2c0.5-0.3,0.9-1,0.9-1.7c0-1.1-0.8-2-1.7-2
			c-0.2,0-0.5,0.1-0.7,0.1l-0.1-0.1l0.6-2.2l-2.4,0.2c-0.1,0-0.1-0.1-0.2-0.1c0.1-0.2,0.1-0.4,0.1-0.6c0-1-0.9-1.7-2-1.7
			c-0.7,0-1.2,0.3-1.6,0.7l-0.1,0c0-0.2-0.1-0.3-0.2-0.5c-0.3-0.7-0.9-1-1.6-1s-1.3,0.4-1.6,1c-0.1,0.1-0.1,0.3-0.1,0.4
			c-0.1,0-0.2,0-0.2,0c-0.4-0.4-0.9-0.6-1.5-0.6c-1.1,0-2,0.8-2,1.7c0,0.1,0,0.3,0,0.4c-0.1,0-0.1,0.1-0.2,0.1l-2.3-0.2l0.6,2
			c-0.1,0.1-0.2,0.3-0.3,0.4c-0.1,0-0.1,0-0.2,0c-1,0-1.7,0.9-1.7,2c0,0.5,0.2,1,0.5,1.4c0,0.1-0.1,0.3-0.1,0.4
			c-0.1,0-0.1,0.1-0.2,0.1c-0.7,0.3-1,0.9-1,1.6c0,0.6,0.4,1.3,1,1.6c0.1,0,0.1,0.1,0.2,0.1c0,0.2,0.1,0.3,0.1,0.5
			c-0.3,0.3-0.5,0.8-0.5,1.3c0,1.1,0.8,2,1.7,2c0,0,0.1,0,0.1,0c0.2,0.2,0.3,0.5,0.5,0.7l-0.4,1.5l1.7-0.1c0.2,0.2,0.4,0.3,0.6,0.5
			c0,0.1-0.1,0.3-0.1,0.4c0,1,0.9,1.7,2,1.7c0.6,0,1.2-0.3,1.6-0.7l0,0c0,0.2,0.1,0.5,0.2,0.7c0.7,1.4,2.5,1.3,3.1,0
			c0.2-0.4,0.2-0.7,0.2-1c0.1,0,0.1,0.2,0.1,0.2c0.4,0.5,0.9,0.8,1.6,0.8c1.1,0,2-0.8,2-1.7c0-0.2-0.1-0.5-0.2-0.7
			c0.1-0.1,0.2-0.2,0.3-0.2l2.2,0.2l-0.6-2c0.1-0.1,0.1-0.2,0.2-0.3c0.2,0.1,0.4,0.1,0.6,0.1c1,0,1.7-0.9,1.7-2
			c0-0.7-0.4-1.4-0.9-1.7c0.2,0,0.5-0.1,0.7-0.2C60.1,50.9,60.5,50.3,60.5,49.7z M49.7,58.2c-1.8,0-3.8-0.6-5.2-2
			c-1.8-1.6-2.9-4.2-2.9-6.4c0-3.6,2.8-7.6,6.4-8.2c4.8-0.8,9.7,2.7,9.7,8.2C57.8,54.2,54,58.1,49.7,58.2z"/>
	</g>
</g>
</svg>
