<?xml version="1.0" encoding="utf-8"?>
<!-- Generator: Adobe Illustrator 21.0.2, SVG Export Plug-In . SVG Version: 6.00 Build 0)  -->
<svg version="1.1" id="Слой_2" xmlns="http://www.w3.org/2000/svg" xmlns:xlink="http://www.w3.org/1999/xlink" x="0px" y="0px"
	 viewBox="0 0 300 300" style="enable-background:new 0 0 300 300;" xml:space="preserve">
<style type="text/css">
	.st0{fill:#FFFFFF;}
	.st1{fill:#671700;}
	.st2{fill:#C9A568;}
	.st3{fill:#E9DFD1;}
</style>
<rect class="st0" width="300" height="300"/>
<g>
	<path class="st1" d="M92.7,132.3c0.7,0.1,1.3,0.3,1.9,0.5v0.6h-5.5v-0.6c0.5-0.2,1.1-0.4,1.6-0.5v-11.9c-0.3-0.1-0.5-0.1-0.8-0.2
		c-0.3-0.1-0.6-0.2-0.8-0.3v-0.6h9.4c0,0.3,0,0.6,0,0.9c0,0.3,0,0.7,0,1.1c0,0.4,0,0.7-0.1,1.1c0,0.4-0.1,0.7-0.1,1h-0.5l-1-3h-4
		v11.9H92.7z"/>
	<path class="st1" d="M99.8,126.4c0-1,0.1-2,0.4-2.9s0.7-1.7,1.2-2.3c0.5-0.6,1.2-1.1,2-1.5c0.8-0.4,1.7-0.5,2.7-0.5
		s1.9,0.2,2.7,0.5c0.8,0.4,1.4,0.9,2,1.5c0.5,0.6,1,1.4,1.2,2.3c0.3,0.9,0.4,1.9,0.4,2.9s-0.1,2-0.4,2.9c-0.3,0.9-0.7,1.7-1.2,2.3
		s-1.2,1.1-2,1.5s-1.7,0.5-2.7,0.5s-1.9-0.2-2.7-0.5c-0.8-0.4-1.5-0.9-2-1.5s-1-1.4-1.2-2.3C99.9,128.4,99.8,127.4,99.8,126.4z
		 M101.9,126.4c0,0.9,0.1,1.7,0.3,2.4c0.2,0.8,0.4,1.4,0.8,2c0.4,0.6,0.8,1,1.4,1.3c0.5,0.3,1.2,0.5,1.9,0.5s1.3-0.2,1.8-0.5
		s0.9-0.8,1.3-1.3s0.6-1.2,0.7-2c0.2-0.8,0.3-1.6,0.3-2.4c0-0.9-0.1-1.7-0.3-2.4c-0.2-0.8-0.4-1.4-0.8-2s-0.8-1-1.4-1.3
		c-0.5-0.3-1.2-0.5-1.9-0.5s-1.4,0.2-1.9,0.5c-0.5,0.3-0.9,0.8-1.3,1.3c-0.3,0.6-0.6,1.2-0.7,2C102,124.7,101.9,125.5,101.9,126.4z"
		/>
	<path class="st1" d="M124.5,129.7h0.5c0.1,0.4,0.1,0.8,0.2,1.4c0.1,0.6,0.1,1.1,0,1.6c-0.2,0.2-0.4,0.3-0.7,0.4
		c-0.3,0.1-0.6,0.2-0.9,0.3s-0.6,0.1-1,0.1c-0.3,0-0.6,0-0.9,0c-1.1,0-2.1-0.1-3-0.4c-0.9-0.3-1.6-0.7-2.2-1.3
		c-0.6-0.6-1.1-1.3-1.4-2.3c-0.3-0.9-0.5-2-0.5-3.3c0-1.3,0.2-2.4,0.5-3.3c0.4-0.9,0.8-1.7,1.5-2.2c0.6-0.6,1.3-1,2.1-1.3
		c0.8-0.3,1.7-0.4,2.6-0.4c0.9,0,1.6,0.1,2.2,0.2c0.6,0.1,1.1,0.3,1.6,0.5c0,0.2,0,0.5,0,0.8s0,0.6-0.1,0.9c0,0.3-0.1,0.6-0.1,0.9
		s-0.1,0.6-0.1,0.8h-0.5l-1-2.9c-0.1-0.1-0.4-0.1-0.7-0.2c-0.3,0-0.7,0-1,0c-0.7,0-1.3,0.1-1.9,0.4c-0.6,0.2-1.1,0.6-1.6,1.1
		s-0.8,1.2-1.1,1.9c-0.3,0.8-0.4,1.7-0.4,2.8c0,0.9,0.1,1.8,0.4,2.6c0.2,0.8,0.6,1.4,1,2c0.5,0.5,1,1,1.7,1.2
		c0.7,0.3,1.4,0.4,2.2,0.4c0.4,0,0.8,0,1.1-0.1c0.3-0.1,0.5-0.2,0.6-0.3L124.5,129.7z"/>
	<path class="st1" d="M134.9,133.4h-5.6v-0.6c0.3-0.1,0.6-0.2,0.9-0.3c0.3-0.1,0.6-0.1,1-0.2v-11.9h-3.1l-1.1,2.9h-0.5
		c0-0.3-0.1-0.6-0.1-0.9c0-0.3,0-0.7-0.1-1c0-0.4,0-0.7-0.1-1c0-0.3,0-0.6,0-0.9h11.6c0,0.3,0,0.6,0,0.9c0,0.3,0,0.7-0.1,1
		c0,0.4,0,0.7-0.1,1c0,0.3-0.1,0.6-0.1,0.9H137l-1.1-2.9h-3v11.9c0.3,0.1,0.7,0.1,1,0.2s0.6,0.2,0.9,0.3L134.9,133.4L134.9,133.4z"
		/>
	<path class="st1" d="M143.9,133.4h-5.1v-0.6c0.5-0.2,1.1-0.4,1.6-0.5v-11.9c-0.3-0.1-0.5-0.1-0.8-0.2c-0.3-0.1-0.6-0.2-0.8-0.3
		v-0.6h5.1v0.6c-0.2,0.1-0.4,0.2-0.7,0.3c-0.2,0.1-0.5,0.2-0.8,0.2v8.7l-0.2,1.5l1-1.6l5.9-8.1v-0.5c-0.3-0.1-0.6-0.1-0.9-0.2
		c-0.3-0.1-0.5-0.2-0.8-0.3v-0.6h5.1v0.6c-0.2,0.1-0.5,0.2-0.8,0.3c-0.3,0.1-0.6,0.2-0.9,0.2v11.9c0.6,0.1,1.2,0.3,1.6,0.5v0.6h-5.1
		v-0.6c0.2-0.1,0.4-0.2,0.7-0.3c0.3-0.1,0.5-0.2,0.8-0.2v-8.7l0.2-1.5l-0.9,1.5l-5.9,8.2v0.4c0.3,0.1,0.6,0.1,0.9,0.2
		c0.3,0.1,0.5,0.2,0.8,0.3C143.9,132.7,143.9,133.4,143.9,133.4z"/>
	<path class="st1" d="M158.7,133.4h-5.1v-0.6c0.5-0.2,1.1-0.4,1.6-0.5v-11.9c-0.6-0.1-1.2-0.3-1.6-0.5v-0.6h5.1v0.6
		c-0.2,0.1-0.5,0.2-0.7,0.3c-0.2,0.1-0.5,0.1-0.8,0.2v5.2h6.3v-5.2c-0.3-0.1-0.5-0.1-0.8-0.2c-0.3-0.1-0.5-0.2-0.7-0.3v-0.6h5.1v0.6
		c-0.2,0.1-0.5,0.2-0.8,0.3c-0.3,0.1-0.6,0.1-0.9,0.2v11.9c0.3,0.1,0.6,0.1,0.9,0.2c0.3,0.1,0.5,0.2,0.8,0.3v0.6H162v-0.6
		c0.5-0.2,1-0.4,1.5-0.5v-5.6h-6.3v5.6c0.3,0.1,0.5,0.1,0.8,0.2s0.5,0.2,0.7,0.3V133.4z"/>
	<path class="st1" d="M173.3,133.4h-5.1v-0.6c0.5-0.2,1.1-0.4,1.6-0.5v-11.9c-0.3-0.1-0.5-0.1-0.8-0.2c-0.3-0.1-0.6-0.2-0.8-0.3
		v-0.6h5.1v0.6c-0.2,0.1-0.4,0.2-0.7,0.3c-0.3,0.1-0.5,0.2-0.8,0.2v8.7l-0.2,1.5l1-1.6l5.9-8.1v-0.5c-0.3-0.1-0.6-0.1-0.9-0.2
		c-0.3-0.1-0.5-0.2-0.8-0.3v-0.6h5.1v0.6c-0.2,0.1-0.5,0.2-0.8,0.3c-0.3,0.1-0.6,0.2-0.9,0.2v11.9c0.6,0.1,1.2,0.3,1.6,0.5v0.6h-5.1
		v-0.6c0.2-0.1,0.4-0.2,0.7-0.3c0.3-0.1,0.5-0.2,0.8-0.2v-8.7l0.2-1.5l-0.9,1.5l-5.9,8.2v0.4c0.3,0.1,0.6,0.1,0.9,0.2
		c0.3,0.1,0.5,0.2,0.8,0.3L173.3,133.4L173.3,133.4z"/>
	<path class="st1" d="M183,133.4v-0.6c0.4-0.2,0.9-0.3,1.6-0.5v-11.9c-0.5-0.1-1.1-0.2-1.6-0.5v-0.6h5.1v0.6
		c-0.4,0.2-0.9,0.3-1.5,0.5v11.9h6v-11.9c-0.2-0.1-0.5-0.1-0.7-0.2c-0.2-0.1-0.5-0.2-0.8-0.3v-0.6h5.1v0.6c-0.5,0.2-1.1,0.4-1.6,0.5
		v11.9h2.3c0,0.3,0,0.6,0,0.9c0,0.4-0.1,0.7-0.1,1.1s-0.1,0.7-0.1,1.1c0,0.4-0.1,0.7-0.2,0.9H196l-0.9-3L183,133.4L183,133.4z"/>
	<path class="st1" d="M201.5,133.4h-4.4v-0.6c0.5-0.2,1-0.4,1.4-0.5l5.1-13.2h0.6l5.1,13.2c0.3,0.1,0.5,0.1,0.8,0.2s0.5,0.2,0.7,0.3
		v0.6h-5.2v-0.6c0.3-0.1,0.5-0.2,0.8-0.3s0.6-0.1,0.8-0.2l-1.4-3.7H201l-1.3,3.7c0.6,0.1,1.1,0.2,1.7,0.5L201.5,133.4L201.5,133.4z
		 M201.5,127.6h4l-1.6-4.2l-0.4-1.7l0,0l-0.5,1.8L201.5,127.6z"/>
	<path class="st2" d="M70.4,145.4c0.3,0.1,0.6,0.3,0.8,0.6c0.2,0.2,0.4,0.5,0.5,0.8c0.1,0.3,0.2,0.7,0.2,1c0,0.4-0.1,0.7-0.2,1
		c-0.1,0.3-0.3,0.6-0.5,0.8c-0.2,0.2-0.5,0.4-0.8,0.5c-0.3,0.1-0.7,0.2-1,0.2c-0.4,0-0.7-0.1-1-0.2c-0.3-0.1-0.6-0.3-0.8-0.5
		c-0.2-0.2-0.4-0.5-0.5-0.8s-0.2-0.6-0.2-1c0-0.6,0.1-1.2,0.2-1.8c0.2-0.6,0.4-1.1,0.7-1.5c0.3-0.5,0.7-0.9,1.2-1.1
		c0.5-0.3,1.1-0.4,1.7-0.4c1.5,0,2.6,0.4,3.3,1.3c0,0,0.1,0.1,0.1,0.2c0.2,0.1,0.2,0.3,0.4,0.5c0.1,0.2,0.2,0.3,0.3,0.4
		c0.1,0.1,0.2,0.2,0.2,0.2h0.1V143h4.2v38.4h-4.2v-20l-4.2,3.4v16.6h-4.2V166l7.8-6.2v-1c0,0-0.2,0.1-0.4,0.2
		c-0.2,0.1-0.5,0.3-0.8,0.5c-0.3,0.2-0.8,0.4-1.2,0.5s-0.8,0.2-1.2,0.2c-0.6,0-1.1-0.1-1.7-0.4c-0.5-0.3-1-0.6-1.3-1.1
		c-0.4-0.4-0.7-1-0.9-1.5s-0.3-1.2-0.3-1.7c0-0.7,0.1-1.2,0.2-1.7c0.1-0.4,0.3-0.8,0.6-1.1s0.6-0.5,1-0.7s0.9-0.4,1.4-0.6
		c0.4-0.2,0.8-0.4,1.3-0.6s1-0.5,1.5-0.8s0.9-0.6,1.2-0.9c0.3-0.3,0.5-0.6,0.5-0.8v-1.8c0-0.3-0.1-0.5-0.3-0.8
		c-0.2-0.3-0.4-0.6-0.7-0.8c-0.3-0.2-0.6-0.5-1-0.7c-0.3-0.2-0.7-0.3-0.9-0.3c-0.3,0-0.6,0-0.9,0c-0.3,0-0.6,0.1-0.9,0.1
		c-0.3,0.1-0.5,0.2-0.7,0.3s-0.3,0.3-0.3,0.6c0,0,0,0.1,0.1,0.1c0.1,0,0.1,0.1,0.2,0.1s0.2,0.1,0.2,0.1c0.1,0,0.1,0,0.1,0
		C69.7,145.2,70.1,145.3,70.4,145.4z M74.3,149.6c-0.4,0.4-0.8,0.8-1.2,1.2s-0.8,0.8-1.2,1.2s-0.6,0.8-0.8,1.4
		c-0.2,0.5-0.3,1.1-0.3,1.6c0,0.4,0,0.8,0.1,1.2c0.1,0.4,0.2,0.8,0.4,1.1c0.2,0.3,0.4,0.6,0.6,0.8c0.2,0.2,0.5,0.3,0.9,0.3
		c1.5,0,2.2-0.6,2.2-1.8v-7H74.3z"/>
	<path class="st2" d="M93.4,149.1v-5.3h-1.9v37.5h-4.4v-37.5H85v9.9h-4.2v-10.8h17v6.2H93.4z"/>
	<path class="st2" d="M103,145.4c0.3,0.1,0.6,0.3,0.8,0.6c0.2,0.2,0.4,0.5,0.5,0.8c0.1,0.3,0.2,0.7,0.2,1c0,0.4-0.1,0.7-0.2,1
		c-0.1,0.3-0.3,0.6-0.5,0.8c-0.2,0.2-0.5,0.4-0.8,0.5s-0.7,0.2-1,0.2c-0.4,0-0.7-0.1-1-0.2s-0.6-0.3-0.8-0.5
		c-0.2-0.2-0.4-0.5-0.5-0.8c-0.1-0.3-0.2-0.6-0.2-1c0-0.6,0.1-1.2,0.2-1.8c0.2-0.6,0.4-1.1,0.7-1.5s0.7-0.8,1.2-1.1
		c0.5-0.3,1-0.4,1.7-0.4c1.5,0,2.6,0.4,3.3,1.3c0,0,0.1,0.1,0.1,0.2c0.1,0.1,0.2,0.3,0.3,0.4c0.1,0.2,0.2,0.3,0.3,0.4
		c0.1,0.1,0.2,0.2,0.2,0.2h0.1V143h4.2v38.4h-4.2v-20l-4.2,3.4v16.6h-4.2V166l7.8-6.2v-1c0,0-0.2,0.1-0.4,0.2
		c-0.2,0.1-0.5,0.3-0.8,0.5s-0.7,0.3-1.1,0.5c-0.4,0.1-0.8,0.2-1.2,0.2c-0.6,0-1.1-0.1-1.7-0.4c-0.5-0.3-1-0.6-1.3-1.1
		c-0.4-0.4-0.7-1-0.9-1.5c-0.2-0.5-0.3-1.2-0.3-1.7c0-0.7,0.1-1.2,0.2-1.7c0.1-0.4,0.4-0.8,0.6-1.1c0.2-0.3,0.6-0.5,1-0.7
		c0.4-0.2,0.9-0.4,1.4-0.6c0.4-0.2,0.8-0.4,1.3-0.6c0.5-0.2,1-0.5,1.5-0.8c0.5-0.3,0.9-0.6,1.2-0.9c0.3-0.3,0.5-0.6,0.5-0.8v-1.8
		c0-0.3-0.1-0.5-0.3-0.8s-0.4-0.6-0.7-0.8c-0.3-0.2-0.6-0.5-1-0.7c-0.3-0.2-0.7-0.3-0.9-0.3c-0.3,0-0.6,0-0.9,0s-0.6,0.1-0.9,0.1
		c-0.3,0.1-0.5,0.2-0.7,0.3s-0.3,0.3-0.3,0.6c0,0,0,0.1,0.1,0.1c0.1,0,0.1,0.1,0.2,0.1s0.2,0.1,0.2,0.1c0.1,0,0.1,0,0.1,0
		C102.4,145.2,102.7,145.3,103,145.4z M107,149.6c-0.4,0.4-0.8,0.8-1.2,1.1c-0.4,0.4-0.8,0.8-1.2,1.2s-0.6,0.8-0.8,1.4
		c-0.2,0.5-0.3,1.1-0.3,1.6c0,0.4,0,0.8,0.1,1.2c0.1,0.4,0.2,0.8,0.4,1.1c0.2,0.3,0.4,0.6,0.6,0.8c0.2,0.2,0.5,0.3,0.9,0.3
		c1.5,0,2.2-0.6,2.2-1.8v-7H107V149.6z"/>
	<path class="st2" d="M117.7,145.4c0.3,0.1,0.6,0.3,0.8,0.6s0.4,0.5,0.5,0.8s0.2,0.7,0.2,1c0,0.4-0.1,0.7-0.2,1
		c-0.1,0.3-0.3,0.6-0.5,0.8c-0.2,0.2-0.5,0.4-0.8,0.5c-0.3,0.1-0.7,0.2-1,0.2c-0.4,0-0.7-0.1-1-0.2c-0.3-0.1-0.6-0.3-0.8-0.5
		s-0.4-0.5-0.5-0.8s-0.2-0.6-0.2-1c0-0.6,0.1-1.2,0.2-1.8c0.2-0.6,0.4-1.1,0.7-1.5c0.3-0.5,0.7-0.8,1.2-1.1c0.5-0.3,1-0.4,1.7-0.4
		c0.6,0,1.1,0,1.5,0.1c0.4,0.1,0.8,0.2,1.1,0.4c0.3,0.2,0.6,0.5,0.8,0.8s0.5,0.8,0.7,1.3V143h4.4v22.7l2.9-7.4
		c0.1-0.2,0.1-0.3,0.1-0.5c0-0.1,0-0.3,0-0.4c0-0.3-0.1-0.6-0.2-1l-1.3-1.6l0.8-2.9l1.8,2v-11h4.5v38.4h-4.5v-23l-2.5,6.4
		c-0.4,1-0.5,1.8-0.5,2.5c0,0.2,0,0.4,0,0.5s0.1,0.3,0.1,0.4l1.1,1.4l-0.7,3.1l-1.7-1.9v10.7H122v-19.8l-4,3.2v16.6h-4.2V166
		l7.8-6.2v-1c0,0-0.2,0.1-0.4,0.2s-0.5,0.3-0.8,0.5c-0.3,0.2-0.7,0.3-1.1,0.5c-0.4,0.1-0.8,0.2-1.2,0.2c-0.6,0-1.1-0.1-1.7-0.4
		c-0.5-0.3-1-0.6-1.3-1.1c-0.4-0.4-0.7-1-0.9-1.5c-0.2-0.6-0.3-1.2-0.3-1.7c0-0.7,0.1-1.2,0.2-1.7c0.1-0.4,0.4-0.8,0.6-1.1
		c0.3-0.3,0.6-0.5,1-0.7c0.4-0.2,0.9-0.4,1.4-0.6c0.4-0.2,0.8-0.4,1.3-0.6c0.5-0.2,1-0.5,1.5-0.8c0.5-0.3,0.9-0.6,1.2-0.9
		s0.5-0.6,0.5-0.9v-1.8c0-0.3-0.1-0.5-0.3-0.8c-0.2-0.3-0.5-0.6-0.8-0.8c-0.3-0.3-0.6-0.5-1-0.7c-0.3-0.2-0.7-0.3-0.9-0.3
		c-0.3,0-0.5,0-0.9,0s-0.6,0.1-0.9,0.1c-0.3,0.1-0.5,0.2-0.7,0.3c-0.2,0.1-0.3,0.3-0.3,0.6c0,0,0,0.1,0.1,0.1s0.1,0.1,0.2,0.1
		c0.1,0,0.1,0.1,0.2,0.1s0.1,0,0.1,0C117,145.2,117.4,145.3,117.7,145.4z M121.6,149.6c-0.4,0.4-0.8,0.8-1.2,1.1
		c-0.4,0.4-0.8,0.8-1.2,1.2s-0.6,0.8-0.8,1.4c-0.2,0.5-0.3,1.1-0.3,1.6c0,0.4,0,0.8,0.1,1.2c0.1,0.4,0.2,0.8,0.4,1.1
		c0.2,0.3,0.4,0.6,0.6,0.8c0.2,0.2,0.5,0.3,0.9,0.3c1,0,1.6-0.3,2-0.9v-7.9L121.6,149.6z"/>
	<path class="st2" d="M140.9,145.4c0.3,0.1,0.6,0.3,0.8,0.6c0.2,0.2,0.4,0.5,0.5,0.8c0.1,0.3,0.2,0.7,0.2,1c0,0.4-0.1,0.7-0.2,1
		c-0.1,0.3-0.3,0.6-0.5,0.8c-0.2,0.2-0.5,0.4-0.8,0.5c-0.3,0.1-0.7,0.2-1,0.2c-0.4,0-0.7-0.1-1-0.2c-0.3-0.1-0.6-0.3-0.8-0.5
		c-0.2-0.2-0.4-0.5-0.5-0.8c-0.1-0.3-0.2-0.6-0.2-1c0-0.6,0.1-1.2,0.2-1.8c0.2-0.6,0.4-1.1,0.7-1.5c0.3-0.4,0.7-0.8,1.2-1.1
		c0.5-0.3,1-0.4,1.7-0.4c1.5,0,2.6,0.4,3.3,1.3c0,0,0.1,0.1,0.1,0.2c0.1,0.1,0.2,0.3,0.3,0.4c0.1,0.2,0.2,0.3,0.3,0.4
		s0.2,0.2,0.2,0.2h0.1V143h4.2v38.4h-4.2v-20l-4.2,3.4v16.6h-4.2V166l7.8-6.2v-1c0,0-0.2,0.1-0.4,0.2c-0.2,0.1-0.5,0.3-0.8,0.5
		s-0.7,0.3-1.1,0.5c-0.4,0.1-0.8,0.2-1.2,0.2c-0.6,0-1.1-0.1-1.7-0.4c-0.5-0.3-1-0.6-1.3-1.1c-0.4-0.4-0.7-1-0.9-1.5
		s-0.3-1.2-0.3-1.7c0-0.7,0.1-1.2,0.2-1.7c0.1-0.4,0.4-0.8,0.6-1.1c0.2-0.3,0.6-0.5,1-0.7c0.4-0.2,0.9-0.4,1.4-0.6
		c0.4-0.2,0.8-0.4,1.3-0.6c0.5-0.2,1-0.5,1.5-0.8c0.5-0.3,0.9-0.6,1.2-0.9s0.5-0.6,0.5-0.8v-1.8c0-0.3-0.1-0.5-0.3-0.8
		s-0.4-0.6-0.7-0.8s-0.6-0.5-1-0.7c-0.3-0.2-0.7-0.3-0.9-0.3c-0.3,0-0.6,0-0.9,0s-0.6,0.1-0.9,0.1c-0.3,0.1-0.5,0.2-0.7,0.3
		c-0.2,0.1-0.3,0.3-0.3,0.6c0,0,0,0.1,0.1,0.1s0.1,0.1,0.2,0.1s0.2,0.1,0.2,0.1c0.1,0,0.1,0,0.1,0
		C140.2,145.2,140.6,145.3,140.9,145.4z M144.8,149.6c-0.4,0.4-0.8,0.8-1.2,1.1c-0.4,0.4-0.8,0.8-1.2,1.2c-0.4,0.4-0.6,0.8-0.8,1.4
		c-0.2,0.5-0.3,1.1-0.3,1.6c0,0.4,0,0.8,0.1,1.2c0.1,0.4,0.2,0.8,0.4,1.1c0.2,0.3,0.4,0.6,0.6,0.8c0.2,0.2,0.5,0.3,0.9,0.3
		c1.5,0,2.2-0.6,2.2-1.8v-7h-0.7V149.6z"/>
	<path class="st2" d="M160.5,165.7V143h4.4v38.4h-4.4v-10.7l-1.7,1.9l-0.7-3.1l1.1-1.4c0.1-0.1,0.1-0.2,0.1-0.4c0-0.1,0-0.3,0-0.5
		c0-0.7-0.2-1.5-0.5-2.5l-2.5-6.4v23h-4.5V143h4.5v11l1.8-2l0.8,2.9l-1.3,1.6c-0.2,0.2-0.2,0.5-0.2,1c0,0.1,0,0.3,0,0.4
		c0,0.1,0.1,0.3,0.1,0.5L160.5,165.7z"/>
	<path class="st2" d="M176,146.7c0-0.3-0.1-0.6-0.2-0.9c-0.1-0.3-0.3-0.5-0.5-0.7c-0.2-0.2-0.5-0.4-0.7-0.5
		c-0.3-0.1-0.6-0.2-0.9-0.2c-0.3,0-0.5,0.1-0.8,0.2c-0.2,0.1-0.5,0.3-0.6,0.6c-0.2,0.2-0.3,0.5-0.4,0.8c-0.1,0.3-0.2,0.6-0.2,0.9
		v29.2c0,2.5,0.3,3.7,0.9,3.7c0.4,0,0.8-0.2,1.2-0.5c0.3-0.4,0.6-0.8,0.9-1.4c0.3-0.6,0.5-1.3,0.6-2.1s0.3-1.6,0.4-2.4
		c0.1-0.8,0.2-1.7,0.2-2.5c0-0.8,0.1-1.6,0.1-2.3h4.2c0,3.9-0.9,7.1-2.7,9.4c-1.7,2.2-3.9,3.4-6.6,3.4c-0.5,0-1,0-1.4-0.1
		c-0.5-0.1-0.9-0.2-1.3-0.4c-0.4-0.2-0.7-0.4-1-0.7c-0.3-0.3-0.4-0.6-0.4-1c0-0.9,0.1-1.5,0.3-1.9c0.3-0.5,0.8-0.8,1.7-0.8
		c0.1,0,0.3,0.1,0.5,0.4c0.2,0.3,0.3,0.5,0.5,0.8c0.2,0.3,0.3,0.5,0.5,0.8c0.1,0.2,0.3,0.4,0.3,0.4c-0.2-0.9-0.4-2-0.7-3.1
		c-0.3-1.1-0.5-2.3-0.7-3.5c-0.2-1.2-0.4-2.4-0.6-3.7c-0.2-1.2-0.4-2.4-0.5-3.6s-0.3-2.2-0.4-3.2c-0.1-1-0.1-1.9-0.1-2.6
		c0-4.3,0.5-7.9,1.4-10.8c1.1-3.5,2.7-5.3,4.8-5.3c1.5,0,2.6,0.2,3.5,0.7c0.9,0.5,1.5,1.2,2,2.1s0.7,1.9,0.9,3.1
		c0.1,1.2,0.2,2.5,0.2,3.9v3h-4.2v-9.2H176z"/>
	<path class="st2" d="M181.9,181.4V143h4.3v15.4h0.3c0.8-1.3,2-2.4,3.9-3.4v-12h4.5v12c-0.3,0-0.8,0.1-1.3,0.2s-1,0.4-1.6,0.6
		c-0.5,0.3-1.1,0.6-1.6,0.9s-1,0.7-1.4,1.1c-0.4,0.4-0.8,0.8-1,1.2c-0.3,0.4-0.4,0.8-0.4,1.2c0,0.5,0.1,0.9,0.4,1.3
		c0.3,0.4,0.6,0.8,1,1.1c0.4,0.3,0.9,0.7,1.4,0.9c0.5,0.2,1.1,0.5,1.6,0.7c0.5,0.2,1.1,0.3,1.6,0.4s0.9,0.2,1.3,0.2v16.5h-4.5v-16.4
		c-1.6-0.5-2.9-1.5-3.9-3h-0.3v19.5H181.9L181.9,181.4z"/>
	<path class="st2" d="M200.5,145.4c0.3,0.1,0.6,0.3,0.8,0.6c0.2,0.2,0.4,0.5,0.5,0.8s0.2,0.7,0.2,1c0,0.4-0.1,0.7-0.2,1
		c-0.1,0.3-0.3,0.6-0.5,0.8c-0.2,0.2-0.5,0.4-0.8,0.5s-0.7,0.2-1,0.2c-0.4,0-0.7-0.1-1-0.2s-0.6-0.3-0.8-0.5s-0.4-0.5-0.5-0.8
		s-0.2-0.6-0.2-1c0-0.6,0.1-1.2,0.2-1.8c0.2-0.6,0.4-1.1,0.7-1.5s0.7-0.8,1.2-1.1c0.5-0.3,1-0.4,1.7-0.4c1.5,0,2.6,0.4,3.3,1.3
		c0,0,0.1,0.1,0.1,0.2c0.1,0.1,0.2,0.3,0.3,0.4c0.1,0.2,0.2,0.3,0.3,0.4s0.2,0.2,0.2,0.2h0.1V143h4.2v38.4h-4.2v-20l-4.2,3.4v16.6
		h-4.2V166l7.8-6.2v-1c0,0-0.2,0.1-0.4,0.2s-0.5,0.3-0.8,0.5s-0.7,0.3-1.1,0.5c-0.4,0.1-0.8,0.2-1.2,0.2c-0.6,0-1.1-0.1-1.7-0.4
		c-0.5-0.3-1-0.6-1.3-1.1c-0.4-0.4-0.7-1-0.9-1.5s-0.3-1.2-0.3-1.7c0-0.7,0.1-1.2,0.2-1.7c0.1-0.4,0.4-0.8,0.6-1.1
		c0.2-0.3,0.6-0.5,1-0.7c0.4-0.2,0.9-0.4,1.4-0.6c0.4-0.2,0.8-0.4,1.3-0.6c0.5-0.2,1-0.5,1.5-0.8c0.5-0.3,0.9-0.6,1.2-0.9
		s0.5-0.6,0.5-0.8v-1.8c0-0.3-0.1-0.5-0.3-0.8s-0.4-0.6-0.7-0.8s-0.6-0.5-1-0.7c-0.3-0.2-0.7-0.3-0.9-0.3c-0.3,0-0.5,0-0.9,0
		c-0.3,0-0.6,0.1-0.9,0.1c-0.3,0.1-0.5,0.2-0.7,0.3s-0.3,0.3-0.3,0.6c0,0,0,0.1,0.1,0.1s0.1,0.1,0.2,0.1s0.2,0.1,0.2,0.1
		c0.1,0,0.1,0,0.1,0C199.8,145.2,200.2,145.3,200.5,145.4z M204.4,149.6c-0.4,0.4-0.8,0.8-1.2,1.1c-0.4,0.4-0.8,0.8-1.2,1.2
		s-0.6,0.8-0.8,1.4c-0.2,0.5-0.3,1.1-0.3,1.6c0,0.4,0,0.8,0.1,1.2c0.1,0.4,0.2,0.8,0.4,1.1c0.2,0.3,0.4,0.6,0.6,0.8
		c0.2,0.2,0.5,0.3,0.9,0.3c1.5,0,2.2-0.6,2.2-1.8v-7h-0.7V149.6z"/>
	<path class="st2" d="M218,181.4v-16.5h-1.9c-0.3,0.6-0.6,1.6-0.9,2.9c-0.4,1.3-0.8,2.9-1.2,4.8c-0.4,1.7-0.7,3.3-1,4.7
		c-0.3,1.4-0.6,2.8-0.8,4h-1.4c1.2-7.7,2.8-14.7,5.1-21.1c2.2-6.4,5-12.2,8.2-17.3c0.2,1.7,0.5,3.3,0.9,4.9c0.4,1.6,0.8,3.3,1.3,4.9
		l2.9,9.7c1.2,4.1,2.1,7.7,2.7,10.8s0.9,5.8,0.9,8h-4.5c-0.1-1.4-0.3-2.9-0.6-4.7c-0.3-1.7-0.7-3.7-1.3-5.9
		c-0.2-0.8-0.4-1.6-0.6-2.3c-0.2-0.7-0.4-1.3-0.5-1.9l-0.5-1.7h-2.5v16.5H218V181.4z M224.4,164c-0.1-0.6-0.4-1.5-0.7-2.7
		s-0.7-2.7-1.2-4.5c-0.3-1.1-0.6-2.1-0.9-3s-0.5-1.6-0.7-2.2c-0.1,0-0.2,0.2-0.3,0.5s-0.3,0.7-0.6,1.2s-0.4,1.1-0.7,1.8
		c-0.2,0.7-0.5,1.4-0.8,2.1c-0.3,0.7-0.5,1.4-0.7,2.2c-0.2,0.7-0.5,1.4-0.7,2c-0.2,0.6-0.4,1.1-0.5,1.6s-0.3,0.8-0.3,1H224.4z"/>
</g>
<path class="st3" d="M147.3,86.7l1.1-0.9c-9.7-11.8-19.4-11.4-31-9.4c-8.5,1.5-11.8-5.1-9.4-7.9c1.1-1.3,2.8-1.4,3.7-0.4
	c-1.7,0.1-2.4,3-0.8,4c2.1,1.3,4.2-1.1,4.1-3.4c-0.1-1.6-2-5.2-6.8-3.7c-6.9,2.2-5.2,13.7,6.7,14C124.5,79,133.2,72.1,147.3,86.7
	L147.3,86.7z"/>
<path class="st3" d="M84.4,92.1c0.8-1.4,1.1-3.3,6.6-6.3c1.9-1,3.5-2,4.2-3.4c1.4-2.2,1.4-5.8,0.2-7.2c0.9-0.2,7.7,4.2,1.8,9.2
	C92.7,88.3,88.5,86.5,84.4,92.1L84.4,92.1z"/>
<path class="st3" d="M79,102.5c-1.7-0.3-2.4-4.2,0.4-5.3c3.3-1.3,6.7,2.6,7.4,4.8c-1-0.6-4.3-2.7-6.5-2
	C79.4,100.2,78.9,101,79,102.5L79,102.5z"/>
<path class="st3" d="M87.8,100.7c-5-4.3-3.2-9.1,0.3-10.1c3.7-1.1,6.8,3.4,4,5.9c0-2.2-2-2.3-3.4-1.9
	C87.1,95.1,86.6,97.4,87.8,100.7L87.8,100.7z"/>
<path class="st3" d="M88.1,100.8c2.2,1.1,5.7,2.4,10.6-5.3c2.5-3.8,6.2-8.2,10.2-11.1c4.1-3,7.7-3.9,10.8-4.3
	c-17.2,9.4-13.8,16.3-20.6,21.1C95,104.1,90.5,103.8,88.1,100.8L88.1,100.8z"/>
<path class="st3" d="M140.2,83.3c-1.1-0.3-4.7-3.2-11.5-0.9c-3.5,1.1-5.4,3.8-5.7,6.4c-0.2,2.5,0.5,4.8,2.1,5.9
	c3,1.9,7.3,1.4,8.1-2.2c0.8-3.6-3.2-4.8-4-5.1c1.1-1.6,5-1.4,6.5-0.3s1.4,3.1,1.5,5c0.2,0.7,2.7,0.7,3.1,0.6
	c0.1,1.6-0.6,3.4-3.2,3.3c0,0-0.2,1.5-0.1,2.6c-0.5,0.7-2.4,0.9-3,0.9c-0.1,0.3,0,1.4,0.5,2.6c-1.1,0.7-5.4,0.8-6.9-0.1
	c-0.3,0.1-0.4,1.1-0.6,2c-5.7,0.4-6.7-2-6.6-4.1c-0.3,0.1-6.3,2.8-6-8C115,75,138.2,78.1,140.2,83.3L140.2,83.3z"/>
<path class="st3" d="M151.2,86.7c14.1-14.5,22.8-7.6,32.4-7.8c11.9-0.2,13.6-11.8,6.7-14c-4.8-1.5-6.7,2.1-6.8,3.7
	c-0.1,2.3,2.1,4.7,4.1,3.4c1.6-1,0.9-3.8-0.8-4c0.8-1,2.6-0.9,3.7,0.4c2.4,2.9-1,9.4-9.4,8c-11.5-2-21.3-2.4-30.9,9.4L151.2,86.7
	L151.2,86.7z"/>
<path class="st3" d="M214.1,92.1c-4.1-5.6-8.2-3.7-12.9-7.7c-5.9-5,0.9-9.5,1.8-9.2c-1.2,1.4-1.2,5,0.2,7.2c0.8,1.3,2.4,2.3,4.2,3.4
	C212.9,88.8,213.3,90.6,214.1,92.1L214.1,92.1z"/>
<path class="st3" d="M219.5,102.5c0.1-1.5-0.4-2.2-1.3-2.5c-2.2-0.7-5.5,1.4-6.5,2c0.8-2.2,4.1-6.1,7.4-4.8
	C221.9,98.2,221.2,102.1,219.5,102.5L219.5,102.5z"/>
<path class="st3" d="M210.7,100.7c1.2-3.3,0.6-5.6-0.9-6.1c-1.4-0.4-3.4-0.3-3.4,1.9c-2.8-2.5,0.3-7,4-5.9
	C213.9,91.6,215.7,96.4,210.7,100.7L210.7,100.7z"/>
<path class="st3" d="M210.4,100.8c-2.4,3-7,3.2-11.1,0.4c-6.8-4.7-3.4-11.7-20.5-21.1c3.1,0.4,6.7,1.3,10.8,4.3
	c4.1,2.9,7.8,7.2,10.2,11.1C204.8,103.2,208.3,101.9,210.4,100.8L210.4,100.8z"/>
<path class="st3" d="M158.3,83.3c2-5.1,25.3-8.3,25.8,8.5c0.4,10.8-5.7,8-6,8c0,2.1-1,4.5-6.6,4.1c-0.2-0.9-0.3-2-0.6-2
	c-1.5,0.9-5.8,0.8-6.9,0.1c0.5-1.2,0.6-2.2,0.5-2.6c-0.6-0.1-2.5-0.1-3-0.9c0.2-1-0.1-2.6-0.1-2.6c-2.6,0.1-3.3-1.7-3.2-3.3
	c0.4,0.2,2.8,0.1,3.1-0.6c0.1-1.9-0.1-3.8,1.5-5c1.5-1.1,5.4-1.3,6.5,0.3c-0.8,0.2-4.7,1.5-4,5.1c0.7,3.6,5.1,4.1,8.1,2.2
	c1.6-1,2.4-3.4,2.1-5.9c-0.2-2.6-2.2-5.2-5.7-6.4C163,80.1,159.4,82.9,158.3,83.3L158.3,83.3z"/>
<path class="st3" d="M149.4,81.6V82c0,0-4.2-11-11.8-7c2.5-4,6.8-4.5,9.4-4.3c0.1-0.6-0.4-1.4-1-2c-0.7,0.4-1.7,0.3-2.4-0.4
	c-0.8-0.8-0.8-2.1,0-2.9c0.8-0.8,2.1-0.8,2.9,0c0.6,0.6,0.7,1.5,0.4,2.2c1,1,2.1,2.6,2.5,3.4c0.2-0.5,1.5-2.5,2.7-3.6
	c-0.3-0.7-0.2-1.6,0.5-2.2c0.8-0.8,2.1-0.7,2.8,0.1c0.7,0.8,0.8,2.1,0,2.9c-0.6,0.6-1.6,0.7-2.4,0.3c-0.6,0.6-1.2,1.4-1.1,2
	c2.6-0.2,6.9,0.4,9.3,4.4C154.2,71,149.9,80.6,149.4,81.6L149.4,81.6z"/>
<path class="st3" d="M147.3,213.3c-14.1,14.5-22.8,7.6-32.4,7.8c-11.9,0.2-13.6,11.8-6.7,14c4.8,1.5,6.7-2.1,6.8-3.7
	c0.1-2.3-2.1-4.7-4.1-3.4c-1.6,1-0.9,3.8,0.8,4c-0.8,1-2.6,0.9-3.7-0.4c-2.4-2.9,1-9.4,9.4-7.9c11.5,2,21.3,2.4,30.9-9.4
	L147.3,213.3L147.3,213.3z"/>
<path class="st3" d="M84.4,207.9c4.1,5.6,8.3,3.7,12.9,7.7c5.9,5-0.9,9.5-1.8,9.2c1.2-1.4,1.2-5-0.2-7.2c-0.8-1.4-2.4-2.4-4.2-3.4
	C85.6,211.2,85.2,209.4,84.4,207.9L84.4,207.9z"/>
<path class="st3" d="M79,197.5c-0.1,1.5,0.4,2.2,1.3,2.5c2.2,0.7,5.5-1.4,6.5-2c-0.8,2.2-4.2,6.1-7.4,4.8
	C76.6,201.8,77.3,197.9,79,197.5L79,197.5z"/>
<path class="st3" d="M87.8,199.3c-1.2,3.3-0.7,5.6,0.9,6.1c1.4,0.4,3.4,0.3,3.4-1.9c2.8,2.5-0.3,7-4,5.9
	C84.6,208.4,82.8,203.6,87.8,199.3L87.8,199.3z"/>
<path class="st3" d="M88.1,199.2c2.4-3,7-3.2,11-0.4c6.8,4.7,3.4,11.7,20.5,21.1c-3.1-0.4-6.7-1.3-10.8-4.3
	c-4-2.9-7.7-7.3-10.2-11.1C93.7,196.8,90.3,198.1,88.1,199.2L88.1,199.2z"/>
<path class="st3" d="M140.2,216.7c-2,5.1-25.2,8.3-25.7-8.5c-0.4-10.8,5.7-8,6-8c0-2.1,1-4.5,6.6-4.1c0.2,0.9,0.3,2,0.6,2
	c1.5-0.9,5.8-0.8,6.9-0.1c-0.5,1.2-0.6,2.2-0.5,2.6c0.6,0,2.5,0.1,3,0.9c-0.1,1,0.1,2.6,0.1,2.6c2.6-0.1,3.3,1.7,3.2,3.3
	c-0.4-0.2-2.9-0.1-3.1,0.6c-0.1,1.9,0.1,3.8-1.5,5c-1.6,1.1-5.4,1.3-6.5-0.3c0.8-0.2,4.7-1.5,4-5.1s-5.1-4.1-8.1-2.2
	c-1.7,1-2.4,3.4-2.1,5.9c0.2,2.6,2.2,5.2,5.7,6.4C135.5,219.9,139.1,217.1,140.2,216.7L140.2,216.7z"/>
<path class="st3" d="M151.2,213.3l-1.1,0.8c9.7,11.8,19.4,11.4,30.9,9.4c8.5-1.5,11.8,5.1,9.4,8c-1.1,1.3-2.8,1.4-3.7,0.4
	c1.7-0.1,2.4-3,0.8-4c-2.1-1.3-4.2,1.1-4.1,3.4c0.1,1.6,2,5.2,6.8,3.7c6.9-2.2,5.2-13.7-6.7-14C174,221,165.4,227.9,151.2,213.3
	L151.2,213.3z"/>
<path class="st3" d="M214.1,207.9c-0.8,1.4-1.1,3.3-6.6,6.3c-1.9,1.1-3.4,2.1-4.2,3.4c-1.4,2.2-1.4,5.8-0.2,7.2
	c-0.9,0.2-7.7-4.2-1.8-9.2C205.8,211.6,210,213.5,214.1,207.9L214.1,207.9z"/>
<path class="st3" d="M219.5,197.5c1.7,0.4,2.5,4.2-0.3,5.3c-3.3,1.3-6.7-2.6-7.4-4.8c1,0.6,4.3,2.7,6.5,2
	C219.1,199.7,219.6,199,219.5,197.5L219.5,197.5z"/>
<path class="st3" d="M210.7,199.3c5,4.3,3.1,9.1-0.3,10.2c-3.7,1.1-6.8-3.4-4-5.9c0,2.2,2.1,2.3,3.4,1.9
	C211.4,204.9,211.9,202.6,210.7,199.3L210.7,199.3z"/>
<path class="st3" d="M210.4,199.2c-2.2-1.1-5.7-2.4-10.6,5.3c-2.4,3.9-6.1,8.2-10.2,11.1c-4.1,3-7.7,3.9-10.8,4.3
	c17.1-9.4,13.7-16.3,20.5-21.1C203.5,195.9,208.1,196.2,210.4,199.2L210.4,199.2z"/>
<path class="st3" d="M158.3,216.7c1,0.3,4.7,3.2,11.5,0.9c3.5-1.1,5.4-3.8,5.7-6.4c0.2-2.5-0.5-4.8-2.1-5.9c-3-1.9-7.3-1.4-8.1,2.2
	c-0.7,3.6,3.2,4.8,4,5.1c-1.1,1.6-5,1.5-6.5,0.3c-1.5-1.1-1.4-3.1-1.5-5c-0.2-0.7-2.7-0.7-3.1-0.6c-0.1-1.6,0.6-3.4,3.2-3.3
	c0,0,0.2-1.5,0.1-2.6c0.5-0.7,2.4-0.8,3-0.9c0.1-0.3,0-1.4-0.5-2.6c1.1-0.7,5.4-0.8,6.9,0.1c0.3-0.1,0.4-1.1,0.6-2
	c5.7-0.4,6.7,2,6.6,4.1c0.3-0.1,6.3-2.8,6,8C183.6,225,160.3,221.9,158.3,216.7L158.3,216.7z"/>
<path class="st3" d="M149.4,218.4c0.4,1,4.7,10.6,11.8,6.7c-2.4,4-6.7,4.6-9.3,4.4c-0.1,0.6,0.5,1.4,1.1,2c0.8-0.4,1.7-0.3,2.4,0.3
	c0.8,0.8,0.8,2.1,0,2.9c-0.8,0.8-2.1,0.9-2.8,0.1c-0.6-0.6-0.8-1.5-0.5-2.2c-1.2-1.1-2.5-3.1-2.7-3.6c-0.4,0.8-1.5,2.4-2.5,3.4
	c0.3,0.7,0.2,1.6-0.4,2.2c-0.8,0.8-2.1,0.8-2.9,0c-0.8-0.8-0.8-2.1,0-2.9c0.6-0.6,1.6-0.7,2.4-0.4c0.6-0.6,1.2-1.4,1-2
	c-2.6,0.2-6.9-0.3-9.4-4.3c7.6,4,11.8-7,11.8-7V218.4L149.4,218.4z"/>
</svg>
