<?xml version="1.0" encoding="utf-8"?>
<!-- Generator: Adobe Illustrator 21.0.2, SVG Export Plug-In . SVG Version: 6.00 Build 0)  -->
<svg version="1.1" id="hotel" xmlns="http://www.w3.org/2000/svg" xmlns:xlink="http://www.w3.org/1999/xlink" x="0px" y="0px"
	 viewBox="0 0 300 300" style="enable-background:new 0 0 300 300;" xml:space="preserve">
<style type="text/css">
	.hotel0{fill:#FFFFFF;}
	.hotel1{fill:#671700;}
	.hotel2{fill:#C9A468;}
	.hotel3{fill:#E9DFD1;}
</style>
<rect class="hotel0" width="300" height="300"/>
<g>
	<path class="hotel1" d="M92.7,136.4c0.7,0.1,1.3,0.3,1.9,0.5v0.6h-5.5v-0.6c0.5-0.2,1.1-0.4,1.6-0.5v-11.9c-0.3-0.1-0.5-0.1-0.8-0.2
		s-0.6-0.2-0.8-0.3v-0.6h9.4c0,0.3,0,0.6,0,0.9s0,0.7,0,1.1s0,0.7-0.1,1.1c0,0.4-0.1,0.7-0.1,1h-0.5l-1-3h-4L92.7,136.4L92.7,136.4z
		"/>
	<path class="hotel1" d="M99.8,130.5c0-1,0.1-2,0.4-2.9s0.7-1.7,1.2-2.3c0.5-0.6,1.2-1.1,2-1.5s1.7-0.5,2.7-0.5s1.9,0.2,2.7,0.5
		c0.8,0.4,1.4,0.9,2,1.5c0.5,0.6,1,1.4,1.2,2.3c0.3,0.9,0.4,1.9,0.4,2.9s-0.1,2-0.4,2.9c-0.3,0.9-0.7,1.7-1.2,2.3s-1.2,1.1-2,1.5
		s-1.7,0.5-2.7,0.5s-1.9-0.2-2.7-0.5c-0.8-0.4-1.5-0.9-2-1.5s-1-1.4-1.2-2.3C99.9,132.5,99.8,131.5,99.8,130.5z M101.9,130.5
		c0,0.9,0.1,1.7,0.3,2.4c0.2,0.8,0.4,1.4,0.8,2s0.8,1,1.4,1.3c0.5,0.3,1.2,0.5,1.9,0.5s1.3-0.2,1.8-0.5s0.9-0.8,1.3-1.3
		s0.6-1.2,0.7-2c0.2-0.8,0.3-1.6,0.3-2.4c0-0.9-0.1-1.7-0.3-2.4c-0.2-0.8-0.4-1.4-0.8-2s-0.8-1-1.4-1.3c-0.5-0.3-1.2-0.5-1.9-0.5
		s-1.4,0.2-1.9,0.5s-0.9,0.8-1.3,1.3c-0.3,0.6-0.6,1.2-0.7,2C102,128.8,101.9,129.6,101.9,130.5z"/>
	<path class="hotel1" d="M124.5,133.8h0.5c0.1,0.4,0.1,0.8,0.2,1.4c0.1,0.6,0.1,1.1,0,1.6c-0.2,0.2-0.4,0.3-0.7,0.4
		c-0.3,0.1-0.6,0.2-0.9,0.3s-0.6,0.1-1,0.1c-0.3,0-0.6,0-0.9,0c-1.1,0-2.1-0.1-3-0.4c-0.9-0.3-1.6-0.7-2.2-1.3s-1.1-1.3-1.4-2.3
		c-0.3-0.9-0.5-2-0.5-3.3s0.2-2.4,0.5-3.3c0.4-0.9,0.8-1.7,1.5-2.2c0.6-0.6,1.3-1,2.1-1.3c0.8-0.3,1.7-0.4,2.6-0.4s1.6,0.1,2.2,0.2
		s1.1,0.3,1.6,0.5c0,0.2,0,0.5,0,0.8s0,0.6-0.1,0.9c0,0.3-0.1,0.6-0.1,0.9s-0.1,0.6-0.1,0.8h-0.5l-1-2.9c-0.1-0.1-0.4-0.1-0.7-0.2
		c-0.3,0-0.7,0-1,0c-0.7,0-1.3,0.1-1.9,0.4c-0.6,0.2-1.1,0.6-1.6,1.1s-0.8,1.2-1.1,1.9c-0.3,0.8-0.4,1.7-0.4,2.8
		c0,0.9,0.1,1.8,0.4,2.6c0.2,0.8,0.6,1.4,1,2c0.5,0.5,1,1,1.7,1.2c0.7,0.3,1.4,0.4,2.2,0.4c0.4,0,0.8,0,1.1-0.1
		c0.3-0.1,0.5-0.2,0.6-0.3L124.5,133.8z"/>
	<path class="hotel1" d="M134.9,137.5h-5.6v-0.6c0.3-0.1,0.6-0.2,0.9-0.3c0.3-0.1,0.6-0.1,1-0.2v-11.9h-3.1l-1.1,2.9h-0.5
		c0-0.3-0.1-0.6-0.1-0.9s0-0.7-0.1-1c0-0.4,0-0.7-0.1-1c0-0.3,0-0.6,0-0.9h11.6c0,0.3,0,0.6,0,0.9s0,0.7-0.1,1c0,0.4,0,0.7-0.1,1
		c0,0.3-0.1,0.6-0.1,0.9H137l-1.1-2.9h-3v11.9c0.3,0.1,0.7,0.1,1,0.2s0.6,0.2,0.9,0.3L134.9,137.5L134.9,137.5z"/>
	<path class="hotel1" d="M143.9,137.5h-5.1v-0.6c0.5-0.2,1.1-0.4,1.6-0.5v-11.9c-0.3-0.1-0.5-0.1-0.8-0.2s-0.6-0.2-0.8-0.3v-0.6h5.1
		v0.6c-0.2,0.1-0.4,0.2-0.7,0.3c-0.2,0.1-0.5,0.2-0.8,0.2v8.7l-0.2,1.5l1-1.6l5.9-8.1v-0.5c-0.3-0.1-0.6-0.1-0.9-0.2
		c-0.3-0.1-0.5-0.2-0.8-0.3v-0.6h5.1v0.6c-0.2,0.1-0.5,0.2-0.8,0.3c-0.3,0.1-0.6,0.2-0.9,0.2v11.9c0.6,0.1,1.2,0.3,1.6,0.5v0.6h-5.1
		v-0.6c0.2-0.1,0.4-0.2,0.7-0.3s0.5-0.2,0.8-0.2v-8.7l0.2-1.5l-0.9,1.5l-5.9,8.2v0.4c0.3,0.1,0.6,0.1,0.9,0.2
		c0.3,0.1,0.5,0.2,0.8,0.3C143.9,136.8,143.9,137.5,143.9,137.5z"/>
	<path class="hotel1" d="M158.7,137.5h-5.1v-0.6c0.5-0.2,1.1-0.4,1.6-0.5v-11.9c-0.6-0.1-1.2-0.3-1.6-0.5v-0.6h5.1v0.6
		c-0.2,0.1-0.5,0.2-0.7,0.3c-0.2,0.1-0.5,0.1-0.8,0.2v5.2h6.3v-5.2c-0.3-0.1-0.5-0.1-0.8-0.2s-0.5-0.2-0.7-0.3v-0.6h5.1v0.6
		c-0.2,0.1-0.5,0.2-0.8,0.3c-0.3,0.1-0.6,0.1-0.9,0.2v11.9c0.3,0.1,0.6,0.1,0.9,0.2c0.3,0.1,0.5,0.2,0.8,0.3v0.6H162v-0.6
		c0.5-0.2,1-0.4,1.5-0.5v-5.6h-6.3v5.6c0.3,0.1,0.5,0.1,0.8,0.2s0.5,0.2,0.7,0.3V137.5z"/>
	<path class="hotel1" d="M173.3,137.5h-5.1v-0.6c0.5-0.2,1.1-0.4,1.6-0.5v-11.9c-0.3-0.1-0.5-0.1-0.8-0.2s-0.6-0.2-0.8-0.3v-0.6h5.1
		v0.6c-0.2,0.1-0.4,0.2-0.7,0.3c-0.3,0.1-0.5,0.2-0.8,0.2v8.7l-0.2,1.5l1-1.6l5.9-8.1v-0.5c-0.3-0.1-0.6-0.1-0.9-0.2
		c-0.3-0.1-0.5-0.2-0.8-0.3v-0.6h5.1v0.6c-0.2,0.1-0.5,0.2-0.8,0.3c-0.3,0.1-0.6,0.2-0.9,0.2v11.9c0.6,0.1,1.2,0.3,1.6,0.5v0.6h-5.1
		v-0.6c0.2-0.1,0.4-0.2,0.7-0.3s0.5-0.2,0.8-0.2v-8.7l0.2-1.5l-0.9,1.5l-5.9,8.2v0.4c0.3,0.1,0.6,0.1,0.9,0.2
		c0.3,0.1,0.5,0.2,0.8,0.3L173.3,137.5L173.3,137.5z"/>
	<path class="hotel1" d="M183,137.5v-0.6c0.4-0.2,0.9-0.3,1.6-0.5v-11.9c-0.5-0.1-1.1-0.2-1.6-0.5v-0.6h5.1v0.6
		c-0.4,0.2-0.9,0.3-1.5,0.5v11.9h6v-11.9c-0.2-0.1-0.5-0.1-0.7-0.2s-0.5-0.2-0.8-0.3v-0.6h5.1v0.6c-0.5,0.2-1.1,0.4-1.6,0.5v11.9
		h2.3c0,0.3,0,0.6,0,0.9c0,0.4-0.1,0.7-0.1,1.1s-0.1,0.7-0.1,1.1c0,0.4-0.1,0.7-0.2,0.9H196l-0.9-3L183,137.5L183,137.5z"/>
	<path class="hotel1" d="M201.5,137.5h-4.4v-0.6c0.5-0.2,1-0.4,1.4-0.5l5.1-13.2h0.6l5.1,13.2c0.3,0.1,0.5,0.1,0.8,0.2s0.5,0.2,0.7,0.3
		v0.6h-5.2v-0.6c0.3-0.1,0.5-0.2,0.8-0.3s0.6-0.1,0.8-0.2l-1.4-3.7H201l-1.3,3.7c0.6,0.1,1.1,0.2,1.7,0.5L201.5,137.5L201.5,137.5z
		 M201.5,131.7h4l-1.6-4.2l-0.4-1.7l0,0l-0.5,1.8L201.5,131.7z"/>
	<g>
		<path class="hotel2" d="M64.7,175.9v-0.6h1.2l6.2-23.2l6.4,20.9c0.2,0.7,0.4,1.2,0.4,1.3c0.3,0.7,0.9,1,1.6,1v0.6h-5v-0.6l2,0
			l-4.2-14.1h-3.1l-2.7,11.1c-0.1,0.2-0.1,0.4-0.2,0.7c0,0.3-0.1,0.5-0.1,0.7c0,0.6,0.2,1,0.7,1.2c0.5,0.2,1.3,0.3,2.4,0.3v0.6H64.7
			z M70.5,160.6l2.7,0l-1.5-4.9L70.5,160.6z"/>
		<path class="hotel2" d="M87.3,154.1h-1.6c-0.7,0-1.3,0.1-1.8,0.2c-0.5,0.1-0.8,0.3-1,0.7c-0.2,0.3-0.4,0.8-0.5,1.4
			c-0.1,0.6-0.2,1.2-0.2,1.8l0.1,2.7h-0.5V152h0.5v1.6H94V152h0.5v8.9H94v-3.3c0-1.5-0.3-2.4-0.9-2.8c-0.6-0.4-1.9-0.6-4.1-0.6v18
			v0.8c0,1.1,0.2,1.8,0.5,2.1c0.4,0.3,1.2,0.4,2.6,0.4v0.6h-7.7v-0.6h2.8V154.1z"/>
		<path class="hotel2" d="M95.3,175.9v-0.6h1.2l6.2-23.2l6.4,20.9c0.2,0.7,0.4,1.2,0.4,1.3c0.3,0.7,0.9,1,1.6,1v0.6h-5v-0.6l2,0
			l-4.2-14.1h-3.1l-2.7,11.1c-0.1,0.2-0.1,0.4-0.2,0.7c0,0.3-0.1,0.5-0.1,0.7c0,0.6,0.2,1,0.7,1.2c0.5,0.2,1.3,0.3,2.4,0.3v0.6H95.3
			z M101.1,160.6l2.7,0l-1.5-4.9L101.1,160.6z"/>
		<path class="hotel2" d="M115,172v0.6c0,1.1,0.1,1.8,0.4,2.1s1,0.5,2.1,0.5v0.6h-5.2v-0.6h1.9v-19c0-0.9-0.1-1.5-0.2-1.7
			c-0.2-0.3-0.8-0.5-1.7-0.5v-0.5h3.1l5.3,12.6l4.8-12.6h3.4v0.5h-1.9v18v1.2c0,0.7,0.1,1.2,0.3,1.5c0.2,0.3,0.7,0.5,1.4,0.5h0.2
			v0.6h-5.5v-0.6h1.9v-19.4l-5,13.2l-5.4-12.6V172z"/>
		<path class="hotel2" d="M129.5,175.9v-0.6h1.2l6.2-23.2l6.4,20.9c0.2,0.7,0.4,1.2,0.4,1.3c0.3,0.7,0.9,1,1.6,1v0.6h-5v-0.6l2,0
			l-4.2-14.1h-3.1l-2.7,11.1c-0.1,0.2-0.1,0.4-0.2,0.7c0,0.3-0.1,0.5-0.1,0.7c0,0.6,0.2,1,0.7,1.2c0.5,0.2,1.3,0.3,2.4,0.3v0.6
			H129.5z M135.3,160.6l2.7,0l-1.5-4.9L135.3,160.6z"/>
		<path class="hotel2" d="M159,172.1v1.2c0,0.7,0.1,1.2,0.4,1.6s0.8,0.5,1.6,0.5v0.6h-5.5v-0.6h2v-14.3h-7.3v11.1v0.4
			c0,1.2,0.1,1.9,0.4,2.3c0.3,0.4,1,0.5,2.1,0.5v0.6h-6.1v-0.6h1.9v-19.3c0-0.7-0.1-1.2-0.4-1.4c-0.2-0.2-0.8-0.4-1.6-0.4v-0.6h5.6
			v0.6h-2v6.2h7.3v-4c0-0.9-0.1-1.5-0.2-1.7c-0.2-0.3-0.8-0.5-1.7-0.5v-0.6h5.5v0.6H159V172.1z"/>
		<path class="hotel2" d="M181.2,173.5c-1,1-2.1,1.7-3.3,2.1c-1.2,0.5-2.5,0.7-3.8,0.7c-2.6,0-4.9-0.8-7-2.4c-2.2-1.7-3.5-3.9-4.1-6.6
			c-0.1-0.4-0.2-0.9-0.2-1.3c-0.1-0.5-0.1-0.9-0.1-1.3c0-3.3,1.1-6,3.4-8.2c2.3-2.1,5.1-3.2,8.3-3.2c1.6,0,3.2,0.3,4.9,0.9V152h0.5
			v8.6h-0.5v-2c0-0.6,0-1.2-0.1-1.6c-0.1-0.5-0.3-0.9-0.5-1.3c-0.4-0.5-1-0.9-1.7-1.2c-0.8-0.3-1.5-0.4-2.3-0.4h-0.4
			c-2.5,0-4.8,0.9-6.8,2.8c-2,1.9-3,4-3,6.5v1c0,3.2,1.1,5.9,3.2,8.2c2.1,2.1,4.4,3.2,7.1,3.2c1.1,0,2.2-0.2,3.3-0.6
			c1-0.4,2-1,2.8-1.9L181.2,173.5z"/>
		<path class="hotel2" d="M185.9,164.5v7.6v0.4c0,1.2,0.1,1.9,0.4,2.3c0.3,0.4,1,0.5,2.1,0.5v0.6h-6.1v-0.6h1.9v-19.4
			c0-0.7-0.1-1.2-0.4-1.4c-0.2-0.2-0.8-0.4-1.6-0.4v-0.5h5.6v0.5h-2v9.3l6.8-9.3h-2.1v-0.5h5.6v0.5h-2.3l-5.5,7.3l6.3,11.6
			c0.5,1,0.8,1.5,0.8,1.5c0.4,0.5,1.1,0.8,2.3,0.8v0.6h-3.4l-7-13L185.9,164.5z"/>
		<path class="hotel2" d="M198.1,175.9v-0.6h1.2l6.2-23.2l6.4,20.9c0.2,0.7,0.4,1.2,0.4,1.3c0.3,0.7,0.9,1,1.6,1v0.6h-5v-0.6l2,0
			l-4.2-14.1h-3.1l-2.7,11.1c-0.1,0.2-0.1,0.4-0.2,0.7c0,0.3-0.1,0.5-0.1,0.7c0,0.6,0.2,1,0.7,1.2c0.5,0.2,1.3,0.3,2.4,0.3v0.6
			H198.1z M203.9,160.6l2.7,0l-1.5-4.9L203.9,160.6z"/>
		<path class="hotel2" d="M232.4,154.9v-1.3h3.6v0.6c-0.7,0-1.3,0.1-1.5,0.4c-0.3,0.3-0.4,0.7-0.4,1.4v0.7v18.6h2v0.5h-6.5v-0.6
			l0.8,0.1c0.4,0,0.7-0.1,1.1-0.2c0.4-0.1,0.6-0.3,0.7-0.6c0.1-0.3,0.2-0.6,0.2-1s0-0.9,0-1.5V170c-1.8,1.2-3.8,2.4-5.9,3.4
			c-2.5,1.3-4.6,2.1-6.3,2.4c-0.1,0-0.4,0.1-0.9,0.1s-0.8,0.1-1.2,0.1c-0.9,0-1.9-0.2-3-0.6l0.1-0.5c0.9,0.3,1.6,0.4,2.2,0.4
			c0.9,0,1.9-0.2,3-0.7c0.3-0.1,1.3-0.6,3-1.5l4.1-2c-0.3,0.1-0.7,0.1-1.1,0.1c-0.4,0-0.7,0.1-0.9,0.1c-2.5,0-4.7-0.9-6.6-2.6
			c-1.8-1.7-2.8-3.9-2.8-6.6v-0.1c0-2.2,0.7-4.1,2-5.8c1.3-1.7,3.1-2.7,5.3-3c0.9-0.1,1.7-0.2,2.4-0.2c1.1,0,2.2,0.1,3.2,0.4
			S231.3,154.3,232.4,154.9z M232.4,156.3c-0.8-0.7-1.7-1.3-2.7-1.7c-1-0.4-2.1-0.6-3.2-0.6c-2.3,0-4.3,0.7-6,2.2
			c-1.8,1.6-2.8,3.6-2.8,6.1c0,2.6,0.8,4.7,2.4,6.4c1.5,1.6,3.4,2.4,5.6,2.4c2.1,0,4.1-0.7,5.9-2.2l0.8,0.8V156.3z"/>
	</g>
</g>
<path class="hotel3" d="M147.3,90.8l1.1-0.9c-9.7-11.8-19.4-11.4-31-9.4c-8.5,1.5-11.8-5.1-9.4-7.9c1.1-1.3,2.8-1.4,3.7-0.4
	c-1.7,0.1-2.4,3-0.8,4c2.1,1.3,4.2-1.1,4.1-3.4c-0.1-1.6-2-5.2-6.8-3.7c-6.9,2.2-5.2,13.7,6.7,14C124.5,83.1,133.2,76.2,147.3,90.8
	L147.3,90.8z"/>
<path class="hotel3" d="M84.4,96.2c0.8-1.4,1.1-3.3,6.6-6.3c1.9-1,3.5-2,4.2-3.4c1.4-2.2,1.4-5.8,0.2-7.2c0.9-0.2,7.7,4.2,1.8,9.2
	C92.7,92.4,88.5,90.6,84.4,96.2L84.4,96.2z"/>
<path class="hotel3" d="M79,106.6c-1.7-0.3-2.4-4.2,0.4-5.3c3.3-1.3,6.7,2.6,7.4,4.8c-1-0.6-4.3-2.7-6.5-2
	C79.4,104.3,78.9,105.1,79,106.6L79,106.6z"/>
<path class="hotel3" d="M87.8,104.8c-5-4.3-3.2-9.1,0.3-10.1c3.7-1.1,6.8,3.4,4,5.9c0-2.2-2-2.3-3.4-1.9
	C87.1,99.2,86.6,101.5,87.8,104.8L87.8,104.8z"/>
<path class="hotel3" d="M88.1,104.9c2.2,1.1,5.7,2.4,10.6-5.3c2.5-3.8,6.2-8.2,10.2-11.1c4.1-3,7.7-3.9,10.8-4.3
	c-17.2,9.4-13.8,16.3-20.6,21.1C95,108.2,90.5,107.9,88.1,104.9L88.1,104.9z"/>
<path class="hotel3" d="M140.2,87.4c-1.1-0.3-4.7-3.2-11.5-0.9c-3.5,1.1-5.4,3.8-5.7,6.4c-0.2,2.5,0.5,4.8,2.1,5.9
	c3,1.9,7.3,1.4,8.1-2.2s-3.2-4.8-4-5.1c1.1-1.6,5-1.4,6.5-0.3s1.4,3.1,1.5,5c0.2,0.7,2.7,0.7,3.1,0.6c0.1,1.6-0.6,3.4-3.2,3.3
	c0,0-0.2,1.5-0.1,2.6c-0.5,0.7-2.4,0.9-3,0.9c-0.1,0.3,0,1.4,0.5,2.6c-1.1,0.7-5.4,0.8-6.9-0.1c-0.3,0.1-0.4,1.1-0.6,2
	c-5.7,0.4-6.7-2-6.6-4.1c-0.3,0.1-6.3,2.8-6-8C115,79.1,138.2,82.2,140.2,87.4L140.2,87.4z"/>
<path class="hotel3" d="M151.2,90.8c14.1-14.5,22.8-7.6,32.4-7.8c11.9-0.2,13.6-11.8,6.7-14c-4.8-1.5-6.7,2.1-6.8,3.7
	c-0.1,2.3,2.1,4.7,4.1,3.4c1.6-1,0.9-3.8-0.8-4c0.8-1,2.6-0.9,3.7,0.4c2.4,2.9-1,9.4-9.4,8c-11.5-2-21.3-2.4-30.9,9.4L151.2,90.8
	L151.2,90.8z"/>
<path class="hotel3" d="M214.1,96.2c-4.1-5.6-8.2-3.7-12.9-7.7c-5.9-5,0.9-9.5,1.8-9.2c-1.2,1.4-1.2,5,0.2,7.2c0.8,1.3,2.4,2.3,4.2,3.4
	C212.9,92.9,213.3,94.7,214.1,96.2L214.1,96.2z"/>
<path class="hotel3" d="M219.5,106.6c0.1-1.5-0.4-2.2-1.3-2.5c-2.2-0.7-5.5,1.4-6.5,2c0.8-2.2,4.1-6.1,7.4-4.8
	C221.9,102.3,221.2,106.2,219.5,106.6L219.5,106.6z"/>
<path class="hotel3" d="M210.7,104.8c1.2-3.3,0.6-5.6-0.9-6.1c-1.4-0.4-3.4-0.3-3.4,1.9c-2.8-2.5,0.3-7,4-5.9
	C213.9,95.7,215.7,100.5,210.7,104.8L210.7,104.8z"/>
<path class="hotel3" d="M210.4,104.9c-2.4,3-7,3.2-11.1,0.4c-6.8-4.7-3.4-11.7-20.5-21.1c3.1,0.4,6.7,1.3,10.8,4.3
	c4.1,2.9,7.8,7.2,10.2,11.1C204.8,107.3,208.3,106,210.4,104.9L210.4,104.9z"/>
<path class="hotel3" d="M158.3,87.4c2-5.1,25.3-8.3,25.8,8.5c0.4,10.8-5.7,8-6,8c0,2.1-1,4.5-6.6,4.1c-0.2-0.9-0.3-2-0.6-2
	c-1.5,0.9-5.8,0.8-6.9,0.1c0.5-1.2,0.6-2.2,0.5-2.6c-0.6-0.1-2.5-0.1-3-0.9c0.2-1-0.1-2.6-0.1-2.6c-2.6,0.1-3.3-1.7-3.2-3.3
	c0.4,0.2,2.8,0.1,3.1-0.6c0.1-1.9-0.1-3.8,1.5-5c1.5-1.1,5.4-1.3,6.5,0.3c-0.8,0.2-4.7,1.5-4,5.1s5.1,4.1,8.1,2.2
	c1.6-1,2.4-3.4,2.1-5.9c-0.2-2.6-2.2-5.2-5.7-6.4C163,84.2,159.4,87,158.3,87.4L158.3,87.4z"/>
<path class="hotel3" d="M149.4,85.7v0.4c0,0-4.2-11-11.8-7c2.5-4,6.8-4.5,9.4-4.3c0.1-0.6-0.4-1.4-1-2c-0.7,0.4-1.7,0.3-2.4-0.4
	c-0.8-0.8-0.8-2.1,0-2.9s2.1-0.8,2.9,0c0.6,0.6,0.7,1.5,0.4,2.2c1,1,2.1,2.6,2.5,3.4c0.2-0.5,1.5-2.5,2.7-3.6
	c-0.3-0.7-0.2-1.6,0.5-2.2c0.8-0.8,2.1-0.7,2.8,0.1c0.7,0.8,0.8,2.1,0,2.9c-0.6,0.6-1.6,0.7-2.4,0.3c-0.6,0.6-1.2,1.4-1.1,2
	c2.6-0.2,6.9,0.4,9.3,4.4C154.2,75.1,149.9,84.7,149.4,85.7L149.4,85.7z"/>
<path class="hotel3" d="M147.4,208.2c-14.1,14.5-22.8,7.6-32.4,7.8c-11.9,0.2-13.6,11.8-6.7,14c4.8,1.5,6.7-2.1,6.8-3.7
	c0.1-2.3-2.1-4.7-4.1-3.4c-1.6,1-0.9,3.8,0.8,4c-0.8,1-2.6,0.9-3.7-0.4c-2.4-2.9,1-9.4,9.4-7.9c11.5,2,21.3,2.4,30.9-9.4
	L147.4,208.2L147.4,208.2z"/>
<path class="hotel3" d="M84.5,202.8c4.1,5.6,8.3,3.7,12.9,7.7c5.9,5-0.9,9.5-1.8,9.2c1.2-1.4,1.2-5-0.2-7.2c-0.8-1.4-2.4-2.4-4.2-3.4
	C85.7,206.1,85.3,204.3,84.5,202.8L84.5,202.8z"/>
<path class="hotel3" d="M79.1,192.4c-0.1,1.5,0.4,2.2,1.3,2.5c2.2,0.7,5.5-1.4,6.5-2c-0.8,2.2-4.2,6.1-7.4,4.8
	C76.7,196.7,77.4,192.8,79.1,192.4L79.1,192.4z"/>
<path class="hotel3" d="M87.9,194.2c-1.2,3.3-0.7,5.6,0.9,6.1c1.4,0.4,3.4,0.3,3.4-1.9c2.8,2.5-0.3,7-4,5.9
	C84.7,203.3,82.9,198.5,87.9,194.2L87.9,194.2z"/>
<path class="hotel3" d="M88.2,194.1c2.4-3,7-3.2,11-0.4c6.8,4.7,3.4,11.7,20.5,21.1c-3.1-0.4-6.7-1.3-10.8-4.3
	c-4-2.9-7.7-7.3-10.2-11.1C93.8,191.7,90.4,193,88.2,194.1L88.2,194.1z"/>
<path class="hotel3" d="M140.3,211.6c-2,5.1-25.2,8.3-25.7-8.5c-0.4-10.8,5.7-8,6-8c0-2.1,1-4.5,6.6-4.1c0.2,0.9,0.3,2,0.6,2
	c1.5-0.9,5.8-0.8,6.9-0.1c-0.5,1.2-0.6,2.2-0.5,2.6c0.6,0,2.5,0.1,3,0.9c-0.1,1,0.1,2.6,0.1,2.6c2.6-0.1,3.3,1.7,3.2,3.3
	c-0.4-0.2-2.9-0.1-3.1,0.6c-0.1,1.9,0.1,3.8-1.5,5c-1.6,1.1-5.4,1.3-6.5-0.3c0.8-0.2,4.7-1.5,4-5.1s-5.1-4.1-8.1-2.2
	c-1.7,1-2.4,3.4-2.1,5.9c0.2,2.6,2.2,5.2,5.7,6.4C135.6,214.8,139.2,212,140.3,211.6L140.3,211.6z"/>
<path class="hotel3" d="M151.3,208.2l-1.1,0.8c9.7,11.8,19.4,11.4,30.9,9.4c8.5-1.5,11.8,5.1,9.4,8c-1.1,1.3-2.8,1.4-3.7,0.4
	c1.7-0.1,2.4-3,0.8-4c-2.1-1.3-4.2,1.1-4.1,3.4c0.1,1.6,2,5.2,6.8,3.7c6.9-2.2,5.2-13.7-6.7-14C174.1,215.9,165.5,222.8,151.3,208.2
	L151.3,208.2z"/>
<path class="hotel3" d="M214.2,202.8c-0.8,1.4-1.1,3.3-6.6,6.3c-1.9,1.1-3.4,2.1-4.2,3.4c-1.4,2.2-1.4,5.8-0.2,7.2
	c-0.9,0.2-7.7-4.2-1.8-9.2C205.9,206.5,210.1,208.4,214.2,202.8L214.2,202.8z"/>
<path class="hotel3" d="M219.6,192.4c1.7,0.4,2.5,4.2-0.3,5.3c-3.3,1.3-6.7-2.6-7.4-4.8c1,0.6,4.3,2.7,6.5,2
	C219.2,194.6,219.7,193.9,219.6,192.4L219.6,192.4z"/>
<path class="hotel3" d="M210.8,194.2c5,4.3,3.1,9.1-0.3,10.2c-3.7,1.1-6.8-3.4-4-5.9c0,2.2,2.1,2.3,3.4,1.9
	C211.5,199.8,212,197.5,210.8,194.2L210.8,194.2z"/>
<path class="hotel3" d="M210.5,194.1c-2.2-1.1-5.7-2.4-10.6,5.3c-2.4,3.9-6.1,8.2-10.2,11.1c-4.1,3-7.7,3.9-10.8,4.3
	c17.1-9.4,13.7-16.3,20.5-21.1C203.6,190.8,208.2,191.1,210.5,194.1L210.5,194.1z"/>
<path class="hotel3" d="M158.4,211.6c1,0.3,4.7,3.2,11.5,0.9c3.5-1.1,5.4-3.8,5.7-6.4c0.2-2.5-0.5-4.8-2.1-5.9c-3-1.9-7.3-1.4-8.1,2.2
	c-0.7,3.6,3.2,4.8,4,5.1c-1.1,1.6-5,1.5-6.5,0.3c-1.5-1.1-1.4-3.1-1.5-5c-0.2-0.7-2.7-0.7-3.1-0.6c-0.1-1.6,0.6-3.4,3.2-3.3
	c0,0,0.2-1.5,0.1-2.6c0.5-0.7,2.4-0.8,3-0.9c0.1-0.3,0-1.4-0.5-2.6c1.1-0.7,5.4-0.8,6.9,0.1c0.3-0.1,0.4-1.1,0.6-2
	c5.7-0.4,6.7,2,6.6,4.1c0.3-0.1,6.3-2.8,6,8C183.7,219.9,160.4,216.8,158.4,211.6L158.4,211.6z"/>
<path class="hotel3" d="M149.5,213.3c0.4,1,4.7,10.6,11.8,6.7c-2.4,4-6.7,4.6-9.3,4.4c-0.1,0.6,0.5,1.4,1.1,2c0.8-0.4,1.7-0.3,2.4,0.3
	c0.8,0.8,0.8,2.1,0,2.9c-0.8,0.8-2.1,0.9-2.8,0.1c-0.6-0.6-0.8-1.5-0.5-2.2c-1.2-1.1-2.5-3.1-2.7-3.6c-0.4,0.8-1.5,2.4-2.5,3.4
	c0.3,0.7,0.2,1.6-0.4,2.2c-0.8,0.8-2.1,0.8-2.9,0c-0.8-0.8-0.8-2.1,0-2.9c0.6-0.6,1.6-0.7,2.4-0.4c0.6-0.6,1.2-1.4,1-2
	c-2.6,0.2-6.9-0.3-9.4-4.3c7.6,4,11.8-7,11.8-7L149.5,213.3L149.5,213.3z"/>
</svg>
