<?xml version="1.0" encoding="utf-8"?>
<!-- Generator: Adobe Illustrator 21.0.2, SVG Export Plug-In . SVG Version: 6.00 Build 0)  -->
<svg version="1.1" id="Слой_4" xmlns="http://www.w3.org/2000/svg" xmlns:xlink="http://www.w3.org/1999/xlink" x="0px" y="0px"
	 viewBox="0 0 253.4 137" style="enable-background:new 0 0 253.4 137;" xml:space="preserve">
<style type="text/css">
	.st0{fill:#FFFFFF;}
	.st1{fill:none;stroke:#E9DFD1;stroke-width:3;stroke-miterlimit:10;}
	.st2{fill:#E9DFD1;}
	.st3{fill:#671700;}
</style>
<path class="st0" d="M253.3,52.6c-20.6,49.6-69.5,84.4-126.5,84.4c-57,0-105.9-34.9-126.5-84.4"/>
<path class="st1" d="M246.9,52c-0.1,0.2-0.2,0.4-0.2,0.5c-20.2,46.1-66.3,78.3-119.8,78.3S27.2,98.7,7,52.6
	c-0.1-0.2-0.2-0.4-0.3-0.6"/>
<rect x="8.6" class="st0" width="236.4" height="52.6"/>
<path class="st2" d="M165.2,42.5c5.9,5.7,12.5,11.7,16.5,13.7c2.5,1.3,4.6,1.4,5.9,0.5c1.2-0.8,2.5-2.2,3.9-3
	c2.9-1.7,4.2-1.1,5.2-0.8c-1,0.5-2.4,0.5-3.7,2.4c-2.4,3.4-5.7,7-10.3,4.8c-4-1.9-10.2-7.9-19.9-17.6"/>
<path class="st2" d="M199.7,79.8c-0.3,0.2-0.7,0.3-1,0.3c0,0.2-0.1,0.4-0.2,0.6c-0.5,0.8-1.4,1.2-2,0.9c-0.6-0.4-0.7-1.3-0.3-2.2
	c0.3-0.6,0.9-1,1.4-1c0.2-0.3,0.5-0.7,0.8-0.9c0.8-0.5,1.8-0.4,2.2,0.2C201,78.5,200.6,79.4,199.7,79.8L199.7,79.8z"/>
<path class="st2" d="M185.2,62.9c9.3,4.1,13.8-1.8,16.2-5.7c1.7-2.8,4.9-1.8,5.6-0.4c0.5,1,0.1,2.3-1,2.7c-0.2-0.2-0.1-1-0.8-1.1
	c-1.8-0.1-1.4,1.5-0.7,2c0.8,0.5,1.9,0.5,2.7-0.3c4.3-3.9-2.9-10.7-9.4-6.1c-2.5,1.7-3.1,4.9-5.7,6.8
	C190.7,61.9,188.6,62.5,185.2,62.9L185.2,62.9z"/>
<path class="st2" d="M168.1,42.3c2.2,4.1,7.2,7.6,11.9,7.6c1.8,0,3.5-0.1,4.3,0.7c0.5,0.5,0.6,2.2-0.8,2.4c1.1,2.1,6.3,0.2,4.2-4.5
	c-0.4-0.8-1.2-1.3-1.9-1.6c-1.9-1-4.6-0.2-9.1-1.2C174.4,45.3,171.4,44.4,168.1,42.3L168.1,42.3z"/>
<path class="st2" d="M186.8,68.2l-0.2-0.2c0,0,3.7,8.4-2.6,10.3c3.6,0.8,6.2-1.2,7.5-2.8c0.4,0.2,0.5,1,0.5,1.7
	c-0.6,0.2-1.1,0.8-1.1,1.5c0,0.9,0.7,1.6,1.6,1.6c0.9,0,1.6-0.7,1.6-1.6c0-0.7-0.4-1.2-1-1.5c0-1.1-0.3-2.6-0.5-3.2
	c0.4,0.2,2.2,0.6,3.5,0.5c0.2,0.6,0.8,1,1.5,1c0.9,0,1.6-0.7,1.5-1.6c0-0.9-0.7-1.6-1.6-1.6c-0.7,0-1.3,0.5-1.5,1.1
	c-0.7,0-1.4-0.1-1.7-0.5c1.5-1.3,3.6-4,2.7-7.5C195.3,71.5,187.6,68.5,186.8,68.2L186.8,68.2z"/>
<path class="st2" d="M158.7,42.5c11.1,10.6,17.7,17.3,20,21.5c2.3,4.5-1.3,7.9-4.6,10.3c-1.9,1.4-1.9,2.8-2.4,3.7
	c-0.3-1-0.9-2.3,0.7-5.2c0.8-1.4,2.2-2.7,3-4s0.7-3.4-0.6-5.9c-2.7-4.9-11.5-13.8-18.4-20.4"/>
<path class="st2" d="M181.3,66.5c4.3,9.3-1.6,13.8-5.5,16.3c-2.7,1.8-1.8,5-0.3,5.6c1,0.4,2.3,0.1,2.7-1c-0.2-0.2-1-0.1-1.1-0.8
	c-0.1-1.8,1.5-1.4,2-0.7c0.5,0.8,0.5,1.9-0.2,2.7c-3.8,4.3-10.7-2.7-6.3-9.3c1.7-2.5,4.9-3.1,6.7-5.8
	C180.4,72,180.9,69.9,181.3,66.5L181.3,66.5z"/>
<path class="st2" d="M160.5,49.7c2.2,3.2,3.1,6.3,3.6,8.6c1,4.5,0.3,7.3,1.3,9.1c0.3,0.6,0.8,1.5,1.6,1.8c4.7,2,6.6-3.3,4.4-4.3
	c-0.2,1.5-1.8,1.4-2.4,0.9c-0.9-0.8-0.8-2.5-0.8-4.3C168.2,56.8,164.6,51.9,160.5,49.7L160.5,49.7z"/>
<path class="st2" d="M152.8,42.5c6.5,8,5.9,16.2,4.3,25.6c-1.5,8.4,5,11.7,7.9,9.3c1.3-1,1.4-2.8,0.4-3.6c-0.1,1.7-2.9,2.3-3.9,0.8
	c-1.3-2,1.1-4.2,3.4-4.1c1.6,0.1,5.1,2,3.7,6.7c-2.2,6.9-13.6,5.2-13.8-6.6c-0.3-8.6,5.2-16.4-4.2-28.1"/>
<path class="st2" d="M141.5,100.7c1.4-0.8,3.3-1.1,6.3-6.5c1-1.9,2-3.4,3.3-4.2c2.2-1.3,5.7-1.4,7.1-0.2c0.2-0.9-4.2-7.6-9.1-1.8
	C145.2,92.6,147,96.7,141.5,100.7L141.5,100.7z"/>
<path class="st2" d="M131.2,106.1c0.3,1.7,4.2,2.4,5.2-0.3c1.3-3.2-2.6-6.6-4.8-7.3c0.6,1,2.6,4.3,2,6.4
	C133.4,105.7,132.7,106.2,131.2,106.1L131.2,106.1z"/>
<path class="st2" d="M133,97.4c3.3,1.2,5.6,0.6,6-0.9c0.4-1.3,0.3-3.3-1.9-3.4c2.5-2.8,6.9,0.3,5.9,4
	C142,100.5,137.3,102.3,133,97.4L133,97.4z"/>
<path class="st2" d="M132.8,97.1c-1-2.2-2.4-5.6,5.3-10.5c3.8-2.4,8.1-6.1,11-10.1s3.8-7.6,4.2-10.7c-9.3,16.9-16.2,13.6-20.8,20.3
	C129.6,90.2,129.9,94.8,132.8,97.1L132.8,97.1z"/>
<path class="st2" d="M150.2,45.6c0.3,1,3.1,4.7,0.9,11.4c-1.1,3.4-3.8,5.4-6.3,5.6c-2.4,0.2-4.8-0.5-5.8-2.1c-1.9-3-1.4-7.3,2.1-8
	s4.8,3.1,5,4c1.6-1,1.4-4.9,0.3-6.4c-1.1-1.5-3.1-1.4-4.9-1.4c-0.7-0.2-0.7-2.7-0.6-3c-1.6-0.1-3.4,0.6-3.3,3.2c0,0-1.5,0.2-2.5,0.1
	c-0.7,0.5-0.8,2.3-0.9,3c-0.3,0.1-1.3,0-2.5-0.5c-0.6,1.1-0.8,5.4,0.1,6.9c-0.1,0.3-1.1,0.4-2,0.6c-0.4,5.6,2,6.6,4.1,6.6
	c-0.1,0.3-2.7,6.3,7.9,5.9C158.4,70.6,155.3,47.6,150.2,45.6L150.2,45.6z"/>
<path class="st2" d="M97,42.5c-6.8,6.8-15.8,16.1-18.4,21.2c-1.3,2.5-1.4,4.6-0.5,5.9c0.8,1.2,2.2,2.5,3,3.9
	c1.7,2.9,1.1,4.2,0.8,5.2c-0.5-1-0.5-2.4-2.4-3.7c-3.4-2.4-7-5.7-4.8-10.3c2.1-4.3,8.8-11.2,20-22.2"/>
<path class="st2" d="M54.9,81.7c-0.2-0.3-0.3-0.7-0.3-1c-0.2,0-0.4-0.1-0.6-0.2c-0.8-0.5-1.3-1.4-0.9-2s1.3-0.7,2.2-0.3
	c0.6,0.3,1,0.9,1,1.4c0.3,0.2,0.7,0.5,0.9,0.8c0.5,0.8,0.4,1.8-0.2,2.2C56.3,83,55.4,82.6,54.9,81.7L54.9,81.7z"/>
<path class="st2" d="M71.9,67.2c-4.1,9.3,1.8,13.8,5.7,16.3c2.8,1.7,1.8,4.9,0.4,5.6c-0.9,0.5-2.3,0.1-2.7-1c0.2-0.2,1-0.1,1.1-0.8
	c0.1-1.8-1.5-1.4-2-0.7c-0.5,0.8-0.5,1.9,0.3,2.7c3.8,4.3,10.7-2.9,6.1-9.4c-1.8-2.5-4.9-3.1-6.8-5.7C72.9,72.7,72.3,70.6,71.9,67.2
	L71.9,67.2z"/>
<path class="st2" d="M92.5,50.1c-4.1,2.2-7.6,7.2-7.6,11.9c0,1.8,0.1,3.5-0.7,4.3c-0.6,0.5-2.2,0.6-2.4-0.8
	c-2.1,1.1-0.2,6.3,4.5,4.2c0.8-0.4,1.3-1.2,1.6-1.9c1-1.9,0.2-4.6,1.2-9.1C89.5,56.4,90.4,53.4,92.5,50.1L92.5,50.1z"/>
<path class="st2" d="M102.7,42.5c-9.7,12-3.9,19.8-4,28.4C98.6,82.7,87.2,84.6,85,77.7c-1.6-4.7,2-6.7,3.6-6.8c2.3-0.1,4.7,2,3.4,4
	c-1,1.6-3.8,1-3.9-0.7c-0.9,0.8-0.8,2.6,0.5,3.6c2.9,2.3,9.3-1.1,7.7-9.4c-1.8-9.5-2.5-17.8,4.1-25.9"/>
<path class="st2" d="M112.2,100.8c-5.6-4-3.8-8.1-7.7-12.6c-5-5.8-9.4,1.1-9.1,1.9c1.3-1.2,4.9-1.2,7.1,0.1c1.3,0.8,2.3,2.3,3.4,4.2
	C108.9,99.7,110.8,100.1,112.2,100.8L112.2,100.8z"/>
<path class="st2" d="M122.6,106.1c-0.3,1.7-4.1,2.5-5.3-0.3c-1.3-3.2,2.5-6.6,4.7-7.4c-0.6,1-2.6,4.3-1.9,6.5
	C120.4,105.7,121.1,106.2,122.6,106.1L122.6,106.1z"/>
<path class="st2" d="M120.7,97.4c-4.2,5-9,3.3-10-0.1c-1.1-3.7,3.3-6.8,5.8-4c-2.2,0.1-2.3,2.1-1.8,3.4
	C115.1,98.1,117.4,98.6,120.7,97.4L120.7,97.4z"/>
<path class="st2" d="M120.8,97.1c2.9-2.4,3.1-7,0.2-11c-4.8-6.6-11.6-3.2-21.1-20c0.4,3,1.4,6.6,4.4,10.6s7.3,7.6,11.1,9.9
	C123.1,91.5,121.8,94.9,120.8,97.1L120.8,97.1z"/>
<path class="st2" d="M102.7,45.8c-5,2-7.8,25.1,8.8,25.4c10.6,0.2,7.9-5.7,7.8-6c2.1,0,4.4-1,4-6.6c-0.9-0.2-1.9-0.3-2-0.5
	c0.9-1.5,0.7-5.7,0-6.9c-1.2,0.5-2.2,0.6-2.5,0.5c-0.1-0.6-0.2-2.5-0.9-2.9c-1,0.2-2.5,0-2.5,0c0.1-2.6-1.8-3.2-3.3-3.1
	c0.2,0.4,0.2,2.8-0.5,3.1c-1.8,0.1-3.8,0-4.9,1.5s-1.2,5.4,0.4,6.4c0.2-0.8,1.4-4.7,5-4c3.5,0.7,4.1,5,2.3,7.9
	c-1,1.6-3.4,2.4-5.8,2.2c-2.6-0.2-5.2-2.1-6.4-5.5C99.6,50.5,102.4,46.9,102.7,45.8L102.7,45.8z"/>
<path class="st2" d="M66.6,68.8l0.2-0.2c0,0-8.4,3.7-10.3-2.6c-0.8,3.6,1.2,6.2,2.8,7.5c-0.2,0.4-1,0.5-1.7,0.5
	c-0.2-0.6-0.8-1.1-1.5-1.1c-0.9,0-1.6,0.7-1.6,1.6c0,0.9,0.7,1.6,1.6,1.6c0.7,0,1.2-0.4,1.5-1c1.1,0,2.6-0.3,3.2-0.5
	c-0.2,0.4-0.6,2.2-0.5,3.5c-0.6,0.2-1,0.8-1,1.5c0,0.9,0.7,1.6,1.6,1.5c0.9,0,1.6-0.7,1.6-1.6c0-0.7-0.5-1.3-1.1-1.5
	c0-0.7,0.1-1.4,0.5-1.7c1.3,1.5,4,3.6,7.6,2.7C63.3,77.3,66.3,69.6,66.6,68.8L66.6,68.8z"/>
<path class="st2" d="M90.5,42.5c-9.6,9.9-15.7,16-19.7,18.1c-4.5,2.3-7.9-1.3-10.3-4.6c-1.4-1.9-2.8-1.9-3.7-2.4
	c1-0.3,2.3-0.9,5.2,0.7c1.4,0.8,2.7,2.2,4,3s3.4,0.7,5.9-0.6c3.9-2.2,10.5-8.3,16.3-14.2"/>
<path class="st2" d="M68.3,63.3C59,67.6,54.5,61.7,52,57.8c-1.8-2.7-5-1.8-5.6-0.3c-0.4,1-0.1,2.3,1,2.7c0.2-0.2,0.1-1,0.8-1.1
	c1.8-0.1,1.5,1.5,0.7,2c-0.8,0.5-1.9,0.5-2.7-0.2c-4.3-3.8,2.8-10.7,9.3-6.3c2.5,1.7,3.1,4.9,5.8,6.7C62.8,62.4,64.9,62.9,68.3,63.3
	L68.3,63.3z"/>
<path class="st2" d="M85.1,42.5c-3.2,2.2-6.3,3.1-8.6,3.6c-4.5,1-7.3,0.3-9.1,1.3c-0.6,0.3-1.5,0.8-1.8,1.7c-2,4.7,3.3,6.6,4.3,4.4
	c-1.5-0.2-1.4-1.8-0.9-2.4c0.8-0.9,2.5-0.8,4.3-0.8C78,50.2,82.9,46.6,85.1,42.5L85.1,42.5z"/>
<g>
	<path class="st3" d="M37.2,3.1c0.3,0.1,0.6,0.3,0.8,0.6c0.2,0.2,0.4,0.5,0.5,0.8c0.1,0.3,0.2,0.7,0.2,1c0,0.4-0.1,0.7-0.2,1
		c-0.1,0.3-0.3,0.6-0.5,0.8c-0.2,0.2-0.5,0.4-0.8,0.5c-0.3,0.1-0.7,0.2-1,0.2c-0.4,0-0.7-0.1-1-0.2c-0.3-0.1-0.6-0.3-0.8-0.5
		c-0.2-0.2-0.4-0.5-0.5-0.8c-0.1-0.3-0.2-0.6-0.2-1c0-0.6,0.1-1.2,0.2-1.8c0.2-0.6,0.4-1.1,0.7-1.5c0.3-0.4,0.7-0.8,1.2-1.1
		c0.5-0.3,1-0.4,1.7-0.4c1.5,0,2.6,0.4,3.3,1.3c0,0,0.1,0.1,0.1,0.2c0.1,0.1,0.2,0.3,0.3,0.4c0.1,0.2,0.2,0.3,0.3,0.4
		s0.2,0.2,0.2,0.2h0.1V0.7h4.2v38.4h-4.2v-20l-4.2,3.4v16.6h-4.2V23.8l7.8-6.2v-1c0,0-0.2,0.1-0.4,0.2c-0.2,0.1-0.5,0.3-0.8,0.5
		s-0.7,0.3-1.1,0.5c-0.4,0.1-0.8,0.2-1.2,0.2c-0.6,0-1.1-0.1-1.7-0.4c-0.5-0.3-1-0.6-1.3-1.1c-0.4-0.4-0.7-1-0.9-1.5
		s-0.3-1.2-0.3-1.7c0-0.7,0.1-1.2,0.2-1.7c0.1-0.4,0.4-0.8,0.6-1.1s0.6-0.5,1-0.7c0.4-0.2,0.9-0.4,1.4-0.6c0.4-0.2,0.8-0.4,1.3-0.6
		c0.5-0.2,1-0.5,1.5-0.8c0.5-0.3,0.9-0.6,1.2-0.9s0.5-0.6,0.5-0.8V4.1c0-0.3-0.1-0.5-0.3-0.8c-0.2-0.3-0.4-0.6-0.7-0.8
		s-0.6-0.5-1-0.7c-0.3-0.2-0.7-0.3-0.9-0.3c-0.3,0-0.6,0-0.9,0c-0.3,0-0.6,0.1-0.9,0.1C36.3,1.8,36,1.9,35.8,2
		c-0.2,0.1-0.3,0.3-0.3,0.6c0,0,0,0.1,0.1,0.1s0.1,0.1,0.2,0.1s0.2,0.1,0.2,0.1c0.1,0,0.1,0,0.1,0C36.6,2.9,36.9,3,37.2,3.1z
		 M41.2,7.4c-0.4,0.4-0.8,0.8-1.2,1.1c-0.4,0.4-0.8,0.8-1.2,1.2C38.4,10,38.1,10.5,38,11c-0.2,0.5-0.3,1.1-0.3,1.6
		c0,0.4,0,0.8,0.1,1.2c0.1,0.4,0.2,0.8,0.4,1.1c0.2,0.3,0.4,0.6,0.6,0.8c0.2,0.2,0.5,0.3,0.9,0.3c1.5,0,2.2-0.6,2.2-1.8v-7H41.2z"/>
	<path class="st3" d="M60.3,6.8V1.5h-1.9v37.5H54V1.5h-2.1v9.9h-4.2V0.7h17v6.2H60.3z"/>
	<path class="st3" d="M69.8,3.1c0.3,0.1,0.6,0.3,0.8,0.6c0.2,0.2,0.4,0.5,0.5,0.8c0.1,0.3,0.2,0.7,0.2,1c0,0.4-0.1,0.7-0.2,1
		c-0.1,0.3-0.3,0.6-0.5,0.8c-0.2,0.2-0.5,0.4-0.8,0.5c-0.3,0.1-0.7,0.2-1,0.2c-0.4,0-0.7-0.1-1-0.2c-0.3-0.1-0.6-0.3-0.8-0.5
		c-0.2-0.2-0.4-0.5-0.5-0.8c-0.1-0.3-0.2-0.6-0.2-1c0-0.6,0.1-1.2,0.2-1.8c0.2-0.6,0.4-1.1,0.7-1.5c0.3-0.4,0.7-0.8,1.2-1.1
		c0.5-0.3,1-0.4,1.7-0.4c1.5,0,2.6,0.4,3.3,1.3c0,0,0.1,0.1,0.1,0.2c0.1,0.1,0.2,0.3,0.3,0.4C74,2.9,74.1,3,74.2,3.1
		s0.2,0.2,0.2,0.2h0.1V0.7h4.2v38.4h-4.2v-20l-4.2,3.4v16.6h-4.2V23.8l7.8-6.2v-1c0,0-0.2,0.1-0.4,0.2c-0.2,0.1-0.5,0.3-0.8,0.5
		s-0.7,0.3-1.1,0.5c-0.4,0.1-0.8,0.2-1.2,0.2c-0.6,0-1.1-0.1-1.7-0.4c-0.5-0.3-1-0.6-1.3-1.1c-0.4-0.4-0.7-1-0.9-1.5
		s-0.3-1.2-0.3-1.7c0-0.7,0.1-1.2,0.2-1.7c0.1-0.4,0.4-0.8,0.6-1.1s0.6-0.5,1-0.7c0.4-0.2,0.9-0.4,1.4-0.6c0.4-0.2,0.8-0.4,1.3-0.6
		c0.5-0.2,1-0.5,1.5-0.8c0.5-0.3,0.9-0.6,1.2-0.9s0.5-0.6,0.5-0.8V4.1c0-0.3-0.1-0.5-0.3-0.8c-0.2-0.3-0.4-0.6-0.7-0.8
		s-0.6-0.5-1-0.7c-0.3-0.2-0.7-0.3-0.9-0.3c-0.3,0-0.6,0-0.9,0c-0.3,0-0.6,0.1-0.9,0.1c-0.3,0.1-0.5,0.2-0.7,0.3
		c-0.2,0.1-0.3,0.3-0.3,0.6c0,0,0,0.1,0.1,0.1s0.1,0.1,0.2,0.1s0.2,0.1,0.2,0.1c0.1,0,0.1,0,0.1,0C69.2,2.9,69.5,3,69.8,3.1z
		 M73.8,7.4c-0.4,0.4-0.8,0.8-1.2,1.1c-0.4,0.4-0.8,0.8-1.2,1.2C71,10,70.7,10.5,70.6,11c-0.2,0.5-0.3,1.1-0.3,1.6
		c0,0.4,0,0.8,0.1,1.2c0.1,0.4,0.2,0.8,0.4,1.1c0.2,0.3,0.4,0.6,0.6,0.8c0.2,0.2,0.5,0.3,0.9,0.3c1.5,0,2.2-0.6,2.2-1.8v-7H73.8z"/>
	<path class="st3" d="M84.5,3.1c0.3,0.1,0.6,0.3,0.8,0.6s0.4,0.5,0.5,0.8c0.1,0.3,0.2,0.7,0.2,1c0,0.4-0.1,0.7-0.2,1
		c-0.1,0.3-0.3,0.6-0.5,0.8c-0.2,0.2-0.5,0.4-0.8,0.5c-0.3,0.1-0.7,0.2-1,0.2c-0.4,0-0.7-0.1-1-0.2c-0.3-0.1-0.6-0.3-0.8-0.5
		c-0.2-0.2-0.4-0.5-0.5-0.8c-0.1-0.3-0.2-0.6-0.2-1c0-0.6,0.1-1.2,0.2-1.8c0.2-0.6,0.4-1.1,0.7-1.5c0.3-0.5,0.7-0.8,1.2-1.1
		c0.5-0.3,1-0.4,1.7-0.4c0.6,0,1.1,0,1.5,0.1c0.4,0.1,0.8,0.2,1.1,0.4s0.6,0.5,0.8,0.8c0.2,0.3,0.5,0.8,0.7,1.3V0.7h4.4v22.7
		l2.9-7.4c0.1-0.2,0.1-0.3,0.1-0.5c0-0.1,0-0.3,0-0.4c0-0.3-0.1-0.6-0.2-1L95,12.6l0.8-2.9l1.8,2v-11h4.5v38.4h-4.5V16l-2.5,6.4
		c-0.4,1-0.5,1.8-0.5,2.5c0,0.2,0,0.4,0,0.5c0,0.1,0.1,0.3,0.1,0.4l1.1,1.4l-0.7,3.1l-1.7-1.9v10.7H89V19.3l-4,3.2v16.6h-4.2V23.8
		l7.8-6.2v-1c0,0-0.2,0.1-0.4,0.2c-0.2,0.1-0.5,0.3-0.8,0.5c-0.3,0.2-0.7,0.3-1.1,0.5C85.8,17.9,85.4,18,85,18
		c-0.6,0-1.1-0.1-1.7-0.4c-0.5-0.3-1-0.6-1.3-1.1c-0.4-0.4-0.7-1-0.9-1.5c-0.2-0.6-0.3-1.2-0.3-1.7c0-0.7,0.1-1.2,0.2-1.7
		c0.1-0.4,0.4-0.8,0.6-1.1c0.3-0.3,0.6-0.5,1-0.7c0.4-0.2,0.9-0.4,1.4-0.6c0.4-0.2,0.8-0.4,1.3-0.6c0.5-0.2,1-0.5,1.5-0.8
		c0.5-0.3,0.9-0.6,1.2-0.9c0.3-0.3,0.5-0.6,0.5-0.9V4.1c0-0.3-0.1-0.5-0.3-0.8c-0.2-0.3-0.5-0.6-0.8-0.8c-0.3-0.3-0.6-0.5-1-0.7
		c-0.3-0.2-0.7-0.3-0.9-0.3c-0.3,0-0.5,0-0.9,0s-0.6,0.1-0.9,0.1S83.4,1.8,83.2,2c-0.2,0.1-0.3,0.3-0.3,0.6c0,0,0,0.1,0.1,0.1
		c0.1,0,0.1,0.1,0.2,0.1c0.1,0,0.1,0.1,0.2,0.1c0.1,0,0.1,0,0.1,0C83.9,2.9,84.2,3,84.5,3.1z M88.5,7.4c-0.4,0.4-0.8,0.8-1.2,1.1
		c-0.4,0.4-0.8,0.8-1.2,1.2c-0.4,0.4-0.6,0.8-0.8,1.4c-0.2,0.5-0.3,1.1-0.3,1.6c0,0.4,0,0.8,0.1,1.2c0.1,0.4,0.2,0.8,0.4,1.1
		c0.2,0.3,0.4,0.6,0.6,0.8c0.2,0.2,0.5,0.3,0.9,0.3c1,0,1.6-0.3,2-0.9V7.4L88.5,7.4z"/>
	<path class="st3" d="M107.7,3.1c0.3,0.1,0.6,0.3,0.8,0.6c0.2,0.2,0.4,0.5,0.5,0.8c0.1,0.3,0.2,0.7,0.2,1c0,0.4-0.1,0.7-0.2,1
		c-0.1,0.3-0.3,0.6-0.5,0.8c-0.2,0.2-0.5,0.4-0.8,0.5c-0.3,0.1-0.7,0.2-1,0.2c-0.4,0-0.7-0.1-1-0.2c-0.3-0.1-0.6-0.3-0.8-0.5
		c-0.2-0.2-0.4-0.5-0.5-0.8c-0.1-0.3-0.2-0.6-0.2-1c0-0.6,0.1-1.2,0.2-1.8c0.2-0.6,0.4-1.1,0.7-1.5c0.3-0.4,0.7-0.8,1.2-1.1
		c0.5-0.3,1-0.4,1.7-0.4c1.5,0,2.6,0.4,3.3,1.3c0,0,0.1,0.1,0.1,0.2c0.1,0.1,0.2,0.3,0.3,0.4c0.1,0.2,0.2,0.3,0.3,0.4
		s0.2,0.2,0.2,0.2h0.1V0.7h4.2v38.4h-4.2v-20l-4.2,3.4v16.6H104V23.8l7.8-6.2v-1c0,0-0.2,0.1-0.4,0.2c-0.2,0.1-0.5,0.3-0.8,0.5
		s-0.7,0.3-1.1,0.5c-0.4,0.1-0.8,0.2-1.2,0.2c-0.6,0-1.1-0.1-1.7-0.4c-0.5-0.3-1-0.6-1.3-1.1c-0.4-0.4-0.7-1-0.9-1.5
		s-0.3-1.2-0.3-1.7c0-0.7,0.1-1.2,0.2-1.7c0.1-0.4,0.4-0.8,0.6-1.1s0.6-0.5,1-0.7c0.4-0.2,0.9-0.4,1.4-0.6c0.4-0.2,0.8-0.4,1.3-0.6
		c0.5-0.2,1-0.5,1.5-0.8c0.5-0.3,0.9-0.6,1.2-0.9s0.5-0.6,0.5-0.8V4.1c0-0.3-0.1-0.5-0.3-0.8c-0.2-0.3-0.4-0.6-0.7-0.8
		s-0.6-0.5-1-0.7c-0.3-0.2-0.7-0.3-0.9-0.3c-0.3,0-0.6,0-0.9,0c-0.3,0-0.6,0.1-0.9,0.1c-0.3,0.1-0.5,0.2-0.7,0.3
		c-0.2,0.1-0.3,0.3-0.3,0.6c0,0,0,0.1,0.1,0.1s0.1,0.1,0.2,0.1s0.2,0.1,0.2,0.1c0.1,0,0.1,0,0.1,0C107.1,2.9,107.4,3,107.7,3.1z
		 M111.7,7.4c-0.4,0.4-0.8,0.8-1.2,1.1c-0.4,0.4-0.8,0.8-1.2,1.2c-0.4,0.4-0.6,0.8-0.8,1.4c-0.2,0.5-0.3,1.1-0.3,1.6
		c0,0.4,0,0.8,0.1,1.2c0.1,0.4,0.2,0.8,0.4,1.1c0.2,0.3,0.4,0.6,0.6,0.8c0.2,0.2,0.5,0.3,0.9,0.3c1.5,0,2.2-0.6,2.2-1.8v-7H111.7z"
		/>
	<path class="st3" d="M127.3,23.4V0.7h4.4v38.4h-4.4V28.4l-1.7,1.9l-0.7-3.1l1.1-1.4c0.1-0.1,0.1-0.2,0.1-0.4s0-0.3,0-0.5
		c0-0.7-0.2-1.5-0.5-2.5l-2.5-6.4v23h-4.5V0.7h4.5v11l1.8-2l0.8,2.9l-1.3,1.6c-0.2,0.2-0.2,0.5-0.2,1c0,0.1,0,0.3,0,0.4
		s0.1,0.3,0.1,0.5L127.3,23.4z"/>
	<path class="st3" d="M133.9,39.1V0.7h4.3V16h0.3c0.8-1.3,2-2.4,3.9-3.4v-12h4.5v12c-0.3,0-0.8,0.1-1.3,0.2s-1,0.4-1.6,0.6
		s-1.1,0.6-1.6,0.9s-1,0.7-1.4,1.1s-0.8,0.8-1,1.2s-0.4,0.8-0.4,1.2c0,0.5,0.1,0.9,0.4,1.3s0.6,0.8,1,1.1s0.9,0.7,1.4,0.9
		s1.1,0.5,1.6,0.7s1.1,0.3,1.6,0.4s0.9,0.2,1.3,0.2v16.5h-4.5V22.6c-1.6-0.5-2.9-1.5-3.9-3h-0.3v19.5H133.9z"/>
	<path class="st3" d="M161.7,5c-0.3,0-0.6,0.3-1,0.8s-0.6,1.3-0.9,2.2c-0.3,0.9-0.6,1.9-0.8,3s-0.5,2.2-0.7,3.4s-0.4,2.2-0.6,3.2
		s-0.3,1.9-0.4,2.6c-0.3,1.8-0.5,3.6-0.6,5.3c1.8,0,3.1,0.9,4,2.6c0.7,1.4,1.1,3,1.1,5c0,0.9-0.2,1.8-0.5,2.5s-0.8,1.4-1.5,1.9
		s-1.3,0.9-2.2,1.2s-1.7,0.4-2.6,0.4s-1.8-0.2-2.6-0.5s-1.5-0.7-2.1-1.3s-1-1.2-1.4-1.9s-0.5-1.6-0.5-2.5c0-2.3,0.7-4.1,2.2-5.6
		c0.7-0.7,1.4-1.2,2.1-1.5s1.6-0.5,2.4-0.5l1.4-7.9h-3.4l-4.5-16.9h4.1l3.6,13.7h0.5c0.1-0.6,0.1-1.1,0.2-1.6s0.1-1,0.2-1.6
		s0.2-1.1,0.2-1.7s0.2-1.1,0.2-1.6c0.1-0.5,0.1-0.9,0.2-1.1c0.1-0.7,0.3-1.4,0.5-2.1s0.5-1.4,0.8-2s0.7-1.1,1.1-1.5s0.9-0.6,1.4-0.6
		V5z M151.2,32.4c0.2,0.6,0.6,1.1,1.1,1.5c0.8,0.6,1.8,1,3.2,1c0.7,0,1.4-0.1,1.9-0.3s1.1-0.5,1.5-0.9s0.7-0.9,0.9-1.4
		c0.2-0.6,0.3-1.2,0.3-1.9c0-0.5-0.1-0.9-0.3-1.4s-0.5-0.9-0.8-1.3s-0.7-0.7-1.1-0.9s-0.9-0.4-1.3-0.4c0,0.3-0.1,0.6-0.2,1
		s-0.2,0.8-0.3,1.3s-0.2,0.9-0.4,1.4s-0.3,0.9-0.4,1.3s-0.3,0.8-0.4,1.1s-0.3,0.5-0.5,0.7l-1.3-2.8l1.6-1l0.6-2.9
		c-0.5,0-1.1,0.1-1.6,0.3s-1,0.4-1.4,0.8s-0.8,0.7-1,1.2s-0.4,1-0.4,1.6C150.8,31.2,150.9,31.8,151.2,32.4z"/>
	<path class="st3" d="M173.3,19.1c0.3,0.1,0.6,0.3,0.8,0.6s0.4,0.5,0.6,0.8s0.2,0.7,0.2,1c0,0.4-0.1,0.7-0.2,1s-0.3,0.6-0.5,0.8
		s-0.5,0.4-0.8,0.5s-0.7,0.2-1,0.2c-0.5,0-0.8-0.1-1.2-0.2s-0.7-0.3-1-0.5s-0.7-0.5-1.1-0.9s-0.8-0.8-1.4-1.3v18h-4V0.7h13v13.5
		c-1.1,0.5-2.1,0.9-3.1,1.2s-1.8,0.7-2.5,1s-1.3,0.7-1.7,1c-0.4,0.4-0.6,0.8-0.6,1.3c0,0.7,0.1,1.3,0.3,1.9s0.5,1,0.9,1.3
		c0-0.4,0.1-0.8,0.2-1.1s0.3-0.7,0.5-1s0.5-0.5,0.8-0.7s0.7-0.2,1-0.2C172.7,18.8,173,18.9,173.3,19.1z M172.3,1.5h-4.6v14.9
		l4.6-2.1V1.5z"/>
	<path class="st3" d="M186.9,4.4c0-0.3-0.1-0.6-0.2-0.9s-0.3-0.5-0.5-0.7s-0.5-0.3-0.7-0.5s-0.6-0.2-0.9-0.2c-0.3,0-0.5,0.1-0.8,0.2
		s-0.5,0.3-0.6,0.6s-0.3,0.5-0.4,0.8s-0.2,0.6-0.2,0.9v10.1h4.4c1.8,0,3,0.9,3.6,2.7c0.4,1.1,0.6,2.7,0.6,4.9h-4.2V18
		c0-0.2-0.1-0.4-0.2-0.6s-0.3-0.4-0.6-0.6s-0.5-0.3-0.7-0.5s-0.5-0.2-0.7-0.2c-0.2,0-0.5,0.1-0.8,0.2s-0.5,0.2-0.7,0.4
		s-0.4,0.4-0.5,0.6s-0.2,0.5-0.2,0.7v15.8c0,2.5,0.3,3.7,0.9,3.7c0.4,0,0.8-0.2,1.2-0.5s0.6-0.8,0.9-1.4s0.5-1.3,0.6-2.1
		s0.3-1.6,0.4-2.4s0.2-1.7,0.2-2.5s0.1-1.6,0.1-2.3h4.2c0,3.9-0.9,7.1-2.7,9.4c-1.7,2.2-3.9,3.4-6.6,3.4c-0.5,0-1,0-1.4-0.1
		s-0.9-0.2-1.3-0.4s-0.7-0.4-1-0.7s-0.4-0.6-0.4-1c0-0.9,0.1-1.5,0.3-1.9c0.3-0.5,0.8-0.8,1.7-0.8c0.1,0,0.3,0.1,0.4,0.4
		s0.3,0.5,0.4,0.8s0.3,0.5,0.4,0.8s0.3,0.4,0.5,0.4c-0.2-0.9-0.4-2-0.7-3.1s-0.5-2.3-0.7-3.5s-0.4-2.4-0.6-3.7s-0.4-2.4-0.5-3.6
		s-0.3-2.2-0.4-3.2s-0.1-1.9-0.1-2.6c0-4.3,0.5-7.9,1.4-10.8c1.1-3.5,2.7-5.3,4.8-5.3c1.4,0,2.5,0.2,3.4,0.7s1.5,1.1,2,1.8
		s0.8,1.7,0.9,2.8s0.2,2.3,0.2,3.6v3.9h-4.2V4.4z"/>
	<path class="st3" d="M201.6,23.4V0.7h4.4v38.4h-4.4V28.4l-1.7,1.9l-0.7-3.1l1.1-1.4c0.1-0.1,0.1-0.2,0.1-0.4s0-0.3,0-0.5
		c0-0.7-0.2-1.5-0.5-2.5l-2.5-6.4v23H193V0.7h4.5v11l1.8-2l0.8,2.9l-1.3,1.6c-0.2,0.2-0.2,0.5-0.2,1c0,0.1,0,0.3,0,0.4
		s0.1,0.3,0.1,0.5L201.6,23.4z"/>
	<path class="st3" d="M215.9,20.6c-0.3-0.2-0.6-0.4-0.8-0.7s-0.4-0.5-0.5-0.8s-0.2-0.5-0.2-0.8c-0.2,0.3-0.4,0.6-0.6,0.9
		s-0.3,0.5-0.4,0.9s-0.2,0.6-0.2,0.9c0,0.5,0.2,1,0.7,1.3s1,0.7,1.8,1.1s1.6,0.7,2.5,1s2,0.7,3,1.1v13.5h-13V0.7h4v18
		c0.5-0.5,1-0.9,1.4-1.3s0.7-0.7,1.1-0.9s0.7-0.4,1-0.5c0.3-0.1,0.7-0.2,1.2-0.2c0.4,0,0.7,0.1,1,0.2c0.3,0.1,0.6,0.3,0.8,0.5
		s0.4,0.5,0.5,0.8s0.2,0.7,0.2,1s-0.1,0.7-0.2,1s-0.3,0.6-0.5,0.8s-0.5,0.4-0.8,0.6s-0.6,0.2-1,0.2S216.2,20.8,215.9,20.6z
		 M216.7,38.2V25.4l-4.6-2.1v14.9H216.7z"/>
</g>
</svg>
