<?xml version="1.0" encoding="utf-8"?>
<!-- Generator: Adobe Illustrator 21.0.2, SVG Export Plug-In . SVG Version: 6.00 Build 0)  -->
<svg version="1.1" id="Organization" xmlns="http://www.w3.org/2000/svg" xmlns:xlink="http://www.w3.org/1999/xlink" x="0px"
	 y="0px" viewBox="0 0 335.8 62" style="enable-background:new 0 0 335.8 62;" xml:space="preserve">
<style type="text/css">
	.organization0{fill:#671700;}
	.organization1{fill:#C9A468;}
</style>
<path class="organization0" d="M67.3,39.7l1.1-0.8c-9.3-11.4-18.7-11-29.9-9.1c-8.2,1.4-11.4-4.9-9.1-7.7c1-1.2,2.7-1.3,3.5-0.4
	c-1.7,0.1-2.3,2.9-0.8,3.8c2,1.3,4.1-1.1,4-3.3c-0.1-1.6-1.9-5-6.5-3.6c-6.7,2.1-5,13.3,6.5,13.5C45.3,32.3,53.7,25.7,67.3,39.7
	L67.3,39.7z"/>
<path class="organization0" d="M6.7,44.9c0.8-1.4,1.1-3.2,6.4-6.1c1.8-1,3.3-2,4.1-3.3c1.3-2.1,1.3-5.6,0.2-6.9c0.9-0.2,7.5,4.1,1.8,8.9
	C14.7,41.3,10.7,39.5,6.7,44.9L6.7,44.9z"/>
<path class="organization0" d="M1.5,54.9c-1.7-0.3-2.3-4.1,0.3-5.1C5,48.6,8.2,52.3,9,54.4c-1-0.6-4.2-2.6-6.3-1.9C1.9,52.8,1.4,53.5,1.5,54.9
	L1.5,54.9z"/>
<path class="organization0" d="M10,53.2c-4.8-4.2-3.1-8.8,0.3-9.8c3.6-1,6.6,3.3,3.8,5.7c0-2.1-2-2.2-3.3-1.8C9.3,47.8,8.9,50,10,53.2L10,53.2
	z"/>
<path class="organization0" d="M10.2,53.3c2.1,1,5.5,2.3,10.2-5.2c2.4-3.7,5.9-7.9,9.8-10.7c3.9-2.9,7.5-3.7,10.4-4.1
	c-16.4,9.1-13.2,15.8-19.7,20.4C17,56.5,12.5,56.2,10.2,53.3L10.2,53.3z"/>
<path class="organization0" d="M60.5,36.4c-1-0.3-4.5-3.1-11.1-0.9c-3.4,1.1-5.2,3.7-5.5,6.1c-0.2,2.4,0.5,4.7,2.1,5.7
	c2.9,1.9,7.1,1.3,7.8-2.1c0.7-3.4-3.1-4.7-3.8-4.9c1-1.6,4.8-1.4,6.3-0.3c1.5,1.1,1.3,3,1.4,4.8c0.2,0.7,2.6,0.7,3,0.5
	c0.1,1.5-0.6,3.3-3.1,3.2c0,0-0.2,1.5-0.1,2.5c-0.5,0.7-2.3,0.8-2.9,0.9c-0.1,0.3,0,1.3,0.4,2.5c-1.1,0.7-5.3,0.8-6.7-0.1
	c-0.3,0.1-0.3,1.1-0.5,2c-5.4,0.3-6.4-2-6.3-4c-0.3,0.1-6.1,2.7-5.8-7.7C36.2,28.4,58.6,31.5,60.5,36.4L60.5,36.4z"/>
<path class="organization0" d="M268.5,39.7c13.6-14,22-7.4,31.2-7.5c11.5-0.2,13.2-11.4,6.5-13.5c-4.6-1.4-6.5,2-6.5,3.6c-0.1,2.2,2,4.6,4,3.3
	c1.5-0.9,0.9-3.7-0.8-3.8c0.8-0.9,2.5-0.8,3.5,0.4c2.3,2.8-0.9,9.1-9.1,7.7c-11.1-2-20.5-2.3-29.9,9.1L268.5,39.7L268.5,39.7z"/>
<path class="organization0" d="M329.1,44.9c-4-5.4-8-3.6-12.4-7.4c-5.7-4.8,0.9-9.1,1.8-8.9c-1.2,1.3-1.1,4.8,0.2,6.9c0.8,1.3,2.3,2.3,4.1,3.3
	C328,41.7,328.3,43.5,329.1,44.9L329.1,44.9z"/>
<path class="organization0" d="M334.3,54.9c0.1-1.4-0.4-2.2-1.3-2.4c-2.1-0.7-5.3,1.3-6.3,1.9c0.8-2.1,4-5.9,7.2-4.6
	C336.6,50.8,336,54.6,334.3,54.9L334.3,54.9z"/>
<path class="organization0" d="M325.8,53.2c1.1-3.2,0.7-5.4-0.8-5.8c-1.3-0.4-3.3-0.3-3.3,1.8c-2.7-2.4,0.3-6.8,3.8-5.7
	C328.9,44.4,330.6,49.1,325.8,53.2L325.8,53.2z"/>
<path class="organization0" d="M325.6,53.3c-2.3,2.9-6.7,3.1-10.7,0.3c-6.5-4.6-3.3-11.3-19.8-20.3c3,0.4,6.5,1.3,10.4,4.1s7.5,7,9.8,10.7
	C320.1,55.7,323.4,54.4,325.6,53.3L325.6,53.3z"/>
<path class="organization0" d="M275.3,36.4c1.9-4.9,24.3-8,24.8,8.2c0.3,10.4-5.5,7.8-5.8,7.7c0,2.1-0.9,4.3-6.4,4c-0.2-0.9-0.3-1.9-0.5-2
	c-1.4,0.9-5.6,0.8-6.7,0.1c0.5-1.2,0.5-2.2,0.4-2.5c-0.6,0-2.4-0.1-2.9-0.9c0.1-1-0.1-2.5-0.1-2.5c-2.5,0.1-3.2-1.7-3.1-3.2
	c0.4,0.2,2.8,0.1,3-0.5c0.1-1.8-0.1-3.7,1.4-4.8s5.3-1.3,6.3,0.3c-0.8,0.2-4.6,1.4-3.8,4.9c0.8,3.5,4.9,4,7.8,2.1
	c1.6-1,2.3-3.3,2.1-5.7c-0.2-2.5-2.1-5.1-5.5-6.1C279.8,33.4,276.3,36.1,275.3,36.4L275.3,36.4z"/>
<g>
	<path class="organization1" d="M90.9,50.9V52c0,0.7,0.1,1.2,0.4,1.6s0.8,0.5,1.6,0.5v0.6h-5.5v-0.6h2V35.2c0-0.9-0.1-1.5-0.2-1.7
		c-0.2-0.3-0.8-0.5-1.7-0.5H82v17.9v0.4c0,1.2,0.1,1.9,0.4,2.3c0.3,0.4,1,0.5,2.1,0.5v0.6h-6.1v-0.6h1.9V34.7c0-0.7-0.1-1.2-0.4-1.4
		c-0.2-0.2-0.8-0.4-1.6-0.4v-0.6h14.4V33h-1.9V50.9z"/>
	<path class="organization1" d="M94.3,54.7v-0.5h1.9V34.8c0-0.7-0.1-1.1-0.4-1.4c-0.2-0.3-0.8-0.4-1.6-0.4v-0.6h3.6v1.3c1.1-0.5,2.2-1,3.2-1.3
		c1.1-0.3,2.1-0.5,3.1-0.5c0.2,0,0.4,0,0.7,0s0.5,0,0.7,0.1c2.2,0.3,4.1,1.2,5.6,2.8c1.6,1.5,2.4,3.3,2.4,5.4V41
		c0,2.1-0.6,4-1.8,5.7c-1.2,1.6-2.8,2.8-4.9,3.4c-0.5,0.1-1,0.3-1.7,0.4c-0.7,0.1-1.3,0.2-1.7,0.2c-0.9,0-1.9-0.1-2.8-0.4
		c-0.9-0.3-1.8-0.7-2.7-1.2l0,1.9c0,1.1,0.1,2,0.4,2.5c0.1,0.2,0.4,0.4,0.7,0.5c0.3,0.1,0.7,0.2,1.1,0.2h0.9v0.5H94.3z M111.9,41.1
		c0-2.4-0.8-4.4-2.4-6c-1.6-1.6-3.5-2.4-5.8-2.4c-1,0-2.1,0.2-3,0.6c-1,0.4-1.9,1-2.8,1.8v12.1c0.7,0.9,1.6,1.5,2.6,2
		c1.1,0.5,2.1,0.7,3.2,0.7c2.2,0,4-0.7,5.6-2.2C111.1,46.1,111.9,43.9,111.9,41.1z"/>
	<path class="organization1" d="M114.3,54.7v-0.6h1.2l6.2-23.2l6.4,20.9c0.2,0.7,0.4,1.2,0.4,1.3c0.3,0.7,0.9,1,1.6,1v0.6h-5v-0.6l2,0
		L122.9,40h-3.1l-2.7,11.1c-0.1,0.2-0.1,0.4-0.2,0.7c0,0.3-0.1,0.5-0.1,0.7c0,0.6,0.2,1,0.7,1.2c0.5,0.2,1.3,0.3,2.4,0.3v0.6H114.3z
		 M120.1,39.4l2.7,0l-1.5-4.9L120.1,39.4z"/>
	<path class="organization1" d="M140.4,55.1h-1c-1.5,0-2.9-0.3-4.1-0.8c-1.3-0.6-2.3-1.4-3-2.6c-0.6-1-1-2.1-1-3.3c0-1.4,0.4-2.7,1.3-3.8
		s2.1-1.8,3.5-2.1l1.5-0.2c1.4,0,2.5,0.4,3.3,1.2c0.7,0.7,1.1,1.5,1.1,2.5c0,0.6-0.2,1.2-0.6,1.6c-0.4,0.4-0.9,0.6-1.6,0.6
		c-0.1,0-0.3,0-0.5-0.1c-0.3-0.1-0.5-0.1-0.7-0.2v-0.3h0.2c0.6,0,1.1-0.1,1.4-0.4s0.5-0.7,0.5-1.2c0-0.7-0.3-1.4-1-2.1
		c-0.6-0.6-1.5-1-2.5-1l-1.3,0.1c-1.1,0.3-2,0.9-2.6,1.7c-0.6,0.9-1,1.8-1,2.9c0,0.8,0.2,1.6,0.6,2.4c0.6,1.2,1.5,2.1,2.8,2.8
		c1.3,0.7,2.7,1,4.2,1c0.3,0,0.6,0,1.1-0.1c0.4-0.1,0.8-0.1,1.1-0.2c1.5-0.4,2.8-1.3,3.7-2.7c0.9-1.4,1.4-2.9,1.4-4.5
		c0-1.1-0.2-2.1-0.6-3c-0.4-0.9-1-1.7-1.8-2.4c-0.7-0.5-1.6-0.9-2.6-1.1c-1-0.2-2.1-0.3-3.2-0.3h-1.5v-0.7l1.3,0.1
		c0.6,0,1.1-0.1,1.7-0.2c0.6-0.1,1.1-0.3,1.6-0.5c0.5-0.2,0.8-0.6,1.1-1.1c0.2-0.5,0.3-1,0.3-1.6c0-0.5-0.1-1-0.2-1.4
		c-0.2-0.6-0.6-1.1-1.2-1.5c-0.6-0.4-1.3-0.5-2-0.5c-1.5,0-2.6,0.6-3.4,1.8c-0.3,0.4-0.5,0.8-0.6,1.3c-0.1,0.5-0.2,1.1-0.2,1.6v2
		h-0.4v-8.6h0.4v2.2c0.5-0.3,1.2-0.5,1.9-0.8c0.8-0.2,1.5-0.3,2.3-0.3c0.9,0,1.7,0.1,2.4,0.3c0.7,0.2,1.3,0.6,1.8,1.2
		c0.2,0.3,0.4,0.6,0.5,0.9c0.1,0.3,0.2,0.8,0.2,1.2c0,0.9-0.3,1.7-1,2.4c-0.7,0.7-1.5,1.3-2.4,1.5c2,0.2,3.6,1.1,5,2.6
		c1.4,1.5,2.1,3.2,2.1,5.1c0,0.6-0.1,1.1-0.2,1.6c-0.1,0.5-0.3,1.1-0.6,1.7c-0.7,1.4-1.7,2.5-3.1,3.3
		C143.5,54.7,142,55.1,140.4,55.1z"/>
	<path class="organization1" d="M160.7,54.7h-6.5c-0.7,0-1.3,0.1-1.8,0.2s-0.9,0.3-1.1,0.7c-0.2,0.3-0.4,0.8-0.5,1.5c-0.1,0.7-0.2,1.3-0.2,2
		v2.5h-0.4v-8.9h0.4v1.5h0.7l6.2-23.2l6.4,20.9c0.2,0.7,0.5,1.3,0.8,1.7c0.3,0.4,0.6,0.6,0.9,0.6v-1.5h0.5v8.9h-0.5v-3.5
		c0-1.4-0.3-2.3-0.8-2.7C164.2,54.9,162.8,54.7,160.7,54.7z M153,51.1c-0.1,0.3-0.1,0.6-0.2,0.9c-0.1,0.3-0.1,0.5-0.1,0.6
		c0,0.6,0.2,1,0.7,1.2s1.3,0.3,2.4,0.3h7.1l-4.3-14.6l-1.5-4.9l-1.2,4.9L153,51.1z"/>
	<path class="organization1" d="M180.2,50.9V52c0,0.7,0.1,1.2,0.4,1.6s0.8,0.5,1.6,0.5v0.6h-5.5v-0.6h2V39.7h-7.3v11.1v0.4
		c0,1.2,0.1,1.9,0.4,2.3c0.3,0.4,1,0.5,2.1,0.5v0.6h-6.1v-0.6h1.9V34.7c0-0.7-0.1-1.2-0.4-1.4s-0.8-0.4-1.6-0.4v-0.6h5.6V33h-2v6.2
		h7.3v-4c0-0.9-0.1-1.5-0.2-1.7c-0.2-0.3-0.8-0.5-1.7-0.5v-0.6h5.5V33h-1.9V50.9z"/>
	<path class="organization1" d="M195.8,50.9V52c0,0.7,0.1,1.2,0.4,1.6s0.8,0.5,1.6,0.5v0.6h-5.5v-0.6h2V34.2l-7.3,20.5h-3.6v-0.6h1.9V34.7
		c0-0.7-0.1-1.2-0.4-1.4s-0.8-0.4-1.6-0.4v-0.6h5.6V33h-2v19.9l7.3-20.5h3.5V33h-1.9V50.9z"/>
	<path class="organization1" d="M202.5,43.3v7.6v0.4c0,1.2,0.1,1.9,0.4,2.3c0.3,0.4,1,0.5,2.1,0.5v0.6h-6.1v-0.6h1.9V34.7
		c0-0.7-0.1-1.2-0.4-1.4s-0.8-0.4-1.6-0.4v-0.5h5.6v0.5h-2v9.3l6.8-9.3h-2.1v-0.5h5.6v0.5h-2.3l-5.5,7.3l6.3,11.6
		c0.5,1,0.8,1.5,0.8,1.5c0.4,0.5,1.1,0.8,2.3,0.8v0.6h-3.4l-7-13L202.5,43.3z"/>
	<path class="organization1" d="M239.1,48.1c-1,2.1-2.5,3.8-4.7,5.1c-2.2,1.3-4.5,1.9-6.9,1.9c-1.6,0-3.1-0.3-4.5-0.8
		c-2.2-0.9-3.9-2.3-5.1-4.2c-1.2-2-1.9-4.1-1.9-6.4c0-1.6,0.3-3.1,0.9-4.6c0.9-2.2,2.4-3.9,4.5-5.2c2.1-1.3,4.4-2,6.8-2
		c1.8,0,3.5,0.4,5.1,1.1c2.1,0.9,3.7,2.3,4.9,4.2c1.2,1.9,1.8,3.9,1.8,6.1c0,0.8-0.1,1.6-0.2,2.4C239.7,46.5,239.4,47.3,239.1,48.1z
		 M238.4,43.3c0-2.9-1-5.4-3.1-7.5c-2.1-2.1-4.6-3.2-7.5-3.2c-3,0-5.4,1.1-7.3,3.2c-1.9,2.1-2.9,4.7-2.9,7.7v0.4
		c0,3.3,1.1,5.9,3.2,7.8c2,1.8,4.3,2.6,7.1,2.6s5.1-0.9,7.1-2.8c2.2-2,3.3-4.7,3.3-8V43.3z"/>
	<path class="organization1" d="M241.5,54.7v-0.6h1.9V34.8c0-0.7-0.1-1.1-0.4-1.4c-0.2-0.3-0.8-0.4-1.6-0.4v-0.6h3.6v1.3
		c1.2-1.2,2.7-1.8,4.5-1.8c0.7,0,1.4,0.1,2,0.4c0.6,0.2,1.1,0.6,1.6,1.2c0.5,0.7,0.8,1.4,0.8,2.2c0,0.9-0.3,1.7-1,2.4
		c-0.7,0.7-1.5,1.3-2.4,1.5c1.2,0.2,2.3,0.4,3.3,0.9s1.8,1.1,2.5,1.9c0.5,0.7,0.9,1.5,1.2,2.3c0.3,0.8,0.4,1.7,0.4,2.7
		c0,1.2-0.2,2.3-0.7,3.3c-0.7,1.5-1.7,2.6-3.2,3.4c-1.3,0.7-2.8,1-4.5,1c-1.6,0-3.1-0.3-4.6-0.8v0.6H241.5z M253.8,41.3
		c-0.7-0.5-1.6-0.9-2.7-1.1c-1.1-0.2-2.2-0.3-3.4-0.3h-2.6v8.5l-0.1,1.8c0,1,0.1,1.9,0.4,2.6c0.3,0.7,0.8,1.1,1.7,1.3
		c0.4,0.1,0.8,0.2,1.1,0.3c0.3,0.1,0.6,0.1,1,0.1c1.2,0,2.4-0.3,3.5-0.9c1.1-0.6,1.9-1.4,2.5-2.5c0.7-1.3,1-2.7,1-4.1
		c0-1.2-0.2-2.2-0.6-3.2C255.2,42.8,254.6,42,253.8,41.3z M252.1,34.6c-0.2-0.6-0.6-1.1-1.2-1.5s-1.2-0.5-1.9-0.5
		c-0.8,0-1.6,0.3-2.4,0.8c-0.7,0.5-1.2,1.2-1.5,2.1v3.7c0.3,0,0.8,0,1.5,0.1c0.7,0.1,1.1,0.1,1.2,0.1c0.5,0,1.1-0.1,1.7-0.2
		s1.1-0.3,1.5-0.5c0.5-0.2,0.8-0.6,1-1c0.2-0.5,0.3-1,0.3-1.5C252.3,35.6,252.2,35.1,252.1,34.6z"/>
</g>
<g>
	<path class="organization0" d="M95.7,7.5c0-1,0.1-2,0.4-2.9s0.7-1.7,1.2-2.3s1.2-1.1,2-1.5c0.9-0.4,1.8-0.6,2.8-0.6s1.9,0.2,2.7,0.5
		c0.8,0.4,1.4,0.9,2,1.5c0.5,0.6,1,1.4,1.2,2.3c0.3,0.9,0.4,1.8,0.4,2.9s-0.1,2-0.4,2.9s-0.7,1.7-1.2,2.3s-1.2,1.1-2,1.5
		s-1.7,0.5-2.7,0.5s-1.9-0.2-2.7-0.5c-0.8-0.4-1.5-0.9-2-1.5s-1-1.4-1.2-2.3C95.9,9.5,95.7,8.5,95.7,7.5z M97.9,7.5
		c0,0.9,0.1,1.7,0.3,2.4c0.2,0.8,0.4,1.4,0.8,2s0.8,1,1.4,1.3c0.5,0.3,1.2,0.5,1.9,0.5c0.7,0,1.3-0.2,1.8-0.5s0.9-0.8,1.3-1.3
		c0.3-0.6,0.6-1.2,0.7-2c0.2-0.8,0.3-1.6,0.3-2.4s-0.1-1.7-0.3-2.4c-0.2-0.8-0.4-1.4-0.8-2s-0.8-1-1.4-1.3c-0.5-0.3-1.2-0.5-1.9-0.5
		c-0.7,0-1.4,0.2-1.9,0.5s-0.9,0.8-1.3,1.3c-0.3,0.6-0.6,1.2-0.7,2C98,5.8,97.9,6.6,97.9,7.5z"/>
	<path class="organization0" d="M113.6,13.4c0.4,0,0.7,0.1,1,0.2c0.3,0.1,0.6,0.2,0.9,0.3v0.6h-5.4v-0.6c0.3-0.1,0.5-0.2,0.8-0.3
		s0.6-0.1,0.8-0.2V1.5c-0.3-0.1-0.6-0.1-0.9-0.2s-0.5-0.1-0.7-0.3V0.5h1.8c0.5,0,1.1,0,1.7-0.1s1.2-0.1,1.8-0.1
		c0.7,0,1.3,0.1,1.9,0.2s1.2,0.4,1.7,0.7s0.9,0.8,1.2,1.3c0.3,0.6,0.5,1.2,0.5,2.1c0,0.8-0.2,1.5-0.5,2c-0.3,0.6-0.7,1-1.2,1.4
		c-0.5,0.4-1.1,0.6-1.8,0.8c-0.7,0.2-1.3,0.3-2,0.3c-0.1,0-0.2,0-0.3,0c-0.1,0-0.3,0-0.5,0s-0.3,0-0.5,0c-0.1,0-0.3,0-0.3,0
		S113.6,13.4,113.6,13.4z M115,1.3c-0.3,0-0.6,0-0.8,0c-0.2,0-0.4,0-0.6,0.1v6.5c0.1,0,0.2,0,0.3,0c0.1,0,0.3,0,0.4,0s0.3,0,0.4,0
		s0.2,0,0.3,0c0.5,0,0.9-0.1,1.3-0.2s0.8-0.3,1.1-0.6c0.3-0.3,0.6-0.6,0.8-1.1c0.2-0.4,0.3-0.9,0.3-1.5c0-1.1-0.3-1.9-0.9-2.5
		C116.9,1.6,116.1,1.3,115,1.3z"/>
	<path class="organization0" d="M125.5,13.4c0.7,0.1,1.3,0.3,1.9,0.5v0.6h-5.5v-0.6c0.5-0.2,1.1-0.4,1.6-0.5V1.5c-0.3-0.1-0.5-0.1-0.8-0.2
		s-0.6-0.2-0.8-0.3V0.5h9.4c0,0.3,0,0.6,0,0.9s0,0.7,0,1.1s0,0.7-0.1,1.1c0,0.4-0.1,0.7-0.1,1h-0.5l-1-3h-4L125.5,13.4L125.5,13.4z"
		/>
	<path class="organization0" d="M134.5,14.5h-4.4v-0.6c0.5-0.2,1-0.4,1.4-0.5l5.1-13.2h0.6l5.1,13.2c0.3,0.1,0.5,0.1,0.8,0.2
		c0.3,0.1,0.5,0.2,0.7,0.3v0.6h-5.2v-0.6c0.3-0.1,0.5-0.2,0.8-0.3s0.6-0.1,0.8-0.2l-1.4-3.7h-4.7l-1.3,3.7c0.6,0.1,1.1,0.2,1.7,0.5
		C134.5,13.9,134.5,14.5,134.5,14.5z M134.5,8.7h4l-1.6-4.2l-0.4-1.7l0,0L136,4.6L134.5,8.7z"/>
	<path class="organization0" d="M149.4,14.5h-5.1v-0.6c0.5-0.2,1.1-0.4,1.6-0.5V1.5c-0.6-0.1-1.2-0.3-1.6-0.5V0.5h5.1v0.6
		c-0.2,0.1-0.5,0.2-0.7,0.3s-0.5,0.1-0.8,0.2v5.2h6.3V1.5c-0.3-0.1-0.5-0.1-0.8-0.2s-0.5-0.2-0.7-0.3V0.5h5.1v0.6
		c-0.2,0.1-0.5,0.2-0.8,0.3s-0.6,0.1-0.9,0.2v11.9c0.3,0.1,0.6,0.1,0.9,0.2c0.3,0.1,0.5,0.2,0.8,0.3v0.6h-5.1V14
		c0.5-0.2,1-0.4,1.5-0.5V7.8h-6.3v5.6c0.3,0.1,0.5,0.1,0.8,0.2s0.5,0.2,0.7,0.3V14.5z"/>
	<path class="organization0" d="M163.9,14.5h-5.1v-0.6c0.5-0.2,1.1-0.4,1.6-0.5V1.5c-0.3-0.1-0.5-0.1-0.8-0.2c-0.2-0.1-0.5-0.1-0.7-0.3V0.5
		h5.1v0.6c-0.2,0.1-0.4,0.2-0.7,0.3c-0.2,0.1-0.5,0.2-0.8,0.2v8.6l-0.2,1.5l1-1.6l5.9-8.1V1.5c-0.3-0.1-0.6-0.1-0.9-0.2
		c-0.3-0.1-0.5-0.2-0.8-0.3V0.5h5.1v0.6c-0.2,0.1-0.5,0.2-0.8,0.3s-0.6,0.2-0.9,0.2v11.9c0.6,0.1,1.2,0.3,1.6,0.5v0.6h-5.1V14
		c0.2-0.1,0.4-0.2,0.7-0.3s0.5-0.2,0.8-0.2V4.7l0.2-1.5l-0.9,1.5l-5.9,8.2v0.4c0.3,0.1,0.6,0.1,0.9,0.2c0.3,0.1,0.5,0.2,0.8,0.3v0.7
		H163.9z"/>
	<path class="organization0" d="M177.9,14.7c-0.7,0-1.5-0.1-2.1-0.2c-0.7-0.1-1.2-0.3-1.7-0.6c0-0.2,0-0.5,0-0.7c0-0.3,0.1-0.6,0.1-0.9
		c0-0.3,0.1-0.6,0.2-0.9c0.1-0.3,0.1-0.6,0.2-0.8h0.5l0.8,2.8c0.1,0,0.2,0.1,0.3,0.1s0.3,0.1,0.5,0.1s0.4,0,0.6,0.1
		c0.2,0,0.4,0,0.5,0c0.5,0,0.9-0.1,1.4-0.2c0.4-0.2,0.8-0.4,1-0.7c0.3-0.3,0.5-0.6,0.7-1s0.2-0.8,0.2-1.2c0-0.5-0.1-1-0.3-1.3
		c-0.2-0.4-0.4-0.7-0.7-0.9s-0.6-0.4-1-0.5s-0.8-0.1-1.2-0.1L176.4,8c-0.1-0.4-0.1-0.8,0-1.2h0.6c0.2,0,0.5,0,0.8,0s0.6,0,0.8-0.1
		c0.6-0.2,1.1-0.6,1.4-1c0.3-0.5,0.5-1,0.5-1.7c0-0.9-0.2-1.6-0.7-2c-0.5-0.5-1.2-0.7-2.1-0.7c-0.4,0-0.8,0-1,0.1s-0.4,0.2-0.5,0.3
		l-1.1,2.4h-0.5c-0.1-0.4-0.1-0.8-0.2-1.4c0-0.6-0.1-1.1-0.1-1.7c0.2-0.2,0.4-0.3,0.7-0.4s0.6-0.2,0.9-0.3c0.3-0.1,0.6-0.1,1-0.1
		c0.3,0,0.6,0,0.9,0c0.5,0,1.1,0,1.6,0.1s1,0.3,1.5,0.5c0.4,0.3,0.8,0.6,1.1,1.1c0.3,0.4,0.4,1,0.4,1.7s-0.2,1.3-0.6,1.9
		c-0.4,0.6-1,1.1-1.9,1.4V7c0.4,0.1,0.8,0.2,1.1,0.3c0.4,0.2,0.7,0.4,0.9,0.7c0.3,0.3,0.5,0.6,0.6,1c0.2,0.4,0.2,0.9,0.2,1.4
		c0,0.7-0.1,1.3-0.4,1.9c-0.3,0.5-0.7,1-1.2,1.3s-1,0.6-1.7,0.8C179.2,14.6,178.6,14.7,177.9,14.7z"/>
	<path class="organization0" d="M188.6,14.5h-4.4v-0.6c0.5-0.2,1-0.4,1.4-0.5l5.1-13.2h0.6l5.1,13.2c0.3,0.1,0.5,0.1,0.8,0.2
		c0.3,0.1,0.5,0.2,0.7,0.3v0.6h-5.2v-0.6c0.3-0.1,0.5-0.2,0.8-0.3s0.6-0.1,0.8-0.2l-1.4-3.7h-4.8l-1.3,3.7c0.6,0.1,1.1,0.2,1.7,0.5
		L188.6,14.5L188.6,14.5z M188.6,8.7h4L191,4.5l-0.4-1.7l0,0l-0.5,1.7L188.6,8.7z"/>
	<path class="organization0" d="M198.4,14.5v-0.6c0.4-0.2,0.9-0.3,1.6-0.5V1.5c-0.5-0.1-1.1-0.2-1.6-0.5V0.5h5.1v0.6c-0.4,0.2-0.9,0.3-1.5,0.5
		v11.9h6v-12c-0.2-0.1-0.5-0.1-0.7-0.2s-0.5-0.2-0.8-0.3V0.5h5.1v0.6c-0.5,0.2-1.1,0.4-1.6,0.5v11.9h2.3c0,0.3,0,0.6,0,0.9
		c0,0.4-0.1,0.7-0.1,1.1s-0.1,0.7-0.1,1.1s-0.1,0.7-0.2,0.9h-0.5l-0.9-3C210.5,14.5,198.4,14.5,198.4,14.5z"/>
	<path class="organization0" d="M218.1,14.5H213v-0.6c0.5-0.2,1.1-0.4,1.6-0.5V1.5c-0.3-0.1-0.5-0.1-0.8-0.2S213.2,1.1,213,1V0.5h5.1v0.6
		c-0.2,0.1-0.4,0.2-0.7,0.3s-0.5,0.2-0.8,0.2v8.6l-0.2,1.5l1-1.6l5.9-8.1V1.5c-0.3-0.1-0.6-0.1-0.9-0.2c-0.3-0.1-0.5-0.2-0.8-0.3
		V0.5h5.1v0.6c-0.2,0.1-0.5,0.2-0.8,0.3s-0.6,0.2-0.9,0.2v11.9c0.6,0.1,1.2,0.3,1.6,0.5v0.6h-5.1V14c0.2-0.1,0.4-0.2,0.7-0.3
		s0.5-0.2,0.8-0.2V4.7l0.2-1.5l-0.9,1.5l-5.9,8.2v0.4c0.3,0.1,0.6,0.1,0.9,0.2s0.5,0.2,0.8,0.3L218.1,14.5L218.1,14.5z"/>
	<path class="organization0" d="M239.4,0.5v0.6c-0.2,0.1-0.4,0.2-0.7,0.3s-0.6,0.2-0.9,0.2v11.9c0.7,0.1,1.2,0.3,1.6,0.5v0.6h-5.3V14
		c0.5-0.2,1.1-0.4,1.7-0.5V8.6h-2c-0.3,0.5-0.6,1-0.8,1.4s-0.5,0.9-0.7,1.4s-0.5,0.9-0.8,1.3s-0.6,0.8-0.9,1.3l-0.7,0.5h-2.5V14
		l1-0.5c0.4-0.5,0.8-0.9,1.1-1.3c0.3-0.4,0.6-0.9,0.9-1.3s0.5-0.8,0.8-1.2s0.5-0.8,0.8-1.2c-0.4-0.1-0.8-0.3-1.1-0.5
		c-0.4-0.2-0.7-0.5-0.9-0.8c-0.3-0.3-0.5-0.7-0.6-1.1c-0.2-0.4-0.2-0.9-0.2-1.5c0-0.7,0.2-1.4,0.5-1.9s0.7-1,1.3-1.3
		c0.5-0.3,1.1-0.6,1.8-0.7s1.3-0.2,2-0.2c0.3,0,0.6,0,1,0s0.8,0,1.2,0C237,0.5,239.4,0.5,239.4,0.5z M234.4,7.7c0.2,0,0.5,0,0.7,0
		c0.3,0,0.5-0.1,0.6-0.1v-6c-0.1,0-0.3-0.1-0.6-0.1c-0.2,0-0.5,0-0.6,0c-1,0-1.8,0.2-2.5,0.7c-0.6,0.5-0.9,1.3-0.9,2.4
		c0,1,0.3,1.8,0.8,2.3C232.6,7.4,233.4,7.7,234.4,7.7z"/>
</g>
</svg>
