<?xml version="1.0" encoding="utf-8"?>
<!-- Generator: Adobe Illustrator 21.0.2, SVG Export Plug-In . SVG Version: 6.00 Build 0)  -->
<svg version="1.1" id="layer" xmlns="http://www.w3.org/2000/svg" xmlns:xlink="http://www.w3.org/1999/xlink" x="0px" y="0px"
	 viewBox="0 0 311.9 68" style="enable-background:new 0 0 311.9 68;" xml:space="preserve">
<style type="text/css">
	.st10{fill:#671700;}
	.st11{fill:#C9A568;}
</style>
<path class="st10" d="M67.8,48.4l1.1-0.8c-9.3-11.4-18.7-11-29.9-9.1c-8.2,1.4-11.4-4.9-9.1-7.7c1-1.2,2.7-1.3,3.5-0.4
	c-1.7,0.1-2.3,2.9-0.8,3.8c2,1.3,4.1-1.1,4-3.3c-0.1-1.6-1.9-5-6.5-3.6c-6.7,2.1-5,13.3,6.5,13.5C45.8,41,54.2,34.4,67.8,48.4
	L67.8,48.4z"/>
<path class="st10" d="M7.2,53.6c0.8-1.4,1.1-3.2,6.4-6.1c1.8-1,3.3-2,4.1-3.3c1.3-2.1,1.3-5.6,0.2-6.9c0.9-0.2,7.5,4.1,1.8,8.9
	C15.2,50,11.2,48.2,7.2,53.6L7.2,53.6z"/>
<path class="st10" d="M2,63.6c-1.7-0.3-2.3-4.1,0.3-5.1c3.2-1.2,6.4,2.5,7.2,4.6c-1-0.6-4.2-2.6-6.3-1.9C2.4,61.5,1.9,62.2,2,63.6
	L2,63.6z"/>
<path class="st10" d="M10.5,61.9c-4.8-4.2-3.1-8.8,0.3-9.8c3.6-1,6.6,3.3,3.8,5.7c0-2.1-2-2.2-3.3-1.8C9.8,56.5,9.4,58.7,10.5,61.9
	L10.5,61.9z"/>
<path class="st10" d="M10.7,62c2.1,1,5.5,2.3,10.2-5.2c2.4-3.7,5.9-7.9,9.8-10.7c3.9-2.9,7.5-3.7,10.4-4.1
	c-16.4,9.1-13.2,15.8-19.7,20.4C17.5,65.2,13,64.9,10.7,62L10.7,62z"/>
<path class="st10" d="M61,45.1c-1-0.3-4.5-3.1-11.1-0.9c-3.4,1.1-5.2,3.7-5.5,6.1c-0.2,2.4,0.5,4.7,2.1,5.7c2.9,1.9,7.1,1.3,7.8-2.1
	c0.7-3.4-3.1-4.7-3.8-4.9c1-1.6,4.8-1.4,6.3-0.3c1.5,1.1,1.3,3,1.4,4.8c0.2,0.7,2.6,0.7,3,0.5c0.1,1.5-0.6,3.3-3.1,3.2
	c0,0-0.2,1.5-0.1,2.5c-0.5,0.7-2.3,0.8-2.9,0.9c-0.1,0.3,0,1.3,0.4,2.5c-1.1,0.7-5.3,0.8-6.7-0.1c-0.3,0.1-0.3,1.1-0.5,2
	c-5.4,0.3-6.4-2-6.3-4c-0.3,0.1-6.1,2.7-5.8-7.7C36.7,37.1,59.1,40.2,61,45.1L61,45.1z"/>
<path class="st10" d="M243.9,49c13.6-14,22-7.4,31.2-7.5c11.5-0.2,13.2-11.4,6.5-13.5c-4.6-1.4-6.5,2-6.5,3.6c-0.1,2.2,2,4.6,4,3.3
	c1.5-0.9,0.9-3.7-0.8-3.8c0.8-0.9,2.5-0.8,3.5,0.4c2.3,2.8-0.9,9.1-9.1,7.7c-11.1-2-20.5-2.3-29.9,9.1L243.9,49L243.9,49z"/>
<path class="st10" d="M304.5,54.2c-4-5.4-8-3.6-12.4-7.4c-5.7-4.8,0.9-9.1,1.8-8.9c-1.2,1.3-1.1,4.8,0.2,6.9c0.8,1.3,2.3,2.3,4.1,3.3
	C303.4,51,303.7,52.8,304.5,54.2L304.5,54.2z"/>
<path class="st10" d="M309.7,64.2c0.1-1.4-0.4-2.2-1.3-2.4c-2.1-0.7-5.3,1.3-6.3,1.9c0.8-2.1,4-5.9,7.2-4.6
	C312,60.1,311.4,63.9,309.7,64.2L309.7,64.2z"/>
<path class="st10" d="M301.2,62.5c1.1-3.2,0.7-5.4-0.8-5.8c-1.3-0.4-3.3-0.3-3.3,1.8c-2.7-2.4,0.3-6.8,3.8-5.7
	C304.3,53.7,306,58.4,301.2,62.5L301.2,62.5z"/>
<path class="st10" d="M301,62.6c-2.3,2.9-6.7,3.1-10.7,0.3c-6.5-4.6-3.3-11.3-19.8-20.3c3,0.4,6.5,1.3,10.4,4.1s7.5,7,9.8,10.7
	C295.5,65,298.8,63.7,301,62.6L301,62.6z"/>
<path class="st10" d="M250.7,45.7c1.9-4.9,24.3-8,24.8,8.2c0.3,10.4-5.5,7.8-5.8,7.7c0,2.1-0.9,4.3-6.4,4c-0.2-0.9-0.3-1.9-0.5-2
	c-1.4,0.9-5.6,0.8-6.7,0.1c0.5-1.2,0.5-2.2,0.4-2.5c-0.6,0-2.4-0.1-2.9-0.9c0.1-1-0.1-2.5-0.1-2.5c-2.5,0.1-3.2-1.7-3.1-3.2
	c0.4,0.2,2.8,0.1,3-0.5c0.1-1.8-0.1-3.7,1.4-4.8c1.5-1.1,5.3-1.3,6.3,0.3c-0.8,0.2-4.6,1.4-3.8,4.9c0.8,3.5,4.9,4,7.8,2.1
	c1.6-1,2.3-3.3,2.1-5.7c-0.2-2.5-2.1-5.1-5.5-6.1C255.2,42.7,251.7,45.4,250.7,45.7L250.7,45.7z"/>
<g>
	<path class="st10" d="M84.6,7.3c0-1,0.1-2,0.4-2.9c0.3-0.9,0.7-1.7,1.2-2.3c0.5-0.6,1.2-1.1,2-1.5C89.1,0.2,90,0,91,0
		s1.9,0.2,2.7,0.5c0.8,0.4,1.4,0.9,2,1.5c0.5,0.6,1,1.4,1.2,2.3c0.3,0.9,0.4,1.8,0.4,2.9s-0.1,2-0.4,2.9c-0.3,0.9-0.7,1.7-1.2,2.3
		c-0.5,0.6-1.2,1.1-2,1.5c-0.8,0.4-1.7,0.5-2.7,0.5s-1.9-0.2-2.7-0.5c-0.8-0.4-1.5-0.9-2-1.5c-0.5-0.6-1-1.4-1.2-2.3
		C84.8,9.3,84.6,8.3,84.6,7.3z M86.8,7.3c0,0.9,0.1,1.7,0.3,2.4c0.2,0.8,0.4,1.4,0.8,2c0.4,0.6,0.8,1,1.4,1.3
		c0.5,0.3,1.2,0.5,1.9,0.5c0.7,0,1.3-0.2,1.8-0.5c0.5-0.3,0.9-0.8,1.3-1.3c0.3-0.6,0.6-1.2,0.7-2c0.2-0.8,0.3-1.6,0.3-2.4
		s-0.1-1.7-0.3-2.4c-0.2-0.8-0.4-1.4-0.8-2c-0.4-0.6-0.8-1-1.4-1.3c-0.5-0.3-1.2-0.5-1.9-0.5c-0.7,0-1.4,0.2-1.9,0.5
		c-0.5,0.3-0.9,0.8-1.3,1.3c-0.3,0.6-0.6,1.2-0.7,2C86.9,5.6,86.8,6.4,86.8,7.3z"/>
	<path class="st10" d="M102.5,13.2c0.4,0,0.7,0.1,1,0.2c0.3,0.1,0.6,0.2,0.9,0.3v0.6H99v-0.6c0.3-0.1,0.5-0.2,0.8-0.3
		c0.3-0.1,0.6-0.1,0.8-0.2V1.3c-0.3-0.1-0.6-0.1-0.9-0.2S99.2,1,99,0.8V0.3h1.8c0.5,0,1.1,0,1.7-0.1c0.6-0.1,1.2-0.1,1.8-0.1
		c0.7,0,1.3,0.1,1.9,0.2c0.6,0.1,1.2,0.4,1.7,0.7c0.5,0.3,0.9,0.8,1.2,1.3c0.3,0.6,0.5,1.2,0.5,2.1c0,0.8-0.2,1.5-0.5,2
		c-0.3,0.6-0.7,1-1.2,1.4c-0.5,0.4-1.1,0.6-1.8,0.8c-0.7,0.2-1.3,0.3-2,0.3c-0.1,0-0.2,0-0.3,0c-0.1,0-0.3,0-0.5,0s-0.3,0-0.5,0
		c-0.1,0-0.3,0-0.3,0V13.2z M103.9,1.1c-0.3,0-0.6,0-0.8,0c-0.2,0-0.4,0-0.6,0.1v6.5c0.1,0,0.2,0,0.3,0c0.1,0,0.3,0,0.4,0
		c0.1,0,0.3,0,0.4,0c0.1,0,0.2,0,0.3,0c0.5,0,0.9-0.1,1.3-0.2s0.8-0.3,1.1-0.6c0.3-0.3,0.6-0.6,0.8-1.1c0.2-0.4,0.3-0.9,0.3-1.5
		c0-1.1-0.3-1.9-0.9-2.5C105.8,1.4,105,1.1,103.9,1.1z"/>
	<path class="st10" d="M114.4,13.2c0.7,0.1,1.3,0.3,1.9,0.5v0.6h-5.5v-0.6c0.5-0.2,1.1-0.4,1.6-0.5V1.3c-0.3-0.1-0.5-0.1-0.8-0.2
		c-0.3-0.1-0.6-0.2-0.8-0.3V0.3h9.4c0,0.3,0,0.6,0,0.9s0,0.7,0,1.1s0,0.7-0.1,1.1c0,0.4-0.1,0.7-0.1,1h-0.5l-1-3h-4V13.2z"/>
	<path class="st10" d="M123.4,14.3H119v-0.6c0.5-0.2,1-0.4,1.4-0.5L125.5,0h0.6l5.1,13.2c0.3,0.1,0.5,0.1,0.8,0.2
		c0.3,0.1,0.5,0.2,0.7,0.3v0.6h-5.2v-0.6c0.3-0.1,0.5-0.2,0.8-0.3c0.3-0.1,0.6-0.1,0.8-0.2l-1.4-3.7H123l-1.3,3.7
		c0.6,0.1,1.1,0.2,1.7,0.5V14.3z M123.4,8.5h4l-1.6-4.2l-0.4-1.7h0l-0.5,1.8L123.4,8.5z"/>
	<path class="st10" d="M138.3,14.3h-5.1v-0.6c0.5-0.2,1.1-0.4,1.6-0.5V1.3c-0.6-0.1-1.2-0.3-1.6-0.5V0.3h5.1v0.6
		c-0.2,0.1-0.5,0.2-0.7,0.3s-0.5,0.1-0.8,0.2v5.2h6.3V1.3c-0.3-0.1-0.5-0.1-0.8-0.2s-0.5-0.2-0.7-0.3V0.3h5.1v0.6
		c-0.2,0.1-0.5,0.2-0.8,0.3c-0.3,0.1-0.6,0.1-0.9,0.2v11.9c0.3,0.1,0.6,0.1,0.9,0.2c0.3,0.1,0.5,0.2,0.8,0.3v0.6h-5.1v-0.6
		c0.5-0.2,1-0.4,1.5-0.5V7.6h-6.3v5.6c0.3,0.1,0.5,0.1,0.8,0.2s0.5,0.2,0.7,0.3V14.3z"/>
	<path class="st10" d="M152.8,14.3h-5.1v-0.6c0.5-0.2,1.1-0.4,1.6-0.5V1.3c-0.3-0.1-0.5-0.1-0.8-0.2C148.3,1,148,1,147.8,0.8V0.3h5.1
		v0.6c-0.2,0.1-0.4,0.2-0.7,0.3c-0.2,0.1-0.5,0.2-0.8,0.2V10l-0.2,1.5l1-1.6l5.9-8.1V1.3c-0.3-0.1-0.6-0.1-0.9-0.2
		c-0.3-0.1-0.5-0.2-0.8-0.3V0.3h5.1v0.6c-0.2,0.1-0.5,0.2-0.8,0.3s-0.6,0.2-0.9,0.2v11.9c0.6,0.1,1.2,0.3,1.6,0.5v0.6h-5.1v-0.6
		c0.2-0.1,0.4-0.2,0.7-0.3c0.3-0.1,0.5-0.2,0.8-0.2V4.5L158,3l-0.9,1.5l-5.9,8.2v0.4c0.3,0.1,0.6,0.1,0.9,0.2
		c0.3,0.1,0.5,0.2,0.8,0.3V14.3z"/>
	<path class="st10" d="M166.8,14.5c-0.7,0-1.5-0.1-2.1-0.2c-0.7-0.1-1.2-0.3-1.7-0.6c0-0.2,0-0.5,0-0.7c0-0.3,0.1-0.6,0.1-0.9
		c0-0.3,0.1-0.6,0.2-0.9c0.1-0.3,0.1-0.6,0.2-0.8h0.5l0.8,2.8c0.1,0,0.2,0.1,0.3,0.1c0.1,0,0.3,0.1,0.5,0.1c0.2,0,0.4,0,0.6,0.1
		c0.2,0,0.4,0,0.5,0c0.5,0,0.9-0.1,1.4-0.2c0.4-0.2,0.8-0.4,1-0.7c0.3-0.3,0.5-0.6,0.7-1c0.2-0.4,0.2-0.8,0.2-1.2
		c0-0.5-0.1-1-0.3-1.3c-0.2-0.4-0.4-0.7-0.7-0.9s-0.6-0.4-1-0.5c-0.4-0.1-0.8-0.1-1.2-0.1l-1.5,0.2c-0.1-0.4-0.1-0.8,0-1.2h0.6
		c0.2,0,0.5,0,0.8,0c0.3,0,0.6,0,0.8-0.1c0.6-0.2,1.1-0.6,1.4-1c0.3-0.5,0.5-1,0.5-1.7c0-0.9-0.2-1.6-0.7-2
		c-0.5-0.5-1.2-0.7-2.1-0.7c-0.4,0-0.8,0-1,0.1s-0.4,0.2-0.5,0.3l-1.1,2.4h-0.5c-0.1-0.4-0.1-0.8-0.2-1.4c0-0.6-0.1-1.1-0.1-1.7
		c0.2-0.2,0.4-0.3,0.7-0.4c0.3-0.1,0.6-0.2,0.9-0.3c0.3-0.1,0.6-0.1,1-0.1c0.3,0,0.6,0,0.9,0c0.5,0,1.1,0,1.6,0.1
		c0.5,0.1,1,0.3,1.5,0.5c0.4,0.3,0.8,0.6,1.1,1.1c0.3,0.4,0.4,1,0.4,1.7c0,0.7-0.2,1.3-0.6,1.9c-0.4,0.6-1,1.1-1.9,1.4v0.1
		c0.4,0.1,0.8,0.2,1.1,0.3c0.4,0.2,0.7,0.4,0.9,0.7c0.3,0.3,0.5,0.6,0.6,1c0.2,0.4,0.2,0.9,0.2,1.4c0,0.7-0.1,1.3-0.4,1.9
		c-0.3,0.5-0.7,1-1.2,1.3c-0.5,0.3-1,0.6-1.7,0.8C168.1,14.4,167.5,14.5,166.8,14.5z"/>
	<path class="st10" d="M177.5,14.3h-4.4v-0.6c0.5-0.2,1-0.4,1.4-0.5L179.6,0h0.6l5.1,13.2c0.3,0.1,0.5,0.1,0.8,0.2
		c0.3,0.1,0.5,0.2,0.7,0.3v0.6h-5.2v-0.6c0.3-0.1,0.5-0.2,0.8-0.3c0.3-0.1,0.6-0.1,0.8-0.2l-1.4-3.7h-4.8l-1.3,3.7
		c0.6,0.1,1.1,0.2,1.7,0.5V14.3z M177.5,8.5h4l-1.6-4.2l-0.4-1.7h0L179,4.3L177.5,8.5z"/>
	<path class="st10" d="M187.3,14.3v-0.6c0.4-0.2,0.9-0.3,1.6-0.5V1.3c-0.5-0.1-1.1-0.2-1.6-0.5V0.3h5.1v0.6c-0.4,0.2-0.9,0.3-1.5,0.5
		v11.9h6V1.3c-0.2-0.1-0.5-0.1-0.7-0.2s-0.5-0.2-0.8-0.3V0.3h5.1v0.6c-0.5,0.2-1.1,0.4-1.6,0.5v11.9h2.3c0,0.3,0,0.6,0,0.9
		c0,0.4-0.1,0.7-0.1,1.1s-0.1,0.7-0.1,1.1c0,0.4-0.1,0.7-0.2,0.9h-0.5l-0.9-3H187.3z"/>
	<path class="st10" d="M207,14.3h-5.1v-0.6c0.5-0.2,1.1-0.4,1.6-0.5V1.3c-0.3-0.1-0.5-0.1-0.8-0.2c-0.3-0.1-0.6-0.2-0.8-0.3V0.3h5.1
		v0.6c-0.2,0.1-0.4,0.2-0.7,0.3s-0.5,0.2-0.8,0.2V10l-0.2,1.5l1-1.6l5.9-8.1V1.3c-0.3-0.1-0.6-0.1-0.9-0.2c-0.3-0.1-0.5-0.2-0.8-0.3
		V0.3h5.1v0.6c-0.2,0.1-0.5,0.2-0.8,0.3s-0.6,0.2-0.9,0.2v11.9c0.6,0.1,1.2,0.3,1.6,0.5v0.6h-5.1v-0.6c0.2-0.1,0.4-0.2,0.7-0.3
		c0.3-0.1,0.5-0.2,0.8-0.2V4.5l0.2-1.5l-0.9,1.5l-5.9,8.2v0.4c0.3,0.1,0.6,0.1,0.9,0.2s0.5,0.2,0.8,0.3V14.3z"/>
	<path class="st10" d="M228.3,0.3v0.6c-0.2,0.1-0.4,0.2-0.7,0.3c-0.3,0.1-0.6,0.2-0.9,0.2v11.9c0.7,0.1,1.2,0.3,1.6,0.5v0.6H223v-0.6
		c0.5-0.2,1.1-0.4,1.7-0.5V8.4h-2c-0.3,0.5-0.6,1-0.8,1.4s-0.5,0.9-0.7,1.4c-0.2,0.5-0.5,0.9-0.8,1.3s-0.6,0.8-0.9,1.3l-0.7,0.5
		h-2.5v-0.5l1-0.5c0.4-0.5,0.8-0.9,1.1-1.3c0.3-0.4,0.6-0.9,0.9-1.3s0.5-0.8,0.8-1.2c0.3-0.4,0.5-0.8,0.8-1.2
		c-0.4-0.1-0.8-0.3-1.1-0.5c-0.4-0.2-0.7-0.5-0.9-0.8c-0.3-0.3-0.5-0.7-0.6-1.1c-0.2-0.4-0.2-0.9-0.2-1.5c0-0.7,0.2-1.4,0.5-1.9
		c0.3-0.5,0.7-1,1.3-1.3c0.5-0.3,1.1-0.6,1.8-0.7s1.3-0.2,2-0.2c0.3,0,0.6,0,1,0c0.4,0,0.8,0,1.2,0H228.3z M223.3,7.5
		c0.2,0,0.5,0,0.7,0c0.3,0,0.5-0.1,0.6-0.1v-6c-0.1,0-0.3-0.1-0.6-0.1c-0.2,0-0.5,0-0.6,0c-1,0-1.8,0.2-2.5,0.7
		c-0.6,0.5-0.9,1.3-0.9,2.4c0,1,0.3,1.8,0.8,2.3C221.5,7.2,222.3,7.5,223.3,7.5z"/>
</g>
<g>
	<path class="st11" d="M87.6,27.4h-4.2v37.5H79V26.5h12.8v38.4h-4.2V27.4z"/>
	<path class="st11" d="M103.5,44.9c0.3,0.1,0.6,0.3,0.8,0.6c0.2,0.2,0.4,0.5,0.6,0.8c0.1,0.3,0.2,0.7,0.2,1c0,0.4-0.1,0.7-0.2,1
		c-0.1,0.3-0.3,0.6-0.5,0.8s-0.5,0.4-0.8,0.5c-0.3,0.1-0.7,0.2-1,0.2c-0.5,0-0.8-0.1-1.2-0.2s-0.7-0.3-1-0.5s-0.7-0.5-1.1-0.9
		c-0.4-0.4-0.8-0.8-1.4-1.3v18h-4V26.5h13V40c-1.1,0.5-2.1,0.9-3.1,1.2c-1,0.3-1.8,0.7-2.5,1s-1.3,0.7-1.7,1
		c-0.4,0.4-0.6,0.8-0.6,1.3c0,0.7,0.1,1.3,0.3,1.9c0.2,0.6,0.5,1,0.9,1.3c0-0.4,0.1-0.8,0.2-1.1c0.1-0.4,0.3-0.7,0.5-1
		c0.2-0.3,0.5-0.5,0.8-0.7c0.3-0.2,0.7-0.2,1-0.2C102.8,44.7,103.2,44.7,103.5,44.9z M102.5,27.4h-4.6v14.9l4.6-2.1V27.4z"/>
	<path class="st11" d="M111.8,29c0.3,0.1,0.6,0.3,0.8,0.6c0.2,0.2,0.4,0.5,0.5,0.8c0.1,0.3,0.2,0.7,0.2,1c0,0.4-0.1,0.7-0.2,1
		c-0.1,0.3-0.3,0.6-0.5,0.8c-0.2,0.2-0.5,0.4-0.8,0.5c-0.3,0.1-0.7,0.2-1,0.2c-0.4,0-0.7-0.1-1-0.2c-0.3-0.1-0.6-0.3-0.8-0.5
		c-0.2-0.2-0.4-0.5-0.5-0.8c-0.1-0.3-0.2-0.6-0.2-1c0-0.6,0.1-1.2,0.2-1.8c0.2-0.6,0.4-1.1,0.7-1.5c0.3-0.4,0.7-0.8,1.2-1.1
		c0.5-0.3,1-0.4,1.7-0.4c1.5,0,2.6,0.4,3.3,1.3c0,0,0.1,0.1,0.1,0.2c0.1,0.1,0.2,0.3,0.3,0.4c0.1,0.2,0.2,0.3,0.3,0.4
		c0.1,0.1,0.2,0.2,0.2,0.2h0.1v-2.6h4.2v38.4h-4.2v-20l-4.2,3.4v16.6h-4.2V49.6l7.8-6.2v-1c0,0-0.2,0.1-0.4,0.2
		c-0.2,0.1-0.5,0.3-0.8,0.5s-0.7,0.3-1.1,0.5c-0.4,0.1-0.8,0.2-1.2,0.2c-0.6,0-1.1-0.1-1.7-0.4c-0.5-0.3-1-0.6-1.3-1.1
		c-0.4-0.4-0.7-1-0.9-1.5s-0.3-1.2-0.3-1.7c0-0.7,0.1-1.2,0.2-1.7c0.1-0.4,0.4-0.8,0.6-1.1s0.6-0.5,1-0.7c0.4-0.2,0.9-0.4,1.4-0.6
		c0.4-0.2,0.8-0.4,1.3-0.6c0.5-0.2,1-0.5,1.5-0.8s0.9-0.6,1.2-0.9c0.3-0.3,0.5-0.6,0.5-0.8v-1.8c0-0.3-0.1-0.5-0.3-0.8
		c-0.2-0.3-0.4-0.6-0.7-0.8c-0.3-0.3-0.6-0.5-1-0.7c-0.3-0.2-0.7-0.3-0.9-0.3c-0.3,0-0.6,0-0.9,0c-0.3,0-0.6,0.1-0.9,0.1
		c-0.3,0.1-0.5,0.2-0.7,0.3c-0.2,0.1-0.3,0.3-0.3,0.6c0,0,0,0.1,0.1,0.1s0.1,0.1,0.2,0.1c0.1,0,0.2,0.1,0.2,0.1c0.1,0,0.1,0,0.1,0
		C111.2,28.7,111.5,28.8,111.8,29z M115.8,33.2c-0.4,0.4-0.8,0.8-1.2,1.1c-0.4,0.4-0.8,0.8-1.2,1.2c-0.4,0.4-0.6,0.8-0.8,1.4
		c-0.2,0.5-0.3,1.1-0.3,1.6c0,0.4,0,0.8,0.1,1.2c0.1,0.4,0.2,0.8,0.4,1.1c0.2,0.3,0.4,0.6,0.6,0.8c0.2,0.2,0.5,0.3,0.9,0.3
		c1.5,0,2.2-0.6,2.2-1.8v-7H115.8z"/>
	<path class="st11" d="M135.7,59.9c0,1.6-0.7,2.8-2.2,3.8c-0.6,0.4-1.3,0.7-2,0.9c-0.7,0.2-1.5,0.3-2.3,0.3c-0.7,0-1.5-0.1-2.2-0.3
		c-0.8-0.2-1.5-0.5-2.1-0.9c-0.6-0.4-1.2-0.9-1.6-1.5s-0.6-1.3-0.6-2v-6h4.4v8c0,0.2,0.1,0.5,0.2,0.7c0.1,0.2,0.3,0.4,0.5,0.6
		c0.2,0.2,0.4,0.3,0.7,0.4c0.2,0.1,0.5,0.2,0.7,0.2c0.3,0,0.5,0,0.8-0.1c0.2-0.1,0.5-0.2,0.6-0.4c0.2-0.2,0.3-0.4,0.4-0.6
		c0.1-0.2,0.2-0.5,0.2-0.8V47.3c0-1.8-0.7-2.8-2-2.8c-1.4,0-2.1,0.9-2.1,2.8v1.1h-3.6c0-1.4,0.5-2.6,1.4-3.7
		c0.4-0.4,0.8-0.8,1.2-1.1c0.5-0.3,1-0.6,1.5-0.8c0.5-0.2,1.1-0.4,1.7-0.5c0.6-0.1,1.2-0.2,1.8-0.2V29.4c0-1.3-0.7-2-2-2
		c-0.3,0-0.5,0.1-0.8,0.2c-0.3,0.1-0.5,0.2-0.7,0.4c-0.2,0.2-0.4,0.4-0.5,0.6c-0.1,0.2-0.2,0.5-0.2,0.8v8.2h-4.4v-5.8
		c0-2.3,1.2-3.9,3.5-4.8c0.8-0.3,1.9-0.5,3.1-0.5c2.5,0,4.3,0.8,5.3,2.5c0.4,0.6,0.7,1.4,0.8,2.3c0.2,0.9,0.3,2,0.3,3.2v3
		c0,0.6-0.1,1.1-0.2,1.6c-0.1,0.5-0.3,0.9-0.6,1.3c-0.3,0.4-0.6,0.8-1,1.3s-0.8,0.9-1.4,1.4v0.3c1,1.2,1.8,2.4,2.3,3.5
		c0.5,1.1,0.8,2.3,0.8,3.4V59.9z"/>
	<path class="st11" d="M141.5,64.9c-0.3,0-0.7,0.1-1.1,0.4c-0.4,0.2-0.8,0.5-1.2,0.9c-0.4,0.4-0.7,0.7-1.1,1.1
		c-0.3,0.4-0.5,0.8-0.6,1.1h-0.2V64h4.2V42.4c0-0.1,0.1-0.2,0.2-0.4c0.1-0.2,0.3-0.4,0.6-0.7s0.5-0.5,0.8-0.8
		c0.3-0.3,0.6-0.6,0.9-0.9c0.3-0.3,0.6-0.6,0.8-0.8c0.3-0.3,0.5-0.5,0.6-0.7c2.6-2.8,3.9-4.9,3.9-6.2c0-0.8-0.1-1.5-0.3-2
		c-0.2-0.5-0.5-0.9-0.8-1.2c-0.4-0.3-0.9-0.5-1.4-0.6s-1.3-0.2-2.1-0.2v0c1.3,0.3,2,1.1,2,2.6c0,0.4-0.1,0.7-0.2,1
		c-0.1,0.3-0.3,0.6-0.5,0.8c-0.2,0.2-0.5,0.4-0.8,0.5c-0.3,0.1-0.6,0.2-1,0.2c-0.4,0-0.7-0.1-1-0.2s-0.6-0.3-0.8-0.6
		c-0.2-0.2-0.4-0.5-0.5-0.8c-0.1-0.3-0.2-0.6-0.2-1c0-0.7,0.1-1.2,0.3-1.7c0.2-0.5,0.4-0.8,0.8-1.1c0.4-0.3,0.8-0.5,1.3-0.6
		c0.5-0.1,1.1-0.2,1.8-0.2c0.2,0,0.5,0,0.7,0c0.3,0,0.6,0.1,0.9,0.2c0.3,0.1,0.7,0.2,1.1,0.4c0.4,0.2,0.8,0.4,1.2,0.7l0.6,0.5v-2.1
		h4.4V64h3.8v4.4h-0.1c0,0-0.1-0.1-0.2-0.3s-0.3-0.4-0.6-0.6c-0.2-0.3-0.5-0.5-0.8-0.8s-0.6-0.6-0.8-0.8c-0.3-0.3-0.5-0.5-0.7-0.6
		c-0.2-0.2-0.4-0.3-0.5-0.3H141.5z M150.2,64V34l-0.5,0.7c-0.2,0.2-0.4,0.6-0.7,1s-0.7,0.9-1,1.3s-0.7,0.9-1.1,1.4s-0.7,0.9-1,1.2
		V64H150.2z"/>
	<path class="st11" d="M168.8,49.2V26.5h4.4v38.4h-4.4V54.2l-1.7,1.9l-0.7-3.1l1.1-1.4c0.1-0.1,0.1-0.2,0.1-0.4s0-0.3,0-0.5
		c0-0.7-0.2-1.5-0.5-2.5l-2.5-6.4v23h-4.5V26.5h4.5v11l1.8-2l0.8,2.9l-1.3,1.6c-0.2,0.2-0.2,0.5-0.2,1c0,0.1,0,0.3,0,0.4
		s0.1,0.3,0.1,0.5L168.8,49.2z"/>
	<path class="st11" d="M179.8,49.2l2.9-7.4c0.1-0.2,0.1-0.3,0.1-0.5s0-0.3,0-0.4c0-0.3-0.1-0.6-0.2-1l-1.3-1.6l0.8-2.9l1.8,2v-11h4.4
		v38.4h-4.4v-23l-2.5,6.4c-0.4,1-0.6,1.8-0.6,2.5c0,0.2,0,0.4,0,0.5s0.1,0.3,0.1,0.4l1.1,1.4l-0.7,3.1l-1.7-1.9v10.7h-4.5V26.5h4.5
		V49.2z"/>
	<path class="st11" d="M190.5,64.9V26.5h4.3v15.4h0.3c0.8-1.3,2-2.4,3.9-3.4v-12h4.5v12c-0.3,0-0.8,0.1-1.3,0.2s-1,0.4-1.6,0.6
		s-1.1,0.6-1.6,0.9s-1,0.7-1.4,1.1s-0.8,0.8-1,1.2s-0.4,0.8-0.4,1.2c0,0.5,0.1,0.9,0.4,1.3s0.6,0.8,1,1.1s0.9,0.7,1.4,0.9
		s1.1,0.5,1.6,0.7s1.1,0.3,1.6,0.4s0.9,0.2,1.3,0.2v16.5h-4.5V48.5c-1.6-0.5-2.9-1.5-3.9-3h-0.3v19.5H190.5z"/>
	<path class="st11" d="M213.4,27.2c0.2,0.4,0.4,1,0.6,1.8s0.5,1.6,0.7,2.6c0.3,1,0.5,2,0.8,3c0.2,1,0.5,2.1,0.7,3.1s0.4,2,0.6,2.9
		s0.3,1.7,0.5,2.4s0.2,1.2,0.3,1.5c0.2,1.5,0.4,2.7,0.4,3.7c0,1.7-0.2,3.4-0.6,5.2s-1,3.5-1.9,5.4c-1.9,4.1-3.9,6.2-6.1,6.2
		c-0.3,0-0.5-0.2-0.8-0.6s-0.5-1-0.7-1.7s-0.4-1.5-0.6-2.5s-0.4-2-0.6-3s-0.4-2.2-0.5-3.3s-0.3-2.3-0.4-3.4s-0.2-2.2-0.4-3.2
		s-0.2-1.9-0.3-2.7s-0.1-1.5-0.2-2s-0.1-0.9-0.1-1c0-0.7,0.1-1.5,0.2-2.5s0.4-2.1,0.7-3.2c0.3-1.1,0.7-2.2,1.1-3.3
		c0.4-1.1,1-2.1,1.6-3s1.3-1.6,2-2.1s1.5-0.8,2.4-0.8C213,26.5,213.2,26.7,213.4,27.2z M210.6,30c-0.4,0.4-0.8,0.8-1.2,1.4
		s-0.7,1.2-1,2s-0.5,1.4-0.7,2.1c-0.2,0.7-0.4,1.4-0.5,2s-0.2,1.1-0.2,1.5c0,0.8,0.1,1.7,0.4,2.7s0.5,2,0.9,3s0.7,2.1,1.2,3.2
		s0.8,2.2,1.2,3.2s0.7,2.1,0.9,3s0.4,1.8,0.4,2.6c0,0.7-0.1,1.4-0.2,2.1s-0.3,1.5-0.6,2.3c0.5,0,0.9-0.2,1.3-0.6s0.8-1,1.1-1.6
		s0.6-1.4,0.9-2.2s0.5-1.6,0.6-2.4s0.3-1.5,0.4-2.1s0.1-1.1,0.1-1.5c0-0.4-0.1-1-0.3-1.7s-0.5-1.4-0.8-2.3s-0.7-1.7-1-2.6
		s-0.7-1.8-1-2.6s-0.6-1.6-0.8-2.3s-0.3-1.3-0.3-1.7c0-1.4,0.1-2.8,0.2-4.2c0.1-1.4,0.4-2.7,0.6-4C211.5,29.4,211.1,29.6,210.6,30z"
		/>
	<path class="st11" d="M219.6,64.9V26.5h13.2v11.4c-0.9,0-1.8,0.2-2.7,0.5s-1.7,0.8-2.5,1.5c-1.8,1.5-2.7,3.2-2.7,5.4
		c0,0.9,0.1,1.8,0.4,2.6s0.6,1.6,1.1,2.3s1,1.3,1.7,1.9s1.4,1,2.2,1.4c0.5,0.2,0.9,0.4,1.4,0.5s0.9,0.2,1.3,0.2v10.9H219.6z
		 M228.6,27.4H224v14.9c0.4-0.7,0.8-1.3,1.1-1.8c0.3-0.5,0.6-0.8,0.8-1.1c0.7-0.8,1.6-1.4,2.8-1.8V27.4z M228.6,54.1
		c-2.1-1.2-3.7-3-4.7-5.3V64h4.7V54.1z"/>
</g>
</svg>
