<?xml version="1.0" encoding="utf-8"?>
<!-- Generator: Adobe Illustrator 21.0.2, SVG Export Plug-In . SVG Version: 6.00 Build 0)  -->
<svg version="1.1" id="Слой_1" xmlns="http://www.w3.org/2000/svg" xmlns:xlink="http://www.w3.org/1999/xlink" x="0px" y="0px"
	 viewBox="0 0 300 68" style="enable-background:new 0 0 300 68;" xml:space="preserve">
<style type="text/css">
	.or0{fill:#671700;}
	.or1{fill:#C9A468;}
</style>
<g>
	<path class="or0" d="M124.2,14.2h-5.1v-0.6c0.5-0.2,1.1-0.4,1.6-0.5V1.3c-0.6-0.1-1.2-0.3-1.6-0.5V0.2h5.1v0.6
		c-0.2,0.1-0.5,0.2-0.7,0.3s-0.5,0.1-0.8,0.2v5.2h6.3V1.3c-0.3-0.1-0.5-0.1-0.8-0.2s-0.5-0.2-0.7-0.3V0.2h5.1v0.6
		c-0.2,0.1-0.5,0.2-0.8,0.3s-0.6,0.1-0.9,0.2v11.9c0.3,0.1,0.6,0.1,0.9,0.2c0.3,0.1,0.5,0.2,0.8,0.3v0.6h-5.1v-0.6
		c0.5-0.2,1-0.4,1.5-0.5V7.6h-6.3v5.6c0.3,0.1,0.5,0.1,0.8,0.2s0.5,0.2,0.7,0.3V14.2z"/>
	<path class="or0" d="M137.6,14.2h-4.4v-0.6c0.5-0.2,1-0.4,1.4-0.5L139.6,0h0.6l5.1,13.2c0.3,0.1,0.5,0.1,0.8,0.2
		c0.3,0.1,0.5,0.2,0.7,0.3v0.6h-5.2v-0.6c0.3-0.1,0.5-0.2,0.8-0.3c0.3-0.1,0.6-0.1,0.8-0.2l-1.4-3.7h-4.8l-1.3,3.7
		c0.6,0.1,1.1,0.2,1.7,0.5V14.2z M137.6,8.5h4L140,4.2l-0.4-1.7h0l-0.5,1.8L137.6,8.5z"/>
	<path class="or0" d="M153.9,0.2h4.5v0.6c-0.2,0.1-0.4,0.2-0.6,0.3c-0.2,0.1-0.4,0.2-0.7,0.2v11.9h4.4V1.3c-0.5-0.1-0.9-0.3-1.3-0.5
		V0.2h4.6v0.6c-0.2,0.1-0.4,0.2-0.6,0.3c-0.2,0.1-0.5,0.2-0.8,0.2v11.9c0.5,0.1,1,0.3,1.4,0.5v0.6h-17.4v-0.6c0.5-0.2,1-0.4,1.4-0.5
		V1.3c-0.3-0.1-0.5-0.1-0.7-0.2c-0.2-0.1-0.5-0.2-0.7-0.3V0.2h4.7v0.6c-0.3,0.2-0.8,0.3-1.3,0.5v11.9h4.4V1.3
		c-0.3-0.1-0.5-0.2-0.7-0.3c-0.2-0.1-0.4-0.2-0.6-0.3V0.2z"/>
	<path class="or0" d="M171,14.2H166v-0.6c0.5-0.2,1.1-0.4,1.6-0.5V1.3c-0.3-0.1-0.5-0.1-0.8-0.2c-0.3-0.1-0.6-0.2-0.8-0.3V0.2h5.1
		v0.6c-0.2,0.1-0.4,0.2-0.7,0.3s-0.5,0.2-0.8,0.2V10l-0.2,1.5l1-1.6l5.9-8.1V1.3c-0.3-0.1-0.6-0.1-0.9-0.2c-0.3-0.1-0.5-0.2-0.8-0.3
		V0.2h5.1v0.6c-0.2,0.1-0.5,0.2-0.8,0.3c-0.3,0.1-0.6,0.2-0.9,0.2v11.9c0.6,0.1,1.2,0.3,1.6,0.5v0.6h-5.1v-0.6
		c0.2-0.1,0.4-0.2,0.7-0.3c0.3-0.1,0.5-0.2,0.8-0.2V4.5l0.2-1.5l-0.9,1.5l-5.9,8.2v0.4c0.3,0.1,0.6,0.1,0.9,0.2s0.5,0.2,0.8,0.3
		V14.2z"/>
</g>
<g>
	<path class="or1" d="M89.9,47.2c0.3,0.1,0.6,0.3,0.8,0.6c0.2,0.2,0.4,0.5,0.6,0.8c0.1,0.3,0.2,0.7,0.2,1c0,0.4-0.1,0.7-0.2,1
		c-0.1,0.3-0.3,0.6-0.5,0.8c-0.2,0.2-0.5,0.4-0.8,0.5c-0.3,0.1-0.7,0.2-1,0.2c-0.5,0-0.8-0.1-1.2-0.2c-0.3-0.1-0.7-0.3-1-0.5
		c-0.3-0.2-0.7-0.5-1.1-0.9c-0.4-0.4-0.8-0.8-1.4-1.3v18h-4V28.8h13v13.5c-1.1,0.5-2.1,0.9-3.1,1.2c-1,0.3-1.8,0.7-2.5,1
		s-1.3,0.7-1.7,1c-0.4,0.4-0.6,0.8-0.6,1.3c0,0.7,0.1,1.3,0.3,1.9c0.2,0.6,0.5,1,0.9,1.3c0-0.4,0.1-0.8,0.2-1.1
		c0.1-0.4,0.3-0.7,0.5-1c0.2-0.3,0.5-0.5,0.8-0.7c0.3-0.2,0.7-0.2,1-0.2C89.3,47,89.6,47.1,89.9,47.2z M88.9,29.7h-4.6v14.9l4.6-2.1
		V29.7z"/>
	<path class="or1" d="M103.5,32.6c0-0.3-0.1-0.6-0.2-0.9c-0.1-0.3-0.3-0.5-0.5-0.7s-0.5-0.3-0.7-0.5c-0.3-0.1-0.6-0.2-0.9-0.2
		c-0.3,0-0.5,0.1-0.8,0.2c-0.2,0.1-0.5,0.3-0.6,0.6c-0.2,0.2-0.3,0.5-0.4,0.8c-0.1,0.3-0.2,0.6-0.2,0.9v10.1h4.4
		c1.8,0,3,0.9,3.6,2.7c0.4,1.1,0.6,2.7,0.6,4.9h-4.2v-4.4c0-0.2-0.1-0.4-0.2-0.6c-0.1-0.2-0.3-0.4-0.6-0.6c-0.2-0.2-0.5-0.3-0.7-0.5
		c-0.3-0.1-0.5-0.2-0.7-0.2c-0.2,0-0.5,0.1-0.8,0.2c-0.3,0.1-0.5,0.2-0.7,0.4c-0.2,0.2-0.4,0.4-0.5,0.6c-0.1,0.2-0.2,0.5-0.2,0.7V62
		c0,2.5,0.3,3.7,0.9,3.7c0.4,0,0.8-0.2,1.2-0.5c0.3-0.4,0.6-0.8,0.9-1.4s0.5-1.3,0.6-2.1c0.2-0.8,0.3-1.6,0.4-2.4
		c0.1-0.8,0.2-1.7,0.2-2.5c0-0.8,0.1-1.6,0.1-2.3h4.2c0,3.9-0.9,7.1-2.7,9.4c-1.7,2.2-3.9,3.4-6.6,3.4c-0.5,0-1,0-1.4-0.1
		c-0.5-0.1-0.9-0.2-1.3-0.4c-0.4-0.2-0.7-0.4-1-0.7c-0.3-0.3-0.4-0.6-0.4-1c0-0.9,0.1-1.5,0.3-1.9c0.3-0.5,0.8-0.8,1.7-0.8
		c0.1,0,0.3,0.1,0.4,0.4s0.3,0.5,0.4,0.8c0.1,0.3,0.3,0.5,0.4,0.8c0.1,0.2,0.3,0.4,0.5,0.4c-0.2-0.9-0.4-2-0.7-3.1
		c-0.2-1.1-0.5-2.3-0.7-3.5c-0.2-1.2-0.4-2.4-0.6-3.7c-0.2-1.2-0.4-2.4-0.5-3.6c-0.2-1.1-0.3-2.2-0.4-3.2C95,46.6,95,45.7,95,45
		c0-4.3,0.5-7.9,1.4-10.8c1.1-3.5,2.7-5.3,4.8-5.3c1.4,0,2.5,0.2,3.4,0.7c0.9,0.4,1.5,1.1,2,1.8c0.5,0.8,0.8,1.7,0.9,2.8
		s0.2,2.3,0.2,3.6v3.9h-4.2V32.6z"/>
	<path class="or1" d="M118.5,32.6c0-0.3-0.1-0.6-0.2-0.9c-0.1-0.3-0.3-0.5-0.5-0.7c-0.2-0.2-0.5-0.4-0.7-0.5
		c-0.3-0.1-0.6-0.2-0.9-0.2c-0.3,0-0.5,0.1-0.8,0.2c-0.2,0.1-0.5,0.3-0.6,0.6c-0.2,0.2-0.3,0.5-0.4,0.8c-0.1,0.3-0.2,0.6-0.2,0.9V62
		c0,2.5,0.3,3.7,0.9,3.7c0.4,0,0.8-0.2,1.2-0.5c0.3-0.4,0.6-0.8,0.9-1.4s0.5-1.3,0.6-2.1c0.2-0.8,0.3-1.6,0.4-2.4
		c0.1-0.8,0.2-1.7,0.2-2.5c0-0.8,0.1-1.6,0.1-2.3h4.2c0,3.9-0.9,7.1-2.7,9.4c-1.7,2.2-3.9,3.4-6.6,3.4c-0.5,0-1,0-1.4-0.1
		c-0.5-0.1-0.9-0.2-1.3-0.4c-0.4-0.2-0.7-0.4-1-0.7c-0.3-0.3-0.4-0.6-0.4-1c0-0.9,0.1-1.5,0.3-1.9c0.3-0.5,0.8-0.8,1.7-0.8
		c0.1,0,0.3,0.1,0.5,0.4s0.3,0.5,0.5,0.8c0.2,0.3,0.3,0.5,0.5,0.8c0.1,0.2,0.3,0.4,0.3,0.4c-0.2-0.9-0.4-2-0.7-3.1
		c-0.2-1.1-0.5-2.3-0.7-3.5c-0.2-1.2-0.4-2.4-0.6-3.7c-0.2-1.2-0.4-2.4-0.5-3.6c-0.2-1.1-0.3-2.2-0.4-3.2c-0.1-1-0.1-1.9-0.1-2.6
		c0-4.3,0.5-7.9,1.4-10.8c1.1-3.5,2.7-5.3,4.8-5.3c1.5,0,2.6,0.2,3.5,0.7c0.9,0.5,1.5,1.2,2,2.1s0.7,1.9,0.9,3.1
		c0.1,1.2,0.2,2.5,0.2,3.9v3h-4.2V32.6z"/>
	<path class="or1" d="M136.5,35v-5.3h-1.9v37.5h-4.4V29.7h-2.1v9.9h-4.2V28.8h17V35H136.5z"/>
	<path class="or1" d="M150.5,29.5c0.2,0.4,0.4,1,0.6,1.8s0.5,1.6,0.7,2.6c0.3,1,0.5,2,0.8,3c0.2,1,0.5,2.1,0.7,3.1
		c0.2,1,0.4,2,0.6,2.9s0.3,1.7,0.5,2.4c0.1,0.7,0.2,1.2,0.3,1.5c0.2,1.5,0.4,2.7,0.4,3.7c0,1.7-0.2,3.4-0.6,5.2
		c-0.4,1.7-1,3.5-1.9,5.4c-1.9,4.1-3.9,6.2-6.1,6.2c-0.3,0-0.5-0.2-0.8-0.6s-0.5-1-0.7-1.7c-0.2-0.7-0.4-1.5-0.6-2.5
		c-0.2-1-0.4-2-0.6-3s-0.4-2.2-0.5-3.3s-0.3-2.3-0.4-3.4c-0.1-1.1-0.2-2.2-0.4-3.2c-0.1-1-0.2-1.9-0.3-2.7c-0.1-0.8-0.1-1.5-0.2-2
		c0-0.5-0.1-0.9-0.1-1c0-0.7,0.1-1.5,0.2-2.5c0.1-1,0.4-2.1,0.7-3.2c0.3-1.1,0.7-2.2,1.1-3.3c0.4-1.1,1-2.1,1.6-3s1.3-1.6,2-2.1
		s1.5-0.8,2.4-0.8C150.1,28.9,150.3,29.1,150.5,29.5z M147.7,32.3c-0.4,0.4-0.8,0.8-1.2,1.4s-0.7,1.2-1,2s-0.5,1.4-0.7,2.1
		s-0.4,1.4-0.5,2c-0.1,0.6-0.2,1.1-0.2,1.5c0,0.8,0.1,1.7,0.4,2.7c0.2,1,0.5,2,0.9,3c0.4,1.1,0.7,2.1,1.2,3.2
		c0.4,1.1,0.8,2.2,1.2,3.2c0.4,1,0.7,2.1,0.9,3s0.4,1.8,0.4,2.6c0,0.7-0.1,1.4-0.2,2.1s-0.3,1.5-0.6,2.3c0.5,0,0.9-0.2,1.3-0.6
		c0.4-0.4,0.8-1,1.1-1.6s0.6-1.4,0.9-2.2c0.2-0.8,0.5-1.6,0.6-2.4c0.2-0.8,0.3-1.5,0.4-2.1c0.1-0.7,0.1-1.1,0.1-1.5
		c0-0.4-0.1-1-0.3-1.7s-0.5-1.4-0.8-2.3c-0.3-0.8-0.7-1.7-1-2.6c-0.4-0.9-0.7-1.8-1-2.6c-0.3-0.8-0.6-1.6-0.8-2.3
		c-0.2-0.7-0.3-1.3-0.3-1.7c0-1.4,0.1-2.8,0.2-4.2c0.1-1.4,0.4-2.7,0.6-4C148.6,31.8,148.1,31.9,147.7,32.3z"/>
	<path class="or1" d="M166.3,47.2c0.3,0.1,0.6,0.3,0.8,0.6s0.4,0.5,0.6,0.8s0.2,0.7,0.2,1c0,0.4-0.1,0.7-0.2,1s-0.3,0.6-0.5,0.8
		c-0.2,0.2-0.5,0.4-0.8,0.5c-0.3,0.1-0.7,0.2-1,0.2c-0.5,0-0.8-0.1-1.2-0.2c-0.3-0.1-0.7-0.3-1-0.5c-0.3-0.2-0.7-0.5-1.1-0.9
		s-0.8-0.8-1.4-1.3v18h-4V28.8h13v13.5c-1.1,0.5-2.1,0.9-3.1,1.2s-1.8,0.7-2.5,1s-1.3,0.7-1.7,1s-0.6,0.8-0.6,1.3
		c0,0.7,0.1,1.3,0.3,1.9c0.2,0.6,0.5,1,0.9,1.3c0-0.4,0.1-0.8,0.2-1.1c0.1-0.4,0.3-0.7,0.5-1c0.2-0.3,0.5-0.5,0.8-0.7
		c0.3-0.2,0.7-0.2,1-0.2C165.6,47,166,47.1,166.3,47.2z M165.3,29.7h-4.6v14.9l4.6-2.1V29.7z"/>
	<path class="or1" d="M174.6,31.3c0.3,0.1,0.6,0.3,0.8,0.6s0.4,0.5,0.5,0.8s0.2,0.7,0.2,1c0,0.4-0.1,0.7-0.2,1s-0.3,0.6-0.5,0.8
		s-0.5,0.4-0.8,0.5c-0.3,0.1-0.7,0.2-1,0.2c-0.4,0-0.7-0.1-1-0.2c-0.3-0.1-0.6-0.3-0.8-0.5s-0.4-0.5-0.5-0.8s-0.2-0.6-0.2-1
		c0-0.6,0.1-1.2,0.2-1.8c0.2-0.6,0.4-1.1,0.7-1.5s0.7-0.8,1.2-1.1s1-0.4,1.7-0.4c1.5,0,2.6,0.4,3.3,1.3c0,0,0.1,0.1,0.1,0.2
		s0.2,0.3,0.3,0.4c0.1,0.2,0.2,0.3,0.3,0.4c0.1,0.1,0.2,0.2,0.2,0.2h0.1v-2.6h4.2v38.4h-4.2v-20l-4.2,3.4v16.6h-4.2V51.9l7.8-6.2v-1
		c0,0-0.2,0.1-0.4,0.2c-0.2,0.1-0.5,0.3-0.8,0.5c-0.3,0.2-0.7,0.3-1.1,0.5c-0.4,0.1-0.8,0.2-1.2,0.2c-0.6,0-1.1-0.1-1.7-0.4
		s-1-0.6-1.3-1.1s-0.7-1-0.9-1.5c-0.2-0.6-0.3-1.2-0.3-1.7c0-0.7,0.1-1.2,0.2-1.7s0.4-0.8,0.6-1.1s0.6-0.5,1-0.7s0.9-0.4,1.4-0.6
		c0.4-0.2,0.8-0.4,1.3-0.6c0.5-0.2,1-0.5,1.5-0.8s0.9-0.6,1.2-0.9c0.3-0.3,0.5-0.6,0.5-0.8v-1.8c0-0.3-0.1-0.5-0.3-0.8
		c-0.2-0.3-0.4-0.6-0.7-0.8c-0.3-0.3-0.6-0.5-1-0.7s-0.7-0.3-0.9-0.3c-0.3,0-0.5,0-0.9,0s-0.6,0.1-0.9,0.1s-0.5,0.2-0.7,0.3
		c-0.2,0.1-0.3,0.3-0.3,0.6c0,0,0,0.1,0.1,0.1s0.1,0.1,0.2,0.1c0.1,0,0.2,0.1,0.2,0.1s0.1,0,0.1,0C174,31.1,174.3,31.2,174.6,31.3z
		 M178.6,35.5c-0.4,0.4-0.8,0.8-1.2,1.1s-0.8,0.8-1.2,1.2c-0.4,0.4-0.6,0.8-0.8,1.4s-0.3,1.1-0.3,1.6c0,0.4,0,0.8,0.1,1.2
		s0.2,0.8,0.4,1.1c0.2,0.3,0.4,0.6,0.6,0.8c0.2,0.2,0.5,0.3,0.9,0.3c1.5,0,2.2-0.6,2.2-1.8v-7H178.6z"/>
	<path class="or1" d="M194.2,51.6V28.9h4.4v38.4h-4.4V56.6l-1.7,1.9l-0.7-3.1l1.1-1.4c0.1-0.1,0.1-0.2,0.1-0.4c0-0.1,0-0.3,0-0.5
		c0-0.7-0.2-1.5-0.5-2.5l-2.5-6.4v23h-4.5V28.9h4.5v11l1.8-2l0.8,2.9l-1.3,1.6c-0.2,0.2-0.2,0.5-0.2,1c0,0.1,0,0.3,0,0.4
		s0.1,0.3,0.1,0.5L194.2,51.6z"/>
	<path class="or1" d="M208.5,48.8c-0.3-0.2-0.6-0.4-0.8-0.7c-0.2-0.3-0.4-0.5-0.5-0.8c-0.1-0.3-0.2-0.5-0.2-0.8
		c-0.2,0.3-0.4,0.6-0.6,0.9c-0.1,0.3-0.3,0.5-0.4,0.9s-0.2,0.6-0.2,0.9c0,0.5,0.2,1,0.7,1.3c0.4,0.4,1,0.7,1.8,1.1s1.6,0.7,2.5,1
		s2,0.7,3,1.1v13.5h-13V28.9h4v18c0.5-0.5,1-0.9,1.4-1.3s0.7-0.7,1.1-0.9c0.3-0.2,0.7-0.4,1-0.5c0.3-0.1,0.7-0.2,1.2-0.2
		c0.4,0,0.7,0.1,1,0.2c0.3,0.1,0.6,0.3,0.8,0.5c0.2,0.2,0.4,0.5,0.5,0.8c0.1,0.3,0.2,0.7,0.2,1c0,0.4-0.1,0.7-0.2,1
		s-0.3,0.6-0.5,0.8s-0.5,0.4-0.8,0.6s-0.6,0.2-1,0.2S208.8,49,208.5,48.8z M209.4,66.4V53.6l-4.6-2.1v14.9H209.4z"/>
</g>
<path class="or0" d="M68.9,51.4l1.1-0.8c-9.3-11.4-18.7-11-29.9-9.1c-8.2,1.4-11.4-4.9-9.1-7.7c1-1.2,2.7-1.3,3.5-0.4
	c-1.7,0.1-2.3,2.9-0.8,3.8c2,1.3,4.1-1.1,4-3.3c-0.1-1.6-1.9-5-6.5-3.6c-6.7,2.1-5,13.3,6.5,13.5C46.9,44,55.3,37.4,68.9,51.4
	L68.9,51.4z"/>
<path class="or0" d="M8.3,56.6c0.8-1.4,1.1-3.2,6.4-6.1c1.8-1,3.3-2,4.1-3.3c1.3-2.1,1.3-5.6,0.2-6.9c0.9-0.2,7.5,4.1,1.8,8.9
	C16.3,53,12.3,51.2,8.3,56.6L8.3,56.6z"/>
<path class="or0" d="M3.1,66.6c-1.7-0.3-2.3-4.1,0.3-5.1c3.2-1.2,6.4,2.5,7.2,4.6c-1-0.6-4.2-2.6-6.3-1.9C3.5,64.5,3,65.2,3.1,66.6
	L3.1,66.6z"/>
<path class="or0" d="M11.6,64.9c-4.8-4.2-3.1-8.8,0.3-9.8c3.6-1,6.6,3.3,3.8,5.7c0-2.1-2-2.2-3.3-1.8C10.9,59.5,10.5,61.7,11.6,64.9
	L11.6,64.9z"/>
<path class="or0" d="M11.8,65c2.1,1,5.5,2.3,10.2-5.2c2.4-3.7,5.9-7.9,9.8-10.7c3.9-2.9,7.5-3.7,10.4-4.1
	C25.8,54.1,29,60.8,22.5,65.4C18.6,68.2,14.1,67.9,11.8,65L11.8,65z"/>
<path class="or0" d="M62.1,48.1c-1-0.3-4.5-3.1-11.1-0.9c-3.4,1.1-5.2,3.7-5.5,6.1C45.3,55.7,46,58,47.6,59c2.9,1.9,7.1,1.3,7.8-2.1
	c0.7-3.4-3.1-4.7-3.8-4.9c1-1.6,4.8-1.4,6.3-0.3c1.5,1.1,1.3,3,1.4,4.8c0.2,0.7,2.6,0.7,3,0.5c0.1,1.5-0.6,3.3-3.1,3.2
	c0,0-0.2,1.5-0.1,2.5c-0.5,0.7-2.3,0.8-2.9,0.9c-0.1,0.3,0,1.3,0.4,2.5c-1.1,0.7-5.3,0.8-6.7-0.1c-0.3,0.1-0.3,1.1-0.5,2
	C44,68.3,43,66,43.1,64c-0.3,0.1-6.1,2.7-5.8-7.7C37.8,40.1,60.2,43.2,62.1,48.1L62.1,48.1z"/>
<path class="or0" d="M231.1,51.4c13.6-14,22-7.4,31.2-7.5c11.5-0.2,13.2-11.4,6.5-13.5c-4.6-1.4-6.5,2-6.5,3.6c-0.1,2.2,2,4.6,4,3.3
	c1.5-0.9,0.9-3.7-0.8-3.8c0.8-0.9,2.5-0.8,3.5,0.4c2.3,2.8-0.9,9.1-9.1,7.7c-11.1-2-20.5-2.3-29.9,9.1L231.1,51.4L231.1,51.4z"/>
<path class="or0" d="M291.7,56.6c-4-5.4-8-3.6-12.4-7.4c-5.7-4.8,0.9-9.1,1.8-8.9c-1.2,1.3-1.1,4.8,0.2,6.9c0.8,1.3,2.3,2.3,4.1,3.3
	C290.6,53.4,290.9,55.2,291.7,56.6L291.7,56.6z"/>
<path class="or0" d="M296.9,66.6c0.1-1.4-0.4-2.2-1.3-2.4c-2.1-0.7-5.3,1.3-6.3,1.9c0.8-2.1,4-5.9,7.2-4.6
	C299.2,62.5,298.6,66.3,296.9,66.6L296.9,66.6z"/>
<path class="or0" d="M288.4,64.9c1.1-3.2,0.7-5.4-0.8-5.8c-1.3-0.4-3.3-0.3-3.3,1.8c-2.7-2.4,0.3-6.8,3.8-5.7
	C291.5,56.1,293.2,60.8,288.4,64.9L288.4,64.9z"/>
<path class="or0" d="M288.2,65c-2.3,2.9-6.7,3.1-10.7,0.3c-6.5-4.6-3.3-11.3-19.8-20.3c3,0.4,6.5,1.3,10.4,4.1
	c3.9,2.8,7.5,7,9.8,10.7C282.7,67.4,286,66.1,288.2,65L288.2,65z"/>
<path class="or0" d="M237.9,48.1c1.9-4.9,24.3-8,24.8,8.2c0.3,10.4-5.5,7.8-5.8,7.7c0,2.1-0.9,4.3-6.4,4c-0.2-0.9-0.3-1.9-0.5-2
	c-1.4,0.9-5.6,0.8-6.7,0.1c0.5-1.2,0.5-2.2,0.4-2.5c-0.6,0-2.4-0.1-2.9-0.9c0.1-1-0.1-2.5-0.1-2.5c-2.5,0.1-3.2-1.7-3.1-3.2
	c0.4,0.2,2.8,0.1,3-0.5c0.1-1.8-0.1-3.7,1.4-4.8c1.5-1.1,5.3-1.3,6.3,0.3c-0.8,0.2-4.6,1.4-3.8,4.9s4.9,4,7.8,2.1
	c1.6-1,2.3-3.3,2.1-5.7c-0.2-2.5-2.1-5.1-5.5-6.1C242.4,45.1,238.9,47.8,237.9,48.1L237.9,48.1z"/>
<rect x="216" y="29" class="or1" width="4" height="38"/>
</svg>
