<?xml version="1.0" encoding="utf-8"?>
<!-- Generator: Adobe Illustrator 21.0.2, SVG Export Plug-In . SVG Version: 6.00 Build 0)  -->
<svg version="1.1" id="Restaurants" xmlns="http://www.w3.org/2000/svg" xmlns:xlink="http://www.w3.org/1999/xlink" x="0px"
	 y="0px" viewBox="0 0 323.7 57.5" style="enable-background:new 0 0 323.7 57.5;" xml:space="preserve">
<style type="text/css">
	.restaurants0{fill:#671700;}
	.restaurants1{fill:#C9A468;}
</style>
<g>
	<path class="restaurants0" d="M136.9,14.2h-5.1v-0.6c0.5-0.2,1.1-0.4,1.6-0.5V1.3c-0.6-0.1-1.2-0.3-1.6-0.5V0.2h5.1v0.6
		c-0.2,0.1-0.5,0.2-0.7,0.3s-0.5,0.1-0.8,0.2v5.2h6.3V1.3c-0.3-0.1-0.5-0.1-0.8-0.2s-0.5-0.2-0.7-0.3V0.2h5.1v0.6
		c-0.2,0.1-0.5,0.2-0.8,0.3s-0.6,0.1-0.9,0.2v11.9c0.3,0.1,0.6,0.1,0.9,0.2c0.3,0.1,0.5,0.2,0.8,0.3v0.6h-5.1v-0.6
		c0.5-0.2,1-0.4,1.5-0.5V7.6h-6.3v5.6c0.3,0.1,0.5,0.1,0.8,0.2s0.5,0.2,0.7,0.3V14.2z"/>
	<path class="restaurants0" d="M150.3,14.2h-4.4v-0.6c0.5-0.2,1-0.4,1.4-0.5l5-13.1h0.6l5.1,13.2c0.3,0.1,0.5,0.1,0.8,0.2
		c0.3,0.1,0.5,0.2,0.7,0.3v0.6h-5.2v-0.6c0.3-0.1,0.5-0.2,0.8-0.3s0.6-0.1,0.8-0.2l-1.4-3.7h-4.8l-1.3,3.7c0.6,0.1,1.1,0.2,1.7,0.5
		v0.5H150.3z M150.3,8.5h4l-1.6-4.3l-0.4-1.7l0,0l-0.5,1.8L150.3,8.5z"/>
	<path class="restaurants0" d="M166.6,0.2h4.5v0.6c-0.2,0.1-0.4,0.2-0.6,0.3c-0.2,0.1-0.4,0.2-0.7,0.2v11.9h4.4V1.3c-0.5-0.1-0.9-0.3-1.3-0.5
		V0.2h4.6v0.6c-0.2,0.1-0.4,0.2-0.6,0.3c-0.2,0.1-0.5,0.2-0.8,0.2v11.9c0.5,0.1,1,0.3,1.4,0.5v0.6h-17.4v-0.6c0.5-0.2,1-0.4,1.4-0.5
		V1.3c-0.3-0.1-0.5-0.1-0.7-0.2s-0.5-0.2-0.7-0.3V0.2h4.7v0.6c-0.3,0.2-0.8,0.3-1.3,0.5v11.9h4.4V1.3c-0.3-0.1-0.5-0.2-0.7-0.3
		s-0.4-0.2-0.6-0.3L166.6,0.2L166.6,0.2z"/>
	<path class="restaurants0" d="M183.7,14.2h-5v-0.6c0.5-0.2,1.1-0.4,1.6-0.5V1.3c-0.3-0.1-0.5-0.1-0.8-0.2s-0.6-0.2-0.8-0.3V0.2h5.1v0.6
		c-0.2,0.1-0.4,0.2-0.7,0.3s-0.5,0.2-0.8,0.2V10l-0.2,1.5l1-1.6l5.9-8.1V1.3c-0.3-0.1-0.6-0.1-0.9-0.2c-0.3-0.1-0.5-0.2-0.8-0.3V0.2
		h5.1v0.6c-0.2,0.1-0.5,0.2-0.8,0.3s-0.6,0.2-0.9,0.2v11.9c0.6,0.1,1.2,0.3,1.6,0.5v0.6h-5.1v-0.6c0.2-0.1,0.4-0.2,0.7-0.3
		s0.5-0.2,0.8-0.2V4.5l0.2-1.5L188,4.5l-5.9,8.2v0.4c0.3,0.1,0.6,0.1,0.9,0.2s0.5,0.2,0.8,0.3v0.6H183.7z"/>
</g>
<path class="restaurants0" d="M67.3,39.7l1.1-0.8c-9.3-11.4-18.7-11-29.9-9.1c-8.2,1.4-11.4-4.9-9.1-7.7c1-1.2,2.7-1.3,3.5-0.4
	c-1.7,0.1-2.3,2.9-0.8,3.8c2,1.3,4.1-1.1,4-3.3c-0.1-1.6-1.9-5-6.5-3.6c-6.7,2.1-5,13.3,6.5,13.5C45.3,32.3,53.7,25.7,67.3,39.7
	L67.3,39.7z"/>
<path class="restaurants0" d="M6.7,44.9c0.8-1.4,1.1-3.2,6.4-6.1c1.8-1,3.3-2,4.1-3.3c1.3-2.1,1.3-5.6,0.2-6.9c0.9-0.2,7.5,4.1,1.8,8.9
	C14.7,41.3,10.7,39.5,6.7,44.9L6.7,44.9z"/>
<path class="restaurants0" d="M1.5,54.9c-1.7-0.3-2.3-4.1,0.3-5.1C5,48.6,8.2,52.3,9,54.4c-1-0.6-4.2-2.6-6.3-1.9C1.9,52.8,1.4,53.5,1.5,54.9
	L1.5,54.9z"/>
<path class="restaurants0" d="M10,53.2c-4.8-4.2-3.1-8.8,0.3-9.8c3.6-1,6.6,3.3,3.8,5.7c0-2.1-2-2.2-3.3-1.8C9.3,47.8,8.9,50,10,53.2L10,53.2
	z"/>
<path class="restaurants0" d="M10.2,53.3c2.1,1,5.5,2.3,10.2-5.2c2.4-3.7,5.9-7.9,9.8-10.7c3.9-2.9,7.5-3.7,10.4-4.1
	c-16.4,9.1-13.2,15.8-19.7,20.4C17,56.5,12.5,56.2,10.2,53.3L10.2,53.3z"/>
<path class="restaurants0" d="M60.5,36.4c-1-0.3-4.5-3.1-11.1-0.9c-3.4,1.1-5.2,3.7-5.5,6.1c-0.2,2.4,0.5,4.7,2.1,5.7
	c2.9,1.9,7.1,1.3,7.8-2.1c0.7-3.4-3.1-4.7-3.8-4.9c1-1.6,4.8-1.4,6.3-0.3c1.5,1.1,1.3,3,1.4,4.8c0.2,0.7,2.6,0.7,3,0.5
	c0.1,1.5-0.6,3.3-3.1,3.2c0,0-0.2,1.5-0.1,2.5c-0.5,0.7-2.3,0.8-2.9,0.9c-0.1,0.3,0,1.3,0.4,2.5c-1.1,0.7-5.3,0.8-6.7-0.1
	c-0.3,0.1-0.3,1.1-0.5,2c-5.4,0.3-6.4-2-6.3-4c-0.3,0.1-6.1,2.7-5.8-7.7C36.2,28.4,58.6,31.5,60.5,36.4L60.5,36.4z"/>
<path class="restaurants0" d="M256.4,39.7c13.6-14,22-7.4,31.2-7.5c11.5-0.2,13.2-11.4,6.5-13.5c-4.6-1.4-6.5,2-6.5,3.6c-0.1,2.2,2,4.6,4,3.3
	c1.5-0.9,0.9-3.7-0.8-3.8c0.8-0.9,2.5-0.8,3.5,0.4c2.3,2.8-0.9,9.1-9.1,7.7c-11.1-2-20.5-2.3-29.9,9.1L256.4,39.7L256.4,39.7z"/>
<path class="restaurants0" d="M317,44.9c-4-5.4-8-3.6-12.4-7.4c-5.7-4.8,0.9-9.1,1.8-8.9c-1.2,1.3-1.1,4.8,0.2,6.9c0.8,1.3,2.3,2.3,4.1,3.3
	C315.9,41.7,316.2,43.5,317,44.9L317,44.9z"/>
<path class="restaurants0" d="M322.2,54.9c0.1-1.4-0.4-2.2-1.3-2.4c-2.1-0.7-5.3,1.3-6.3,1.9c0.8-2.1,4-5.9,7.2-4.6
	C324.5,50.8,323.9,54.6,322.2,54.9L322.2,54.9z"/>
<path class="restaurants0" d="M313.7,53.2c1.1-3.2,0.7-5.4-0.8-5.8c-1.3-0.4-3.3-0.3-3.3,1.8c-2.7-2.4,0.3-6.8,3.8-5.7
	C316.8,44.4,318.5,49.1,313.7,53.2L313.7,53.2z"/>
<path class="restaurants0" d="M313.5,53.3c-2.3,2.9-6.7,3.1-10.7,0.3c-6.5-4.6-3.3-11.3-19.8-20.3c3,0.4,6.5,1.3,10.4,4.1s7.5,7,9.8,10.7
	C308,55.7,311.3,54.4,313.5,53.3L313.5,53.3z"/>
<path class="restaurants0" d="M263.2,36.4c1.9-4.9,24.3-8,24.8,8.2c0.3,10.4-5.5,7.8-5.8,7.7c0,2.1-0.9,4.3-6.4,4c-0.2-0.9-0.3-1.9-0.5-2
	c-1.4,0.9-5.6,0.8-6.7,0.1c0.5-1.2,0.5-2.2,0.4-2.5c-0.6,0-2.4-0.1-2.9-0.9c0.1-1-0.1-2.5-0.1-2.5c-2.5,0.1-3.2-1.7-3.1-3.2
	c0.4,0.2,2.8,0.1,3-0.5c0.1-1.8-0.1-3.7,1.4-4.8s5.3-1.3,6.3,0.3c-0.8,0.2-4.6,1.4-3.8,4.9c0.8,3.5,4.9,4,7.8,2.1
	c1.6-1,2.3-3.3,2.1-5.7c-0.2-2.5-2.1-5.1-5.5-6.1C267.7,33.4,264.2,36.1,263.2,36.4L263.2,36.4z"/>
<g>
	<path class="restaurants1" d="M78.1,54.7v-0.5H80V34.8c0-0.7-0.1-1.1-0.4-1.4c-0.2-0.3-0.8-0.4-1.6-0.4v-0.6h3.6v1.3c1.1-0.5,2.2-1,3.2-1.3
		c1.1-0.3,2.1-0.5,3.1-0.5c0.2,0,0.4,0,0.7,0s0.5,0,0.7,0.1c2.2,0.3,4.1,1.2,5.6,2.8c1.6,1.5,2.4,3.3,2.4,5.4V41
		c0,2.1-0.6,4-1.8,5.7c-1.2,1.6-2.8,2.8-4.9,3.4c-0.5,0.1-1,0.3-1.7,0.4c-0.7,0.1-1.3,0.2-1.7,0.2c-0.9,0-1.9-0.1-2.8-0.4
		c-0.9-0.3-1.8-0.7-2.7-1.2l0,1.9c0,1.1,0.1,2,0.4,2.5c0.1,0.2,0.4,0.4,0.7,0.5c0.3,0.1,0.7,0.2,1.1,0.2h0.9v0.5H78.1z M95.8,41.1
		c0-2.4-0.8-4.4-2.4-6c-1.6-1.6-3.5-2.4-5.8-2.4c-1,0-2.1,0.2-3,0.6c-1,0.4-1.9,1-2.8,1.8v12.1c0.7,0.9,1.6,1.5,2.6,2
		c1.1,0.5,2.1,0.7,3.2,0.7c2.2,0,4-0.7,5.6-2.2C94.9,46.1,95.8,43.9,95.8,41.1z"/>
	<path class="restaurants1" d="M102.4,39.1h3v-3.5h0.4v7.7h-0.4v-0.8c0-1.2-0.1-1.9-0.4-2.2c-0.4-0.4-1.2-0.6-2.6-0.6v14.4l2.6,0.1
		c1.9,0,3.1-0.3,3.5-0.9c0.4-0.6,0.6-2.2,0.6-4.8h0.5v7.8h-0.5v-1.6H98.8v-0.5h1.9V34.6c0-0.6-0.1-1.1-0.4-1.3
		c-0.2-0.2-0.8-0.4-1.6-0.4v-0.5h10.3v-1.6h0.5V39h-0.5c0-2.9-0.2-4.6-0.6-5.2c-0.4-0.6-1.6-0.9-3.7-0.9h-2.4V39.1z"/>
	<path class="restaurants1" d="M129.8,52.3c-1,1-2.1,1.7-3.3,2.1c-1.2,0.5-2.5,0.7-3.8,0.7c-2.6,0-4.9-0.8-7-2.4c-2.2-1.7-3.5-3.9-4.1-6.6
		c-0.1-0.4-0.2-0.9-0.2-1.3c-0.1-0.5-0.1-0.9-0.1-1.3c0-3.3,1.1-6,3.4-8.2c2.3-2.1,5.1-3.2,8.3-3.2c1.6,0,3.2,0.3,4.9,0.9v-2.2h0.5
		v8.6h-0.5v-2c0-0.6,0-1.2-0.1-1.6c-0.1-0.5-0.3-0.9-0.5-1.3c-0.4-0.5-1-0.9-1.7-1.2c-0.8-0.3-1.5-0.4-2.3-0.4h-0.4
		c-2.5,0-4.8,0.9-6.8,2.8c-2,1.9-3,4-3,6.5v1c0,3.2,1.1,5.9,3.2,8.2c2.1,2.1,4.4,3.2,7.1,3.2c1.1,0,2.2-0.2,3.3-0.6
		c1-0.4,2-1,2.8-1.9L129.8,52.3z"/>
	<path class="restaurants1" d="M136.5,32.9h-1.6c-0.7,0-1.3,0.1-1.8,0.2c-0.5,0.1-0.8,0.3-1,0.7c-0.2,0.3-0.4,0.8-0.5,1.4
		c-0.1,0.6-0.2,1.2-0.2,1.8l0.1,2.7H131v-8.9h0.5v1.6h11.7v-1.6h0.5v8.9h-0.5v-3.3c0-1.5-0.3-2.4-0.9-2.8c-0.6-0.4-1.9-0.6-4.1-0.6
		v18v0.8c0,1.1,0.2,1.8,0.5,2.1c0.4,0.3,1.2,0.4,2.6,0.4v0.6h-7.7v-0.6h2.8V32.9z"/>
	<path class="restaurants1" d="M168.8,48.1c-1,2.1-2.5,3.8-4.7,5.1c-2.2,1.3-4.5,1.9-6.9,1.9c-1.6,0-3.1-0.3-4.5-0.8
		c-2.2-0.9-3.9-2.3-5.1-4.2c-1.2-2-1.9-4.1-1.9-6.4c0-1.6,0.3-3.1,0.9-4.6c0.9-2.2,2.4-3.9,4.5-5.2c2.1-1.3,4.4-2,6.8-2
		c1.8,0,3.5,0.4,5.1,1.1c2.1,0.9,3.7,2.3,4.9,4.2c1.2,1.9,1.8,3.9,1.8,6.1c0,0.8-0.1,1.6-0.2,2.4C169.4,46.5,169.2,47.3,168.8,48.1z
		 M168.1,43.3c0-2.9-1-5.4-3.1-7.5c-2.1-2.1-4.6-3.2-7.5-3.2c-3,0-5.4,1.1-7.3,3.2c-1.9,2.1-2.9,4.7-2.9,7.7v0.4
		c0,3.3,1.1,5.9,3.2,7.8c2,1.8,4.3,2.6,7.1,2.6s5.1-0.9,7.1-2.8c2.2-2,3.3-4.7,3.3-8V43.3z"/>
	<path class="restaurants1" d="M171.2,54.7v-0.5h1.9V34.8c0-0.7-0.1-1.1-0.4-1.4c-0.2-0.3-0.8-0.4-1.6-0.4v-0.6h3.6v1.3
		c1.1-0.5,2.2-1,3.2-1.3c1.1-0.3,2.1-0.5,3.1-0.5c0.2,0,0.4,0,0.7,0s0.5,0,0.7,0.1c2.2,0.3,4.1,1.2,5.6,2.8c1.6,1.5,2.4,3.3,2.4,5.4
		V41c0,2.1-0.6,4-1.8,5.7c-1.2,1.6-2.8,2.8-4.9,3.4c-0.5,0.1-1,0.3-1.7,0.4c-0.7,0.1-1.3,0.2-1.7,0.2c-0.9,0-1.9-0.1-2.8-0.4
		c-0.9-0.3-1.8-0.7-2.7-1.2l0,1.9c0,1.1,0.1,2,0.4,2.5c0.1,0.2,0.4,0.4,0.7,0.5c0.3,0.1,0.7,0.2,1.1,0.2h0.9v0.5H171.2z M188.9,41.1
		c0-2.4-0.8-4.4-2.4-6c-1.6-1.6-3.5-2.4-5.8-2.4c-1,0-2.1,0.2-3,0.6c-1,0.4-1.9,1-2.8,1.8v12.1c0.7,0.9,1.6,1.5,2.6,2
		c1.1,0.5,2.1,0.7,3.2,0.7c2.2,0,4-0.7,5.6-2.2C188,46.1,188.9,43.9,188.9,41.1z"/>
	<path class="restaurants1" d="M191.2,54.7v-0.6h1.2l6.2-23.2l6.4,20.9c0.2,0.7,0.4,1.2,0.4,1.3c0.3,0.7,0.9,1,1.6,1v0.6h-5v-0.6l2,0
		L199.9,40h-3.1l-2.7,11.1c-0.1,0.2-0.1,0.4-0.2,0.7c0,0.3-0.1,0.5-0.1,0.7c0,0.6,0.2,1,0.7,1.2c0.5,0.2,1.3,0.3,2.4,0.3v0.6H191.2z
		 M197.1,39.4l2.7,0l-1.5-4.9L197.1,39.4z"/>
	<path class="restaurants1" d="M220.7,50.9V52c0,0.7,0.1,1.2,0.4,1.6s0.8,0.5,1.6,0.5v0.6h-5.5v-0.6h2V39.7h-7.3v11.1v0.4
		c0,1.2,0.1,1.9,0.4,2.3c0.3,0.4,1,0.5,2.1,0.5v0.6h-6.1v-0.6h1.9V34.7c0-0.7-0.1-1.2-0.4-1.4S209,33,208.2,33v-0.6h5.6V33h-2v6.2
		h7.3v-4c0-0.9-0.1-1.5-0.2-1.7c-0.2-0.3-0.8-0.5-1.7-0.5v-0.6h5.5V33h-1.9V50.9z"/>
	<path class="restaurants1" d="M227.7,32.9v6.2h1.2c2.4,0,4.2,0.1,5.5,0.4c2,0.5,3.6,1.4,4.6,2.8c1.1,1.4,1.6,3,1.6,4.9
		c0,1.1-0.2,2.2-0.7,3.3c-0.7,1.5-1.7,2.6-3.2,3.4c-1.3,0.7-2.8,1-4.5,1c-1.5,0-3.1-0.3-4.6-0.8v0.6h-3.4v-0.6h1.9V34.7
		c0-0.7-0.1-1.1-0.4-1.4c-0.2-0.3-0.8-0.4-1.6-0.4v-0.5h5.6v0.6L227.7,32.9z M236.4,41.3c-0.7-0.5-1.6-0.9-2.7-1.1
		c-1.1-0.2-2.2-0.3-3.4-0.3h-2.6v8.5v1.8c0,1.3,0.2,2.3,0.6,2.9c0.3,0.5,0.8,0.8,1.4,1c0.6,0.2,1,0.3,1.2,0.3
		c0.3,0.1,0.6,0.1,0.9,0.1c1.2,0,2.4-0.3,3.5-0.9c1.1-0.6,1.9-1.4,2.5-2.5c0.7-1.2,1-2.6,1-4.2c0-1.2-0.2-2.2-0.6-3.2
		C237.9,42.7,237.2,41.9,236.4,41.3z M242.5,36.1v-1.2c0-0.7-0.1-1.2-0.3-1.5c-0.3-0.3-0.8-0.5-1.7-0.5v-0.5h5.8v0.5h-2.1v18v1
		c0,0.8,0.1,1.3,0.3,1.6c0.3,0.4,0.9,0.6,1.8,0.6v0.6h-5.8v-0.6h2V36.1z"/>
</g>
</svg>
