<?xml version="1.0" encoding="utf-8"?>
<!-- Generator: Adobe Illustrator 21.0.2, SVG Export Plug-In . SVG Version: 6.00 Build 0)  -->
<svg version="1.1" id="Capa_1" xmlns="http://www.w3.org/2000/svg" xmlns:xlink="http://www.w3.org/1999/xlink" x="0px" y="0px"
	 viewBox="0 0 512 512" style="enable-background:new 0 0 512 512;" xml:space="preserve">
<style type="text/css">
	.vk{fill:#671700;}
</style>
<g>
	<path class="vk" d="M256,0C114.6,0,0,114.6,0,256s114.6,256,256,256s256-114.6,256-256S397.4,0,256,0z M385.9,283.7
		c11.9,11.7,24.6,22.6,35.3,35.5c4.7,5.7,9.2,11.6,12.6,18.2c4.9,9.4,0.5,19.8-8,20.3l-52.4,0c-13.5,1.1-24.3-4.3-33.4-13.6
		c-7.3-7.4-14-15.3-21-22.9c-2.9-3.1-5.9-6.1-9.4-8.4c-7.1-4.7-13.4-3.2-17.5,4.2c-4.2,7.6-5.1,16-5.5,24.5
		c-0.6,12.4-4.3,15.6-16.7,16.2c-26.5,1.2-51.7-2.8-75.1-16.1c-20.6-11.8-36.6-28.4-50.5-47.3c-27.1-36.7-47.8-77-66.5-118.5
		c-4.2-9.3-1.1-14.3,9.2-14.5c17.1-0.3,34.2-0.3,51.4,0c7,0.1,11.6,4.1,14.3,10.7c9.3,22.8,20.6,44.4,34.8,64.5
		c3.8,5.3,7.7,10.7,13.2,14.5c6.1,4.2,10.7,2.8,13.6-4c1.8-4.3,2.6-8.9,3-13.5c1.4-15.8,1.5-31.6-0.8-47.4
		c-1.5-9.9-7-16.2-16.8-18.1c-5-0.9-4.3-2.8-1.8-5.7c4.2-4.9,8.2-8,16.1-8l59.3,0c9.3,1.8,11.4,6,12.7,15.4l0.1,65.9
		c-0.1,3.6,1.8,14.4,8.4,16.8c5.2,1.7,8.7-2.5,11.8-5.8c14.2-15.1,24.3-32.9,33.4-51.3c4-8.1,7.5-16.5,10.8-25
		c2.5-6.2,6.4-9.3,13.4-9.2l57.1,0.1c1.7,0,3.4,0,5.1,0.3c9.6,1.6,12.3,5.8,9.3,15.2c-4.7,14.7-13.8,27-22.7,39.3
		c-9.5,13.2-19.7,25.9-29.1,39.1C374.4,267.1,375.1,273.2,385.9,283.7z"/>
</g>
</svg>
