<?xml version="1.0" encoding="utf-8"?>
<!-- Generator: Adobe Illustrator 21.0.2, SVG Export Plug-In . SVG Version: 6.00 Build 0)  -->
<svg version="1.1" id="logo" xmlns="http://www.w3.org/2000/svg" xmlns:xlink="http://www.w3.org/1999/xlink" x="0px" y="0px"
	 viewBox="0 0 163.6 65.3" style="enable-background:new 0 0 163.6 65.3;" xml:space="preserve">
<style type="text/css">
	.st20{fill:#fff;}
	.st21{fill:#fff;}
	.st22{fill:#e9dfd1;}
</style>
<path class="st20" d="M120.3,0.2c5.9,5.7,12.5,11.7,16.5,13.7c2.5,1.3,4.6,1.4,5.9,0.5c1.2-0.8,2.5-2.2,3.9-3
	c2.9-1.7,4.2-1.1,5.2-0.8c-1,0.5-2.4,0.5-3.7,2.4c-2.4,3.4-5.7,7-10.3,4.8c-4-1.9-10.2-7.9-19.9-17.6"/>
<path class="st20" d="M154.8,37.5c-0.3,0.2-0.7,0.3-1,0.3c0,0.2-0.1,0.4-0.2,0.6c-0.5,0.8-1.4,1.2-2,0.9c-0.6-0.4-0.7-1.3-0.3-2.2
	c0.3-0.6,0.9-1,1.4-1c0.2-0.3,0.5-0.7,0.8-0.9c0.8-0.5,1.8-0.4,2.2,0.2C156.1,36.2,155.7,37.1,154.8,37.5L154.8,37.5z"/>
<path class="st20" d="M140.3,20.6c9.3,4.1,13.8-1.8,16.2-5.7c1.7-2.8,4.9-1.8,5.6-0.4c0.5,1,0.1,2.3-1,2.7c-0.2-0.2-0.1-1-0.8-1.1
	c-1.8-0.1-1.4,1.5-0.7,2c0.8,0.5,1.9,0.5,2.7-0.3c4.3-3.9-2.9-10.7-9.4-6.1c-2.5,1.7-3.1,4.9-5.7,6.8
	C145.8,19.6,143.7,20.2,140.3,20.6L140.3,20.6z"/>
<path class="st20" d="M123.2,0c2.2,4.1,7.2,7.6,11.9,7.6c1.8,0,3.5-0.1,4.3,0.7c0.5,0.5,0.6,2.2-0.8,2.4c1.1,2.1,6.3,0.2,4.2-4.5
	c-0.4-0.8-1.2-1.3-1.9-1.6c-1.9-1-4.6-0.2-9.1-1.2C129.5,3,126.5,2.1,123.2,0L123.2,0z"/>
<path class="st20" d="M141.9,25.9l-0.2-0.2c0,0,3.7,8.4-2.6,10.3c3.6,0.8,6.2-1.2,7.5-2.8c0.4,0.2,0.5,1,0.5,1.7
	c-0.6,0.2-1.1,0.8-1.1,1.5c0,0.9,0.7,1.6,1.6,1.6c0.9,0,1.6-0.7,1.6-1.6c0-0.7-0.4-1.2-1-1.5c0-1.1-0.3-2.6-0.5-3.2
	c0.4,0.2,2.2,0.6,3.5,0.5c0.2,0.6,0.8,1,1.5,1c0.9,0,1.6-0.7,1.5-1.6c0-0.9-0.7-1.6-1.6-1.6c-0.7,0-1.3,0.5-1.5,1.1
	c-0.7,0-1.4-0.1-1.7-0.5c1.5-1.3,3.6-4,2.7-7.5C150.4,29.2,142.7,26.2,141.9,25.9L141.9,25.9z"/>
<path class="st20" d="M113.8,0.2c11.1,10.6,17.7,17.3,20,21.5c2.3,4.5-1.3,7.9-4.6,10.3c-1.9,1.4-1.9,2.8-2.4,3.7
	c-0.3-1-0.9-2.3,0.7-5.2c0.8-1.4,2.2-2.7,3-4s0.7-3.4-0.6-5.9c-2.7-4.9-11.5-13.8-18.4-20.4"/>
<path class="st20" d="M136.4,24.2c4.3,9.3-1.6,13.8-5.5,16.3c-2.7,1.8-1.8,5-0.3,5.6c1,0.4,2.3,0.1,2.7-1c-0.2-0.2-1-0.1-1.1-0.8
	c-0.1-1.8,1.5-1.4,2-0.7c0.5,0.8,0.5,1.9-0.2,2.7c-3.8,4.3-10.7-2.7-6.3-9.3c1.7-2.5,4.9-3.1,6.7-5.8
	C135.5,29.7,136,27.6,136.4,24.2L136.4,24.2z"/>
<path class="st20" d="M115.6,7.4c2.2,3.2,3.1,6.3,3.6,8.6c1,4.5,0.3,7.3,1.3,9.1c0.3,0.6,0.8,1.5,1.6,1.8c4.7,2,6.6-3.3,4.4-4.3
	c-0.2,1.5-1.8,1.4-2.4,0.9c-0.9-0.8-0.8-2.5-0.8-4.3C123.3,14.5,119.7,9.6,115.6,7.4L115.6,7.4z"/>
<path class="st20" d="M107.9,0.2c6.5,8,5.9,16.2,4.3,25.6c-1.5,8.4,5,11.7,7.9,9.3c1.3-1,1.4-2.8,0.4-3.6c-0.1,1.7-2.9,2.3-3.9,0.8
	c-1.3-2,1.1-4.2,3.4-4.1c1.6,0.1,5.1,2,3.7,6.7c-2.2,6.9-13.6,5.2-13.8-6.6c-0.3-8.6,5.2-16.4-4.2-28.1"/>
<path class="st20" d="M96.6,58.4c1.4-0.8,3.3-1.1,6.3-6.5c1-1.9,2-3.4,3.3-4.2c2.2-1.3,5.7-1.4,7.1-0.2c0.2-0.9-4.2-7.6-9.1-1.8
	C100.3,50.3,102.1,54.4,96.6,58.4L96.6,58.4z"/>
<path class="st20" d="M86.3,63.8c0.3,1.7,4.2,2.4,5.2-0.3c1.3-3.2-2.6-6.6-4.8-7.3c0.6,1,2.6,4.3,2,6.4
	C88.5,63.4,87.8,63.9,86.3,63.8L86.3,63.8z"/>
<path class="st20" d="M88.1,55.1c3.3,1.2,5.6,0.6,6-0.9c0.4-1.3,0.3-3.3-1.9-3.4c2.5-2.8,6.9,0.3,5.9,4C97.1,58.2,92.4,60,88.1,55.1
	L88.1,55.1z"/>
<path class="st20" d="M87.9,54.8c-1-2.2-2.4-5.6,5.3-10.5c3.8-2.4,8.1-6.1,11-10.1s3.8-7.6,4.2-10.7c-9.3,16.9-16.2,13.6-20.8,20.3
	C84.7,47.9,85,52.5,87.9,54.8L87.9,54.8z"/>
<path class="st20" d="M105.3,3.3c0.3,1,3.1,4.7,0.9,11.4c-1.1,3.4-3.8,5.4-6.3,5.6c-2.4,0.2-4.8-0.5-5.8-2.1c-1.9-3-1.4-7.3,2.1-8
	s4.8,3.1,5,4c1.6-1,1.4-4.9,0.3-6.4c-1.1-1.5-3.1-1.4-4.9-1.4c-0.7-0.2-0.7-2.7-0.6-3c-1.6-0.1-3.4,0.6-3.3,3.2c0,0-1.5,0.2-2.5,0.1
	c-0.7,0.5-0.8,2.3-0.9,3c-0.3,0.1-1.3,0-2.5-0.5c-0.6,1.1-0.8,5.4,0.1,6.9c-0.1,0.3-1.1,0.4-2,0.6c-0.4,5.6,2,6.6,4.1,6.6
	c-0.1,0.3-2.7,6.3,7.9,5.9C113.5,28.3,110.4,5.3,105.3,3.3L105.3,3.3z"/>
<path class="st20" d="M52.1,0.2C45.3,7,36.3,16.3,33.7,21.4c-1.3,2.5-1.4,4.6-0.5,5.9c0.8,1.2,2.2,2.5,3,3.9c1.7,2.9,1.1,4.2,0.8,5.2
	c-0.5-1-0.5-2.4-2.4-3.7c-3.4-2.4-7-5.7-4.8-10.3c2.1-4.3,8.8-11.2,20-22.2"/>
<path class="st20" d="M10,39.4c-0.2-0.3-0.3-0.7-0.3-1c-0.2,0-0.4-0.1-0.6-0.2c-0.8-0.5-1.3-1.4-0.9-2c0.4-0.6,1.3-0.7,2.2-0.3
	c0.6,0.3,1,0.9,1,1.4c0.3,0.2,0.7,0.5,0.9,0.8c0.5,0.8,0.4,1.8-0.2,2.2C11.4,40.7,10.5,40.3,10,39.4L10,39.4z"/>
<path class="st20" d="M27,24.9c-4.1,9.3,1.8,13.8,5.7,16.3c2.8,1.7,1.8,4.9,0.4,5.6c-0.9,0.5-2.3,0.1-2.7-1c0.2-0.2,1-0.1,1.1-0.8
	c0.1-1.8-1.5-1.4-2-0.7C29,45.1,29,46.2,29.8,47c3.8,4.3,10.7-2.9,6.1-9.4c-1.8-2.5-4.9-3.1-6.8-5.7C28,30.4,27.4,28.3,27,24.9
	L27,24.9z"/>
<path class="st20" d="M47.6,7.8C43.5,10,40,15,40,19.7c0,1.8,0.1,3.5-0.7,4.3c-0.6,0.5-2.2,0.6-2.4-0.8c-2.1,1.1-0.2,6.3,4.5,4.2
	c0.8-0.4,1.3-1.2,1.6-1.9c1-1.9,0.2-4.6,1.2-9.1C44.6,14.1,45.5,11.1,47.6,7.8L47.6,7.8z"/>
<path class="st20" d="M57.8,0.2c-9.7,12-3.9,19.8-4,28.4c-0.1,11.8-11.5,13.7-13.7,6.8c-1.6-4.7,2-6.7,3.6-6.8c2.3-0.1,4.7,2,3.4,4
	c-1,1.6-3.8,1-3.9-0.7c-0.9,0.8-0.8,2.6,0.5,3.6c2.9,2.3,9.3-1.1,7.7-9.4c-1.8-9.5-2.5-17.8,4.1-25.9"/>
<path class="st20" d="M67.3,58.5c-5.6-4-3.8-8.1-7.7-12.6c-5-5.8-9.4,1.1-9.1,1.9c1.3-1.2,4.9-1.2,7.1,0.1c1.3,0.8,2.3,2.3,3.4,4.2
	C64,57.4,65.9,57.8,67.3,58.5L67.3,58.5z"/>
<path class="st20" d="M77.7,63.8c-0.3,1.7-4.1,2.5-5.3-0.3c-1.3-3.2,2.5-6.6,4.7-7.4c-0.6,1-2.6,4.3-1.9,6.5
	C75.5,63.4,76.2,63.9,77.7,63.8L77.7,63.8z"/>
<path class="st20" d="M75.8,55.1c-4.2,5-9,3.3-10-0.1c-1.1-3.7,3.3-6.8,5.8-4c-2.2,0.1-2.3,2.1-1.8,3.4
	C70.2,55.8,72.5,56.3,75.8,55.1L75.8,55.1z"/>
<path class="st20" d="M75.9,54.8c2.9-2.4,3.1-7,0.2-11c-4.8-6.6-11.6-3.2-21.1-20c0.4,3,1.4,6.6,4.4,10.6s7.3,7.6,11.1,9.9
	C78.2,49.2,76.9,52.6,75.9,54.8L75.9,54.8z"/>
<path class="st20" d="M57.8,3.5c-5,2-7.8,25.1,8.8,25.4c10.6,0.2,7.9-5.7,7.8-6c2.1,0,4.4-1,4-6.6c-0.9-0.2-1.9-0.3-2-0.5
	c0.9-1.5,0.7-5.7,0-6.9c-1.2,0.5-2.2,0.6-2.5,0.5c-0.1-0.6-0.2-2.5-0.9-2.9c-1,0.2-2.5,0-2.5,0c0.1-2.6-1.8-3.2-3.3-3.1
	c0.2,0.4,0.2,2.8-0.5,3.1c-1.8,0.1-3.8,0-4.9,1.5s-1.2,5.4,0.4,6.4c0.2-0.8,1.4-4.7,5-4c3.5,0.7,4.1,5,2.3,7.9
	c-1,1.6-3.4,2.4-5.8,2.2c-2.6-0.2-5.2-2.1-6.4-5.5C54.7,8.2,57.5,4.6,57.8,3.5L57.8,3.5z"/>
<path class="st20" d="M21.7,26.5l0.2-0.2c0,0-8.4,3.7-10.3-2.6c-0.8,3.6,1.2,6.2,2.8,7.5c-0.2,0.4-1,0.5-1.7,0.5
	c-0.2-0.6-0.8-1.1-1.5-1.1c-0.9,0-1.6,0.7-1.6,1.6s0.7,1.6,1.6,1.6c0.7,0,1.2-0.4,1.5-1c1.1,0,2.6-0.3,3.2-0.5
	c-0.2,0.4-0.6,2.2-0.5,3.5c-0.6,0.2-1,0.8-1,1.5c0,0.9,0.7,1.6,1.6,1.5c0.9,0,1.6-0.7,1.6-1.6c0-0.7-0.5-1.3-1.1-1.5
	c0-0.7,0.1-1.4,0.5-1.7c1.3,1.5,4,3.6,7.6,2.7C18.4,35,21.4,27.3,21.7,26.5L21.7,26.5z"/>
<path class="st20" d="M45.6,0.2c-9.6,9.9-15.7,16-19.7,18.1c-4.5,2.3-7.9-1.3-10.3-4.6c-1.4-1.9-2.8-1.9-3.7-2.4
	c1-0.3,2.3-0.9,5.2,0.7c1.4,0.8,2.7,2.2,4,3s3.4,0.7,5.9-0.6c3.9-2.2,10.5-8.3,16.3-14.2"/>
<path class="st20" d="M23.4,21c-9.3,4.3-13.8-1.6-16.3-5.5c-1.8-2.7-5-1.8-5.6-0.3c-0.4,1-0.1,2.3,1,2.7c0.2-0.2,0.1-1,0.8-1.1
	c1.8-0.1,1.5,1.5,0.7,2s-1.9,0.5-2.7-0.2c-4.3-3.8,2.8-10.7,9.3-6.3c2.5,1.7,3.1,4.9,5.8,6.7C17.9,20.1,20,20.6,23.4,21L23.4,21z"/>
<path class="st20" d="M40.2,0.2c-3.2,2.2-6.3,3.1-8.6,3.6c-4.5,1-7.3,0.3-9.1,1.3c-0.6,0.3-1.5,0.8-1.8,1.7c-2,4.7,3.3,6.6,4.3,4.4
	c-1.5-0.2-1.4-1.8-0.9-2.4C24.9,7.9,26.6,8,28.4,8C33.1,7.9,38,4.3,40.2,0.2L40.2,0.2z"/>
<path class="st21" d="M-31.1,8.8"/>
<polygon class="st22" points="-31.4,7.2 -31.1,8.8 -30.4,10.3 -30.4,7.2 "/>
<polygon class="st22" points="195.1,7.2 194.7,8.8 194.1,10.3 194.1,7.2 "/>
</svg>
